  0
SECTION
  2
HEADER
  9
$ACADVER
  1
AC1009
  9
$INSBASE
 10
0.0
 20
0.0
 30
0.0
  9
$EXTMIN
 10
0.0
 20
0.0
 30
0.0
  9
$EXTMAX
 10
0.0
 20
0.0
 30
0.0
  0
ENDSEC
  0
SECTION
  2
TABLES
  0
TABLE
  2
VPORT
 70
0
  0
ENDTAB
  0
TABLE
  2
LTYPE
 70
1
  0
LTYPE
  2
CONTINUOUS
 70
0
  3
Solid line
 72
65
 73
0
 40
0.0
  0
ENDTAB
  0
TABLE
  2
LAYER
 70
1
  0
LAYER
  2
0
 70
64
 62
7
  6
continuous
  0
ENDTAB
  0
TABLE
  2
STYLE
 70
1
  0
STYLE
  2
STANDARD
 70
0
 40
0
 41
1.0
 50
0.0
 71
0
 42
1
 3
ARIAL.TTF
 4

  0
ENDTAB
  0
TABLE
  2
VIEW
 70
0
  0
ENDTAB
  0
ENDSEC
  0
SECTION
  2
BLOCKS
  0
BLOCK
  8
0
  2
SKETCH
 70
0
 10
0.0
 20
0.0
 30
0.0
  3
SKETCH
  0
CIRCLE
  8
0
 62
7
 10
0.0
 20
54.0
 30
0.0
 40
1.5
  0
CIRCLE
  8
0
 62
7
 10
-82.0
 20
31.5
 30
0.0
 40
1.5
  0
CIRCLE
  8
0
 62
7
 10
-82.0
 20
0.0
 30
0.0
 40
1.5
  0
CIRCLE
  8
0
 62
7
 10
0.0
 20
-21.5
 30
0.0
 40
1.5
  0
CIRCLE
  8
0
 62
7
 10
82.0
 20
0.0
 30
0.0
 40
1.5
  0
CIRCLE
  8
0
 62
7
 10
82.0
 20
31.5
 30
0.0
 40
1.5
  0
POLYLINE
  8
0
 62
7
 70
1
 66
1
 10
0.0
 20
0.0
 30
0.0
  0
VERTEX
  8
0
 10
-28.9075855914
 20
16.25
 30
0.0
 42
0.371615886701
  0
VERTEX
  8
0
 10
-27.9184581165
 20
17.1029411469
 30
0.0
 42
-0.862316498274
  0
VERTEX
  8
0
 10
-13.0815418929
 20
17.1029412099
 30
0.0
 42
0.371615987368
  0
VERTEX
  8
0
 10
-12.0924141185
 20
16.25
 30
0.0
  0
VERTEX
  8
0
 10
-1.50000072227
 20
16.25
 30
0.0
 42
0.414213566277
  0
VERTEX
  8
0
 10
-0.50000070894
 20
17.25
 30
0.0
  0
VERTEX
  8
0
 10
-0.50000070894
 20
27.5
 30
0.0
 42
-0.414213562373
  0
VERTEX
  8
0
 10
0.49999929106
 20
28.5
 30
0.0
  0
VERTEX
  8
0
 10
48.4999992911
 20
28.5
 30
0.0
 42
-0.414213562373
  0
VERTEX
  8
0
 10
49.4999992911
 20
27.5
 30
0.0
  0
VERTEX
  8
0
 10
49.4999992911
 20
17.25
 30
0.0
 42
0.41421354675
  0
VERTEX
  8
0
 10
50.4999992377
 20
16.25
 30
0.0
  0
VERTEX
  8
0
 10
77.5
 20
16.25
 30
0.0
 42
0.414213616572
  0
VERTEX
  8
0
 10
78.5
 20
17.250000185
 30
0.0
  0
VERTEX
  8
0
 10
78.5
 20
23.014719042
 30
0.0
 42
-0.3970777696
  0
VERTEX
  8
0
 10
82.2647058518
 20
27.0077922118
 30
0.0
 42
0.942809053974
  0
VERTEX
  8
0
 10
82.264705795
 20
35.9922077915
 30
0.0
 42
-0.397077797708
  0
VERTEX
  8
0
 10
78.5
 20
39.9852814033
 30
0.0
  0
VERTEX
  8
0
 10
78.5
 20
60.0
 30
0.0
 42
0.414213562373
  0
VERTEX
  8
0
 10
75.5
 20
63.0
 30
0.0
  0
VERTEX
  8
0
 10
-1.49998790828
 20
63.0
 30
0.0
 42
0.414215941151
  0
VERTEX
  8
0
 10
-4.49999999997
 20
59.9999877268
 30
0.0
  0
VERTEX
  8
0
 10
-4.5
 20
47.499996587
 30
0.0
 42
-0.414213073337
  0
VERTEX
  8
0
 10
-7.49999840399
 20
44.5
 30
0.0
  0
VERTEX
  8
0
 10
-75.5
 20
44.5
 30
0.0
 42
0.414213562373
  0
VERTEX
  8
0
 10
-78.5
 20
41.5
 30
0.0
  0
VERTEX
  8
0
 10
-78.5
 20
39.9852808512
 30
0.0
 42
-0.397077765709
  0
VERTEX
  8
0
 10
-82.2647059047
 20
35.992207785
 30
0.0
 42
0.942809016352
  0
VERTEX
  8
0
 10
-82.2647061
 20
27.0077922265
 30
0.0
 42
-0.397077869862
  0
VERTEX
  8
0
 10
-78.5
 20
23.0147179049
 30
0.0
  0
VERTEX
  8
0
 10
-78.5
 20
17.2499998427
 30
0.0
 42
0.414213516306
  0
VERTEX
  8
0
 10
-77.5
 20
16.25
 30
0.0
  0
SEQEND
  8
0
  0
POLYLINE
  8
0
 62
7
 70
1
 66
1
 10
0.0
 20
0.0
 30
0.0
  0
VERTEX
  8
0
 10
50.5000005944
 20
15.75
 30
0.0
  0
VERTEX
  8
0
 10
77.5
 20
15.75
 30
0.0
 42
-0.414213494984
  0
VERTEX
  8
0
 10
78.5
 20
14.7500002301
 30
0.0
  0
VERTEX
  8
0
 10
78.5
 20
8.4852809472
 30
0.0
 42
0.397077870812
  0
VERTEX
  8
0
 10
82.264707259
 20
4.49220770524
 30
0.0
 42
-0.942808898976
  0
VERTEX
  8
0
 10
82.2647058623
 20
-4.49220778754
 30
0.0
 42
0.397077974638
  0
VERTEX
  8
0
 10
78.5
 20
-8.48528378127
 30
0.0
  0
VERTEX
  8
0
 10
78.5
 20
-9.0
 30
0.0
 42
-0.414213562373
  0
VERTEX
  8
0
 10
75.5
 20
-12.0
 30
0.0
  0
VERTEX
  8
0
 10
8.50000000018
 20
-12.0
 30
0.0
 42
0.414213555767
  0
VERTEX
  8
0
 10
4.5
 20
-15.9999999096
 30
0.0
  0
VERTEX
  8
0
 10
4.5
 20
-21.5000001619
 30
0.0
 42
-0.999999993019
  0
VERTEX
  8
0
 10
-4.5
 20
-21.4999999009
 30
0.0
  0
VERTEX
  8
0
 10
-4.5
 20
-16.0000001825
 30
0.0
 42
0.414213561793
  0
VERTEX
  8
0
 10
-8.49999980962
 20
-12.0
 30
0.0
  0
VERTEX
  8
0
 10
-75.5
 20
-12.0
 30
0.0
 42
-0.414213437535
  0
VERTEX
  8
0
 10
-78.5
 20
-9.00000127867
 30
0.0
  0
VERTEX
  8
0
 10
-78.5
 20
-8.48528041379
 30
0.0
 42
0.397077730585
  0
VERTEX
  8
0
 10
-82.2647058568
 20
-4.49220778787
 30
0.0
 42
-0.942809044741
  0
VERTEX
  8
0
 10
-82.2647058779
 20
4.49220778663
 30
0.0
 42
0.397077819318
  0
VERTEX
  8
0
 10
-78.5
 20
8.48528161903
 30
0.0
  0
VERTEX
  8
0
 10
-78.5
 20
14.7500001789
 30
0.0
 42
-0.414213509981
  0
VERTEX
  8
0
 10
-77.5
 20
15.75
 30
0.0
  0
VERTEX
  8
0
 10
-28.9075861151
 20
15.75
 30
0.0
 42
-0.371616040749
  0
VERTEX
  8
0
 10
-27.9184581139
 20
14.8970588355
 30
0.0
 42
0.862316504274
  0
VERTEX
  8
0
 10
-13.0815418751
 20
14.8970589097
 30
0.0
 42
-0.371615877237
  0
VERTEX
  8
0
 10
-12.0924143846
 20
15.75
 30
0.0
  0
VERTEX
  8
0
 10
-1.50000086469
 20
15.75
 30
0.0
 42
-0.4142136054
  0
VERTEX
  8
0
 10
-0.500000717785
 20
14.75
 30
0.0
  0
VERTEX
  8
0
 10
-0.500000717785
 20
4.5
 30
0.0
 42
0.414213562373
  0
VERTEX
  8
0
 10
0.499999282215
 20
3.5
 30
0.0
  0
VERTEX
  8
0
 10
48.5000007089
 20
3.5
 30
0.0
 42
0.414213562373
  0
VERTEX
  8
0
 10
49.5000007089
 20
4.5
 30
0.0
  0
VERTEX
  8
0
 10
49.5000007089
 20
14.75
 30
0.0
 42
-0.414213528822
  0
SEQEND
  8
0
  0
ENDBLK
  0
ENDSEC
  0
SECTION
  2
ENTITIES
  0
INSERT
  2
SKETCH
  8
0
 62
7
 10
0.0
 20
0.0
 30
0.0
  0
ENDSEC
  0
EOF
