999
dxfrw 0.6.3
  0
SECTION
  2
HEADER
  9
$ACADVER
  1
AC1021
  9
$DWGCODEPAGE
  3
ANSI_1252
  9
$INSBASE
 10
0
 20
0
 30
0
  9
$EXTMIN
 10
-28.125
 20
-31.25
 30
0
  9
$EXTMAX
 10
266.25
 20
175.0000000000005
 30
0
  9
$LIMMIN
 10
0
 20
0
  9
$LIMMAX
 10
420
 20
297
  9
$ORTHOMODE
 70
    0
  9
$REGENMODE
 70
    1
  9
$FILLMODE
 70
    1
  9
$QTEXTMODE
 70
    0
  9
$MIRRTEXT
 70
    0
  9
$LTSCALE
 40
1
  9
$ATTMODE
 70
    0
  9
$TEXTSIZE
 40
2.5
  9
$TRACEWID
 40
15.68
  9
$TEXTSTYLE
  7
STANDARD
  9
$CLAYER
  8
Artwork
  9
$CELTYPE
  6
BYLAYER
  9
$CECOLOR
 62
  256
  9
$CELTSCALE
 40
1
  9
$DISPSILH
 70
    0
  9
$DIMSCALE
 40
1
  9
$DIMASZ
 40
2.5
  9
$DIMEXO
 40
0.625
  9
$DIMDLI
 40
3.75
  9
$DIMRND
 40
0
  9
$DIMDLE
 40
0
  9
$DIMEXE
 40
1.25
  9
$DIMTP
 40
0
  9
$DIMTM
 40
0
  9
$DIMTXT
 40
2.5
  9
$DIMCEN
 40
2.5
  9
$DIMTSZ
 40
0
  9
$DIMTOL
 70
    0
  9
$DIMLIM
 70
    0
  9
$DIMTIH
 70
    0
  9
$DIMTOH
 70
    0
  9
$DIMSE1
 70
    0
  9
$DIMSE2
 70
    0
  9
$DIMTAD
 70
    1
  9
$DIMZIN
 70
    8
  9
$DIMBLK
  1

  9
$DIMASO
 70
    1
  9
$DIMSHO
 70
    1
  9
$DIMPOST
  1

  9
$DIMAPOST
  1

  9
$DIMALT
 70
    0
  9
$DIMALTD
 70
    3
  9
$DIMALTF
 40
0.03937
  9
$DIMLFAC
 40
1
  9
$DIMTOFL
 70
    1
  9
$DIMTVP
 40
0
  9
$DIMTIX
 70
    0
  9
$DIMSOXD
 70
    0
  9
$DIMSAH
 70
    0
  9
$DIMBLK1
  1

  9
$DIMBLK2
  1

  9
$DIMSTYLE
  2
STANDARD
  9
$DIMCLRD
 70
    0
  9
$DIMCLRE
 70
    0
  9
$DIMCLRT
 70
    0
  9
$DIMTFAC
 40
1
  9
$DIMGAP
 40
0.625
  9
$DIMJUST
 70
    0
  9
$DIMSD1
 70
    0
  9
$DIMSD2
 70
    0
  9
$DIMTOLJ
 70
    0
  9
$DIMTZIN
 70
    8
  9
$DIMALTZ
 70
    0
  9
$DIMALTTZ
 70
    0
  9
$DIMUPT
 70
    0
  9
$DIMDEC
 70
    2
  9
$DIMTDEC
 70
    2
  9
$DIMALTU
 70
    2
  9
$DIMALTTD
 70
    3
  9
$DIMTXSTY
  7
standard
  9
$DIMAUNIT
 70
    0
  9
$DIMADEC
 70
    0
  9
$DIMALTRND
 40
0
  9
$DIMAZIN
 70
    0
  9
$DIMDSEP
 70
    0
  9
$DIMATFIT
 70
    3
  9
$DIMFRAC
 70
    0
  9
$DIMLDRBLK
  1
STANDARD
  9
$DIMLUNIT
 70
    2
  9
$DIMLWD
 70
   -2
  9
$DIMLWE
 70
   -2
  9
$DIMTMOVE
 70
    0
  9
$DIMFXL
 40
1
  9
$DIMFXLON
 70
    0
  9
$DIMJOGANG
 40
0.7854
  9
$DIMTFILL
 70
    0
  9
$DIMTFILLCLR
 70
    0
  9
$DIMARCSYM
 70
    0
  9
$DIMLTYPE
  6

  9
$DIMLTEX1
  6

  9
$DIMLTEX2
  6

  9
$LUNITS
 70
    2
  9
$LUPREC
 70
    4
  9
$SKETCHINC
 40
1
  9
$FILLETRAD
 40
0
  9
$AUNITS
 70
    0
  9
$AUPREC
 70
    2
  9
$MENU
  1
.
  9
$ELEVATION
 40
0
  9
$PELEVATION
 40
0
  9
$THICKNESS
 40
0
  9
$LIMCHECK
 70
    0
  9
$CHAMFERA
 40
0
  9
$CHAMFERB
 40
0
  9
$CHAMFERC
 40
0
  9
$CHAMFERD
 40
0
  9
$SKPOLY
 70
    0
  9
$USRTIMER
 70
    1
  9
$ANGBASE
 50
0
  9
$ANGDIR
 70
    0
  9
$PDMODE
 70
   34
  9
$PDSIZE
 40
0
  9
$PLINEWID
 40
0
  9
$SPLFRAME
 70
    0
  9
$SPLINETYPE
 70
    2
  9
$SPLINESEGS
 70
    8
  9
$HANDSEED
  5
20000
  9
$SURFTAB1
 70
    6
  9
$SURFTAB2
 70
    6
  9
$SURFTYPE
 70
    6
  9
$SURFU
 70
    6
  9
$SURFV
 70
    6
  9
$UCSBASE
  2

  9
$UCSNAME
  2

  9
$UCSORG
 10
0
 20
0
 30
0
  9
$UCSXDIR
 10
1
 20
0
 30
0
  9
$UCSYDIR
 10
0
 20
1
 30
0
  9
$UCSORTHOREF
  2

  9
$UCSORTHOVIEW
 70
    0
  9
$UCSORGTOP
 10
0
 20
0
 30
0
  9
$UCSORGBOTTOM
 10
0
 20
0
 30
0
  9
$UCSORGLEFT
 10
0
 20
0
 30
0
  9
$UCSORGRIGHT
 10
0
 20
0
 30
0
  9
$UCSORGFRONT
 10
0
 20
0
 30
0
  9
$UCSORGBACK
 10
0
 20
0
 30
0
  9
$PUCSBASE
  2

  9
$PUCSNAME
  2

  9
$PUCSORG
 10
0
 20
0
 30
0
  9
$PUCSXDIR
 10
1
 20
0
 30
0
  9
$PUCSYDIR
 10
0
 20
1
 30
0
  9
$PUCSORTHOREF
  2

  9
$PUCSORTHOVIEW
 70
    0
  9
$PUCSORGTOP
 10
0
 20
0
 30
0
  9
$PUCSORGBOTTOM
 10
0
 20
0
 30
0
  9
$PUCSORGLEFT
 10
0
 20
0
 30
0
  9
$PUCSORGRIGHT
 10
0
 20
0
 30
0
  9
$PUCSORGFRONT
 10
0
 20
0
 30
0
  9
$PUCSORGBACK
 10
0
 20
0
 30
0
  9
$USERI1
 70
    0
  9
$USERI2
 70
    0
  9
$USERI3
 70
    0
  9
$USERI4
 70
    0
  9
$USERI5
 70
    0
  9
$USERR1
 40
0
  9
$USERR2
 40
0
  9
$USERR3
 40
0
  9
$USERR4
 40
0
  9
$USERR5
 40
0
  9
$WORLDVIEW
 70
    1
  9
$SHADEDGE
 70
    3
  9
$SHADEDIF
 70
   70
  9
$TILEMODE
 70
    1
  9
$MAXACTVP
 70
   64
  9
$PINSBASE
 10
41.7045454545457
 20
40.53030303030296
 30
0
  9
$PLIMCHECK
 70
    0
  9
$PEXTMIN
 10
0
 20
0
 30
0
  9
$PEXTMAX
 10
0
 20
0
 30
0
  9
$GRIDMODE
 70
    1
  9
$SNAPSTYLE
 70
    0
  9
$GRIDUNIT
 10
0
 20
0
  9
$PLIMMIN
 10
0
 20
0
  9
$PLIMMAX
 10
297
 20
210
  9
$UNITMODE
 70
    0
  9
$VISRETAIN
 70
    1
  9
$PLINEGEN
 70
    0
  9
$PSLTSCALE
 70
    1
  9
$TREEDEPTH
 70
 3020
  9
$CMLSTYLE
  2
Standard
  9
$CMLJUST
 70
    0
  9
$CMLSCALE
 40
20
  9
$PROXYGRAPHICS
 70
    1
  9
$MEASUREMENT
 70
    1
  9
$CELWEIGHT
370
   -1
  9
$ENDCAPS
280
    0
  9
$JOINSTYLE
280
    0
  9
$LWDISPLAY
290
    0
  9
$INSUNITS
 70
    4
  9
$HYPERLINKBASE
  1

  9
$STYLESHEET
  1

  9
$XEDIT
290
    1
  9
$CEPSNTYPE
380
    0
  9
$PSTYLEMODE
290
    1
  9
$EXTNAMES
290
    1
  9
$PSVPSCALE
 40
0.8969736110363633
  9
$OLESTARTUP
290
    0
  9
$SORTENTS
280
  127
  9
$INDEXCTL
280
    0
  9
$HIDETEXT
280
    1
  9
$XCLIPFRAME
290
    0
  9
$HALOGAP
280
    0
  9
$OBSCOLOR
 70
  257
  9
$OBSLTYPE
280
    0
  9
$INTERSECTIONDISPLAY
280
    0
  9
$INTERSECTIONCOLOR
 70
  257
  9
$DIMASSOC
280
    1
  9
$PROJECTNAME
  1

  9
$CAMERADISPLAY
290
    0
  9
$LENSLENGTH
 40
50
  9
$CAMERAHEIGHT
 40
0
  9
$STEPSPERSEC
 40
2
  9
$STEPSIZE
 40
50
  9
$3DDWFPREC
 40
2
  9
$PSOLWIDTH
 40
5
  9
$PSOLHEIGHT
 40
80
  9
$LOFTANG1
 40
1.570796326794897
  9
$LOFTANG2
 40
1.570796326794897
  9
$LOFTMAG1
 40
0
  9
$LOFTMAG2
 40
0
  9
$LOFTPARAM
 70
    7
  9
$LOFTNORMALS
280
    1
  9
$LATITUDE
 40
1
  9
$LONGITUDE
 40
1
  9
$NORTHDIRECTION
 40
0
  9
$TIMEZONE
 70
-8000
  9
$LIGHTGLYPHDISPLAY
280
    1
  9
$TILEMODELIGHTSYNCH
280
    1
  9
$SOLIDHIST
280
    1
  9
$SHOWHIST
280
    1
  9
$DWFFRAME
280
    2
  9
$DGNFRAME
280
    0
  9
$REALWORLDSCALE
290
    1
  9
$INTERFERECOLOR
 62
    1
  9
$CSHADOW
280
    0
  9
$SHADOWPLANELOCATION
 40
0
  0
ENDSEC
  0
SECTION
  2
CLASSES
  0
ENDSEC
  0
SECTION
  2
TABLES
  0
TABLE
  2
VPORT
  5
8
330
0
100
AcDbSymbolTable
 70
    1
  0
VPORT
  5
31
330
2
100
AcDbSymbolTableRecord
100
AcDbViewportTableRecord
  2
*ACTIVE
 70
    0
 10
0
 20
0
 11
1
 21
1
 12
255.5723494690693
 22
116.4072639819717
 13
0
 23
0
 14
10
 24
10
 15
10
 25
10
 16
0
 26
0
 36
1
 17
0
 27
0
 37
0
 40
352.0413450527447
 41
2.450800915331808
 42
50
 43
0
 44
0
 50
0
 51
0
 71
    0
 72
  100
 73
    1
 74
    3
 75
    0
 76
    1
 77
    0
 78
    0
281
    0
 65
    1
110
0
120
0
130
0
111
1
121
0
131
0
112
0
122
1
132
0
 79
    0
146
0
348
10020
 60
    7
 61
    5
292
1
282
    1
141
0
142
0
 63
  250
421
3358443
  0
ENDTAB
  0
TABLE
  2
LTYPE
  5
5
330
0
100
AcDbSymbolTable
 70
    4
  0
LTYPE
  5
14
330
5
100
AcDbSymbolTableRecord
100
AcDbLinetypeTableRecord
  2
ByBlock
 70
    0
  3

 72
   65
 73
    0
 40
0
  0
LTYPE
  5
15
330
5
100
AcDbSymbolTableRecord
100
AcDbLinetypeTableRecord
  2
ByLayer
 70
    0
  3

 72
   65
 73
    0
 40
0
  0
LTYPE
  5
16
330
5
100
AcDbSymbolTableRecord
100
AcDbLinetypeTableRecord
  2
Continuous
 70
    0
  3
Solid line
 72
   65
 73
    0
 40
0
  0
LTYPE
  5
32
330
5
100
AcDbSymbolTableRecord
100
AcDbLinetypeTableRecord
  2
DOT
 70
    0
  3
Dot . . . . . . . . . . . . . . . . . . . . . .
 72
   65
 73
    2
 40
6.35
 49
0
 74
    0
 49
-6.35
 74
    0
  0
LTYPE
  5
33
330
5
100
AcDbSymbolTableRecord
100
AcDbLinetypeTableRecord
  2
DOTTINY
 70
    0
  3
Dot (.15x) .....................................
 72
   65
 73
    2
 40
0.9525
 49
0
 74
    0
 49
-0.9525
 74
    0
  0
LTYPE
  5
34
330
5
100
AcDbSymbolTableRecord
100
AcDbLinetypeTableRecord
  2
DOT2
 70
    0
  3
Dot (.5x) .....................................
 72
   65
 73
    2
 40
3.175
 49
0
 74
    0
 49
-3.175
 74
    0
  0
LTYPE
  5
35
330
5
100
AcDbSymbolTableRecord
100
AcDbLinetypeTableRecord
  2
DOTX2
 70
    0
  3
Dot (2x) .  .  .  .  .  .  .  .  .  .  .  .  .
 72
   65
 73
    2
 40
12.7
 49
0
 74
    0
 49
-12.7
 74
    0
  0
LTYPE
  5
36
330
5
100
AcDbSymbolTableRecord
100
AcDbLinetypeTableRecord
  2
DASHED
 70
    0
  3
Dashed _ _ _ _ _ _ _ _ _ _ _ _ _ _ _ _ _
 72
   65
 73
    2
 40
19.05
 49
12.7
 74
    0
 49
-6.35
 74
    0
  0
LTYPE
  5
37
330
5
100
AcDbSymbolTableRecord
100
AcDbLinetypeTableRecord
  2
DASHEDTINY
 70
    0
  3
Dashed (.15x) _ _ _ _ _ _ _ _ _ _ _ _ _ _ _ _ _
 72
   65
 73
    2
 40
2.8575
 49
1.905
 74
    0
 49
-0.9525
 74
    0
  0
LTYPE
  5
38
330
5
100
AcDbSymbolTableRecord
100
AcDbLinetypeTableRecord
  2
DASHED2
 70
    0
  3
Dashed (.5x) _ _ _ _ _ _ _ _ _ _ _ _ _ _ _ _ _
 72
   65
 73
    2
 40
9.524999999999999
 49
6.35
 74
    0
 49
-3.175
 74
    0
  0
LTYPE
  5
39
330
5
100
AcDbSymbolTableRecord
100
AcDbLinetypeTableRecord
  2
DASHEDX2
 70
    0
  3
Dashed (2x) ____  ____  ____  ____  ____  ___
 72
   65
 73
    2
 40
38.09999999999999
 49
25.4
 74
    0
 49
-12.7
 74
    0
  0
LTYPE
  5
3A
330
5
100
AcDbSymbolTableRecord
100
AcDbLinetypeTableRecord
  2
DASHDOT
 70
    0
  3
Dash dot __ . __ . __ . __ . __ . __ . __ . __
 72
   65
 73
    4
 40
25.4
 49
12.7
 74
    0
 49
-6.35
 74
    0
 49
0
 74
    0
 49
-6.35
 74
    0
  0
LTYPE
  5
3B
330
5
100
AcDbSymbolTableRecord
100
AcDbLinetypeTableRecord
  2
DASHDOTTINY
 70
    0
  3
Dash dot (.15x) _._._._._._._._._._._._._._._.
 72
   65
 73
    4
 40
3.81
 49
1.905
 74
    0
 49
-0.9525
 74
    0
 49
0
 74
    0
 49
-0.9525
 74
    0
  0
LTYPE
  5
3C
330
5
100
AcDbSymbolTableRecord
100
AcDbLinetypeTableRecord
  2
DASHDOT2
 70
    0
  3
Dash dot (.5x) _._._._._._._._._._._._._._._.
 72
   65
 73
    4
 40
12.7
 49
6.35
 74
    0
 49
-3.175
 74
    0
 49
0
 74
    0
 49
-3.175
 74
    0
  0
LTYPE
  5
3D
330
5
100
AcDbSymbolTableRecord
100
AcDbLinetypeTableRecord
  2
DASHDOTX2
 70
    0
  3
Dash dot (2x) ____  .  ____  .  ____  .  ___
 72
   65
 73
    4
 40
50.8
 49
25.4
 74
    0
 49
-12.7
 74
    0
 49
0
 74
    0
 49
-12.7
 74
    0
  0
LTYPE
  5
3E
330
5
100
AcDbSymbolTableRecord
100
AcDbLinetypeTableRecord
  2
DIVIDE
 70
    0
  3
Divide ____ . . ____ . . ____ . . ____ . . ____
 72
   65
 73
    6
 40
31.75
 49
12.7
 74
    0
 49
-6.35
 74
    0
 49
0
 74
    0
 49
-6.35
 74
    0
 49
0
 74
    0
 49
-6.35
 74
    0
  0
LTYPE
  5
3F
330
5
100
AcDbSymbolTableRecord
100
AcDbLinetypeTableRecord
  2
DIVIDETINY
 70
    0
  3
Divide (.15x) __..__..__..__..__..__..__..__.._
 72
   65
 73
    6
 40
4.7625
 49
1.905
 74
    0
 49
-0.9525
 74
    0
 49
0
 74
    0
 49
-0.9525
 74
    0
 49
0
 74
    0
 49
-0.9525
 74
    0
  0
LTYPE
  5
40
330
5
100
AcDbSymbolTableRecord
100
AcDbLinetypeTableRecord
  2
DIVIDE2
 70
    0
  3
Divide (.5x) __..__..__..__..__..__..__..__.._
 72
   65
 73
    6
 40
15.875
 49
6.35
 74
    0
 49
-3.175
 74
    0
 49
0
 74
    0
 49
-3.175
 74
    0
 49
0
 74
    0
 49
-3.175
 74
    0
  0
LTYPE
  5
41
330
5
100
AcDbSymbolTableRecord
100
AcDbLinetypeTableRecord
  2
DIVIDEX2
 70
    0
  3
Divide (2x) ________  .  .  ________  .  .  _
 72
   65
 73
    6
 40
63.5
 49
25.4
 74
    0
 49
-12.7
 74
    0
 49
0
 74
    0
 49
-12.7
 74
    0
 49
0
 74
    0
 49
-12.7
 74
    0
  0
LTYPE
  5
42
330
5
100
AcDbSymbolTableRecord
100
AcDbLinetypeTableRecord
  2
BORDER
 70
    0
  3
Border __ __ . __ __ . __ __ . __ __ . __ __ .
 72
   65
 73
    6
 40
44.45
 49
12.7
 74
    0
 49
-6.35
 74
    0
 49
12.7
 74
    0
 49
-6.35
 74
    0
 49
0
 74
    0
 49
-6.35
 74
    0
  0
LTYPE
  5
43
330
5
100
AcDbSymbolTableRecord
100
AcDbLinetypeTableRecord
  2
BORDERTINY
 70
    0
  3
Border (.15x) __.__.__.__.__.__.__.__.__.__.__.
 72
   65
 73
    6
 40
6.6675
 49
1.905
 74
    0
 49
-0.9525
 74
    0
 49
1.905
 74
    0
 49
-0.9525
 74
    0
 49
0
 74
    0
 49
-0.9525
 74
    0
  0
LTYPE
  5
44
330
5
100
AcDbSymbolTableRecord
100
AcDbLinetypeTableRecord
  2
BORDER2
 70
    0
  3
Border (.5x) __.__.__.__.__.__.__.__.__.__.__.
 72
   65
 73
    6
 40
22.225
 49
6.35
 74
    0
 49
-3.175
 74
    0
 49
6.35
 74
    0
 49
-3.175
 74
    0
 49
0
 74
    0
 49
-3.175
 74
    0
  0
LTYPE
  5
45
330
5
100
AcDbSymbolTableRecord
100
AcDbLinetypeTableRecord
  2
BORDERX2
 70
    0
  3
Border (2x) ____  ____  .  ____  ____  .  ___
 72
   65
 73
    6
 40
88.89999999999999
 49
25.4
 74
    0
 49
-12.7
 74
    0
 49
25.4
 74
    0
 49
-12.7
 74
    0
 49
0
 74
    0
 49
-12.7
 74
    0
  0
LTYPE
  5
46
330
5
100
AcDbSymbolTableRecord
100
AcDbLinetypeTableRecord
  2
CENTER
 70
    0
  3
Center ____ _ ____ _ ____ _ ____ _ ____ _ ____
 72
   65
 73
    4
 40
50.8
 49
31.75
 74
    0
 49
-6.35
 74
    0
 49
6.35
 74
    0
 49
-6.35
 74
    0
  0
LTYPE
  5
47
330
5
100
AcDbSymbolTableRecord
100
AcDbLinetypeTableRecord
  2
CENTERTINY
 70
    0
  3
Center (.15x) ___ _ ___ _ ___ _ ___ _ ___ _ ___
 72
   65
 73
    4
 40
7.619999999999999
 49
4.7625
 74
    0
 49
-0.9525
 74
    0
 49
0.9525
 74
    0
 49
-0.9525
 74
    0
  0
LTYPE
  5
48
330
5
100
AcDbSymbolTableRecord
100
AcDbLinetypeTableRecord
  2
CENTER2
 70
    0
  3
Center (.5x) ___ _ ___ _ ___ _ ___ _ ___ _ ___
 72
   65
 73
    4
 40
28.575
 49
19.05
 74
    0
 49
-3.175
 74
    0
 49
3.175
 74
    0
 49
-3.175
 74
    0
  0
LTYPE
  5
49
330
5
100
AcDbSymbolTableRecord
100
AcDbLinetypeTableRecord
  2
CENTERX2
 70
    0
  3
Center (2x) ________  __  ________  __  _____
 72
   65
 73
    4
 40
101.6
 49
63.5
 74
    0
 49
-12.7
 74
    0
 49
12.7
 74
    0
 49
-12.7
 74
    0
  0
ENDTAB
  0
TABLE
  2
LAYER
  5
2
330
0
100
AcDbSymbolTable
 70
    1
  0
LAYER
  5
10
330
2
100
AcDbSymbolTableRecord
100
AcDbLayerTableRecord
  2
0
 70
    4
 62
    7
  6
CONTINUOUS
370
    0
390
F
  0
LAYER
  5
4A
330
2
100
AcDbSymbolTableRecord
100
AcDbLayerTableRecord
  2
Artwork
 70
    0
 62
  216
420
8388736
  6
CONTINUOUS
370
   70
390
F
  0
LAYER
  5
4B
330
2
100
AcDbSymbolTableRecord
100
AcDbLayerTableRecord
  2
Buttons
 70
    5
 62
   96
420
32768
  6
CONTINUOUS
370
    0
390
F
  0
LAYER
  5
4C
330
2
100
AcDbSymbolTableRecord
100
AcDbLayerTableRecord
  2
Buttons cut
 70
    4
 62
    7
  6
CONTINUOUS
370
    0
390
F
  0
LAYER
  5
4D
330
2
100
AcDbSymbolTableRecord
100
AcDbLayerTableRecord
  2
Chassis
 70
    5
 62
   96
420
32768
  6
CONTINUOUS
370
    0
390
F
  0
LAYER
  5
4E
330
2
100
AcDbSymbolTableRecord
100
AcDbLayerTableRecord
  2
Chassis cut
 70
    4
 62
    7
  6
CONTINUOUS
370
    0
390
F
  0
LAYER
  5
4F
330
2
100
AcDbSymbolTableRecord
100
AcDbLayerTableRecord
  2
DB25
 70
    5
 62
   96
420
32768
  6
CONTINUOUS
370
    0
390
F
  0
LAYER
  5
50
330
2
100
AcDbSymbolTableRecord
100
AcDbLayerTableRecord
  2
DB25 cut
 70
    4
 62
    7
  6
CONTINUOUS
370
    0
390
F
  0
LAYER
  5
51
330
2
100
AcDbSymbolTableRecord
100
AcDbLayerTableRecord
  2
Dimensions
 70
    5
 62
    1
  6
CONTINUOUS
370
    0
390
F
  0
LAYER
  5
52
330
2
100
AcDbSymbolTableRecord
100
AcDbLayerTableRecord
  2
LCD
 70
    5
 62
   96
420
32768
  6
CONTINUOUS
370
    0
390
F
  0
LAYER
  5
53
330
2
100
AcDbSymbolTableRecord
100
AcDbLayerTableRecord
  2
LCD cut
 70
    4
 62
    7
  6
CONTINUOUS
370
    0
390
F
  0
LAYER
  5
54
330
2
100
AcDbSymbolTableRecord
100
AcDbLayerTableRecord
  2
LEDs
 70
    5
 62
   96
420
32768
  6
CONTINUOUS
370
    0
390
F
  0
LAYER
  5
55
330
2
100
AcDbSymbolTableRecord
100
AcDbLayerTableRecord
  2
LEDs cut
 70
    4
 62
    7
  6
CONTINUOUS
370
    0
390
F
  0
LAYER
  5
56
330
2
100
AcDbSymbolTableRecord
100
AcDbLayerTableRecord
  2
PCB
 70
    5
 62
   96
420
32768
  6
CONTINUOUS
370
    0
390
F
  0
LAYER
  5
57
330
2
100
AcDbSymbolTableRecord
100
AcDbLayerTableRecord
  2
PCB cut
 70
    4
 62
    7
  6
CONTINUOUS
370
    0
390
F
  0
LAYER
  5
58
330
2
100
AcDbSymbolTableRecord
100
AcDbLayerTableRecord
  2
Power switch cut
 70
    4
 62
    7
  6
CONTINUOUS
370
    0
390
F
  0
ENDTAB
  0
TABLE
  2
STYLE
  5
3
330
0
100
AcDbSymbolTable
 70
    3
  0
STYLE
  5
59
330
2
100
AcDbSymbolTableRecord
100
AcDbTextStyleTableRecord
  2
STANDARD
 70
    0
 40
0
 41
1
 50
0
 71
    0
 42
1
  3
STANDARD
  4

  0
STYLE
  5
5A
330
2
100
AcDbSymbolTableRecord
100
AcDbTextStyleTableRecord
  2
standard
 70
    0
 40
0
 41
1
 50
0
 71
    0
 42
1
  3
standard
  4

  0
ENDTAB
  0
TABLE
  2
VIEW
  5
6
330
0
100
AcDbSymbolTable
 70
    0
  0
ENDTAB
  0
TABLE
  2
UCS
  5
7
330
0
100
AcDbSymbolTable
 70
    0
  0
ENDTAB
  0
TABLE
  2
APPID
  5
9
330
0
100
AcDbSymbolTable
 70
    1
  0
APPID
  5
12
330
9
100
AcDbSymbolTableRecord
100
AcDbRegAppTableRecord
  2
ACAD
 70
    0
  0
APPID
  5
5B
330
9
100
AcDbSymbolTableRecord
100
AcDbRegAppTableRecord
  2
LibreCad
 70
    0
  0
ENDTAB
  0
TABLE
  2
DIMSTYLE
  5
A
330
0
100
AcDbSymbolTable
 70
    1
100
AcDbDimStyleTable
 71
    1
  0
DIMSTYLE
105
5C
330
A
100
AcDbSymbolTableRecord
100
AcDbDimStyleTableRecord
  2
Standard
 70
    0
 40
1
 41
2.5
 42
0.625
 43
0.38
 44
1.25
 45
0
 46
0
 47
0
 48
0
 49
1
140
2.5
141
0.09
142
0
143
25.4
144
1
145
0
146
1
147
0.625
148
0
 71
    0
 72
    0
 73
    0
 74
    1
 75
    0
 76
    0
 77
    0
 78
    8
 79
    0
170
    0
171
    2
172
    0
173
    0
174
    0
175
    0
176
    0
177
    0
178
    0
179
    0
271
    2
272
    4
273
    2
274
    2
275
    0
276
    0
277
    2
278
    0
279
    0
280
    0
281
    0
282
    0
283
    1
284
    0
285
    0
286
    0
288
    0
289
    3
340
standard
341

371
   -2
372
   -2
  0
ENDTAB
  0
TABLE
  2
BLOCK_RECORD
  5
1
330
0
100
AcDbSymbolTable
 70
    2
  0
BLOCK_RECORD
  5
1F
330
1
100
AcDbSymbolTableRecord
100
AcDbBlockTableRecord
  2
*Model_Space
 70
    0
280
    1
281
    0
  0
BLOCK_RECORD
  5
1E
330
1
100
AcDbSymbolTableRecord
100
AcDbBlockTableRecord
  2
*Paper_Space
 70
    0
280
    1
281
    0
  0
BLOCK_RECORD
  5
5D
330
1
100
AcDbSymbolTableRecord
100
AcDbBlockTableRecord
  2
*D24
 70
    0
280
    1
281
    0
  0
BLOCK_RECORD
  5
60
330
1
100
AcDbSymbolTableRecord
100
AcDbBlockTableRecord
  2
*D29
 70
    0
280
    1
281
    0
  0
BLOCK_RECORD
  5
63
330
1
100
AcDbSymbolTableRecord
100
AcDbBlockTableRecord
  2
*D11
 70
    0
280
    1
281
    0
  0
BLOCK_RECORD
  5
66
330
1
100
AcDbSymbolTableRecord
100
AcDbBlockTableRecord
  2
*D32
 70
    0
280
    1
281
    0
  0
BLOCK_RECORD
  5
69
330
1
100
AcDbSymbolTableRecord
100
AcDbBlockTableRecord
  2
*D22
 70
    0
280
    1
281
    0
  0
BLOCK_RECORD
  5
6C
330
1
100
AcDbSymbolTableRecord
100
AcDbBlockTableRecord
  2
*D3
 70
    0
280
    1
281
    0
  0
BLOCK_RECORD
  5
6F
330
1
100
AcDbSymbolTableRecord
100
AcDbBlockTableRecord
  2
*D21
 70
    0
280
    1
281
    0
  0
BLOCK_RECORD
  5
72
330
1
100
AcDbSymbolTableRecord
100
AcDbBlockTableRecord
  2
*D15
 70
    0
280
    1
281
    0
  0
BLOCK_RECORD
  5
75
330
1
100
AcDbSymbolTableRecord
100
AcDbBlockTableRecord
  2
*D48
 70
    0
280
    1
281
    0
  0
BLOCK_RECORD
  5
78
330
1
100
AcDbSymbolTableRecord
100
AcDbBlockTableRecord
  2
*D9
 70
    0
280
    1
281
    0
  0
BLOCK_RECORD
  5
7B
330
1
100
AcDbSymbolTableRecord
100
AcDbBlockTableRecord
  2
*D4
 70
    0
280
    1
281
    0
  0
BLOCK_RECORD
  5
7E
330
1
100
AcDbSymbolTableRecord
100
AcDbBlockTableRecord
  2
*D43
 70
    0
280
    1
281
    0
  0
BLOCK_RECORD
  5
81
330
1
100
AcDbSymbolTableRecord
100
AcDbBlockTableRecord
  2
*D33
 70
    0
280
    1
281
    0
  0
BLOCK_RECORD
  5
84
330
1
100
AcDbSymbolTableRecord
100
AcDbBlockTableRecord
  2
*D2
 70
    0
280
    1
281
    0
  0
BLOCK_RECORD
  5
87
330
1
100
AcDbSymbolTableRecord
100
AcDbBlockTableRecord
  2
*D10
 70
    0
280
    1
281
    0
  0
BLOCK_RECORD
  5
8A
330
1
100
AcDbSymbolTableRecord
100
AcDbBlockTableRecord
  2
*D18
 70
    0
280
    1
281
    0
  0
BLOCK_RECORD
  5
8D
330
1
100
AcDbSymbolTableRecord
100
AcDbBlockTableRecord
  2
*D5
 70
    0
280
    1
281
    0
  0
BLOCK_RECORD
  5
90
330
1
100
AcDbSymbolTableRecord
100
AcDbBlockTableRecord
  2
*D23
 70
    0
280
    1
281
    0
  0
BLOCK_RECORD
  5
93
330
1
100
AcDbSymbolTableRecord
100
AcDbBlockTableRecord
  2
*D39
 70
    0
280
    1
281
    0
  0
BLOCK_RECORD
  5
96
330
1
100
AcDbSymbolTableRecord
100
AcDbBlockTableRecord
  2
*D13
 70
    0
280
    1
281
    0
  0
BLOCK_RECORD
  5
99
330
1
100
AcDbSymbolTableRecord
100
AcDbBlockTableRecord
  2
*D26
 70
    0
280
    1
281
    0
  0
BLOCK_RECORD
  5
9C
330
1
100
AcDbSymbolTableRecord
100
AcDbBlockTableRecord
  2
*D12
 70
    0
280
    1
281
    0
  0
BLOCK_RECORD
  5
9F
330
1
100
AcDbSymbolTableRecord
100
AcDbBlockTableRecord
  2
*D19
 70
    0
280
    1
281
    0
  0
BLOCK_RECORD
  5
A2
330
1
100
AcDbSymbolTableRecord
100
AcDbBlockTableRecord
  2
*D35
 70
    0
280
    1
281
    0
  0
BLOCK_RECORD
  5
A5
330
1
100
AcDbSymbolTableRecord
100
AcDbBlockTableRecord
  2
*D7
 70
    0
280
    1
281
    0
  0
BLOCK_RECORD
  5
A8
330
1
100
AcDbSymbolTableRecord
100
AcDbBlockTableRecord
  2
*D46
 70
    0
280
    1
281
    0
  0
BLOCK_RECORD
  5
AB
330
1
100
AcDbSymbolTableRecord
100
AcDbBlockTableRecord
  2
*D1
 70
    0
280
    1
281
    0
  0
BLOCK_RECORD
  5
AE
330
1
100
AcDbSymbolTableRecord
100
AcDbBlockTableRecord
  2
*D8
 70
    0
280
    1
281
    0
  0
BLOCK_RECORD
  5
B1
330
1
100
AcDbSymbolTableRecord
100
AcDbBlockTableRecord
  2
*D45
 70
    0
280
    1
281
    0
  0
BLOCK_RECORD
  5
B4
330
1
100
AcDbSymbolTableRecord
100
AcDbBlockTableRecord
  2
*D17
 70
    0
280
    1
281
    0
  0
BLOCK_RECORD
  5
B7
330
1
100
AcDbSymbolTableRecord
100
AcDbBlockTableRecord
  2
*D36
 70
    0
280
    1
281
    0
  0
BLOCK_RECORD
  5
BA
330
1
100
AcDbSymbolTableRecord
100
AcDbBlockTableRecord
  2
*D41
 70
    0
280
    1
281
    0
  0
BLOCK_RECORD
  5
BD
330
1
100
AcDbSymbolTableRecord
100
AcDbBlockTableRecord
  2
*D44
 70
    0
280
    1
281
    0
  0
BLOCK_RECORD
  5
C0
330
1
100
AcDbSymbolTableRecord
100
AcDbBlockTableRecord
  2
*D25
 70
    0
280
    1
281
    0
  0
BLOCK_RECORD
  5
C3
330
1
100
AcDbSymbolTableRecord
100
AcDbBlockTableRecord
  2
*D14
 70
    0
280
    1
281
    0
  0
BLOCK_RECORD
  5
C6
330
1
100
AcDbSymbolTableRecord
100
AcDbBlockTableRecord
  2
*D28
 70
    0
280
    1
281
    0
  0
BLOCK_RECORD
  5
C9
330
1
100
AcDbSymbolTableRecord
100
AcDbBlockTableRecord
  2
*D20
 70
    0
280
    1
281
    0
  0
BLOCK_RECORD
  5
CC
330
1
100
AcDbSymbolTableRecord
100
AcDbBlockTableRecord
  2
*D16
 70
    0
280
    1
281
    0
  0
BLOCK_RECORD
  5
CF
330
1
100
AcDbSymbolTableRecord
100
AcDbBlockTableRecord
  2
*D42
 70
    0
280
    1
281
    0
  0
BLOCK_RECORD
  5
D2
330
1
100
AcDbSymbolTableRecord
100
AcDbBlockTableRecord
  2
*D30
 70
    0
280
    1
281
    0
  0
BLOCK_RECORD
  5
D5
330
1
100
AcDbSymbolTableRecord
100
AcDbBlockTableRecord
  2
*D31
 70
    0
280
    1
281
    0
  0
BLOCK_RECORD
  5
D8
330
1
100
AcDbSymbolTableRecord
100
AcDbBlockTableRecord
  2
*D37
 70
    0
280
    1
281
    0
  0
BLOCK_RECORD
  5
DB
330
1
100
AcDbSymbolTableRecord
100
AcDbBlockTableRecord
  2
*D47
 70
    0
280
    1
281
    0
  0
BLOCK_RECORD
  5
DE
330
1
100
AcDbSymbolTableRecord
100
AcDbBlockTableRecord
  2
*D34
 70
    0
280
    1
281
    0
  0
BLOCK_RECORD
  5
E1
330
1
100
AcDbSymbolTableRecord
100
AcDbBlockTableRecord
  2
*D40
 70
    0
280
    1
281
    0
  0
BLOCK_RECORD
  5
E4
330
1
100
AcDbSymbolTableRecord
100
AcDbBlockTableRecord
  2
*D27
 70
    0
280
    1
281
    0
  0
BLOCK_RECORD
  5
E7
330
1
100
AcDbSymbolTableRecord
100
AcDbBlockTableRecord
  2
*D6
 70
    0
280
    1
281
    0
  0
BLOCK_RECORD
  5
EA
330
1
100
AcDbSymbolTableRecord
100
AcDbBlockTableRecord
  2
*D38
 70
    0
280
    1
281
    0
  0
ENDTAB
  0
ENDSEC
  0
SECTION
  2
BLOCKS
  0
BLOCK
  5
20
330
1F
100
AcDbEntity
  8
0
100
AcDbBlockBegin
  2
*Model_Space
 70
    0
 10
0
 20
0
 30
0
  3
*Model_Space
  1

  0
ENDBLK
  5
21
330
1F
100
AcDbEntity
  8
0
100
AcDbBlockEnd
  0
BLOCK
  5
1C
330
1B
100
AcDbEntity
  8
0
100
AcDbBlockBegin
  2
*Paper_Space
 70
    0
 10
0
 20
0
 30
0
  3
*Paper_Space
  1

  0
ENDBLK
  5
1D
330
1F
100
AcDbEntity
  8
0
100
AcDbBlockEnd
  0
BLOCK
  5
5E
330
5D
100
AcDbEntity
  8
0
100
AcDbBlockBegin
  2
*D24
 70
    1
 10
0
 20
0
  3
*D24
  1

  0
LINE
  5
ED
100
AcDbEntity
  8
Dimensions
  6
ByBlock
 62
    0
370
   -2
100
AcDbLine
 10
-24.99999999999999
 20
131
 11
-25
 21
1.77635683940025e-15
  0
SOLID
  5
EE
100
AcDbEntity
  8
Dimensions
  6
ByBlock
 62
    0
370
   -2
100
AcDbTrace
 10
-24.99999999999999
 20
131
 30
0
 11
-24.58371534222715
 21
128.5
 31
0
 12
-25.41628465777283
 22
128.5
 32
0
 13
-25.41628465777283
 23
128.5
 33
0
  0
SOLID
  5
EF
100
AcDbEntity
  8
Dimensions
  6
ByBlock
 62
    0
370
   -2
100
AcDbTrace
 10
-25
 20
1.77635683940025e-15
 30
0
 11
-25.41628465777284
 21
2.500000000000002
 31
0
 12
-24.58371534222716
 22
2.500000000000002
 32
0
 13
-24.58371534222716
 23
2.500000000000002
 33
0
  0
MTEXT
  5
F0
100
AcDbEntity
  8
Dimensions
  6
CONTINUOUS
 62
    0
370
   -2
100
AcDbMText
 10
-26.87499999999999
 20
65.5
 30
0
 40
2.5
 41
3.888888888889044
 71
    5
 72
    1
  1
131
  7
standard
210
0
220
0
230
1
 50
90
 73
    2
 44
1
  0
LINE
  5
F1
100
AcDbEntity
  8
Dimensions
  6
ByBlock
 62
    0
370
   -2
100
AcDbLine
 10
-0.625
 20
131
 11
-26.24999999999999
 21
131
  0
LINE
  5
F2
100
AcDbEntity
  8
Dimensions
  6
ByBlock
 62
    0
370
   -2
100
AcDbLine
 10
-0.625
 20
7.654042494670958e-17
 11
-26.25
 21
1.92943768929367e-15
  0
ENDBLK
  5
5F
330
5D
100
AcDbEntity
  8
0
100
AcDbBlockEnd
  0
BLOCK
  5
61
330
60
100
AcDbEntity
  8
0
100
AcDbBlockBegin
  2
*D29
 70
    1
 10
0
 20
0
  3
*D29
  1

  0
LINE
  5
F3
100
AcDbEntity
  8
Dimensions
  6
ByBlock
 62
    0
370
   -2
100
AcDbLine
 10
250
 20
-5
 11
242.5
 21
-5
  0
SOLID
  5
F4
100
AcDbEntity
  8
Dimensions
  6
ByBlock
 62
    0
370
   -2
100
AcDbTrace
 10
250
 20
-5
 30
0
 11
247.5
 21
-5.416284657772841
 31
0
 12
247.5
 22
-4.583715342227159
 32
0
 13
247.5
 23
-4.583715342227159
 33
0
  0
SOLID
  5
F5
100
AcDbEntity
  8
Dimensions
  6
ByBlock
 62
    0
370
   -2
100
AcDbTrace
 10
242.5
 20
-5
 30
0
 11
245
 21
-4.58371534222716
 31
0
 12
245
 22
-5.416284657772841
 32
0
 13
245
 23
-5.416284657772841
 33
0
  0
MTEXT
  5
F6
100
AcDbEntity
  8
Dimensions
  6
CONTINUOUS
 62
    0
370
   -2
100
AcDbMText
 10
246.25
 20
-3.125
 30
0
 40
2.5
 41
3.888888888889044
 71
    5
 72
    1
  1
7.5
  7
standard
210
0
220
0
230
1
 50
360
 73
    2
 44
1
  0
LINE
  5
F7
100
AcDbEntity
  8
Dimensions
  6
ByBlock
 62
    0
370
   -2
100
AcDbLine
 10
250
 20
-0.625
 11
250
 21
-6.25
  0
LINE
  5
F8
100
AcDbEntity
  8
Dimensions
  6
ByBlock
 62
    0
370
   -2
100
AcDbLine
 10
242.5
 20
11.375
 11
242.5
 21
-6.25
  0
ENDBLK
  5
62
330
60
100
AcDbEntity
  8
0
100
AcDbBlockEnd
  0
BLOCK
  5
64
330
63
100
AcDbEntity
  8
0
100
AcDbBlockBegin
  2
*D11
 70
    1
 10
0
 20
0
  3
*D11
  1

  0
LINE
  5
F9
100
AcDbEntity
  8
Dimensions
  6
ByBlock
 62
    0
370
   -2
100
AcDbLine
 10
255
 20
131
 11
255
 21
119
  0
SOLID
  5
FA
100
AcDbEntity
  8
Dimensions
  6
ByBlock
 62
    0
370
   -2
100
AcDbTrace
 10
255
 20
131
 30
0
 11
255.4162846577728
 21
128.5
 31
0
 12
254.5837153422272
 22
128.5
 32
0
 13
254.5837153422272
 23
128.5
 33
0
  0
SOLID
  5
FB
100
AcDbEntity
  8
Dimensions
  6
ByBlock
 62
    0
370
   -2
100
AcDbTrace
 10
255
 20
119
 30
0
 11
254.5837153422272
 21
121.5
 31
0
 12
255.4162846577728
 22
121.5
 32
0
 13
255.4162846577728
 23
121.5
 33
0
  0
MTEXT
  5
FC
100
AcDbEntity
  8
Dimensions
  6
CONTINUOUS
 62
    0
370
   -2
100
AcDbMText
 10
253.125
 20
125
 30
0
 40
2.5
 41
2.5
 71
    5
 72
    1
  1
12
  7
standard
210
0
220
0
230
1
 50
90
 73
    2
 44
1
  0
LINE
  5
FD
100
AcDbEntity
  8
Dimensions
  6
ByBlock
 62
    0
370
   -2
100
AcDbLine
 10
250.625
 20
131
 11
256.25
 21
131
  0
LINE
  5
FE
100
AcDbEntity
  8
Dimensions
  6
ByBlock
 62
    0
370
   -2
100
AcDbLine
 10
243.125
 20
119
 11
256.25
 21
119
  0
ENDBLK
  5
65
330
63
100
AcDbEntity
  8
0
100
AcDbBlockEnd
  0
BLOCK
  5
67
330
66
100
AcDbEntity
  8
0
100
AcDbBlockBegin
  2
*D32
 70
    1
 10
0
 20
0
  3
*D32
  1

  0
LINE
  5
FF
100
AcDbEntity
  8
Dimensions
  6
ByBlock
 62
    0
370
   -2
100
AcDbLine
 10
-4.999999999999999
 20
12
 11
-5
 21
3.108624468950438e-16
  0
SOLID
  5
100
100
AcDbEntity
  8
Dimensions
  6
ByBlock
 62
    0
370
   -2
100
AcDbTrace
 10
-4.999999999999999
 20
12
 30
0
 11
-4.583715342227158
 21
9.5
 31
0
 12
-5.41628465777284
 22
9.5
 32
0
 13
-5.41628465777284
 23
9.5
 33
0
  0
SOLID
  5
101
100
AcDbEntity
  8
Dimensions
  6
ByBlock
 62
    0
370
   -2
100
AcDbTrace
 10
-5
 20
3.108624468950438e-16
 30
0
 11
-5.41628465777284
 21
2.5
 31
0
 12
-4.583715342227159
 22
2.5
 32
0
 13
-4.583715342227159
 23
2.5
 33
0
  0
MTEXT
  5
102
100
AcDbEntity
  8
Dimensions
  6
CONTINUOUS
 62
    0
370
   -2
100
AcDbMText
 10
-6.875
 20
6.000000000000002
 30
0
 40
2.5
 41
2.5
 71
    5
 72
    1
  1
12
  7
standard
210
0
220
0
230
1
 50
90
 73
    2
 44
1
  0
LINE
  5
103
100
AcDbEntity
  8
Dimensions
  6
ByBlock
 62
    0
370
   -2
100
AcDbLine
 10
6.875000000000002
 20
12
 11
-6.249999999999999
 21
12
  0
LINE
  5
104
100
AcDbEntity
  8
Dimensions
  6
ByBlock
 62
    0
370
   -2
100
AcDbLine
 10
-0.625
 20
7.654042494670958e-17
 11
-6.25
 21
4.639432967884629e-16
  0
ENDBLK
  5
68
330
66
100
AcDbEntity
  8
0
100
AcDbBlockEnd
  0
BLOCK
  5
6A
330
69
100
AcDbEntity
  8
0
100
AcDbBlockBegin
  2
*D22
 70
    1
 10
0
 20
0
  3
*D22
  1

  0
LINE
  5
105
100
AcDbEntity
  8
Dimensions
  6
ByBlock
 62
    0
370
   -2
100
AcDbLine
 10
-9.999999999999998
 20
131
 11
-10
 21
112
  0
SOLID
  5
106
100
AcDbEntity
  8
Dimensions
  6
ByBlock
 62
    0
370
   -2
100
AcDbTrace
 10
-9.999999999999998
 20
131
 30
0
 11
-9.583715342227158
 21
128.5
 31
0
 12
-10.41628465777284
 22
128.5
 32
0
 13
-10.41628465777284
 23
128.5
 33
0
  0
SOLID
  5
107
100
AcDbEntity
  8
Dimensions
  6
ByBlock
 62
    0
370
   -2
100
AcDbTrace
 10
-10
 20
112
 30
0
 11
-10.41628465777284
 21
114.5
 31
0
 12
-9.583715342227158
 22
114.5
 32
0
 13
-9.583715342227158
 23
114.5
 33
0
  0
MTEXT
  5
108
100
AcDbEntity
  8
Dimensions
  6
CONTINUOUS
 62
    0
370
   -2
100
AcDbMText
 10
-11.875
 20
121.5
 30
0
 40
2.5
 41
2.5
 71
    5
 72
    1
  1
19
  7
standard
210
0
220
0
230
1
 50
90
 73
    2
 44
1
  0
LINE
  5
109
100
AcDbEntity
  8
Dimensions
  6
ByBlock
 62
    0
370
   -2
100
AcDbLine
 10
-0.625
 20
131
 11
-11.25
 21
131
  0
LINE
  5
10A
100
AcDbEntity
  8
Dimensions
  6
ByBlock
 62
    0
370
   -2
100
AcDbLine
 10
36.375
 20
112
 11
-11.25
 21
112
  0
ENDBLK
  5
6B
330
69
100
AcDbEntity
  8
0
100
AcDbBlockEnd
  0
BLOCK
  5
6D
330
6C
100
AcDbEntity
  8
0
100
AcDbBlockBegin
  2
*D3
 70
    1
 10
0
 20
0
  3
*D3
  1

  0
LINE
  5
10B
100
AcDbEntity
  8
Dimensions
  6
ByBlock
 62
    0
370
   -2
100
AcDbLine
 10
260
 20
0
 11
260
 21
19
  0
SOLID
  5
10C
100
AcDbEntity
  8
Dimensions
  6
ByBlock
 62
    0
370
   -2
100
AcDbTrace
 10
260
 20
0
 30
0
 11
259.5837153422272
 21
2.5
 31
0
 12
260.4162846577728
 22
2.5
 32
0
 13
260.4162846577728
 23
2.5
 33
0
  0
SOLID
  5
10D
100
AcDbEntity
  8
Dimensions
  6
ByBlock
 62
    0
370
   -2
100
AcDbTrace
 10
260
 20
19
 30
0
 11
260.4162846577728
 21
16.5
 31
0
 12
259.5837153422272
 22
16.5
 32
0
 13
259.5837153422272
 23
16.5
 33
0
  0
MTEXT
  5
10E
100
AcDbEntity
  8
Dimensions
  6
CONTINUOUS
 62
    0
370
   -2
100
AcDbMText
 10
258.125
 20
9.5
 30
0
 40
2.5
 41
2.5
 71
    5
 72
    1
  1
19
  7
standard
210
0
220
0
230
1
 50
90
 73
    2
 44
1
  0
LINE
  5
10F
100
AcDbEntity
  8
Dimensions
  6
ByBlock
 62
    0
370
   -2
100
AcDbLine
 10
250.625
 20
0
 11
261.25
 21
0
  0
LINE
  5
110
100
AcDbEntity
  8
Dimensions
  6
ByBlock
 62
    0
370
   -2
100
AcDbLine
 10
199.625
 20
19
 11
261.25
 21
19
  0
ENDBLK
  5
6E
330
6C
100
AcDbEntity
  8
0
100
AcDbBlockEnd
  0
BLOCK
  5
70
330
6F
100
AcDbEntity
  8
0
100
AcDbBlockBegin
  2
*D21
 70
    1
 10
0
 20
0
  3
*D21
  1

  0
LINE
  5
111
100
AcDbEntity
  8
Dimensions
  6
ByBlock
 62
    0
370
   -2
100
AcDbLine
 10
55
 20
141
 11
92
 21
141
  0
SOLID
  5
112
100
AcDbEntity
  8
Dimensions
  6
ByBlock
 62
    0
370
   -2
100
AcDbTrace
 10
55
 20
141
 30
0
 11
57.5
 21
141.4162846577728
 31
0
 12
57.5
 22
140.5837153422272
 32
0
 13
57.5
 23
140.5837153422272
 33
0
  0
SOLID
  5
113
100
AcDbEntity
  8
Dimensions
  6
ByBlock
 62
    0
370
   -2
100
AcDbTrace
 10
92
 20
141
 30
0
 11
89.5
 21
140.5837153422272
 31
0
 12
89.5
 22
141.4162846577728
 32
0
 13
89.5
 23
141.4162846577728
 33
0
  0
MTEXT
  5
114
100
AcDbEntity
  8
Dimensions
  6
CONTINUOUS
 62
    0
370
   -2
100
AcDbMText
 10
73.5
 20
142.875
 30
0
 40
2.5
 41
3.055555555555711
 71
    5
 72
    1
  1
37
  7
standard
210
0
220
0
230
1
 50
0
 73
    2
 44
1
  0
LINE
  5
115
100
AcDbEntity
  8
Dimensions
  6
ByBlock
 62
    0
370
   -2
100
AcDbLine
 10
55
 20
69.625
 11
55
 21
142.25
  0
LINE
  5
116
100
AcDbEntity
  8
Dimensions
  6
ByBlock
 62
    0
370
   -2
100
AcDbLine
 10
92
 20
69.625
 11
92
 21
142.25
  0
ENDBLK
  5
71
330
6F
100
AcDbEntity
  8
0
100
AcDbBlockEnd
  0
BLOCK
  5
73
330
72
100
AcDbEntity
  8
0
100
AcDbBlockBegin
  2
*D15
 70
    1
 10
0
 20
0
  3
*D15
  1

  0
LINE
  5
117
100
AcDbEntity
  8
Dimensions
  6
ByBlock
 62
    0
370
   -2
100
AcDbLine
 10
237.4088311754569
 20
124.0911688245431
 11
247.5911688245431
 21
113.9088311754569
  0
SOLID
  5
118
100
AcDbEntity
  8
Dimensions
  6
ByBlock
 62
    0
370
   -2
100
AcDbTrace
 10
240.9443650813896
 20
120.5556349186104
 30
0
 11
238.8822404240081
 21
122.0290441671617
 31
0
 12
239.4709558328383
 22
122.6177595759919
 32
0
 13
239.4709558328383
 23
122.6177595759919
 33
0
  0
SOLID
  5
119
100
AcDbEntity
  8
Dimensions
  6
ByBlock
 62
    0
370
   -2
100
AcDbTrace
 10
244.0556349186104
 20
117.4443650813896
 30
0
 11
246.1177595759919
 21
115.9709558328383
 31
0
 12
245.5290441671617
 22
115.3822404240081
 32
0
 13
245.5290441671617
 23
115.3822404240081
 33
0
  0
MTEXT
  5
11A
100
AcDbEntity
  8
Dimensions
  6
CONTINUOUS
 62
    0
370
   -2
100
AcDbMText
 10
227.5929165530982
 20
136.4070834469018
 30
0
 40
2.5
 41
35.62500100794057
 71
    5
 72
    1
  1
M4 clearance (4 pos)
  7
standard
210
0
220
0
230
1
 50
315
 73
    2
 44
1
  0
ENDBLK
  5
74
330
72
100
AcDbEntity
  8
0
100
AcDbBlockEnd
  0
BLOCK
  5
76
330
75
100
AcDbEntity
  8
0
100
AcDbBlockBegin
  2
*D48
 70
    1
 10
0
 20
0
  3
*D48
  1

  0
LINE
  5
11B
100
AcDbEntity
  8
Dimensions
  6
ByBlock
 62
    0
370
   -2
100
AcDbLine
 10
48.59583694396574
 20
27.40416305603426
 11
53.40416305603426
 21
22.59583694396574
  0
SOLID
  5
11C
100
AcDbEntity
  8
Dimensions
  6
ByBlock
 62
    0
370
   -2
100
AcDbTrace
 10
48.59583694396574
 20
27.40416305603426
 30
0
 11
50.65796160134721
 21
25.93075380748299
 31
0
 12
50.06924619251701
 22
25.34203839865279
 32
0
 13
50.06924619251701
 23
25.34203839865279
 33
0
  0
SOLID
  5
11D
100
AcDbEntity
  8
Dimensions
  6
ByBlock
 62
    0
370
   -2
100
AcDbTrace
 10
53.40416305603426
 20
22.59583694396574
 30
0
 11
51.34203839865279
 21
24.06924619251701
 31
0
 12
51.93075380748299
 22
24.65796160134721
 32
0
 13
51.93075380748299
 23
24.65796160134721
 33
0
  0
MTEXT
  5
11E
100
AcDbEntity
  8
Dimensions
  6
CONTINUOUS
 62
    0
370
   -2
100
AcDbMText
 10
56
 20
22
 30
0
 40
2.5
 41
3.888888888889044
 71
    5
 72
    1
  1
6.8
  7
standard
210
0
220
0
230
1
 50
314.9999999999999
 73
    2
 44
1
  0
ENDBLK
  5
77
330
75
100
AcDbEntity
  8
0
100
AcDbBlockEnd
  0
BLOCK
  5
79
330
78
100
AcDbEntity
  8
0
100
AcDbBlockBegin
  2
*D9
 70
    1
 10
0
 20
0
  3
*D9
  1

  0
LINE
  5
11F
100
AcDbEntity
  8
Dimensions
  6
ByBlock
 62
    0
370
   -2
100
AcDbLine
 10
216
 20
-15
 11
158
 21
-15
  0
SOLID
  5
120
100
AcDbEntity
  8
Dimensions
  6
ByBlock
 62
    0
370
   -2
100
AcDbTrace
 10
216
 20
-15
 30
0
 11
213.5
 21
-15.41628465777284
 31
0
 12
213.5
 22
-14.58371534222716
 32
0
 13
213.5
 23
-14.58371534222716
 33
0
  0
SOLID
  5
121
100
AcDbEntity
  8
Dimensions
  6
ByBlock
 62
    0
370
   -2
100
AcDbTrace
 10
158
 20
-15
 30
0
 11
160.5
 21
-14.58371534222716
 31
0
 12
160.5
 22
-15.41628465777284
 32
0
 13
160.5
 23
-15.41628465777284
 33
0
  0
MTEXT
  5
122
100
AcDbEntity
  8
Dimensions
  6
CONTINUOUS
 62
    0
370
   -2
100
AcDbMText
 10
187
 20
-13.125
 30
0
 40
2.5
 41
3.055555555555711
 71
    5
 72
    1
  1
58
  7
standard
210
0
220
0
230
1
 50
360
 73
    2
 44
1
  0
LINE
  5
123
100
AcDbEntity
  8
Dimensions
  6
ByBlock
 62
    0
370
   -2
100
AcDbLine
 10
216
 20
63.375
 11
216
 21
-16.25
  0
LINE
  5
124
100
AcDbEntity
  8
Dimensions
  6
ByBlock
 62
    0
370
   -2
100
AcDbLine
 10
158
 20
96.375
 11
158
 21
-16.25
  0
ENDBLK
  5
7A
330
78
100
AcDbEntity
  8
0
100
AcDbBlockEnd
  0
BLOCK
  5
7C
330
7B
100
AcDbEntity
  8
0
100
AcDbBlockBegin
  2
*D4
 70
    1
 10
0
 20
0
  3
*D4
  1

  0
LINE
  5
125
100
AcDbEntity
  8
Dimensions
  6
ByBlock
 62
    0
370
   -2
100
AcDbLine
 10
260
 20
19
 11
260
 21
31
  0
SOLID
  5
126
100
AcDbEntity
  8
Dimensions
  6
ByBlock
 62
    0
370
   -2
100
AcDbTrace
 10
260
 20
19
 30
0
 11
259.5837153422272
 21
21.5
 31
0
 12
260.4162846577728
 22
21.5
 32
0
 13
260.4162846577728
 23
21.5
 33
0
  0
SOLID
  5
127
100
AcDbEntity
  8
Dimensions
  6
ByBlock
 62
    0
370
   -2
100
AcDbTrace
 10
260
 20
31
 30
0
 11
260.4162846577728
 21
28.5
 31
0
 12
259.5837153422272
 22
28.5
 32
0
 13
259.5837153422272
 23
28.5
 33
0
  0
MTEXT
  5
128
100
AcDbEntity
  8
Dimensions
  6
CONTINUOUS
 62
    0
370
   -2
100
AcDbMText
 10
258.125
 20
25
 30
0
 40
2.5
 41
2.5
 71
    5
 72
    1
  1
12
  7
standard
210
0
220
0
230
1
 50
90
 73
    2
 44
1
  0
LINE
  5
129
100
AcDbEntity
  8
Dimensions
  6
ByBlock
 62
    0
370
   -2
100
AcDbLine
 10
199.625
 20
19
 11
261.25
 21
19
  0
LINE
  5
12A
100
AcDbEntity
  8
Dimensions
  6
ByBlock
 62
    0
370
   -2
100
AcDbLine
 10
199.625
 20
31
 11
261.25
 21
31
  0
ENDBLK
  5
7D
330
7B
100
AcDbEntity
  8
0
100
AcDbBlockEnd
  0
BLOCK
  5
7F
330
7E
100
AcDbEntity
  8
0
100
AcDbBlockBegin
  2
*D43
 70
    1
 10
0
 20
0
  3
*D43
  1

  0
LINE
  5
12B
100
AcDbEntity
  8
Dimensions
  6
ByBlock
 62
    0
370
   -2
100
AcDbLine
 10
-15
 20
20.00000000000001
 11
-15
 21
7.993605777301127e-16
  0
SOLID
  5
12C
100
AcDbEntity
  8
Dimensions
  6
ByBlock
 62
    0
370
   -2
100
AcDbTrace
 10
-15
 20
20.00000000000001
 30
0
 11
-14.58371534222716
 21
17.50000000000001
 31
0
 12
-15.41628465777284
 22
17.50000000000001
 32
0
 13
-15.41628465777284
 23
17.50000000000001
 33
0
  0
SOLID
  5
12D
100
AcDbEntity
  8
Dimensions
  6
ByBlock
 62
    0
370
   -2
100
AcDbTrace
 10
-15
 20
7.993605777301127e-16
 30
0
 11
-15.41628465777284
 21
2.500000000000001
 31
0
 12
-14.58371534222716
 22
2.500000000000001
 32
0
 13
-14.58371534222716
 23
2.500000000000001
 33
0
  0
MTEXT
  5
12E
100
AcDbEntity
  8
Dimensions
  6
CONTINUOUS
 62
    0
370
   -2
100
AcDbMText
 10
-16.875
 20
10
 30
0
 40
2.5
 41
3.055555555555556
 71
    5
 72
    1
  1
20
  7
standard
210
0
220
0
230
1
 50
90
 73
    2
 44
1
  0
LINE
  5
12F
100
AcDbEntity
  8
Dimensions
  6
ByBlock
 62
    0
370
   -2
100
AcDbLine
 10
82.375
 20
20
 11
-16.25
 21
20.00000000000001
  0
LINE
  5
130
100
AcDbEntity
  8
Dimensions
  6
ByBlock
 62
    0
370
   -2
100
AcDbLine
 10
-0.625
 20
7.654042494670958e-17
 11
-16.25
 21
9.52441427623532e-16
  0
ENDBLK
  5
80
330
7E
100
AcDbEntity
  8
0
100
AcDbBlockEnd
  0
BLOCK
  5
82
330
81
100
AcDbEntity
  8
0
100
AcDbBlockBegin
  2
*D33
 70
    1
 10
0
 20
0
  3
*D33
  1

  0
LINE
  5
131
100
AcDbEntity
  8
Dimensions
  6
ByBlock
 62
    0
370
   -2
100
AcDbLine
 10
255
 20
12
 11
255
 21
0
  0
SOLID
  5
132
100
AcDbEntity
  8
Dimensions
  6
ByBlock
 62
    0
370
   -2
100
AcDbTrace
 10
255
 20
12
 30
0
 11
255.4162846577728
 21
9.5
 31
0
 12
254.5837153422272
 22
9.5
 32
0
 13
254.5837153422272
 23
9.5
 33
0
  0
SOLID
  5
133
100
AcDbEntity
  8
Dimensions
  6
ByBlock
 62
    0
370
   -2
100
AcDbTrace
 10
255
 20
0
 30
0
 11
254.5837153422272
 21
2.5
 31
0
 12
255.4162846577728
 22
2.5
 32
0
 13
255.4162846577728
 23
2.5
 33
0
  0
MTEXT
  5
134
100
AcDbEntity
  8
Dimensions
  6
CONTINUOUS
 62
    0
370
   -2
100
AcDbMText
 10
253.125
 20
6
 30
0
 40
2.5
 41
2.5
 71
    5
 72
    1
  1
12
  7
standard
210
0
220
0
230
1
 50
90
 73
    2
 44
1
  0
LINE
  5
135
100
AcDbEntity
  8
Dimensions
  6
ByBlock
 62
    0
370
   -2
100
AcDbLine
 10
243.125
 20
12
 11
256.25
 21
12
  0
LINE
  5
136
100
AcDbEntity
  8
Dimensions
  6
ByBlock
 62
    0
370
   -2
100
AcDbLine
 10
250.625
 20
0
 11
256.25
 21
0
  0
ENDBLK
  5
83
330
81
100
AcDbEntity
  8
0
100
AcDbBlockEnd
  0
BLOCK
  5
85
330
84
100
AcDbEntity
  8
0
100
AcDbBlockBegin
  2
*D2
 70
    1
 10
0
 20
0
  3
*D2
  1

  0
LINE
  5
137
100
AcDbEntity
  8
Dimensions
  6
ByBlock
 62
    0
370
   -2
100
AcDbLine
 10
199
 20
-10
 11
186
 21
-10
  0
SOLID
  5
138
100
AcDbEntity
  8
Dimensions
  6
ByBlock
 62
    0
370
   -2
100
AcDbTrace
 10
199
 20
-10
 30
0
 11
196.5
 21
-10.41628465777284
 31
0
 12
196.5
 22
-9.58371534222716
 32
0
 13
196.5
 23
-9.58371534222716
 33
0
  0
SOLID
  5
139
100
AcDbEntity
  8
Dimensions
  6
ByBlock
 62
    0
370
   -2
100
AcDbTrace
 10
186
 20
-10
 30
0
 11
188.5
 21
-9.58371534222716
 31
0
 12
188.5
 22
-10.41628465777284
 32
0
 13
188.5
 23
-10.41628465777284
 33
0
  0
MTEXT
  5
13A
100
AcDbEntity
  8
Dimensions
  6
CONTINUOUS
 62
    0
370
   -2
100
AcDbMText
 10
192.5
 20
-8.125
 30
0
 40
2.5
 41
2.500000000000155
 71
    5
 72
    1
  1
13
  7
standard
210
0
220
0
230
1
 50
360
 73
    2
 44
1
  0
LINE
  5
13B
100
AcDbEntity
  8
Dimensions
  6
ByBlock
 62
    0
370
   -2
100
AcDbLine
 10
199
 20
18.375
 11
199
 21
-11.25
  0
LINE
  5
13C
100
AcDbEntity
  8
Dimensions
  6
ByBlock
 62
    0
370
   -2
100
AcDbLine
 10
186
 20
18.375
 11
186
 21
-11.25
  0
ENDBLK
  5
86
330
84
100
AcDbEntity
  8
0
100
AcDbBlockEnd
  0
BLOCK
  5
88
330
87
100
AcDbEntity
  8
0
100
AcDbBlockBegin
  2
*D10
 70
    1
 10
0
 20
0
  3
*D10
  1

  0
LINE
  5
13D
100
AcDbEntity
  8
Dimensions
  6
ByBlock
 62
    0
370
   -2
100
AcDbLine
 10
250
 20
136
 11
242.5
 21
136
  0
SOLID
  5
13E
100
AcDbEntity
  8
Dimensions
  6
ByBlock
 62
    0
370
   -2
100
AcDbTrace
 10
250
 20
136
 30
0
 11
247.5
 21
135.5837153422272
 31
0
 12
247.5
 22
136.4162846577728
 32
0
 13
247.5
 23
136.4162846577728
 33
0
  0
SOLID
  5
13F
100
AcDbEntity
  8
Dimensions
  6
ByBlock
 62
    0
370
   -2
100
AcDbTrace
 10
242.5
 20
136
 30
0
 11
245
 21
136.4162846577728
 31
0
 12
245
 22
135.5837153422272
 32
0
 13
245
 23
135.5837153422272
 33
0
  0
MTEXT
  5
140
100
AcDbEntity
  8
Dimensions
  6
CONTINUOUS
 62
    0
370
   -2
100
AcDbMText
 10
246.25
 20
137.875
 30
0
 40
2.5
 41
3.888888888889044
 71
    5
 72
    1
  1
7.5
  7
standard
210
0
220
0
230
1
 50
360
 73
    2
 44
1
  0
LINE
  5
141
100
AcDbEntity
  8
Dimensions
  6
ByBlock
 62
    0
370
   -2
100
AcDbLine
 10
250
 20
131.625
 11
250
 21
137.25
  0
LINE
  5
142
100
AcDbEntity
  8
Dimensions
  6
ByBlock
 62
    0
370
   -2
100
AcDbLine
 10
242.5
 20
119.625
 11
242.5
 21
137.25
  0
ENDBLK
  5
89
330
87
100
AcDbEntity
  8
0
100
AcDbBlockEnd
  0
BLOCK
  5
8B
330
8A
100
AcDbEntity
  8
0
100
AcDbBlockBegin
  2
*D18
 70
    1
 10
0
 20
0
  3
*D18
  1

  0
LINE
  5
143
100
AcDbEntity
  8
Dimensions
  6
ByBlock
 62
    0
370
   -2
100
AcDbLine
 10
0
 20
151
 11
31
 21
151
  0
SOLID
  5
144
100
AcDbEntity
  8
Dimensions
  6
ByBlock
 62
    0
370
   -2
100
AcDbTrace
 10
0
 20
151
 30
0
 11
2.5
 21
151.4162846577728
 31
0
 12
2.5
 22
150.5837153422272
 32
0
 13
2.5
 23
150.5837153422272
 33
0
  0
SOLID
  5
145
100
AcDbEntity
  8
Dimensions
  6
ByBlock
 62
    0
370
   -2
100
AcDbTrace
 10
31
 20
151
 30
0
 11
28.5
 21
150.5837153422272
 31
0
 12
28.5
 22
151.4162846577728
 32
0
 13
28.5
 23
151.4162846577728
 33
0
  0
MTEXT
  5
146
100
AcDbEntity
  8
Dimensions
  6
CONTINUOUS
 62
    0
370
   -2
100
AcDbMText
 10
15.5
 20
152.875
 30
0
 40
2.5
 41
2.500000000000155
 71
    5
 72
    1
  1
31
  7
standard
210
0
220
0
230
1
 50
0
 73
    2
 44
1
  0
LINE
  5
147
100
AcDbEntity
  8
Dimensions
  6
ByBlock
 62
    0
370
   -2
100
AcDbLine
 10
3.827021247335479e-17
 20
131.625
 11
7.654042494670958e-17
 21
152.25
  0
LINE
  5
148
100
AcDbEntity
  8
Dimensions
  6
ByBlock
 62
    0
370
   -2
100
AcDbLine
 10
31
 20
114.125
 11
31
 21
152.25
  0
ENDBLK
  5
8C
330
8A
100
AcDbEntity
  8
0
100
AcDbBlockEnd
  0
BLOCK
  5
8E
330
8D
100
AcDbEntity
  8
0
100
AcDbBlockBegin
  2
*D5
 70
    1
 10
0
 20
0
  3
*D5
  1

  0
LINE
  5
149
100
AcDbEntity
  8
Dimensions
  6
ByBlock
 62
    0
370
   -2
100
AcDbLine
 10
265
 20
0
 11
265
 21
21
  0
SOLID
  5
14A
100
AcDbEntity
  8
Dimensions
  6
ByBlock
 62
    0
370
   -2
100
AcDbTrace
 10
265
 20
0
 30
0
 11
264.5837153422272
 21
2.5
 31
0
 12
265.4162846577728
 22
2.5
 32
0
 13
265.4162846577728
 23
2.5
 33
0
  0
SOLID
  5
14B
100
AcDbEntity
  8
Dimensions
  6
ByBlock
 62
    0
370
   -2
100
AcDbTrace
 10
265
 20
21
 30
0
 11
265.4162846577728
 21
18.5
 31
0
 12
264.5837153422272
 22
18.5
 32
0
 13
264.5837153422272
 23
18.5
 33
0
  0
MTEXT
  5
14C
100
AcDbEntity
  8
Dimensions
  6
CONTINUOUS
 62
    0
370
   -2
100
AcDbMText
 10
263.125
 20
10.5
 30
0
 40
2.5
 41
2.5
 71
    5
 72
    1
  1
21
  7
standard
210
0
220
0
230
1
 50
90
 73
    2
 44
1
  0
LINE
  5
14D
100
AcDbEntity
  8
Dimensions
  6
ByBlock
 62
    0
370
   -2
100
AcDbLine
 10
250.625
 20
0
 11
266.25
 21
0
  0
LINE
  5
14E
100
AcDbEntity
  8
Dimensions
  6
ByBlock
 62
    0
370
   -2
100
AcDbLine
 10
158.625
 20
21
 11
266.25
 21
21
  0
ENDBLK
  5
8F
330
8D
100
AcDbEntity
  8
0
100
AcDbBlockEnd
  0
BLOCK
  5
91
330
90
100
AcDbEntity
  8
0
100
AcDbBlockBegin
  2
*D23
 70
    1
 10
0
 20
0
  3
*D23
  1

  0
LINE
  5
14F
100
AcDbEntity
  8
Dimensions
  6
ByBlock
 62
    0
370
   -2
100
AcDbLine
 10
-9.999999999999998
 20
112
 11
-10
 21
84.00000000000001
  0
SOLID
  5
150
100
AcDbEntity
  8
Dimensions
  6
ByBlock
 62
    0
370
   -2
100
AcDbTrace
 10
-9.999999999999998
 20
112
 30
0
 11
-9.583715342227158
 21
109.5
 31
0
 12
-10.41628465777284
 22
109.5
 32
0
 13
-10.41628465777284
 23
109.5
 33
0
  0
SOLID
  5
151
100
AcDbEntity
  8
Dimensions
  6
ByBlock
 62
    0
370
   -2
100
AcDbTrace
 10
-10
 20
84.00000000000001
 30
0
 11
-10.41628465777284
 21
86.50000000000001
 31
0
 12
-9.583715342227158
 22
86.50000000000001
 32
0
 13
-9.583715342227158
 23
86.50000000000001
 33
0
  0
MTEXT
  5
152
100
AcDbEntity
  8
Dimensions
  6
CONTINUOUS
 62
    0
370
   -2
100
AcDbMText
 10
-11.875
 20
98
 30
0
 40
2.5
 41
3.055555555555556
 71
    5
 72
    1
  1
28
  7
standard
210
0
220
0
230
1
 50
90
 73
    2
 44
1
  0
LINE
  5
153
100
AcDbEntity
  8
Dimensions
  6
ByBlock
 62
    0
370
   -2
100
AcDbLine
 10
36.375
 20
112
 11
-11.25
 21
112
  0
LINE
  5
154
100
AcDbEntity
  8
Dimensions
  6
ByBlock
 62
    0
370
   -2
100
AcDbLine
 10
36.375
 20
84.00000000000001
 11
-11.25
 21
84.00000000000001
  0
ENDBLK
  5
92
330
90
100
AcDbEntity
  8
0
100
AcDbBlockEnd
  0
BLOCK
  5
94
330
93
100
AcDbEntity
  8
0
100
AcDbBlockBegin
  2
*D39
 70
    1
 10
0
 20
0
  3
*D39
  1

  0
LINE
  5
155
100
AcDbEntity
  8
Dimensions
  6
ByBlock
 62
    0
370
   -2
100
AcDbLine
 10
83
 20
-20
 11
123
 21
-20
  0
SOLID
  5
156
100
AcDbEntity
  8
Dimensions
  6
ByBlock
 62
    0
370
   -2
100
AcDbTrace
 10
83
 20
-20
 30
0
 11
85.5
 21
-19.58371534222716
 31
0
 12
85.5
 22
-20.41628465777284
 32
0
 13
85.5
 23
-20.41628465777284
 33
0
  0
SOLID
  5
157
100
AcDbEntity
  8
Dimensions
  6
ByBlock
 62
    0
370
   -2
100
AcDbTrace
 10
123
 20
-20
 30
0
 11
120.5
 21
-20.41628465777284
 31
0
 12
120.5
 22
-19.58371534222716
 32
0
 13
120.5
 23
-19.58371534222716
 33
0
  0
MTEXT
  5
158
100
AcDbEntity
  8
Dimensions
  6
CONTINUOUS
 62
    0
370
   -2
100
AcDbMText
 10
103
 20
-18.125
 30
0
 40
2.5
 41
3.333333333333333
 71
    5
 72
    1
  1
40
  7
standard
210
0
220
0
230
1
 50
0
 73
    2
 44
1
  0
LINE
  5
159
100
AcDbEntity
  8
Dimensions
  6
ByBlock
 62
    0
370
   -2
100
AcDbLine
 10
83
 20
19.375
 11
83
 21
-21.25
  0
LINE
  5
15A
100
AcDbEntity
  8
Dimensions
  6
ByBlock
 62
    0
370
   -2
100
AcDbLine
 10
123
 20
19.375
 11
123
 21
-21.25
  0
ENDBLK
  5
95
330
93
100
AcDbEntity
  8
0
100
AcDbBlockEnd
  0
BLOCK
  5
97
330
96
100
AcDbEntity
  8
0
100
AcDbBlockBegin
  2
*D13
 70
    1
 10
0
 20
0
  3
*D13
  1

  0
LINE
  5
15B
100
AcDbEntity
  8
Dimensions
  6
ByBlock
 62
    0
370
   -2
100
AcDbLine
 10
89.2776388924318
 20
71.7223611075682
 11
94.7223611075682
 21
66.2776388924318
  0
SOLID
  5
15C
100
AcDbEntity
  8
Dimensions
  6
ByBlock
 62
    0
370
   -2
100
AcDbTrace
 10
89.2776388924318
 20
71.7223611075682
 30
0
 11
91.33976354981326
 21
70.24895185901693
 31
0
 12
90.75104814098307
 22
69.66023645018674
 32
0
 13
90.75104814098307
 23
69.66023645018674
 33
0
  0
SOLID
  5
15D
100
AcDbEntity
  8
Dimensions
  6
ByBlock
 62
    0
370
   -2
100
AcDbTrace
 10
94.7223611075682
 20
66.2776388924318
 30
0
 11
92.66023645018674
 21
67.75104814098307
 31
0
 12
93.24895185901693
 22
68.33976354981326
 32
0
 13
93.24895185901693
 23
68.33976354981326
 33
0
  0
MTEXT
  5
15E
100
AcDbEntity
  8
Dimensions
  6
CONTINUOUS
 62
    0
370
   -2
100
AcDbMText
 10
108.8890494064512
 20
54.76260102299839
 30
0
 40
2.5
 41
35.06944545238501
 71
    5
 72
    1
  1
M7 clearance (2 pos)
  7
standard
210
0
220
0
230
1
 50
315
 73
    2
 44
1
  0
ENDBLK
  5
98
330
96
100
AcDbEntity
  8
0
100
AcDbBlockEnd
  0
BLOCK
  5
9A
330
99
100
AcDbEntity
  8
0
100
AcDbBlockBegin
  2
*D26
 70
    1
 10
0
 20
0
  3
*D26
  1

  0
LINE
  5
15F
100
AcDbEntity
  8
Dimensions
  6
ByBlock
 62
    0
370
   -2
100
AcDbLine
 10
-15
 20
131
 11
-15
 21
113.5
  0
SOLID
  5
160
100
AcDbEntity
  8
Dimensions
  6
ByBlock
 62
    0
370
   -2
100
AcDbTrace
 10
-15
 20
131
 30
0
 11
-14.58371534222716
 21
128.5
 31
0
 12
-15.41628465777284
 22
128.5
 32
0
 13
-15.41628465777284
 23
128.5
 33
0
  0
SOLID
  5
161
100
AcDbEntity
  8
Dimensions
  6
ByBlock
 62
    0
370
   -2
100
AcDbTrace
 10
-15
 20
113.5
 30
0
 11
-15.41628465777284
 21
116
 31
0
 12
-14.58371534222716
 22
116
 32
0
 13
-14.58371534222716
 23
116
 33
0
  0
MTEXT
  5
162
100
AcDbEntity
  8
Dimensions
  6
CONTINUOUS
 62
    0
370
   -2
100
AcDbMText
 10
-16.875
 20
122.25
 30
0
 40
2.5
 41
5.277777777777933
 71
    5
 72
    1
  1
17.5
  7
standard
210
0
220
0
230
1
 50
90
 73
    2
 44
1
  0
LINE
  5
163
100
AcDbEntity
  8
Dimensions
  6
ByBlock
 62
    0
370
   -2
100
AcDbLine
 10
-0.625
 20
131
 11
-16.25
 21
131
  0
LINE
  5
164
100
AcDbEntity
  8
Dimensions
  6
ByBlock
 62
    0
370
   -2
100
AcDbLine
 10
30.375
 20
113.5
 11
-16.25
 21
113.5
  0
ENDBLK
  5
9B
330
99
100
AcDbEntity
  8
0
100
AcDbBlockEnd
  0
BLOCK
  5
9D
330
9C
100
AcDbEntity
  8
0
100
AcDbBlockBegin
  2
*D12
 70
    1
 10
0
 20
0
  3
*D12
  1

  0
LINE
  5
165
100
AcDbEntity
  8
Dimensions
  6
ByBlock
 62
    0
370
   -2
100
AcDbLine
 10
210.9088311754569
 20
69.09116882454316
 11
221.0911688245431
 21
58.90883117545684
  0
SOLID
  5
166
100
AcDbEntity
  8
Dimensions
  6
ByBlock
 62
    0
370
   -2
100
AcDbTrace
 10
214.4443650813896
 20
65.55563491861041
 30
0
 11
212.3822404240082
 21
67.02904416716169
 31
0
 12
212.9709558328383
 22
67.61775957599188
 32
0
 13
212.9709558328383
 23
67.61775957599188
 33
0
  0
SOLID
  5
167
100
AcDbEntity
  8
Dimensions
  6
ByBlock
 62
    0
370
   -2
100
AcDbTrace
 10
217.5556349186104
 20
62.44436508138959
 30
0
 11
219.6177595759918
 21
60.97095583283831
 31
0
 12
219.0290441671617
 22
60.38224042400812
 32
0
 13
219.0290441671617
 23
60.38224042400812
 33
0
  0
MTEXT
  5
168
100
AcDbEntity
  8
Dimensions
  6
CONTINUOUS
 62
    0
370
   -2
100
AcDbMText
 10
231.8205324926581
 20
50.83111793679124
 30
0
 40
2.5
 41
35.34722323016294
 71
    5
 72
    1
  1
M4 clearance (3 pos)
  7
standard
210
0
220
0
230
1
 50
314.9999999999997
 73
    2
 44
1
  0
ENDBLK
  5
9E
330
9C
100
AcDbEntity
  8
0
100
AcDbBlockEnd
  0
BLOCK
  5
A0
330
9F
100
AcDbEntity
  8
0
100
AcDbBlockBegin
  2
*D19
 70
    1
 10
0
 20
0
  3
*D19
  1

  0
LINE
  5
169
100
AcDbEntity
  8
Dimensions
  6
ByBlock
 62
    0
370
   -2
100
AcDbLine
 10
31
 20
151
 11
111
 21
151
  0
SOLID
  5
16A
100
AcDbEntity
  8
Dimensions
  6
ByBlock
 62
    0
370
   -2
100
AcDbTrace
 10
31
 20
151
 30
0
 11
33.5
 21
151.4162846577728
 31
0
 12
33.5
 22
150.5837153422272
 32
0
 13
33.5
 23
150.5837153422272
 33
0
  0
SOLID
  5
16B
100
AcDbEntity
  8
Dimensions
  6
ByBlock
 62
    0
370
   -2
100
AcDbTrace
 10
111
 20
151
 30
0
 11
108.5
 21
150.5837153422272
 31
0
 12
108.5
 22
151.4162846577728
 32
0
 13
108.5
 23
151.4162846577728
 33
0
  0
MTEXT
  5
16C
100
AcDbEntity
  8
Dimensions
  6
CONTINUOUS
 62
    0
370
   -2
100
AcDbMText
 10
71
 20
152.875
 30
0
 40
2.5
 41
3.055555555555556
 71
    5
 72
    1
  1
80
  7
standard
210
0
220
0
230
1
 50
0
 73
    2
 44
1
  0
LINE
  5
16D
100
AcDbEntity
  8
Dimensions
  6
ByBlock
 62
    0
370
   -2
100
AcDbLine
 10
31
 20
114.125
 11
31
 21
152.25
  0
LINE
  5
16E
100
AcDbEntity
  8
Dimensions
  6
ByBlock
 62
    0
370
   -2
100
AcDbLine
 10
111
 20
114.125
 11
111
 21
152.25
  0
ENDBLK
  5
A1
330
9F
100
AcDbEntity
  8
0
100
AcDbBlockEnd
  0
BLOCK
  5
A3
330
A2
100
AcDbEntity
  8
0
100
AcDbBlockBegin
  2
*D35
 70
    1
 10
0
 20
0
  3
*D35
  1

  0
LINE
  5
16F
100
AcDbEntity
  8
Dimensions
  6
ByBlock
 62
    0
370
   -2
100
AcDbLine
 10
28
 20
-10
 11
41
 21
-10
  0
SOLID
  5
170
100
AcDbEntity
  8
Dimensions
  6
ByBlock
 62
    0
370
   -2
100
AcDbTrace
 10
28
 20
-10
 30
0
 11
30.5
 21
-9.58371534222716
 31
0
 12
30.5
 22
-10.41628465777284
 32
0
 13
30.5
 23
-10.41628465777284
 33
0
  0
SOLID
  5
171
100
AcDbEntity
  8
Dimensions
  6
ByBlock
 62
    0
370
   -2
100
AcDbTrace
 10
41
 20
-10
 30
0
 11
38.5
 21
-10.41628465777284
 31
0
 12
38.5
 22
-9.58371534222716
 32
0
 13
38.5
 23
-9.58371534222716
 33
0
  0
MTEXT
  5
172
100
AcDbEntity
  8
Dimensions
  6
CONTINUOUS
 62
    0
370
   -2
100
AcDbMText
 10
34.5
 20
-8.125
 30
0
 40
2.5
 41
2.500000000000155
 71
    5
 72
    1
  1
13
  7
standard
210
0
220
0
230
1
 50
0
 73
    2
 44
1
  0
LINE
  5
173
100
AcDbEntity
  8
Dimensions
  6
ByBlock
 62
    0
370
   -2
100
AcDbLine
 10
28
 20
14.375
 11
28
 21
-11.25
  0
LINE
  5
174
100
AcDbEntity
  8
Dimensions
  6
ByBlock
 62
    0
370
   -2
100
AcDbLine
 10
41
 20
14.375
 11
41
 21
-11.25
  0
ENDBLK
  5
A4
330
A2
100
AcDbEntity
  8
0
100
AcDbBlockEnd
  0
BLOCK
  5
A6
330
A5
100
AcDbEntity
  8
0
100
AcDbBlockBegin
  2
*D7
 70
    1
 10
0
 20
0
  3
*D7
  1

  0
LINE
  5
175
100
AcDbEntity
  8
Dimensions
  6
ByBlock
 62
    0
370
   -2
100
AcDbLine
 10
265
 20
64
 11
265
 21
97
  0
SOLID
  5
176
100
AcDbEntity
  8
Dimensions
  6
ByBlock
 62
    0
370
   -2
100
AcDbTrace
 10
265
 20
64
 30
0
 11
264.5837153422272
 21
66.5
 31
0
 12
265.4162846577728
 22
66.5
 32
0
 13
265.4162846577728
 23
66.5
 33
0
  0
SOLID
  5
177
100
AcDbEntity
  8
Dimensions
  6
ByBlock
 62
    0
370
   -2
100
AcDbTrace
 10
265
 20
97
 30
0
 11
265.4162846577728
 21
94.5
 31
0
 12
264.5837153422272
 22
94.5
 32
0
 13
264.5837153422272
 23
94.5
 33
0
  0
MTEXT
  5
178
100
AcDbEntity
  8
Dimensions
  6
CONTINUOUS
 62
    0
370
   -2
100
AcDbMText
 10
263.125
 20
80.5
 30
0
 40
2.5
 41
3.055555555555866
 71
    5
 72
    1
  1
33
  7
standard
210
0
220
0
230
1
 50
90
 73
    2
 44
1
  0
LINE
  5
179
100
AcDbEntity
  8
Dimensions
  6
ByBlock
 62
    0
370
   -2
100
AcDbLine
 10
216.625
 20
64
 11
266.25
 21
64
  0
LINE
  5
17A
100
AcDbEntity
  8
Dimensions
  6
ByBlock
 62
    0
370
   -2
100
AcDbLine
 10
158.625
 20
97
 11
266.25
 21
97
  0
ENDBLK
  5
A7
330
A5
100
AcDbEntity
  8
0
100
AcDbBlockEnd
  0
BLOCK
  5
A9
330
A8
100
AcDbEntity
  8
0
100
AcDbBlockBegin
  2
*D46
 70
    1
 10
0
 20
0
  3
*D46
  1

  0
LINE
  5
17B
100
AcDbEntity
  8
Dimensions
  6
ByBlock
 62
    0
370
   -2
100
AcDbLine
 10
-20
 20
34.3
 11
-20
 21
15
  0
SOLID
  5
17C
100
AcDbEntity
  8
Dimensions
  6
ByBlock
 62
    0
370
   -2
100
AcDbTrace
 10
-20
 20
34.3
 30
0
 11
-19.58371534222716
 21
31.8
 31
0
 12
-20.41628465777284
 22
31.8
 32
0
 13
-20.41628465777284
 23
31.8
 33
0
  0
SOLID
  5
17D
100
AcDbEntity
  8
Dimensions
  6
ByBlock
 62
    0
370
   -2
100
AcDbTrace
 10
-20
 20
15
 30
0
 11
-20.41628465777284
 21
17.5
 31
0
 12
-19.58371534222716
 22
17.5
 32
0
 13
-19.58371534222716
 23
17.5
 33
0
  0
MTEXT
  5
17E
100
AcDbEntity
  8
Dimensions
  6
CONTINUOUS
 62
    0
370
   -2
100
AcDbMText
 10
-21.875
 20
24.65
 30
0
 40
2.5
 41
5.277777777777933
 71
    5
 72
    1
  1
19.3
  7
standard
210
0
220
0
230
1
 50
90
 73
    2
 44
1
  0
LINE
  5
17F
100
AcDbEntity
  8
Dimensions
  6
ByBlock
 62
    0
370
   -2
100
AcDbLine
 10
27.375
 20
34.3
 11
-21.25
 21
34.3
  0
LINE
  5
180
100
AcDbEntity
  8
Dimensions
  6
ByBlock
 62
    0
370
   -2
100
AcDbLine
 10
27.375
 20
15
 11
-21.25
 21
15
  0
ENDBLK
  5
AA
330
A8
100
AcDbEntity
  8
0
100
AcDbBlockEnd
  0
BLOCK
  5
AC
330
AB
100
AcDbEntity
  8
0
100
AcDbBlockBegin
  2
*D1
 70
    1
 10
0
 20
0
  3
*D1
  1

  0
LINE
  5
181
100
AcDbEntity
  8
Dimensions
  6
ByBlock
 62
    0
370
   -2
100
AcDbLine
 10
250
 20
-10
 11
199
 21
-10
  0
SOLID
  5
182
100
AcDbEntity
  8
Dimensions
  6
ByBlock
 62
    0
370
   -2
100
AcDbTrace
 10
250
 20
-10
 30
0
 11
247.5
 21
-10.41628465777284
 31
0
 12
247.5
 22
-9.58371534222716
 32
0
 13
247.5
 23
-9.58371534222716
 33
0
  0
SOLID
  5
183
100
AcDbEntity
  8
Dimensions
  6
ByBlock
 62
    0
370
   -2
100
AcDbTrace
 10
199
 20
-10
 30
0
 11
201.5
 21
-9.58371534222716
 31
0
 12
201.5
 22
-10.41628465777284
 32
0
 13
201.5
 23
-10.41628465777284
 33
0
  0
MTEXT
  5
184
100
AcDbEntity
  8
Dimensions
  6
CONTINUOUS
 62
    0
370
   -2
100
AcDbMText
 10
224.5
 20
-8.125
 30
0
 40
2.5
 41
2.500000000000155
 71
    5
 72
    1
  1
51
  7
standard
210
0
220
0
230
1
 50
360
 73
    2
 44
1
  0
LINE
  5
185
100
AcDbEntity
  8
Dimensions
  6
ByBlock
 62
    0
370
   -2
100
AcDbLine
 10
250
 20
-0.625
 11
250
 21
-11.25
  0
LINE
  5
186
100
AcDbEntity
  8
Dimensions
  6
ByBlock
 62
    0
370
   -2
100
AcDbLine
 10
199
 20
18.375
 11
199
 21
-11.25
  0
ENDBLK
  5
AD
330
AB
100
AcDbEntity
  8
0
100
AcDbBlockEnd
  0
BLOCK
  5
AF
330
AE
100
AcDbEntity
  8
0
100
AcDbBlockBegin
  2
*D8
 70
    1
 10
0
 20
0
  3
*D8
  1

  0
LINE
  5
187
100
AcDbEntity
  8
Dimensions
  6
ByBlock
 62
    0
370
   -2
100
AcDbLine
 10
250
 20
-15
 11
216
 21
-15
  0
SOLID
  5
188
100
AcDbEntity
  8
Dimensions
  6
ByBlock
 62
    0
370
   -2
100
AcDbTrace
 10
250
 20
-15
 30
0
 11
247.5
 21
-15.41628465777284
 31
0
 12
247.5
 22
-14.58371534222716
 32
0
 13
247.5
 23
-14.58371534222716
 33
0
  0
SOLID
  5
189
100
AcDbEntity
  8
Dimensions
  6
ByBlock
 62
    0
370
   -2
100
AcDbTrace
 10
216
 20
-15
 30
0
 11
218.5
 21
-14.58371534222716
 31
0
 12
218.5
 22
-15.41628465777284
 32
0
 13
218.5
 23
-15.41628465777284
 33
0
  0
MTEXT
  5
18A
100
AcDbEntity
  8
Dimensions
  6
CONTINUOUS
 62
    0
370
   -2
100
AcDbMText
 10
233
 20
-13.125
 30
0
 40
2.5
 41
3.333333333333488
 71
    5
 72
    1
  1
34
  7
standard
210
0
220
0
230
1
 50
360
 73
    2
 44
1
  0
LINE
  5
18B
100
AcDbEntity
  8
Dimensions
  6
ByBlock
 62
    0
370
   -2
100
AcDbLine
 10
250
 20
-0.625
 11
250
 21
-16.25
  0
LINE
  5
18C
100
AcDbEntity
  8
Dimensions
  6
ByBlock
 62
    0
370
   -2
100
AcDbLine
 10
216
 20
63.375
 11
216
 21
-16.25
  0
ENDBLK
  5
B0
330
AE
100
AcDbEntity
  8
0
100
AcDbBlockEnd
  0
BLOCK
  5
B2
330
B1
100
AcDbEntity
  8
0
100
AcDbBlockBegin
  2
*D45
 70
    1
 10
0
 20
0
  3
*D45
  1

  0
LINE
  5
18D
100
AcDbEntity
  8
Dimensions
  6
ByBlock
 62
    0
370
   -2
100
AcDbLine
 10
-20
 20
15.00000000000001
 11
-20
 21
1.4210854715202e-15
  0
SOLID
  5
18E
100
AcDbEntity
  8
Dimensions
  6
ByBlock
 62
    0
370
   -2
100
AcDbTrace
 10
-20
 20
15.00000000000001
 30
0
 11
-19.58371534222716
 21
12.50000000000001
 31
0
 12
-20.41628465777284
 22
12.50000000000001
 32
0
 13
-20.41628465777284
 23
12.50000000000001
 33
0
  0
SOLID
  5
18F
100
AcDbEntity
  8
Dimensions
  6
ByBlock
 62
    0
370
   -2
100
AcDbTrace
 10
-20
 20
1.4210854715202e-15
 30
0
 11
-20.41628465777284
 21
2.500000000000001
 31
0
 12
-19.58371534222716
 22
2.500000000000001
 32
0
 13
-19.58371534222716
 23
2.500000000000001
 33
0
  0
MTEXT
  5
190
100
AcDbEntity
  8
Dimensions
  6
CONTINUOUS
 62
    0
370
   -2
100
AcDbMText
 10
-21.875
 20
7.500000000000004
 30
0
 40
2.5
 41
2.500000000000155
 71
    5
 72
    1
  1
15
  7
standard
210
0
220
0
230
1
 50
90
 73
    2
 44
1
  0
LINE
  5
191
100
AcDbEntity
  8
Dimensions
  6
ByBlock
 62
    0
370
   -2
100
AcDbLine
 10
27.375
 20
15
 11
-21.25
 21
15.00000000000001
  0
LINE
  5
192
100
AcDbEntity
  8
Dimensions
  6
ByBlock
 62
    0
370
   -2
100
AcDbLine
 10
-0.625
 20
7.654042494670958e-17
 11
-21.25
 21
1.57416632141362e-15
  0
ENDBLK
  5
B3
330
B1
100
AcDbEntity
  8
0
100
AcDbBlockEnd
  0
BLOCK
  5
B5
330
B4
100
AcDbEntity
  8
0
100
AcDbBlockBegin
  2
*D17
 70
    1
 10
0
 20
0
  3
*D17
  1

  0
LINE
  5
193
100
AcDbEntity
  8
Dimensions
  6
ByBlock
 62
    0
370
   -2
100
AcDbLine
 10
37
 20
146
 11
110
 21
146
  0
SOLID
  5
194
100
AcDbEntity
  8
Dimensions
  6
ByBlock
 62
    0
370
   -2
100
AcDbTrace
 10
37
 20
146
 30
0
 11
39.5
 21
146.4162846577728
 31
0
 12
39.5
 22
145.5837153422272
 32
0
 13
39.5
 23
145.5837153422272
 33
0
  0
SOLID
  5
195
100
AcDbEntity
  8
Dimensions
  6
ByBlock
 62
    0
370
   -2
100
AcDbTrace
 10
110
 20
146
 30
0
 11
107.5
 21
145.5837153422272
 31
0
 12
107.5
 22
146.4162846577728
 32
0
 13
107.5
 23
146.4162846577728
 33
0
  0
MTEXT
  5
196
100
AcDbEntity
  8
Dimensions
  6
CONTINUOUS
 62
    0
370
   -2
100
AcDbMText
 10
73.5
 20
147.875
 30
0
 40
2.5
 41
3.055555555555711
 71
    5
 72
    1
  1
73
  7
standard
210
0
220
0
230
1
 50
0
 73
    2
 44
1
  0
LINE
  5
197
100
AcDbEntity
  8
Dimensions
  6
ByBlock
 62
    0
370
   -2
100
AcDbLine
 10
37
 20
112.625
 11
37
 21
147.25
  0
LINE
  5
198
100
AcDbEntity
  8
Dimensions
  6
ByBlock
 62
    0
370
   -2
100
AcDbLine
 10
110
 20
112.625
 11
110
 21
147.25
  0
ENDBLK
  5
B6
330
B4
100
AcDbEntity
  8
0
100
AcDbBlockEnd
  0
BLOCK
  5
B8
330
B7
100
AcDbEntity
  8
0
100
AcDbBlockBegin
  2
*D36
 70
    1
 10
0
 20
0
  3
*D36
  1

  0
LINE
  5
199
100
AcDbEntity
  8
Dimensions
  6
ByBlock
 62
    0
370
   -2
100
AcDbLine
 10
0
 20
-15
 11
51
 21
-15
  0
SOLID
  5
19A
100
AcDbEntity
  8
Dimensions
  6
ByBlock
 62
    0
370
   -2
100
AcDbTrace
 10
0
 20
-15
 30
0
 11
2.5
 21
-14.58371534222716
 31
0
 12
2.5
 22
-15.41628465777284
 32
0
 13
2.5
 23
-15.41628465777284
 33
0
  0
SOLID
  5
19B
100
AcDbEntity
  8
Dimensions
  6
ByBlock
 62
    0
370
   -2
100
AcDbTrace
 10
51
 20
-15
 30
0
 11
48.5
 21
-15.41628465777284
 31
0
 12
48.5
 22
-14.58371534222716
 32
0
 13
48.5
 23
-14.58371534222716
 33
0
  0
MTEXT
  5
19C
100
AcDbEntity
  8
Dimensions
  6
CONTINUOUS
 62
    0
370
   -2
100
AcDbMText
 10
25.5
 20
-13.125
 30
0
 40
2.5
 41
2.500000000000155
 71
    5
 72
    1
  1
51
  7
standard
210
0
220
0
230
1
 50
0
 73
    2
 44
1
  0
LINE
  5
19D
100
AcDbEntity
  8
Dimensions
  6
ByBlock
 62
    0
370
   -2
100
AcDbLine
 10
-1.148106374200643e-16
 20
-0.625
 11
-2.296212748401287e-16
 21
-16.25
  0
LINE
  5
19E
100
AcDbEntity
  8
Dimensions
  6
ByBlock
 62
    0
370
   -2
100
AcDbLine
 10
51
 20
24.375
 11
51
 21
-16.25
  0
ENDBLK
  5
B9
330
B7
100
AcDbEntity
  8
0
100
AcDbBlockEnd
  0
BLOCK
  5
BB
330
BA
100
AcDbEntity
  8
0
100
AcDbBlockBegin
  2
*D41
 70
    1
 10
0
 20
0
  3
*D41
  1

  0
LINE
  5
19F
100
AcDbEntity
  8
Dimensions
  6
ByBlock
 62
    0
370
   -2
100
AcDbLine
 10
79.50000000000001
 20
-25
 11
126.5
 21
-25
  0
SOLID
  5
1A0
100
AcDbEntity
  8
Dimensions
  6
ByBlock
 62
    0
370
   -2
100
AcDbTrace
 10
79.50000000000001
 20
-25
 30
0
 11
82.00000000000001
 21
-24.58371534222716
 31
0
 12
82.00000000000001
 22
-25.41628465777284
 32
0
 13
82.00000000000001
 23
-25.41628465777284
 33
0
  0
SOLID
  5
1A1
100
AcDbEntity
  8
Dimensions
  6
ByBlock
 62
    0
370
   -2
100
AcDbTrace
 10
126.5
 20
-25
 30
0
 11
124
 21
-25.41628465777284
 31
0
 12
124
 22
-24.58371534222716
 32
0
 13
124
 23
-24.58371534222716
 33
0
  0
MTEXT
  5
1A2
100
AcDbEntity
  8
Dimensions
  6
CONTINUOUS
 62
    0
370
   -2
100
AcDbMText
 10
103
 20
-23.125
 30
0
 40
2.5
 41
3.333333333333333
 71
    5
 72
    1
  1
47
  7
standard
210
0
220
0
230
1
 50
0
 73
    2
 44
1
  0
LINE
  5
1A3
100
AcDbEntity
  8
Dimensions
  6
ByBlock
 62
    0
370
   -2
100
AcDbLine
 10
79.50000000000001
 20
24.375
 11
79.50000000000001
 21
-26.25
  0
LINE
  5
1A4
100
AcDbEntity
  8
Dimensions
  6
ByBlock
 62
    0
370
   -2
100
AcDbLine
 10
126.5
 20
24.375
 11
126.5
 21
-26.25
  0
ENDBLK
  5
BC
330
BA
100
AcDbEntity
  8
0
100
AcDbBlockEnd
  0
BLOCK
  5
BE
330
BD
100
AcDbEntity
  8
0
100
AcDbBlockBegin
  2
*D44
 70
    1
 10
0
 20
0
  3
*D44
  1

  0
LINE
  5
1A5
100
AcDbEntity
  8
Dimensions
  6
ByBlock
 62
    0
370
   -2
100
AcDbLine
 10
-15
 20
30.00000000000001
 11
-15
 21
20
  0
SOLID
  5
1A6
100
AcDbEntity
  8
Dimensions
  6
ByBlock
 62
    0
370
   -2
100
AcDbTrace
 10
-15
 20
30.00000000000001
 30
0
 11
-14.58371534222716
 21
27.50000000000001
 31
0
 12
-15.41628465777284
 22
27.50000000000001
 32
0
 13
-15.41628465777284
 23
27.50000000000001
 33
0
  0
SOLID
  5
1A7
100
AcDbEntity
  8
Dimensions
  6
ByBlock
 62
    0
370
   -2
100
AcDbTrace
 10
-15
 20
20
 30
0
 11
-15.41628465777284
 21
22.5
 31
0
 12
-14.58371534222716
 22
22.5
 32
0
 13
-14.58371534222716
 23
22.5
 33
0
  0
MTEXT
  5
1A8
100
AcDbEntity
  8
Dimensions
  6
CONTINUOUS
 62
    0
370
   -2
100
AcDbMText
 10
-16.875
 20
25.00000000000001
 30
0
 40
2.5
 41
2.5
 71
    5
 72
    1
  1
10
  7
standard
210
0
220
0
230
1
 50
90
 73
    2
 44
1
  0
LINE
  5
1A9
100
AcDbEntity
  8
Dimensions
  6
ByBlock
 62
    0
370
   -2
100
AcDbLine
 10
82.375
 20
30
 11
-16.25
 21
30.00000000000001
  0
LINE
  5
1AA
100
AcDbEntity
  8
Dimensions
  6
ByBlock
 62
    0
370
   -2
100
AcDbLine
 10
82.375
 20
20
 11
-16.25
 21
20
  0
ENDBLK
  5
BF
330
BD
100
AcDbEntity
  8
0
100
AcDbBlockEnd
  0
BLOCK
  5
C1
330
C0
100
AcDbEntity
  8
0
100
AcDbBlockBegin
  2
*D25
 70
    1
 10
0
 20
0
  3
*D25
  1

  0
LINE
  5
1AB
100
AcDbEntity
  8
Dimensions
  6
ByBlock
 62
    0
370
   -2
100
AcDbLine
 10
-20
 20
131
 11
-20
 21
69
  0
SOLID
  5
1AC
100
AcDbEntity
  8
Dimensions
  6
ByBlock
 62
    0
370
   -2
100
AcDbTrace
 10
-20
 20
131
 30
0
 11
-19.58371534222715
 21
128.5
 31
0
 12
-20.41628465777284
 22
128.5
 32
0
 13
-20.41628465777284
 23
128.5
 33
0
  0
SOLID
  5
1AD
100
AcDbEntity
  8
Dimensions
  6
ByBlock
 62
    0
370
   -2
100
AcDbTrace
 10
-20
 20
69
 30
0
 11
-20.41628465777284
 21
71.5
 31
0
 12
-19.58371534222716
 22
71.5
 32
0
 13
-19.58371534222716
 23
71.5
 33
0
  0
MTEXT
  5
1AE
100
AcDbEntity
  8
Dimensions
  6
CONTINUOUS
 62
    0
370
   -2
100
AcDbMText
 10
-21.875
 20
100
 30
0
 40
2.5
 41
3.055555555555711
 71
    5
 72
    1
  1
62
  7
standard
210
0
220
0
230
1
 50
90
 73
    2
 44
1
  0
LINE
  5
1AF
100
AcDbEntity
  8
Dimensions
  6
ByBlock
 62
    0
370
   -2
100
AcDbLine
 10
-0.625
 20
131
 11
-21.25
 21
131
  0
LINE
  5
1B0
100
AcDbEntity
  8
Dimensions
  6
ByBlock
 62
    0
370
   -2
100
AcDbLine
 10
54.375
 20
69
 11
-21.25
 21
69
  0
ENDBLK
  5
C2
330
C0
100
AcDbEntity
  8
0
100
AcDbBlockEnd
  0
BLOCK
  5
C4
330
C3
100
AcDbEntity
  8
0
100
AcDbBlockBegin
  2
*D14
 70
    1
 10
0
 20
0
  3
*D14
  1

  0
LINE
  5
1B1
100
AcDbEntity
  8
Dimensions
  6
ByBlock
 62
    0
370
   -2
100
AcDbLine
 10
106.580582617584
 20
86.9194173824159
 11
115.419417382416
 21
78.0805826175841
  0
SOLID
  5
1B2
100
AcDbEntity
  8
Dimensions
  6
ByBlock
 62
    0
370
   -2
100
AcDbTrace
 10
110.1161165235168
 20
83.38388347648319
 30
0
 11
108.0539918661353
 21
84.85729272503445
 31
0
 12
108.6427072749655
 22
85.44600813386465
 32
0
 13
108.6427072749655
 23
85.44600813386465
 33
0
  0
SOLID
  5
1B3
100
AcDbEntity
  8
Dimensions
  6
ByBlock
 62
    0
370
   -2
100
AcDbTrace
 10
111.8838834764832
 20
81.61611652351681
 30
0
 11
113.9460081338647
 21
80.14270727496556
 31
0
 12
113.3572927250345
 22
79.55399186613535
 32
0
 13
113.3572927250345
 23
79.55399186613535
 33
0
  0
MTEXT
  5
1B4
100
AcDbEntity
  8
Dimensions
  6
CONTINUOUS
 62
    0
370
   -2
100
AcDbMText
 10
126.1487810505311
 20
70.00286937891872
 30
0
 40
2.5
 41
35.34722323016278
 71
    5
 72
    1
  1
M2 clearance (4 pos)
  7
standard
210
0
220
0
230
1
 50
315.0000000000005
 73
    2
 44
1
  0
ENDBLK
  5
C5
330
C3
100
AcDbEntity
  8
0
100
AcDbBlockEnd
  0
BLOCK
  5
C7
330
C6
100
AcDbEntity
  8
0
100
AcDbBlockBegin
  2
*D28
 70
    1
 10
0
 20
0
  3
*D28
  1

  0
LINE
  5
1B5
100
AcDbEntity
  8
Dimensions
  6
ByBlock
 62
    0
370
   -2
100
AcDbLine
 10
0
 20
-5
 11
7.500000000000002
 21
-5
  0
SOLID
  5
1B6
100
AcDbEntity
  8
Dimensions
  6
ByBlock
 62
    0
370
   -2
100
AcDbTrace
 10
0
 20
-5
 30
0
 11
2.5
 21
-4.58371534222716
 31
0
 12
2.5
 22
-5.416284657772841
 32
0
 13
2.5
 23
-5.416284657772841
 33
0
  0
SOLID
  5
1B7
100
AcDbEntity
  8
Dimensions
  6
ByBlock
 62
    0
370
   -2
100
AcDbTrace
 10
7.500000000000002
 20
-5
 30
0
 11
5.000000000000002
 21
-5.416284657772841
 31
0
 12
5.000000000000002
 22
-4.583715342227159
 32
0
 13
5.000000000000002
 23
-4.583715342227159
 33
0
  0
MTEXT
  5
1B8
100
AcDbEntity
  8
Dimensions
  6
CONTINUOUS
 62
    0
370
   -2
100
AcDbMText
 10
3.750000000000001
 20
-3.125
 30
0
 40
2.5
 41
3.888888888889044
 71
    5
 72
    1
  1
7.5
  7
standard
210
0
220
0
230
1
 50
0
 73
    2
 44
1
  0
LINE
  5
1B9
100
AcDbEntity
  8
Dimensions
  6
ByBlock
 62
    0
370
   -2
100
AcDbLine
 10
-1.148106374200643e-16
 20
-0.625
 11
-2.296212748401287e-16
 21
-6.25
  0
LINE
  5
1BA
100
AcDbEntity
  8
Dimensions
  6
ByBlock
 62
    0
370
   -2
100
AcDbLine
 10
7.500000000000002
 20
11.375
 11
7.500000000000002
 21
-6.25
  0
ENDBLK
  5
C8
330
C6
100
AcDbEntity
  8
0
100
AcDbBlockEnd
  0
BLOCK
  5
CA
330
C9
100
AcDbEntity
  8
0
100
AcDbBlockBegin
  2
*D20
 70
    1
 10
0
 20
0
  3
*D20
  1

  0
LINE
  5
1BB
100
AcDbEntity
  8
Dimensions
  6
ByBlock
 62
    0
370
   -2
100
AcDbLine
 10
0
 20
141
 11
55
 21
141
  0
SOLID
  5
1BC
100
AcDbEntity
  8
Dimensions
  6
ByBlock
 62
    0
370
   -2
100
AcDbTrace
 10
0
 20
141
 30
0
 11
2.5
 21
141.4162846577728
 31
0
 12
2.5
 22
140.5837153422272
 32
0
 13
2.5
 23
140.5837153422272
 33
0
  0
SOLID
  5
1BD
100
AcDbEntity
  8
Dimensions
  6
ByBlock
 62
    0
370
   -2
100
AcDbTrace
 10
55
 20
141
 30
0
 11
52.5
 21
140.5837153422272
 31
0
 12
52.5
 22
141.4162846577728
 32
0
 13
52.5
 23
141.4162846577728
 33
0
  0
MTEXT
  5
1BE
100
AcDbEntity
  8
Dimensions
  6
CONTINUOUS
 62
    0
370
   -2
100
AcDbMText
 10
27.5
 20
142.875
 30
0
 40
2.5
 41
3.055555555555866
 71
    5
 72
    1
  1
55
  7
standard
210
0
220
0
230
1
 50
0
 73
    2
 44
1
  0
LINE
  5
1BF
100
AcDbEntity
  8
Dimensions
  6
ByBlock
 62
    0
370
   -2
100
AcDbLine
 10
3.827021247335479e-17
 20
131.625
 11
7.654042494670958e-17
 21
142.25
  0
LINE
  5
1C0
100
AcDbEntity
  8
Dimensions
  6
ByBlock
 62
    0
370
   -2
100
AcDbLine
 10
55
 20
69.625
 11
55
 21
142.25
  0
ENDBLK
  5
CB
330
C9
100
AcDbEntity
  8
0
100
AcDbBlockEnd
  0
BLOCK
  5
CD
330
CC
100
AcDbEntity
  8
0
100
AcDbBlockBegin
  2
*D16
 70
    1
 10
0
 20
0
  3
*D16
  1

  0
LINE
  5
1C1
100
AcDbEntity
  8
Dimensions
  6
ByBlock
 62
    0
370
   -2
100
AcDbLine
 10
0
 20
146
 11
37
 21
146
  0
SOLID
  5
1C2
100
AcDbEntity
  8
Dimensions
  6
ByBlock
 62
    0
370
   -2
100
AcDbTrace
 10
0
 20
146
 30
0
 11
2.5
 21
146.4162846577728
 31
0
 12
2.5
 22
145.5837153422272
 32
0
 13
2.5
 23
145.5837153422272
 33
0
  0
SOLID
  5
1C3
100
AcDbEntity
  8
Dimensions
  6
ByBlock
 62
    0
370
   -2
100
AcDbTrace
 10
37
 20
146
 30
0
 11
34.5
 21
145.5837153422272
 31
0
 12
34.5
 22
146.4162846577728
 32
0
 13
34.5
 23
146.4162846577728
 33
0
  0
MTEXT
  5
1C4
100
AcDbEntity
  8
Dimensions
  6
CONTINUOUS
 62
    0
370
   -2
100
AcDbMText
 10
18.5
 20
147.875
 30
0
 40
2.5
 41
3.055555555555711
 71
    5
 72
    1
  1
37
  7
standard
210
0
220
0
230
1
 50
0
 73
    2
 44
1
  0
LINE
  5
1C5
100
AcDbEntity
  8
Dimensions
  6
ByBlock
 62
    0
370
   -2
100
AcDbLine
 10
3.827021247335479e-17
 20
131.625
 11
7.654042494670958e-17
 21
147.25
  0
LINE
  5
1C6
100
AcDbEntity
  8
Dimensions
  6
ByBlock
 62
    0
370
   -2
100
AcDbLine
 10
37
 20
112.625
 11
37
 21
147.25
  0
ENDBLK
  5
CE
330
CC
100
AcDbEntity
  8
0
100
AcDbBlockEnd
  0
BLOCK
  5
D0
330
CF
100
AcDbEntity
  8
0
100
AcDbBlockBegin
  2
*D42
 70
    1
 10
0
 20
0
  3
*D42
  1

  0
LINE
  5
1C7
100
AcDbEntity
  8
Dimensions
  6
ByBlock
 62
    0
370
   -2
100
AcDbLine
 10
-9.999999999999998
 20
25.00000000000001
 11
-10
 21
5.329070518200751e-16
  0
SOLID
  5
1C8
100
AcDbEntity
  8
Dimensions
  6
ByBlock
 62
    0
370
   -2
100
AcDbTrace
 10
-9.999999999999998
 20
25.00000000000001
 30
0
 11
-9.583715342227158
 21
22.50000000000001
 31
0
 12
-10.41628465777284
 22
22.50000000000001
 32
0
 13
-10.41628465777284
 23
22.50000000000001
 33
0
  0
SOLID
  5
1C9
100
AcDbEntity
  8
Dimensions
  6
ByBlock
 62
    0
370
   -2
100
AcDbTrace
 10
-10
 20
5.329070518200751e-16
 30
0
 11
-10.41628465777284
 21
2.5
 31
0
 12
-9.583715342227158
 22
2.5
 32
0
 13
-9.583715342227158
 23
2.5
 33
0
  0
MTEXT
  5
1CA
100
AcDbEntity
  8
Dimensions
  6
CONTINUOUS
 62
    0
370
   -2
100
AcDbMText
 10
-11.875
 20
12.5
 30
0
 40
2.5
 41
3.055555555555711
 71
    5
 72
    1
  1
25
  7
standard
210
0
220
0
230
1
 50
90
 73
    2
 44
1
  0
LINE
  5
1CB
100
AcDbEntity
  8
Dimensions
  6
ByBlock
 62
    0
370
   -2
100
AcDbLine
 10
78.87500000000001
 20
25
 11
-11.25
 21
25.00000000000001
  0
LINE
  5
1CC
100
AcDbEntity
  8
Dimensions
  6
ByBlock
 62
    0
370
   -2
100
AcDbLine
 10
-0.625
 20
7.654042494670958e-17
 11
-11.25
 21
6.859879017134943e-16
  0
ENDBLK
  5
D1
330
CF
100
AcDbEntity
  8
0
100
AcDbBlockEnd
  0
BLOCK
  5
D3
330
D2
100
AcDbEntity
  8
0
100
AcDbBlockBegin
  2
*D30
 70
    1
 10
0
 20
0
  3
*D30
  1

  0
LINE
  5
1CD
100
AcDbEntity
  8
Dimensions
  6
ByBlock
 62
    0
370
   -2
100
AcDbLine
 10
0
 20
136
 11
7.5
 21
136
  0
SOLID
  5
1CE
100
AcDbEntity
  8
Dimensions
  6
ByBlock
 62
    0
370
   -2
100
AcDbTrace
 10
0
 20
136
 30
0
 11
2.5
 21
136.4162846577728
 31
0
 12
2.5
 22
135.5837153422272
 32
0
 13
2.5
 23
135.5837153422272
 33
0
  0
SOLID
  5
1CF
100
AcDbEntity
  8
Dimensions
  6
ByBlock
 62
    0
370
   -2
100
AcDbTrace
 10
7.5
 20
136
 30
0
 11
5
 21
135.5837153422272
 31
0
 12
5
 22
136.4162846577728
 32
0
 13
5
 23
136.4162846577728
 33
0
  0
MTEXT
  5
1D0
100
AcDbEntity
  8
Dimensions
  6
CONTINUOUS
 62
    0
370
   -2
100
AcDbMText
 10
3.75
 20
137.875
 30
0
 40
2.5
 41
3.888888888889044
 71
    5
 72
    1
  1
7.5
  7
standard
210
0
220
0
230
1
 50
0
 73
    2
 44
1
  0
LINE
  5
1D1
100
AcDbEntity
  8
Dimensions
  6
ByBlock
 62
    0
370
   -2
100
AcDbLine
 10
3.827021247335479e-17
 20
131.625
 11
7.654042494670958e-17
 21
137.25
  0
LINE
  5
1D2
100
AcDbEntity
  8
Dimensions
  6
ByBlock
 62
    0
370
   -2
100
AcDbLine
 10
7.5
 20
119.625
 11
7.5
 21
137.25
  0
ENDBLK
  5
D4
330
D2
100
AcDbEntity
  8
0
100
AcDbBlockEnd
  0
BLOCK
  5
D6
330
D5
100
AcDbEntity
  8
0
100
AcDbBlockBegin
  2
*D31
 70
    1
 10
0
 20
0
  3
*D31
  1

  0
LINE
  5
1D3
100
AcDbEntity
  8
Dimensions
  6
ByBlock
 62
    0
370
   -2
100
AcDbLine
 10
-4.999999999999999
 20
131
 11
-5
 21
119
  0
SOLID
  5
1D4
100
AcDbEntity
  8
Dimensions
  6
ByBlock
 62
    0
370
   -2
100
AcDbTrace
 10
-4.999999999999999
 20
131
 30
0
 11
-4.583715342227158
 21
128.5
 31
0
 12
-5.41628465777284
 22
128.5
 32
0
 13
-5.41628465777284
 23
128.5
 33
0
  0
SOLID
  5
1D5
100
AcDbEntity
  8
Dimensions
  6
ByBlock
 62
    0
370
   -2
100
AcDbTrace
 10
-5
 20
119
 30
0
 11
-5.41628465777284
 21
121.5
 31
0
 12
-4.583715342227159
 22
121.5
 32
0
 13
-4.583715342227159
 23
121.5
 33
0
  0
MTEXT
  5
1D6
100
AcDbEntity
  8
Dimensions
  6
CONTINUOUS
 62
    0
370
   -2
100
AcDbMText
 10
-6.875
 20
125
 30
0
 40
2.5
 41
2.5
 71
    5
 72
    1
  1
12
  7
standard
210
0
220
0
230
1
 50
90
 73
    2
 44
1
  0
LINE
  5
1D7
100
AcDbEntity
  8
Dimensions
  6
ByBlock
 62
    0
370
   -2
100
AcDbLine
 10
-0.625
 20
131
 11
-6.249999999999999
 21
131
  0
LINE
  5
1D8
100
AcDbEntity
  8
Dimensions
  6
ByBlock
 62
    0
370
   -2
100
AcDbLine
 10
6.875
 20
119
 11
-6.25
 21
119
  0
ENDBLK
  5
D7
330
D5
100
AcDbEntity
  8
0
100
AcDbBlockEnd
  0
BLOCK
  5
D9
330
D8
100
AcDbEntity
  8
0
100
AcDbBlockBegin
  2
*D37
 70
    1
 10
0
 20
0
  3
*D37
  1

  0
LINE
  5
1D9
100
AcDbEntity
  8
Dimensions
  6
ByBlock
 62
    0
370
   -2
100
AcDbLine
 10
0
 20
-30
 11
250
 21
-30
  0
SOLID
  5
1DA
100
AcDbEntity
  8
Dimensions
  6
ByBlock
 62
    0
370
   -2
100
AcDbTrace
 10
0
 20
-30
 30
0
 11
2.5
 21
-29.58371534222716
 31
0
 12
2.5
 22
-30.41628465777284
 32
0
 13
2.5
 23
-30.41628465777284
 33
0
  0
SOLID
  5
1DB
100
AcDbEntity
  8
Dimensions
  6
ByBlock
 62
    0
370
   -2
100
AcDbTrace
 10
250
 20
-30
 30
0
 11
247.5
 21
-30.41628465777284
 31
0
 12
247.5
 22
-29.58371534222716
 32
0
 13
247.5
 23
-29.58371534222716
 33
0
  0
MTEXT
  5
1DC
100
AcDbEntity
  8
Dimensions
  6
CONTINUOUS
 62
    0
370
   -2
100
AcDbMText
 10
125
 20
-28.125
 30
0
 40
2.5
 41
5.000000000000155
 71
    5
 72
    1
  1
250
  7
standard
210
0
220
0
230
1
 50
0
 73
    2
 44
1
  0
LINE
  5
1DD
100
AcDbEntity
  8
Dimensions
  6
ByBlock
 62
    0
370
   -2
100
AcDbLine
 10
-1.148106374200643e-16
 20
-0.625
 11
-2.296212748401287e-16
 21
-31.25
  0
LINE
  5
1DE
100
AcDbEntity
  8
Dimensions
  6
ByBlock
 62
    0
370
   -2
100
AcDbLine
 10
250
 20
-0.625
 11
250
 21
-31.25
  0
ENDBLK
  5
DA
330
D8
100
AcDbEntity
  8
0
100
AcDbBlockEnd
  0
BLOCK
  5
DC
330
DB
100
AcDbEntity
  8
0
100
AcDbBlockBegin
  2
*D47
 70
    1
 10
0
 20
0
  3
*D47
  1

  0
LINE
  5
1DF
100
AcDbEntity
  8
Dimensions
  6
ByBlock
 62
    0
370
   -2
100
AcDbLine
 10
121.868450583228
 20
29.63154941677181
 11
131.131549416772
 21
20.36845058322819
  0
SOLID
  5
1E0
100
AcDbEntity
  8
Dimensions
  6
ByBlock
 62
    0
370
   -2
100
AcDbTrace
 10
125.4039844891608
 20
26.09601551083915
 30
0
 11
123.3418598317793
 21
27.56942475939038
 31
0
 12
123.9305752406095
 22
28.15814016822058
 32
0
 13
123.9305752406095
 23
28.15814016822058
 33
0
  0
SOLID
  5
1E1
100
AcDbEntity
  8
Dimensions
  6
ByBlock
 62
    0
370
   -2
100
AcDbTrace
 10
127.5960155108392
 20
23.90398448916085
 30
0
 11
129.6581401682207
 21
22.43057524060962
 31
0
 12
129.0694247593905
 22
21.84185983177942
 32
0
 13
129.0694247593905
 23
21.84185983177942
 33
0
  0
MTEXT
  5
1E2
100
AcDbEntity
  8
Dimensions
  6
CONTINUOUS
 62
    0
370
   -2
100
AcDbMText
 10
141.7627038097225
 20
12.38894661972766
 30
0
 40
2.5
 41
35.06944545238516
 71
    5
 72
    1
  1
M3 clearance (2 pos)
  7
standard
210
0
220
0
230
1
 50
315.0000000000012
 73
    2
 44
1
  0
ENDBLK
  5
DD
330
DB
100
AcDbEntity
  8
0
100
AcDbBlockEnd
  0
BLOCK
  5
DF
330
DE
100
AcDbEntity
  8
0
100
AcDbBlockBegin
  2
*D34
 70
    1
 10
0
 20
0
  3
*D34
  1

  0
LINE
  5
1E3
100
AcDbEntity
  8
Dimensions
  6
ByBlock
 62
    0
370
   -2
100
AcDbLine
 10
0
 20
-10
 11
28
 21
-10
  0
SOLID
  5
1E4
100
AcDbEntity
  8
Dimensions
  6
ByBlock
 62
    0
370
   -2
100
AcDbTrace
 10
0
 20
-10
 30
0
 11
2.5
 21
-9.58371534222716
 31
0
 12
2.5
 22
-10.41628465777284
 32
0
 13
2.5
 23
-10.41628465777284
 33
0
  0
SOLID
  5
1E5
100
AcDbEntity
  8
Dimensions
  6
ByBlock
 62
    0
370
   -2
100
AcDbTrace
 10
28
 20
-10
 30
0
 11
25.5
 21
-10.41628465777284
 31
0
 12
25.5
 22
-9.58371534222716
 32
0
 13
25.5
 23
-9.58371534222716
 33
0
  0
MTEXT
  5
1E6
100
AcDbEntity
  8
Dimensions
  6
CONTINUOUS
 62
    0
370
   -2
100
AcDbMText
 10
14
 20
-8.125
 30
0
 40
2.5
 41
3.055555555555556
 71
    5
 72
    1
  1
28
  7
standard
210
0
220
0
230
1
 50
0
 73
    2
 44
1
  0
LINE
  5
1E7
100
AcDbEntity
  8
Dimensions
  6
ByBlock
 62
    0
370
   -2
100
AcDbLine
 10
-1.148106374200643e-16
 20
-0.625
 11
-2.296212748401287e-16
 21
-11.25
  0
LINE
  5
1E8
100
AcDbEntity
  8
Dimensions
  6
ByBlock
 62
    0
370
   -2
100
AcDbLine
 10
28
 20
14.375
 11
28
 21
-11.25
  0
ENDBLK
  5
E0
330
DE
100
AcDbEntity
  8
0
100
AcDbBlockEnd
  0
BLOCK
  5
E2
330
E1
100
AcDbEntity
  8
0
100
AcDbBlockBegin
  2
*D40
 70
    1
 10
0
 20
0
  3
*D40
  1

  0
LINE
  5
1E9
100
AcDbEntity
  8
Dimensions
  6
ByBlock
 62
    0
370
   -2
100
AcDbLine
 10
0
 20
-25
 11
79.50000000000001
 21
-25
  0
SOLID
  5
1EA
100
AcDbEntity
  8
Dimensions
  6
ByBlock
 62
    0
370
   -2
100
AcDbTrace
 10
0
 20
-25
 30
0
 11
2.5
 21
-24.58371534222716
 31
0
 12
2.5
 22
-25.41628465777284
 32
0
 13
2.5
 23
-25.41628465777284
 33
0
  0
SOLID
  5
1EB
100
AcDbEntity
  8
Dimensions
  6
ByBlock
 62
    0
370
   -2
100
AcDbTrace
 10
79.50000000000001
 20
-25
 30
0
 11
77.00000000000001
 21
-25.41628465777284
 31
0
 12
77.00000000000001
 22
-24.58371534222716
 32
0
 13
77.00000000000001
 23
-24.58371534222716
 33
0
  0
MTEXT
  5
1EC
100
AcDbEntity
  8
Dimensions
  6
CONTINUOUS
 62
    0
370
   -2
100
AcDbMText
 10
39.75000000000001
 20
-23.125
 30
0
 40
2.5
 41
5.833333333333488
 71
    5
 72
    1
  1
79.5
  7
standard
210
0
220
0
230
1
 50
0
 73
    2
 44
1
  0
LINE
  5
1ED
100
AcDbEntity
  8
Dimensions
  6
ByBlock
 62
    0
370
   -2
100
AcDbLine
 10
-1.148106374200643e-16
 20
-0.625
 11
-2.296212748401287e-16
 21
-26.25
  0
LINE
  5
1EE
100
AcDbEntity
  8
Dimensions
  6
ByBlock
 62
    0
370
   -2
100
AcDbLine
 10
79.50000000000001
 20
24.375
 11
79.50000000000001
 21
-26.25
  0
ENDBLK
  5
E3
330
E1
100
AcDbEntity
  8
0
100
AcDbBlockEnd
  0
BLOCK
  5
E5
330
E4
100
AcDbEntity
  8
0
100
AcDbBlockBegin
  2
*D27
 70
    1
 10
0
 20
0
  3
*D27
  1

  0
LINE
  5
1EF
100
AcDbEntity
  8
Dimensions
  6
ByBlock
 62
    0
370
   -2
100
AcDbLine
 10
-15
 20
113.5
 11
-15
 21
82.50000000000001
  0
SOLID
  5
1F0
100
AcDbEntity
  8
Dimensions
  6
ByBlock
 62
    0
370
   -2
100
AcDbTrace
 10
-15
 20
113.5
 30
0
 11
-14.58371534222716
 21
111
 31
0
 12
-15.41628465777284
 22
111
 32
0
 13
-15.41628465777284
 23
111
 33
0
  0
SOLID
  5
1F1
100
AcDbEntity
  8
Dimensions
  6
ByBlock
 62
    0
370
   -2
100
AcDbTrace
 10
-15
 20
82.50000000000001
 30
0
 11
-15.41628465777284
 21
85.00000000000001
 31
0
 12
-14.58371534222716
 22
85.00000000000001
 32
0
 13
-14.58371534222716
 23
85.00000000000001
 33
0
  0
MTEXT
  5
1F2
100
AcDbEntity
  8
Dimensions
  6
CONTINUOUS
 62
    0
370
   -2
100
AcDbMText
 10
-16.875
 20
98
 30
0
 40
2.5
 41
2.500000000000155
 71
    5
 72
    1
  1
31
  7
standard
210
0
220
0
230
1
 50
90
 73
    2
 44
1
  0
LINE
  5
1F3
100
AcDbEntity
  8
Dimensions
  6
ByBlock
 62
    0
370
   -2
100
AcDbLine
 10
30.375
 20
113.5
 11
-16.25
 21
113.5
  0
LINE
  5
1F4
100
AcDbEntity
  8
Dimensions
  6
ByBlock
 62
    0
370
   -2
100
AcDbLine
 10
30.375
 20
82.50000000000001
 11
-16.25
 21
82.50000000000001
  0
ENDBLK
  5
E6
330
E4
100
AcDbEntity
  8
0
100
AcDbBlockEnd
  0
BLOCK
  5
E8
330
E7
100
AcDbEntity
  8
0
100
AcDbBlockBegin
  2
*D6
 70
    1
 10
0
 20
0
  3
*D6
  1

  0
LINE
  5
1F5
100
AcDbEntity
  8
Dimensions
  6
ByBlock
 62
    0
370
   -2
100
AcDbLine
 10
265
 20
21
 11
265
 21
64
  0
SOLID
  5
1F6
100
AcDbEntity
  8
Dimensions
  6
ByBlock
 62
    0
370
   -2
100
AcDbTrace
 10
265
 20
21
 30
0
 11
264.5837153422272
 21
23.5
 31
0
 12
265.4162846577728
 22
23.5
 32
0
 13
265.4162846577728
 23
23.5
 33
0
  0
SOLID
  5
1F7
100
AcDbEntity
  8
Dimensions
  6
ByBlock
 62
    0
370
   -2
100
AcDbTrace
 10
265
 20
64
 30
0
 11
265.4162846577728
 21
61.5
 31
0
 12
264.5837153422272
 22
61.5
 32
0
 13
264.5837153422272
 23
61.5
 33
0
  0
MTEXT
  5
1F8
100
AcDbEntity
  8
Dimensions
  6
CONTINUOUS
 62
    0
370
   -2
100
AcDbMText
 10
263.125
 20
42.5
 30
0
 40
2.5
 41
3.333333333333488
 71
    5
 72
    1
  1
43
  7
standard
210
0
220
0
230
1
 50
90
 73
    2
 44
1
  0
LINE
  5
1F9
100
AcDbEntity
  8
Dimensions
  6
ByBlock
 62
    0
370
   -2
100
AcDbLine
 10
158.625
 20
21
 11
266.25
 21
21
  0
LINE
  5
1FA
100
AcDbEntity
  8
Dimensions
  6
ByBlock
 62
    0
370
   -2
100
AcDbLine
 10
216.625
 20
64
 11
266.25
 21
64
  0
ENDBLK
  5
E9
330
E7
100
AcDbEntity
  8
0
100
AcDbBlockEnd
  0
BLOCK
  5
EB
330
EA
100
AcDbEntity
  8
0
100
AcDbBlockBegin
  2
*D38
 70
    1
 10
0
 20
0
  3
*D38
  1

  0
LINE
  5
1FB
100
AcDbEntity
  8
Dimensions
  6
ByBlock
 62
    0
370
   -2
100
AcDbLine
 10
0
 20
-20
 11
83
 21
-20
  0
SOLID
  5
1FC
100
AcDbEntity
  8
Dimensions
  6
ByBlock
 62
    0
370
   -2
100
AcDbTrace
 10
0
 20
-20
 30
0
 11
2.5
 21
-19.58371534222716
 31
0
 12
2.5
 22
-20.41628465777284
 32
0
 13
2.5
 23
-20.41628465777284
 33
0
  0
SOLID
  5
1FD
100
AcDbEntity
  8
Dimensions
  6
ByBlock
 62
    0
370
   -2
100
AcDbTrace
 10
83
 20
-20
 30
0
 11
80.5
 21
-20.41628465777284
 31
0
 12
80.5
 22
-19.58371534222716
 32
0
 13
80.5
 23
-19.58371534222716
 33
0
  0
MTEXT
  5
1FE
100
AcDbEntity
  8
Dimensions
  6
CONTINUOUS
 62
    0
370
   -2
100
AcDbMText
 10
41.5
 20
-18.125
 30
0
 40
2.5
 41
3.055555555555711
 71
    5
 72
    1
  1
83
  7
standard
210
0
220
0
230
1
 50
0
 73
    2
 44
1
  0
LINE
  5
1FF
100
AcDbEntity
  8
Dimensions
  6
ByBlock
 62
    0
370
   -2
100
AcDbLine
 10
-1.148106374200643e-16
 20
-0.625
 11
-2.296212748401287e-16
 21
-21.25
  0
LINE
  5
200
100
AcDbEntity
  8
Dimensions
  6
ByBlock
 62
    0
370
   -2
100
AcDbLine
 10
83
 20
19.375
 11
83
 21
-21.25
  0
ENDBLK
  5
EC
330
EA
100
AcDbEntity
  8
0
100
AcDbBlockEnd
  0
ENDSEC
  0
SECTION
  2
ENTITIES
  0
CIRCLE
  5
201
100
AcDbEntity
  8
LCD cut
  6
ByLayer
 62
  256
370
   -1
100
AcDbCircle
 10
31
 20
113.5
 40
1.25
  0
CIRCLE
  5
202
100
AcDbEntity
  8
LCD cut
  6
ByLayer
 62
  256
370
   -1
100
AcDbCircle
 10
31
 20
82.5
 40
1.25
  0
CIRCLE
  5
203
100
AcDbEntity
  8
LCD cut
  6
ByLayer
 62
  256
370
   -1
100
AcDbCircle
 10
111
 20
82.5
 40
1.25
  0
CIRCLE
  5
204
100
AcDbEntity
  8
LCD cut
  6
ByLayer
 62
  256
370
   -1
100
AcDbCircle
 10
111
 20
113.5
 40
1.25
  0
LWPOLYLINE
  5
205
100
AcDbEntity
  8
LCD cut
  6
ByLayer
 62
  256
370
   -1
100
AcDbPolyline
 90
    5
 70
    1
 43
0
 10
37
 20
112
 10
110
 20
112
 10
110
 20
84.00000000000001
 10
37
 20
84.00000000000001
 10
37
 20
84.00000000000001
  0
CIRCLE
  5
206
100
AcDbEntity
  8
Buttons cut
  6
ByLayer
 62
  256
370
   -1
100
AcDbCircle
 10
55
 20
69
 40
3.85
  0
CIRCLE
  5
207
100
AcDbEntity
  8
Buttons cut
  6
ByLayer
 62
  256
370
   -1
100
AcDbCircle
 10
92
 20
69
 40
3.85
  0
LINE
  5
208
100
AcDbEntity
  8
PCB
  6
ByLayer
 62
  256
370
   -1
100
AcDbLine
 10
156
 20
99
 11
160
 21
95
  0
LINE
  5
209
100
AcDbEntity
  8
PCB
  6
ByLayer
 62
  256
370
   -1
100
AcDbLine
 10
160
 20
99
 11
156
 21
95
  0
LINE
  5
20A
100
AcDbEntity
  8
PCB
  6
ByLayer
 62
  256
370
   -1
100
AcDbLine
 10
214
 20
66
 11
218
 21
62
  0
LINE
  5
20B
100
AcDbEntity
  8
PCB
  6
ByLayer
 62
  256
370
   -1
100
AcDbLine
 10
218
 20
66
 11
214
 21
62
  0
LWPOLYLINE
  5
20C
100
AcDbEntity
  8
PCB cut
  6
ByLayer
 62
  256
370
   -1
100
AcDbPolyline
 90
    4
 70
    1
 43
0
 10
186
 20
31
 10
199
 20
31
 10
199
 20
19
 10
186
 20
19
  0
LINE
  5
20D
100
AcDbEntity
  8
PCB
  6
ByLayer
 62
  256
370
   -1
100
AcDbLine
 10
156
 20
23
 11
160
 21
19
  0
LINE
  5
20E
100
AcDbEntity
  8
PCB
  6
ByLayer
 62
  256
370
   -1
100
AcDbLine
 10
160
 20
23
 11
156
 21
19
  0
LWPOLYLINE
  5
20F
100
AcDbEntity
  8
PCB
  6
ByLayer
 62
  256
370
   -1
100
AcDbPolyline
 90
    4
 70
    1
 43
0
 10
152
 20
15
 10
222
 20
15
 10
222
 20
103
 10
152
 20
103
  0
LINE
  5
210
100
AcDbEntity
  8
Buttons
  6
ByLayer
 62
  256
370
   -1
100
AcDbLine
 10
51
 20
73
 11
59
 21
65
  0
LINE
  5
211
100
AcDbEntity
  8
Buttons
  6
ByLayer
 62
  256
370
   -1
100
AcDbLine
 10
59
 20
73
 11
51
 21
65
  0
LINE
  5
212
100
AcDbEntity
  8
Buttons
  6
ByLayer
 62
  256
370
   -1
100
AcDbLine
 10
88
 20
73
 11
96
 21
65
  0
LINE
  5
213
100
AcDbEntity
  8
Buttons
  6
ByLayer
 62
  256
370
   -1
100
AcDbLine
 10
96
 20
73
 11
88
 21
65
  0
CIRCLE
  5
214
100
AcDbEntity
  8
PCB cut
  6
ByLayer
 62
  256
370
   -1
100
AcDbCircle
 10
158
 20
21
 40
2.2
  0
CIRCLE
  5
215
100
AcDbEntity
  8
PCB cut
  6
ByLayer
 62
  256
370
   -1
100
AcDbCircle
 10
216
 20
64
 40
2.2
  0
CIRCLE
  5
216
100
AcDbEntity
  8
PCB cut
  6
ByLayer
 62
  256
370
   -1
100
AcDbCircle
 10
158
 20
97
 40
2.2
  0
LWPOLYLINE
  5
217
100
AcDbEntity
  8
Power switch cut
  6
ByLayer
 62
  256
370
   -1
100
AcDbPolyline
 90
    4
 70
    1
 43
0
 10
28
 20
34.3
 10
41
 20
34.3
 10
41
 20
14.99999999999999
 10
28
 20
14.99999999999999
  0
LWPOLYLINE
  5
218
100
AcDbEntity
  8
Chassis cut
  6
ByLayer
 62
  256
370
   -1
100
AcDbPolyline
 90
    5
 70
    1
 43
0
 10
0
 20
0
 10
250
 20
0
 10
250
 20
131
 10
0
 20
131
 10
0
 20
131
  0
LWPOLYLINE
  5
219
100
AcDbEntity
  8
Chassis
  6
ByLayer
 62
  256
370
   -1
100
AcDbPolyline
 90
    4
 70
    1
 43
0
 10
-1
 20
-2
 10
251
 20
-2
 10
251
 20
133
 10
-1
 20
133
  0
LWPOLYLINE
  5
21A
100
AcDbEntity
  8
Chassis
  6
ByLayer
 62
  256
370
   -1
100
AcDbPolyline
 90
    4
 70
    1
 43
0
 10
232
 20
126
 10
18
 20
126
 10
18
 20
5
 10
232
 20
5
  0
LINE
  5
21B
100
AcDbEntity
  8
Chassis
  6
ByLayer
 62
  256
370
   -1
100
AcDbLine
 10
5.500000000000001
 20
121
 11
9.5
 21
117
  0
LINE
  5
21C
100
AcDbEntity
  8
Chassis
  6
ByLayer
 62
  256
370
   -1
100
AcDbLine
 10
9.5
 20
14
 11
5.500000000000002
 21
10
  0
LINE
  5
21D
100
AcDbEntity
  8
Chassis
  6
ByLayer
 62
  256
370
   -1
100
AcDbLine
 10
5.500000000000002
 20
14
 11
9.5
 21
10
  0
LINE
  5
21E
100
AcDbEntity
  8
Chassis
  6
ByLayer
 62
  256
370
   -1
100
AcDbLine
 10
9.5
 20
121
 11
5.500000000000001
 21
117
  0
CIRCLE
  5
21F
100
AcDbEntity
  8
Chassis cut
  6
ByLayer
 62
  256
370
   -1
100
AcDbCircle
 10
7.500000000000001
 20
119
 40
2.2
  0
CIRCLE
  5
220
100
AcDbEntity
  8
Chassis cut
  6
ByLayer
 62
  256
370
   -1
100
AcDbCircle
 10
7.500000000000001
 20
12
 40
2.2
  0
LINE
  5
221
100
AcDbEntity
  8
Chassis
  6
ByLayer
 62
  256
370
   -1
100
AcDbLine
 10
244.5
 20
14
 11
240.5
 21
10
  0
LINE
  5
222
100
AcDbEntity
  8
Chassis
  6
ByLayer
 62
  256
370
   -1
100
AcDbLine
 10
240.5
 20
14
 11
244.5
 21
10
  0
LINE
  5
223
100
AcDbEntity
  8
Chassis
  6
ByLayer
 62
  256
370
   -1
100
AcDbLine
 10
244.5
 20
121
 11
240.5
 21
117
  0
LINE
  5
224
100
AcDbEntity
  8
Chassis
  6
ByLayer
 62
  256
370
   -1
100
AcDbLine
 10
240.5
 20
121
 11
244.5
 21
117
  0
CIRCLE
  5
225
100
AcDbEntity
  8
Chassis cut
  6
ByLayer
 62
  256
370
   -1
100
AcDbCircle
 10
242.5
 20
119
 40
2.2
  0
CIRCLE
  5
226
100
AcDbEntity
  8
Chassis cut
  6
ByLayer
 62
  256
370
   -1
100
AcDbCircle
 10
242.5
 20
12
 40
2.2
  0
LWPOLYLINE
  5
227
100
AcDbEntity
  8
PCB
  6
ByLayer
 62
  256
370
   -1
100
AcDbPolyline
 90
    4
 70
    1
 43
0
 10
186.5
 20
30.50000000000001
 10
198.5
 20
30.50000000000001
 10
198.5
 20
19.5
 10
186.5
 20
19.5
  0
LINE
  5
228
100
AcDbEntity
  8
LCD
  6
ByLayer
 62
  256
370
   -1
100
AcDbLine
 10
112
 20
81.50000000000001
 11
110
 21
83.50000000000001
  0
LINE
  5
229
100
AcDbEntity
  8
LCD
  6
ByLayer
 62
  256
370
   -1
100
AcDbLine
 10
112
 20
83.50000000000001
 11
110
 21
81.50000000000001
  0
LINE
  5
22A
100
AcDbEntity
  8
LCD
  6
ByLayer
 62
  256
370
   -1
100
AcDbLine
 10
110
 20
112.5
 11
112
 21
114.5
  0
LINE
  5
22B
100
AcDbEntity
  8
LCD
  6
ByLayer
 62
  256
370
   -1
100
AcDbLine
 10
112
 20
112.5
 11
110
 21
114.5
  0
LINE
  5
22C
100
AcDbEntity
  8
LCD
  6
ByLayer
 62
  256
370
   -1
100
AcDbLine
 10
30
 20
114.5
 11
32
 21
112.5
  0
LINE
  5
22D
100
AcDbEntity
  8
LCD
  6
ByLayer
 62
  256
370
   -1
100
AcDbLine
 10
32
 20
114.5
 11
30
 21
112.5
  0
LINE
  5
22E
100
AcDbEntity
  8
LCD
  6
ByLayer
 62
  256
370
   -1
100
AcDbLine
 10
32
 20
83.50000000000001
 11
30
 21
81.50000000000001
  0
LINE
  5
22F
100
AcDbEntity
  8
LCD
  6
ByLayer
 62
  256
370
   -1
100
AcDbLine
 10
30
 20
83.50000000000001
 11
32
 21
81.50000000000001
  0
LWPOLYLINE
  5
230
100
AcDbEntity
  8
LCD
  6
ByLayer
 62
  256
370
   -1
100
AcDbPolyline
 90
    6
 70
    1
 43
0
 10
28.5
 20
116
 10
113.5
 20
116
 10
113.5
 20
80
 10
28.5
 20
80
 10
28.5
 20
80
 10
28.5
 20
80
  0
LWPOLYLINE
  5
231
100
AcDbEntity
  8
LCD
  6
ByLayer
 62
  256
370
   -1
100
AcDbPolyline
 90
    6
 70
    1
 43
0
 10
37.75
 20
111.25
 10
109.25
 20
111.25
 10
109.25
 20
84.75
 10
37.75
 20
84.75
 10
37.75
 20
84.75
 10
37.75
 20
84.75
  0
LINE
  5
232
100
AcDbEntity
  8
Artwork
  6
ByLayer
 62
  256
370
   -1
100
AcDbLine
 10
59
 20
63
 11
51
 21
55
  0
LINE
  5
233
100
AcDbEntity
  8
Artwork
  6
ByLayer
 62
  256
370
   -1
100
AcDbLine
 10
51
 20
63
 11
59
 21
55
  0
LINE
  5
234
100
AcDbEntity
  8
Artwork
  6
ByLayer
 62
  256
370
   -1
100
AcDbLine
 10
90
 20
56
 11
88
 21
58
  0
LINE
  5
235
100
AcDbEntity
  8
Artwork
  6
ByLayer
 62
  256
370
   -1
100
AcDbLine
 10
96
 20
62
 11
90
 21
56
  0
CIRCLE
  5
236
100
AcDbEntity
  8
LEDs cut
  6
ByLayer
 62
  256
370
   -1
100
AcDbCircle
 10
51
 20
25
 40
3.4
  0
CIRCLE
  5
237
100
AcDbEntity
  8
LEDs
  6
ByLayer
 62
  256
370
   -1
100
AcDbCircle
 10
51
 20
25
 40
3.9
  0
CIRCLE
  5
238
100
AcDbEntity
  8
LEDs
  6
ByLayer
 62
  256
370
   -1
100
AcDbCircle
 10
51
 20
25
 40
2.5
  0
LINE
  5
239
100
AcDbEntity
  8
LEDs
  6
ByLayer
 62
  256
370
   -1
100
AcDbLine
 10
55
 20
29
 11
47
 21
21
  0
LINE
  5
23A
100
AcDbEntity
  8
LEDs
  6
ByLayer
 62
  256
370
   -1
100
AcDbLine
 10
47
 20
29
 11
55
 21
21
  0
LINE
  5
23B
100
AcDbEntity
  8
DB25
  6
ByLayer
 62
  256
370
   -1
100
AcDbLine
 10
83.8
 20
28.95
 11
122.2
 21
28.95
  0
LINE
  5
23C
100
AcDbEntity
  8
DB25
  6
ByLayer
 62
  256
370
   -1
100
AcDbLine
 10
122.2
 20
28.95
 11
120.8070168524031
 21
21.05
  0
LINE
  5
23D
100
AcDbEntity
  8
DB25
  6
ByLayer
 62
  256
370
   -1
100
AcDbLine
 10
120.8070168524031
 20
21.05
 11
85.19298314759688
 21
21.05
  0
LINE
  5
23E
100
AcDbEntity
  8
DB25
  6
ByLayer
 62
  256
370
   -1
100
AcDbLine
 10
85.19298314759688
 20
21.05
 11
83.8
 21
28.95
  0
LWPOLYLINE
  5
23F
100
AcDbEntity
  8
DB25 cut
  6
ByLayer
 62
  256
370
   -1
100
AcDbPolyline
 90
    4
 70
    1
 43
0
 10
83
 20
30
 10
123
 20
30
 10
123
 20
20
 10
83
 20
20
  0
LWPOLYLINE
  5
240
100
AcDbEntity
  8
DB25
  6
ByLayer
 62
  256
370
   -1
100
AcDbPolyline
 90
    4
 70
    1
 43
0
 10
76.48
 20
31.25
 10
129.52
 20
31.25
 10
129.52
 20
18.74999999999999
 10
76.48
 20
18.74999999999999
  0
LINE
  5
241
100
AcDbEntity
  8
DB25
  6
ByLayer
 62
  256
370
   -1
100
AcDbLine
 10
124.5
 20
26.99999999999999
 11
128.5
 21
23
  0
LINE
  5
242
100
AcDbEntity
  8
DB25
  6
ByLayer
 62
  256
370
   -1
100
AcDbLine
 10
128.5
 20
27
 11
124.5
 21
22.99999999999999
  0
CIRCLE
  5
243
100
AcDbEntity
  8
DB25 cut
  6
ByLayer
 62
  256
370
   -1
100
AcDbCircle
 10
126.5
 20
25
 40
1.55
  0
LINE
  5
244
100
AcDbEntity
  8
DB25
  6
ByLayer
 62
  256
370
   -1
100
AcDbLine
 10
77.50000000000001
 20
26.99999999999999
 11
81.50000000000001
 21
23
  0
LINE
  5
245
100
AcDbEntity
  8
DB25
  6
ByLayer
 62
  256
370
   -1
100
AcDbLine
 10
81.5
 20
27
 11
77.50000000000001
 21
23
  0
CIRCLE
  5
246
100
AcDbEntity
  8
DB25 cut
  6
ByLayer
 62
  256
370
   -1
100
AcDbCircle
 10
79.50000000000001
 20
25
 40
1.55
  0
DIMENSION
  5
247
100
AcDbEntity
  8
Dimensions
  6
ByLayer
 62
  256
370
   -1
100
AcDbDimension
  2
*D1
 10
200
 20
-10
 30
0
 11
224.5
 21
-8.125
 31
0
 70
   32
 71
    5
 72
    0
  3
Standard
 53
0
210
0
220
0
230
1
100
AcDbAlignedDimension
 13
250
 23
0
 33
0
 14
199
 24
19
 34
0
100
AcDbRotatedDimension
  0
DIMENSION
  5
248
100
AcDbEntity
  8
Dimensions
  6
ByLayer
 62
  256
370
   -1
100
AcDbDimension
  2
*D2
 10
187
 20
-10
 30
0
 11
192.5
 21
-8.125
 31
0
 70
   32
 71
    5
 72
    0
  3
Standard
 53
0
210
0
220
0
230
1
100
AcDbAlignedDimension
 13
199
 23
19
 33
0
 14
186
 24
19
 34
0
100
AcDbRotatedDimension
  0
DIMENSION
  5
249
100
AcDbEntity
  8
Dimensions
  6
ByLayer
 62
  256
370
   -1
100
AcDbDimension
  2
*D3
 10
260
 20
19
 30
0
 11
258.125
 21
9.5
 31
0
 70
   32
 71
    5
 72
    0
  3
Standard
 53
0
210
0
220
0
230
1
100
AcDbAlignedDimension
 13
250
 23
0
 33
0
 14
199
 24
19
 34
0
 50
90
100
AcDbRotatedDimension
  0
DIMENSION
  5
24A
100
AcDbEntity
  8
Dimensions
  6
ByLayer
 62
  256
370
   -1
100
AcDbDimension
  2
*D4
 10
260
 20
30
 30
0
 11
258.125
 21
25
 31
0
 70
   32
 71
    5
 72
    0
  3
Standard
 53
0
210
0
220
0
230
1
100
AcDbAlignedDimension
 13
199
 23
19
 33
0
 14
199
 24
31
 34
0
 50
90
100
AcDbRotatedDimension
  0
DIMENSION
  5
24B
100
AcDbEntity
  8
Dimensions
  6
ByLayer
 62
  256
370
   -1
100
AcDbDimension
  2
*D5
 10
265
 20
21
 30
0
 11
263.125
 21
10.5
 31
0
 70
   32
 71
    5
 72
    0
  3
Standard
 53
0
210
0
220
0
230
1
100
AcDbAlignedDimension
 13
250
 23
0
 33
0
 14
158
 24
21
 34
0
 50
90
100
AcDbRotatedDimension
  0
DIMENSION
  5
24C
100
AcDbEntity
  8
Dimensions
  6
ByLayer
 62
  256
370
   -1
100
AcDbDimension
  2
*D6
 10
265
 20
64
 30
0
 11
263.125
 21
42.5
 31
0
 70
   32
 71
    5
 72
    0
  3
Standard
 53
0
210
0
220
0
230
1
100
AcDbAlignedDimension
 13
158
 23
21
 33
0
 14
216
 24
64
 34
0
 50
90
100
AcDbRotatedDimension
  0
DIMENSION
  5
24D
100
AcDbEntity
  8
Dimensions
  6
ByLayer
 62
  256
370
   -1
100
AcDbDimension
  2
*D7
 10
265
 20
95
 30
0
 11
263.125
 21
80.5
 31
0
 70
   32
 71
    5
 72
    0
  3
Standard
 53
0
210
0
220
0
230
1
100
AcDbAlignedDimension
 13
216
 23
64
 33
0
 14
158
 24
97
 34
0
 50
90
100
AcDbRotatedDimension
  0
DIMENSION
  5
24E
100
AcDbEntity
  8
Dimensions
  6
ByLayer
 62
  256
370
   -1
100
AcDbDimension
  2
*D8
 10
216
 20
-15
 30
0
 11
233
 21
-13.125
 31
0
 70
   32
 71
    5
 72
    0
  3
Standard
 53
0
210
0
220
0
230
1
100
AcDbAlignedDimension
 13
250
 23
0
 33
0
 14
216
 24
64
 34
0
100
AcDbRotatedDimension
  0
DIMENSION
  5
24F
100
AcDbEntity
  8
Dimensions
  6
ByLayer
 62
  256
370
   -1
100
AcDbDimension
  2
*D9
 10
158
 20
-15
 30
0
 11
187
 21
-13.125
 31
0
 70
   32
 71
    5
 72
    0
  3
Standard
 53
0
210
0
220
0
230
1
100
AcDbAlignedDimension
 13
216
 23
64
 33
0
 14
158
 24
97
 34
0
100
AcDbRotatedDimension
  0
DIMENSION
  5
250
100
AcDbEntity
  8
Dimensions
  6
ByLayer
 62
  256
370
   -1
100
AcDbDimension
  2
*D10
 10
243
 20
136
 30
0
 11
246.25
 21
137.875
 31
0
 70
   32
 71
    5
 72
    0
  3
Standard
 53
0
210
0
220
0
230
1
100
AcDbAlignedDimension
 13
250
 23
131
 33
0
 14
242.5
 24
119
 34
0
100
AcDbRotatedDimension
  0
DIMENSION
  5
251
100
AcDbEntity
  8
Dimensions
  6
ByLayer
 62
  256
370
   -1
100
AcDbDimension
  2
*D11
 10
255
 20
119
 30
0
 11
253.125
 21
125
 31
0
 70
   32
 71
    5
 72
    0
  3
Standard
 53
0
210
0
220
0
230
1
100
AcDbAlignedDimension
 13
250
 23
131
 33
0
 14
242.5
 24
119
 34
0
 50
90
100
AcDbRotatedDimension
  0
DIMENSION
  5
252
100
AcDbEntity
  8
Dimensions
  6
ByLayer
 62
  256
370
   -1
100
AcDbDimension
  2
*D12
 10
214.4443650813896
 20
65.55563491861041
 30
0
 11
217.3258252147248
 21
65.32582521472477
 31
0
 70
   35
  1
M4 clearance (3 pos)
 71
    5
 72
    0
  3
Standard
 53
0
210
0
220
0
230
1
100
AcDbDiametricDimension
 15
217.5556349186104
 25
62.44436508138959
 35
0
 40
0
  0
DIMENSION
  5
253
100
AcDbEntity
  8
Dimensions
  6
ByLayer
 62
  256
370
   -1
100
AcDbDimension
  2
*D13
 10
89.2776388924318
 20
71.7223611075682
 30
0
 11
93.32582521472477
 21
70.32582521472477
 31
0
 70
   35
  1
M7 clearance (2 pos)
 71
    5
  3
Standard
 53
0
210
0
220
0
230
1
100
AcDbDiametricDimension
 15
94.7223611075682
 25
66.2776388924318
 35
0
 40
0
  0
DIMENSION
  5
254
100
AcDbEntity
  8
Dimensions
  6
ByLayer
 62
  256
370
   -1
100
AcDbDimension
  2
*D14
 10
110.1161165235168
 20
83.38388347648319
 30
0
 11
112.3258252147248
 21
83.82582521472479
 31
0
 70
   35
  1
M2 clearance (4 pos)
 71
    5
 72
    0
  3
Standard
 53
0
210
0
220
0
230
1
100
AcDbDiametricDimension
 15
111.8838834764832
 25
81.61611652351681
 35
0
 40
0
  0
DIMENSION
  5
255
100
AcDbEntity
  8
Dimensions
  6
ByLayer
 62
  256
370
   -1
100
AcDbDimension
  2
*D15
 10
240.9443650813896
 20
120.5556349186104
 30
0
 11
213
 21
151
 31
0
 70
   35
  1
M4 clearance (4 pos)
 71
    5
 72
    0
  3
Standard
 53
0
210
0
220
0
230
1
100
AcDbDiametricDimension
 15
244.0556349186104
 25
117.4443650813896
 35
0
 40
0
  0
DIMENSION
  5
256
100
AcDbEntity
  8
Dimensions
  6
ByLayer
 62
  256
370
   -1
100
AcDbDimension
  2
*D16
 10
37
 20
146
 30
0
 11
18.5
 21
147.875
 31
0
 70
   32
 71
    5
 72
    0
  3
Standard
 53
0
210
0
220
0
230
1
100
AcDbAlignedDimension
 13
0
 23
131
 33
0
 14
37
 24
112
 34
0
100
AcDbRotatedDimension
  0
DIMENSION
  5
257
100
AcDbEntity
  8
Dimensions
  6
ByLayer
 62
  256
370
   -1
100
AcDbDimension
  2
*D17
 10
110
 20
146
 30
0
 11
73.5
 21
147.875
 31
0
 70
   32
 71
    5
 72
    0
  3
Standard
 53
0
210
0
220
0
230
1
100
AcDbAlignedDimension
 13
37
 23
112
 33
0
 14
110
 24
112
 34
0
100
AcDbRotatedDimension
  0
DIMENSION
  5
258
100
AcDbEntity
  8
Dimensions
  6
ByLayer
 62
  256
370
   -1
100
AcDbDimension
  2
*D18
 10
31
 20
151
 30
0
 11
15.5
 21
152.875
 31
0
 70
   32
 71
    5
 72
    0
  3
Standard
 53
0
210
0
220
0
230
1
100
AcDbAlignedDimension
 13
0
 23
131
 33
0
 14
31
 24
113.5
 34
0
100
AcDbRotatedDimension
  0
DIMENSION
  5
259
100
AcDbEntity
  8
Dimensions
  6
ByLayer
 62
  256
370
   -1
100
AcDbDimension
  2
*D19
 10
111
 20
151
 30
0
 11
71
 21
152.875
 31
0
 70
   32
 71
    5
 72
    0
  3
Standard
 53
0
210
0
220
0
230
1
100
AcDbAlignedDimension
 13
31
 23
113.5
 33
0
 14
111
 24
113.5
 34
0
100
AcDbRotatedDimension
  0
DIMENSION
  5
25A
100
AcDbEntity
  8
Dimensions
  6
ByLayer
 62
  256
370
   -1
100
AcDbDimension
  2
*D20
 10
55
 20
141
 30
0
 11
27.5
 21
142.875
 31
0
 70
   32
 71
    5
 72
    0
  3
Standard
 53
0
210
0
220
0
230
1
100
AcDbAlignedDimension
 13
0
 23
131
 33
0
 14
55
 24
69
 34
0
100
AcDbRotatedDimension
  0
DIMENSION
  5
25B
100
AcDbEntity
  8
Dimensions
  6
ByLayer
 62
  256
370
   -1
100
AcDbDimension
  2
*D21
 10
92
 20
141
 30
0
 11
73.5
 21
142.875
 31
0
 70
   32
 71
    5
 72
    0
  3
Standard
 53
0
210
0
220
0
230
1
100
AcDbAlignedDimension
 13
55
 23
69
 33
0
 14
92
 24
69
 34
0
100
AcDbRotatedDimension
  0
DIMENSION
  5
25C
100
AcDbEntity
  8
Dimensions
  6
ByLayer
 62
  256
370
   -1
100
AcDbDimension
  2
*D22
 10
-10
 20
112
 30
0
 11
-11.875
 21
121.5
 31
0
 70
   32
 71
    5
 72
    0
  3
Standard
 53
0
210
0
220
0
230
1
100
AcDbAlignedDimension
 13
0
 23
131
 33
0
 14
37
 24
112
 34
0
 50
90
100
AcDbRotatedDimension
  0
DIMENSION
  5
25D
100
AcDbEntity
  8
Dimensions
  6
ByLayer
 62
  256
370
   -1
100
AcDbDimension
  2
*D23
 10
-10
 20
84
 30
0
 11
-11.875
 21
98
 31
0
 70
   32
 71
    5
 72
    0
  3
Standard
 53
0
210
0
220
0
230
1
100
AcDbAlignedDimension
 13
37
 23
112
 33
0
 14
37
 24
84.00000000000001
 34
0
 50
90
100
AcDbRotatedDimension
  0
DIMENSION
  5
25E
100
AcDbEntity
  8
Dimensions
  6
ByLayer
 62
  256
370
   -1
100
AcDbDimension
  2
*D24
 10
-25
 20
0
 30
0
 11
-26.87499999999999
 21
65.5
 31
0
 70
   32
 71
    5
  3
Standard
 53
0
210
0
220
0
230
1
100
AcDbAlignedDimension
 13
0
 23
131
 33
0
 14
0
 24
0
 34
0
 50
90
100
AcDbRotatedDimension
  0
DIMENSION
  5
25F
100
AcDbEntity
  8
Dimensions
  6
ByLayer
 62
  256
370
   -1
100
AcDbDimension
  2
*D25
 10
-20
 20
69
 30
0
 11
-21.875
 21
100
 31
0
 70
   32
 71
    5
 72
    0
  3
Standard
 53
0
210
0
220
0
230
1
100
AcDbAlignedDimension
 13
0
 23
131
 33
0
 14
55
 24
69
 34
0
 50
90
100
AcDbRotatedDimension
  0
DIMENSION
  5
260
100
AcDbEntity
  8
Dimensions
  6
ByLayer
 62
  256
370
   -1
100
AcDbDimension
  2
*D26
 10
-15
 20
114
 30
0
 11
-16.875
 21
122.25
 31
0
 70
   32
 71
    5
 72
    0
  3
Standard
 53
0
210
0
220
0
230
1
100
AcDbAlignedDimension
 13
0
 23
131
 33
0
 14
31
 24
113.5
 34
0
 50
90
100
AcDbRotatedDimension
  0
DIMENSION
  5
261
100
AcDbEntity
  8
Dimensions
  6
ByLayer
 62
  256
370
   -1
100
AcDbDimension
  2
*D27
 10
-15
 20
83
 30
0
 11
-16.875
 21
98
 31
0
 70
   32
 71
    5
 72
    0
  3
Standard
 53
0
210
0
220
0
230
1
100
AcDbAlignedDimension
 13
31
 23
113.5
 33
0
 14
31
 24
82.50000000000001
 34
0
 50
90
100
AcDbRotatedDimension
  0
DIMENSION
  5
262
100
AcDbEntity
  8
Dimensions
  6
ByLayer
 62
  256
370
   -1
100
AcDbDimension
  2
*D28
 10
7
 20
-5
 30
0
 11
3.750000000000001
 21
-3.125
 31
0
 70
   32
 71
    5
 72
    0
  3
Standard
 53
0
210
0
220
0
230
1
100
AcDbAlignedDimension
 13
0
 23
0
 33
0
 14
7.500000000000002
 24
12
 34
0
100
AcDbRotatedDimension
  0
DIMENSION
  5
263
100
AcDbEntity
  8
Dimensions
  6
ByLayer
 62
  256
370
   -1
100
AcDbDimension
  2
*D29
 10
243
 20
-5
 30
0
 11
246.25
 21
-3.125
 31
0
 70
   32
 71
    5
 72
    0
  3
Standard
 53
0
210
0
220
0
230
1
100
AcDbAlignedDimension
 13
250
 23
0
 33
0
 14
242.5
 24
12
 34
0
100
AcDbRotatedDimension
  0
DIMENSION
  5
264
100
AcDbEntity
  8
Dimensions
  6
ByLayer
 62
  256
370
   -1
100
AcDbDimension
  2
*D30
 10
7
 20
136
 30
0
 11
3.75
 21
137.875
 31
0
 70
   32
 71
    5
 72
    0
  3
Standard
 53
0
210
0
220
0
230
1
100
AcDbAlignedDimension
 13
0
 23
131
 33
0
 14
7.5
 24
119
 34
0
100
AcDbRotatedDimension
  0
DIMENSION
  5
265
100
AcDbEntity
  8
Dimensions
  6
ByLayer
 62
  256
370
   -1
100
AcDbDimension
  2
*D31
 10
-5
 20
119
 30
0
 11
-6.875
 21
125
 31
0
 70
   32
 71
    5
 72
    0
  3
Standard
 53
0
210
0
220
0
230
1
100
AcDbAlignedDimension
 13
0
 23
131
 33
0
 14
7.5
 24
119
 34
0
 50
90
100
AcDbRotatedDimension
  0
DIMENSION
  5
266
100
AcDbEntity
  8
Dimensions
  6
ByLayer
 62
  256
370
   -1
100
AcDbDimension
  2
*D32
 10
-5
 20
0
 30
0
 11
-6.875
 21
6.000000000000002
 31
0
 70
   32
 71
    5
 72
    0
  3
Standard
 53
0
210
0
220
0
230
1
100
AcDbAlignedDimension
 13
7.500000000000002
 23
12
 33
0
 14
0
 24
0
 34
0
 50
90
100
AcDbRotatedDimension
  0
DIMENSION
  5
267
100
AcDbEntity
  8
Dimensions
  6
ByLayer
 62
  256
370
   -1
100
AcDbDimension
  2
*D33
 10
255
 20
0
 30
0
 11
253.125
 21
6
 31
0
 70
   32
 71
    5
 72
    0
  3
Standard
 53
0
210
0
220
0
230
1
100
AcDbAlignedDimension
 13
242.5
 23
12
 33
0
 14
250
 24
0
 34
0
 50
90
100
AcDbRotatedDimension
  0
DIMENSION
  5
268
100
AcDbEntity
  8
Dimensions
  6
ByLayer
 62
  256
370
   -1
100
AcDbDimension
  2
*D34
 10
28
 20
-10
 30
0
 11
14
 21
-8.125
 31
0
 70
   32
 71
    5
 72
    0
  3
Standard
 53
0
210
0
220
0
230
1
100
AcDbAlignedDimension
 13
0
 23
0
 33
0
 14
28
 24
15
 34
0
100
AcDbRotatedDimension
  0
DIMENSION
  5
269
100
AcDbEntity
  8
Dimensions
  6
ByLayer
 62
  256
370
   -1
100
AcDbDimension
  2
*D35
 10
41
 20
-10
 30
0
 11
34.5
 21
-8.125
 31
0
 70
   32
 71
    5
 72
    0
  3
Standard
 53
0
210
0
220
0
230
1
100
AcDbAlignedDimension
 13
28
 23
15
 33
0
 14
41
 24
15
 34
0
100
AcDbRotatedDimension
  0
DIMENSION
  5
26A
100
AcDbEntity
  8
Dimensions
  6
ByLayer
 62
  256
370
   -1
100
AcDbDimension
  2
*D36
 10
51
 20
-15
 30
0
 11
25.5
 21
-13.125
 31
0
 70
   32
 71
    5
 72
    0
  3
Standard
 53
0
210
0
220
0
230
1
100
AcDbAlignedDimension
 13
0
 23
0
 33
0
 14
51
 24
25
 34
0
100
AcDbRotatedDimension
  0
DIMENSION
  5
26B
100
AcDbEntity
  8
Dimensions
  6
ByLayer
 62
  256
370
   -1
100
AcDbDimension
  2
*D37
 10
250
 20
-30
 30
0
 11
125
 21
-28.125
 31
0
 70
   32
 71
    5
  3
Standard
 53
0
210
0
220
0
230
1
100
AcDbAlignedDimension
 13
0
 23
0
 33
0
 14
250
 24
0
 34
0
100
AcDbRotatedDimension
  0
DIMENSION
  5
26C
100
AcDbEntity
  8
Dimensions
  6
ByLayer
 62
  256
370
   -1
100
AcDbDimension
  2
*D38
 10
83
 20
-20
 30
0
 11
41.5
 21
-18.125
 31
0
 70
   32
 71
    5
 72
    0
  3
Standard
 53
0
210
0
220
0
230
1
100
AcDbAlignedDimension
 13
0
 23
0
 33
0
 14
83
 24
20
 34
0
100
AcDbRotatedDimension
  0
DIMENSION
  5
26D
100
AcDbEntity
  8
Dimensions
  6
ByLayer
 62
  256
370
   -1
100
AcDbDimension
  2
*D39
 10
123
 20
-20
 30
0
 11
103
 21
-18.125
 31
0
 70
   32
 71
    5
 72
    0
  3
Standard
 53
0
210
0
220
0
230
1
100
AcDbAlignedDimension
 13
83
 23
20
 33
0
 14
123
 24
20
 34
0
100
AcDbRotatedDimension
  0
DIMENSION
  5
26E
100
AcDbEntity
  8
Dimensions
  6
ByLayer
 62
  256
370
   -1
100
AcDbDimension
  2
*D40
 10
79
 20
-25
 30
0
 11
39.75000000000001
 21
-23.125
 31
0
 70
   32
 71
    5
 72
    0
  3
Standard
 53
0
210
0
220
0
230
1
100
AcDbAlignedDimension
 13
0
 23
0
 33
0
 14
79.50000000000001
 24
25
 34
0
100
AcDbRotatedDimension
  0
DIMENSION
  5
26F
100
AcDbEntity
  8
Dimensions
  6
ByLayer
 62
  256
370
   -1
100
AcDbDimension
  2
*D41
 10
126
 20
-25
 30
0
 11
103
 21
-23.125
 31
0
 70
   32
 71
    5
 72
    0
  3
Standard
 53
0
210
0
220
0
230
1
100
AcDbAlignedDimension
 13
79.50000000000001
 23
25
 33
0
 14
126.5
 24
25
 34
0
100
AcDbRotatedDimension
  0
DIMENSION
  5
270
100
AcDbEntity
  8
Dimensions
  6
ByLayer
 62
  256
370
   -1
100
AcDbDimension
  2
*D42
 10
-10
 20
0
 30
0
 11
-11.875
 21
12.5
 31
0
 70
   32
 71
    5
 72
    0
  3
Standard
 53
0
210
0
220
0
230
1
100
AcDbAlignedDimension
 13
79.50000000000001
 23
25
 33
0
 14
0
 24
0
 34
0
 50
90
100
AcDbRotatedDimension
  0
DIMENSION
  5
271
100
AcDbEntity
  8
Dimensions
  6
ByLayer
 62
  256
370
   -1
100
AcDbDimension
  2
*D43
 10
-15
 20
0
 30
0
 11
-16.875
 21
10
 31
0
 70
   32
 71
    5
 72
    0
  3
Standard
 53
0
210
0
220
0
230
1
100
AcDbAlignedDimension
 13
83
 23
20
 33
0
 14
0
 24
0
 34
0
 50
90
100
AcDbRotatedDimension
  0
DIMENSION
  5
272
100
AcDbEntity
  8
Dimensions
  6
ByLayer
 62
  256
370
   -1
100
AcDbDimension
  2
*D44
 10
-15
 20
20
 30
0
 11
-16.875
 21
25.00000000000001
 31
0
 70
   32
 71
    5
 72
    0
  3
Standard
 53
0
210
0
220
0
230
1
100
AcDbAlignedDimension
 13
83
 23
30
 33
0
 14
83
 24
20
 34
0
 50
90
100
AcDbRotatedDimension
  0
DIMENSION
  5
273
100
AcDbEntity
  8
Dimensions
  6
ByLayer
 62
  256
370
   -1
100
AcDbDimension
  2
*D45
 10
-20
 20
0
 30
0
 11
-21.875
 21
7.500000000000004
 31
0
 70
   32
 71
    5
 72
    0
  3
Standard
 53
0
210
0
220
0
230
1
100
AcDbAlignedDimension
 13
28
 23
15
 33
0
 14
0
 24
0
 34
0
 50
90
100
AcDbRotatedDimension
  0
DIMENSION
  5
274
100
AcDbEntity
  8
Dimensions
  6
ByLayer
 62
  256
370
   -1
100
AcDbDimension
  2
*D46
 10
-20
 20
15
 30
0
 11
-21.875
 21
24.65
 31
0
 70
   32
 71
    5
 72
    0
  3
Standard
 53
0
210
0
220
0
230
1
100
AcDbAlignedDimension
 13
28
 23
34.3
 33
0
 14
28
 24
15
 34
0
 50
90
100
AcDbRotatedDimension
  0
DIMENSION
  5
275
100
AcDbEntity
  8
Dimensions
  6
ByLayer
 62
  256
370
   -1
100
AcDbDimension
  2
*D47
 10
125.4039844891608
 20
26.09601551083915
 30
0
 11
127.8258252147248
 21
26.32582521472478
 31
0
 70
   35
  1
M3 clearance (2 pos)
 71
    5
 72
    0
  3
Standard
 53
0
210
0
220
0
230
1
100
AcDbDiametricDimension
 15
127.5960155108392
 25
23.90398448916085
 35
0
 40
0
  0
DIMENSION
  5
276
100
AcDbEntity
  8
Dimensions
  6
ByLayer
 62
  256
370
   -1
100
AcDbDimension
  2
*D48
 10
48.59583694396574
 20
27.40416305603426
 30
0
 11
56
 21
22
 31
0
 70
   35
 71
    5
 72
    0
  3
Standard
 53
0
210
0
220
0
230
1
100
AcDbDiametricDimension
 15
53.40416305603426
 25
22.59583694396574
 35
0
 40
0
  0
MTEXT
  5
277
100
AcDbEntity
  8
Dimensions
  6
ByLayer
 62
  256
370
   -1
100
AcDbMText
 10
125
 20
170
 30
0
 40
10
 41
249.7222222222255
 71
    5
 72
    1
  1
Tape punch controller - front panel
  7
STANDARD
210
0
220
0
230
1
 50
0
 73
    2
 44
1
  0
MTEXT
  5
278
100
AcDbEntity
  8
Artwork
  6
ByLayer
 62
  256
370
   -1
100
AcDbMText
 10
192.5
 20
39
 30
0
 40
5
 41
11.66666560665592
 71
    2
 72
    1
  1
USB
  7
standard
210
0
220
0
230
1
 50
0
 73
    2
 44
1
  0
MTEXT
  5
279
100
AcDbEntity
  8
Artwork
  6
ByLayer
 62
  256
370
   -1
100
AcDbMText
 10
103
 20
39
 30
0
 40
5
 41
37.08333333333403
 71
    2
 72
    1
  1
Tape punch
  7
standard
210
0
220
0
230
1
 50
0
 73
    2
 44
1
  0
MTEXT
  5
27A
100
AcDbEntity
  8
Artwork
  6
ByLayer
 62
  256
370
   -1
100
AcDbMText
 10
34.5
 20
44.3
 30
0
 40
5
 41
21.11111111111135
 71
    2
 72
    1
  1
On/off
  7
standard
210
0
220
0
230
1
 50
0
 73
    2
 44
1
  0
MTEXT
  5
27B
100
AcDbEntity
  8
Artwork
  6
ByLayer
 62
  256
370
   -1
100
AcDbMText
 10
180
 20
97
 30
0
 40
8
 41
60.22222222222333
 71
    5
 72
    1
  1
Tape Punch\PInterface
  7

210
0
220
0
230
1
 50
0
 73
    2
 44
1.3
  0
ENDSEC
  0
SECTION
  2
OBJECTS
  0
DICTIONARY
  5
C
330
0
100
AcDbDictionary
281
    1
  3
ACAD_GROUP
350
D
  0
DICTIONARY
  5
D
330
C
100
AcDbDictionary
281
    1
  0
ENDSEC
  0
EOF
