999
dxfrw 0.6.3
  0
SECTION
  2
HEADER
  9
$ACADVER
  1
AC1021
  9
$DWGCODEPAGE
  3
ANSI_1252
  9
$INSBASE
 10
0
 20
0
 30
0
  9
$EXTMIN
 10
-23.125
 20
-16.25
 30
0
  9
$EXTMAX
 10
266.25
 20
175
 30
0
  9
$LIMMIN
 10
0
 20
0
  9
$LIMMAX
 10
420
 20
297
  9
$ORTHOMODE
 70
    0
  9
$REGENMODE
 70
    1
  9
$FILLMODE
 70
    1
  9
$QTEXTMODE
 70
    0
  9
$MIRRTEXT
 70
    0
  9
$LTSCALE
 40
1
  9
$ATTMODE
 70
    0
  9
$TEXTSIZE
 40
2.5
  9
$TRACEWID
 40
15.68
  9
$TEXTSTYLE
  7
STANDARD
  9
$CLAYER
  8
Dimensions
  9
$CELTYPE
  6
BYLAYER
  9
$CECOLOR
 62
  256
  9
$CELTSCALE
 40
1
  9
$DISPSILH
 70
    0
  9
$DIMSCALE
 40
1
  9
$DIMASZ
 40
2.5
  9
$DIMEXO
 40
0.625
  9
$DIMDLI
 40
3.75
  9
$DIMRND
 40
0
  9
$DIMDLE
 40
0
  9
$DIMEXE
 40
1.25
  9
$DIMTP
 40
0
  9
$DIMTM
 40
0
  9
$DIMTXT
 40
2.5
  9
$DIMCEN
 40
2.5
  9
$DIMTSZ
 40
0
  9
$DIMTOL
 70
    0
  9
$DIMLIM
 70
    0
  9
$DIMTIH
 70
    0
  9
$DIMTOH
 70
    0
  9
$DIMSE1
 70
    0
  9
$DIMSE2
 70
    0
  9
$DIMTAD
 70
    1
  9
$DIMZIN
 70
    8
  9
$DIMBLK
  1

  9
$DIMASO
 70
    1
  9
$DIMSHO
 70
    1
  9
$DIMPOST
  1

  9
$DIMAPOST
  1

  9
$DIMALT
 70
    0
  9
$DIMALTD
 70
    3
  9
$DIMALTF
 40
0.03937
  9
$DIMLFAC
 40
1
  9
$DIMTOFL
 70
    1
  9
$DIMTVP
 40
0
  9
$DIMTIX
 70
    0
  9
$DIMSOXD
 70
    0
  9
$DIMSAH
 70
    0
  9
$DIMBLK1
  1

  9
$DIMBLK2
  1

  9
$DIMSTYLE
  2
STANDARD
  9
$DIMCLRD
 70
    0
  9
$DIMCLRE
 70
    0
  9
$DIMCLRT
 70
    0
  9
$DIMTFAC
 40
1
  9
$DIMGAP
 40
0.625
  9
$DIMJUST
 70
    0
  9
$DIMSD1
 70
    0
  9
$DIMSD2
 70
    0
  9
$DIMTOLJ
 70
    0
  9
$DIMTZIN
 70
    8
  9
$DIMALTZ
 70
    0
  9
$DIMALTTZ
 70
    0
  9
$DIMUPT
 70
    0
  9
$DIMDEC
 70
    2
  9
$DIMTDEC
 70
    2
  9
$DIMALTU
 70
    2
  9
$DIMALTTD
 70
    3
  9
$DIMTXSTY
  7
standard
  9
$DIMAUNIT
 70
    0
  9
$DIMADEC
 70
    0
  9
$DIMALTRND
 40
0
  9
$DIMAZIN
 70
    0
  9
$DIMDSEP
 70
    0
  9
$DIMATFIT
 70
    3
  9
$DIMFRAC
 70
    0
  9
$DIMLDRBLK
  1
STANDARD
  9
$DIMLUNIT
 70
    2
  9
$DIMLWD
 70
   -2
  9
$DIMLWE
 70
   -2
  9
$DIMTMOVE
 70
    0
  9
$DIMFXL
 40
1
  9
$DIMFXLON
 70
    0
  9
$DIMJOGANG
 40
0.7854
  9
$DIMTFILL
 70
    0
  9
$DIMTFILLCLR
 70
    0
  9
$DIMARCSYM
 70
    0
  9
$DIMLTYPE
  6

  9
$DIMLTEX1
  6

  9
$DIMLTEX2
  6

  9
$LUNITS
 70
    2
  9
$LUPREC
 70
    4
  9
$SKETCHINC
 40
1
  9
$FILLETRAD
 40
0
  9
$AUNITS
 70
    0
  9
$AUPREC
 70
    2
  9
$MENU
  1
.
  9
$ELEVATION
 40
0
  9
$PELEVATION
 40
0
  9
$THICKNESS
 40
0
  9
$LIMCHECK
 70
    0
  9
$CHAMFERA
 40
0
  9
$CHAMFERB
 40
0
  9
$CHAMFERC
 40
0
  9
$CHAMFERD
 40
0
  9
$SKPOLY
 70
    0
  9
$USRTIMER
 70
    1
  9
$ANGBASE
 50
0
  9
$ANGDIR
 70
    0
  9
$PDMODE
 70
   34
  9
$PDSIZE
 40
0
  9
$PLINEWID
 40
0
  9
$SPLFRAME
 70
    0
  9
$SPLINETYPE
 70
    2
  9
$SPLINESEGS
 70
    8
  9
$HANDSEED
  5
20000
  9
$SURFTAB1
 70
    6
  9
$SURFTAB2
 70
    6
  9
$SURFTYPE
 70
    6
  9
$SURFU
 70
    6
  9
$SURFV
 70
    6
  9
$UCSBASE
  2

  9
$UCSNAME
  2

  9
$UCSORG
 10
0
 20
0
 30
0
  9
$UCSXDIR
 10
1
 20
0
 30
0
  9
$UCSYDIR
 10
0
 20
1
 30
0
  9
$UCSORTHOREF
  2

  9
$UCSORTHOVIEW
 70
    0
  9
$UCSORGTOP
 10
0
 20
0
 30
0
  9
$UCSORGBOTTOM
 10
0
 20
0
 30
0
  9
$UCSORGLEFT
 10
0
 20
0
 30
0
  9
$UCSORGRIGHT
 10
0
 20
0
 30
0
  9
$UCSORGFRONT
 10
0
 20
0
 30
0
  9
$UCSORGBACK
 10
0
 20
0
 30
0
  9
$PUCSBASE
  2

  9
$PUCSNAME
  2

  9
$PUCSORG
 10
0
 20
0
 30
0
  9
$PUCSXDIR
 10
1
 20
0
 30
0
  9
$PUCSYDIR
 10
0
 20
1
 30
0
  9
$PUCSORTHOREF
  2

  9
$PUCSORTHOVIEW
 70
    0
  9
$PUCSORGTOP
 10
0
 20
0
 30
0
  9
$PUCSORGBOTTOM
 10
0
 20
0
 30
0
  9
$PUCSORGLEFT
 10
0
 20
0
 30
0
  9
$PUCSORGRIGHT
 10
0
 20
0
 30
0
  9
$PUCSORGFRONT
 10
0
 20
0
 30
0
  9
$PUCSORGBACK
 10
0
 20
0
 30
0
  9
$USERI1
 70
    0
  9
$USERI2
 70
    0
  9
$USERI3
 70
    0
  9
$USERI4
 70
    0
  9
$USERI5
 70
    0
  9
$USERR1
 40
0
  9
$USERR2
 40
0
  9
$USERR3
 40
0
  9
$USERR4
 40
0
  9
$USERR5
 40
0
  9
$WORLDVIEW
 70
    1
  9
$SHADEDGE
 70
    3
  9
$SHADEDIF
 70
   70
  9
$TILEMODE
 70
    1
  9
$MAXACTVP
 70
   64
  9
$PINSBASE
 10
34.23650107991361
 20
30.39092872570195
 30
0
  9
$PLIMCHECK
 70
    0
  9
$PEXTMIN
 10
0
 20
0
 30
0
  9
$PEXTMAX
 10
0
 20
0
 30
0
  9
$GRIDMODE
 70
    1
  9
$SNAPSTYLE
 70
    0
  9
$GRIDUNIT
 10
0
 20
0
  9
$PLIMMIN
 10
0
 20
0
  9
$PLIMMAX
 10
297
 20
210
  9
$UNITMODE
 70
    0
  9
$VISRETAIN
 70
    1
  9
$PLINEGEN
 70
    0
  9
$PSLTSCALE
 70
    1
  9
$TREEDEPTH
 70
 3020
  9
$CMLSTYLE
  2
Standard
  9
$CMLJUST
 70
    0
  9
$CMLSCALE
 40
20
  9
$PROXYGRAPHICS
 70
    1
  9
$MEASUREMENT
 70
    1
  9
$CELWEIGHT
370
   -1
  9
$ENDCAPS
280
    0
  9
$JOINSTYLE
280
    0
  9
$LWDISPLAY
290
    0
  9
$INSUNITS
 70
    4
  9
$HYPERLINKBASE
  1

  9
$STYLESHEET
  1

  9
$XEDIT
290
    1
  9
$CEPSNTYPE
380
    0
  9
$PSTYLEMODE
290
    1
  9
$EXTNAMES
290
    1
  9
$PSVPSCALE
 40
0.9399568034557235
  9
$OLESTARTUP
290
    0
  9
$SORTENTS
280
  127
  9
$INDEXCTL
280
    0
  9
$HIDETEXT
280
    1
  9
$XCLIPFRAME
290
    0
  9
$HALOGAP
280
    0
  9
$OBSCOLOR
 70
  257
  9
$OBSLTYPE
280
    0
  9
$INTERSECTIONDISPLAY
280
    0
  9
$INTERSECTIONCOLOR
 70
  257
  9
$DIMASSOC
280
    1
  9
$PROJECTNAME
  1

  9
$CAMERADISPLAY
290
    0
  9
$LENSLENGTH
 40
50
  9
$CAMERAHEIGHT
 40
0
  9
$STEPSPERSEC
 40
2
  9
$STEPSIZE
 40
50
  9
$3DDWFPREC
 40
2
  9
$PSOLWIDTH
 40
5
  9
$PSOLHEIGHT
 40
80
  9
$LOFTANG1
 40
1.570796326794897
  9
$LOFTANG2
 40
1.570796326794897
  9
$LOFTMAG1
 40
0
  9
$LOFTMAG2
 40
0
  9
$LOFTPARAM
 70
    7
  9
$LOFTNORMALS
280
    1
  9
$LATITUDE
 40
1
  9
$LONGITUDE
 40
1
  9
$NORTHDIRECTION
 40
0
  9
$TIMEZONE
 70
-8000
  9
$LIGHTGLYPHDISPLAY
280
    1
  9
$TILEMODELIGHTSYNCH
280
    1
  9
$SOLIDHIST
280
    1
  9
$SHOWHIST
280
    1
  9
$DWFFRAME
280
    2
  9
$DGNFRAME
280
    0
  9
$REALWORLDSCALE
290
    1
  9
$INTERFERECOLOR
 62
    1
  9
$CSHADOW
280
    0
  9
$SHADOWPLANELOCATION
 40
0
  0
ENDSEC
  0
SECTION
  2
CLASSES
  0
ENDSEC
  0
SECTION
  2
TABLES
  0
TABLE
  2
VPORT
  5
8
330
0
100
AcDbSymbolTable
 70
    1
  0
VPORT
  5
31
330
2
100
AcDbSymbolTableRecord
100
AcDbViewportTableRecord
  2
*ACTIVE
 70
    0
 10
0
 20
0
 11
1
 21
1
 12
199.4038808950304
 22
96.94135870943205
 13
0
 23
0
 14
10
 24
10
 15
10
 25
10
 16
0
 26
0
 36
1
 17
0
 27
0
 37
0
 40
228.5504880831643
 41
2.424719101123595
 42
50
 43
0
 44
0
 50
0
 51
0
 71
    0
 72
  100
 73
    1
 74
    3
 75
    0
 76
    1
 77
    0
 78
    0
281
    0
 65
    1
110
0
120
0
130
0
111
1
121
0
131
0
112
0
122
1
132
0
 79
    0
146
0
348
10020
 60
    7
 61
    5
292
1
282
    1
141
0
142
0
 63
  250
421
3358443
  0
ENDTAB
  0
TABLE
  2
LTYPE
  5
5
330
0
100
AcDbSymbolTable
 70
    4
  0
LTYPE
  5
14
330
5
100
AcDbSymbolTableRecord
100
AcDbLinetypeTableRecord
  2
ByBlock
 70
    0
  3

 72
   65
 73
    0
 40
0
  0
LTYPE
  5
15
330
5
100
AcDbSymbolTableRecord
100
AcDbLinetypeTableRecord
  2
ByLayer
 70
    0
  3

 72
   65
 73
    0
 40
0
  0
LTYPE
  5
16
330
5
100
AcDbSymbolTableRecord
100
AcDbLinetypeTableRecord
  2
Continuous
 70
    0
  3
Solid line
 72
   65
 73
    0
 40
0
  0
LTYPE
  5
32
330
5
100
AcDbSymbolTableRecord
100
AcDbLinetypeTableRecord
  2
DOT
 70
    0
  3
Dot . . . . . . . . . . . . . . . . . . . . . .
 72
   65
 73
    2
 40
6.35
 49
0
 74
    0
 49
-6.35
 74
    0
  0
LTYPE
  5
33
330
5
100
AcDbSymbolTableRecord
100
AcDbLinetypeTableRecord
  2
DOTTINY
 70
    0
  3
Dot (.15x) .....................................
 72
   65
 73
    2
 40
0.9525
 49
0
 74
    0
 49
-0.9525
 74
    0
  0
LTYPE
  5
34
330
5
100
AcDbSymbolTableRecord
100
AcDbLinetypeTableRecord
  2
DOT2
 70
    0
  3
Dot (.5x) .....................................
 72
   65
 73
    2
 40
3.175
 49
0
 74
    0
 49
-3.175
 74
    0
  0
LTYPE
  5
35
330
5
100
AcDbSymbolTableRecord
100
AcDbLinetypeTableRecord
  2
DOTX2
 70
    0
  3
Dot (2x) .  .  .  .  .  .  .  .  .  .  .  .  .
 72
   65
 73
    2
 40
12.7
 49
0
 74
    0
 49
-12.7
 74
    0
  0
LTYPE
  5
36
330
5
100
AcDbSymbolTableRecord
100
AcDbLinetypeTableRecord
  2
DASHED
 70
    0
  3
Dashed _ _ _ _ _ _ _ _ _ _ _ _ _ _ _ _ _
 72
   65
 73
    2
 40
19.05
 49
12.7
 74
    0
 49
-6.35
 74
    0
  0
LTYPE
  5
37
330
5
100
AcDbSymbolTableRecord
100
AcDbLinetypeTableRecord
  2
DASHEDTINY
 70
    0
  3
Dashed (.15x) _ _ _ _ _ _ _ _ _ _ _ _ _ _ _ _ _
 72
   65
 73
    2
 40
2.8575
 49
1.905
 74
    0
 49
-0.9525
 74
    0
  0
LTYPE
  5
38
330
5
100
AcDbSymbolTableRecord
100
AcDbLinetypeTableRecord
  2
DASHED2
 70
    0
  3
Dashed (.5x) _ _ _ _ _ _ _ _ _ _ _ _ _ _ _ _ _
 72
   65
 73
    2
 40
9.524999999999999
 49
6.35
 74
    0
 49
-3.175
 74
    0
  0
LTYPE
  5
39
330
5
100
AcDbSymbolTableRecord
100
AcDbLinetypeTableRecord
  2
DASHEDX2
 70
    0
  3
Dashed (2x) ____  ____  ____  ____  ____  ___
 72
   65
 73
    2
 40
38.09999999999999
 49
25.4
 74
    0
 49
-12.7
 74
    0
  0
LTYPE
  5
3A
330
5
100
AcDbSymbolTableRecord
100
AcDbLinetypeTableRecord
  2
DASHDOT
 70
    0
  3
Dash dot __ . __ . __ . __ . __ . __ . __ . __
 72
   65
 73
    4
 40
25.4
 49
12.7
 74
    0
 49
-6.35
 74
    0
 49
0
 74
    0
 49
-6.35
 74
    0
  0
LTYPE
  5
3B
330
5
100
AcDbSymbolTableRecord
100
AcDbLinetypeTableRecord
  2
DASHDOTTINY
 70
    0
  3
Dash dot (.15x) _._._._._._._._._._._._._._._.
 72
   65
 73
    4
 40
3.81
 49
1.905
 74
    0
 49
-0.9525
 74
    0
 49
0
 74
    0
 49
-0.9525
 74
    0
  0
LTYPE
  5
3C
330
5
100
AcDbSymbolTableRecord
100
AcDbLinetypeTableRecord
  2
DASHDOT2
 70
    0
  3
Dash dot (.5x) _._._._._._._._._._._._._._._.
 72
   65
 73
    4
 40
12.7
 49
6.35
 74
    0
 49
-3.175
 74
    0
 49
0
 74
    0
 49
-3.175
 74
    0
  0
LTYPE
  5
3D
330
5
100
AcDbSymbolTableRecord
100
AcDbLinetypeTableRecord
  2
DASHDOTX2
 70
    0
  3
Dash dot (2x) ____  .  ____  .  ____  .  ___
 72
   65
 73
    4
 40
50.8
 49
25.4
 74
    0
 49
-12.7
 74
    0
 49
0
 74
    0
 49
-12.7
 74
    0
  0
LTYPE
  5
3E
330
5
100
AcDbSymbolTableRecord
100
AcDbLinetypeTableRecord
  2
DIVIDE
 70
    0
  3
Divide ____ . . ____ . . ____ . . ____ . . ____
 72
   65
 73
    6
 40
31.75
 49
12.7
 74
    0
 49
-6.35
 74
    0
 49
0
 74
    0
 49
-6.35
 74
    0
 49
0
 74
    0
 49
-6.35
 74
    0
  0
LTYPE
  5
3F
330
5
100
AcDbSymbolTableRecord
100
AcDbLinetypeTableRecord
  2
DIVIDETINY
 70
    0
  3
Divide (.15x) __..__..__..__..__..__..__..__.._
 72
   65
 73
    6
 40
4.7625
 49
1.905
 74
    0
 49
-0.9525
 74
    0
 49
0
 74
    0
 49
-0.9525
 74
    0
 49
0
 74
    0
 49
-0.9525
 74
    0
  0
LTYPE
  5
40
330
5
100
AcDbSymbolTableRecord
100
AcDbLinetypeTableRecord
  2
DIVIDE2
 70
    0
  3
Divide (.5x) __..__..__..__..__..__..__..__.._
 72
   65
 73
    6
 40
15.875
 49
6.35
 74
    0
 49
-3.175
 74
    0
 49
0
 74
    0
 49
-3.175
 74
    0
 49
0
 74
    0
 49
-3.175
 74
    0
  0
LTYPE
  5
41
330
5
100
AcDbSymbolTableRecord
100
AcDbLinetypeTableRecord
  2
DIVIDEX2
 70
    0
  3
Divide (2x) ________  .  .  ________  .  .  _
 72
   65
 73
    6
 40
63.5
 49
25.4
 74
    0
 49
-12.7
 74
    0
 49
0
 74
    0
 49
-12.7
 74
    0
 49
0
 74
    0
 49
-12.7
 74
    0
  0
LTYPE
  5
42
330
5
100
AcDbSymbolTableRecord
100
AcDbLinetypeTableRecord
  2
BORDER
 70
    0
  3
Border __ __ . __ __ . __ __ . __ __ . __ __ .
 72
   65
 73
    6
 40
44.45
 49
12.7
 74
    0
 49
-6.35
 74
    0
 49
12.7
 74
    0
 49
-6.35
 74
    0
 49
0
 74
    0
 49
-6.35
 74
    0
  0
LTYPE
  5
43
330
5
100
AcDbSymbolTableRecord
100
AcDbLinetypeTableRecord
  2
BORDERTINY
 70
    0
  3
Border (.15x) __.__.__.__.__.__.__.__.__.__.__.
 72
   65
 73
    6
 40
6.6675
 49
1.905
 74
    0
 49
-0.9525
 74
    0
 49
1.905
 74
    0
 49
-0.9525
 74
    0
 49
0
 74
    0
 49
-0.9525
 74
    0
  0
LTYPE
  5
44
330
5
100
AcDbSymbolTableRecord
100
AcDbLinetypeTableRecord
  2
BORDER2
 70
    0
  3
Border (.5x) __.__.__.__.__.__.__.__.__.__.__.
 72
   65
 73
    6
 40
22.225
 49
6.35
 74
    0
 49
-3.175
 74
    0
 49
6.35
 74
    0
 49
-3.175
 74
    0
 49
0
 74
    0
 49
-3.175
 74
    0
  0
LTYPE
  5
45
330
5
100
AcDbSymbolTableRecord
100
AcDbLinetypeTableRecord
  2
BORDERX2
 70
    0
  3
Border (2x) ____  ____  .  ____  ____  .  ___
 72
   65
 73
    6
 40
88.89999999999999
 49
25.4
 74
    0
 49
-12.7
 74
    0
 49
25.4
 74
    0
 49
-12.7
 74
    0
 49
0
 74
    0
 49
-12.7
 74
    0
  0
LTYPE
  5
46
330
5
100
AcDbSymbolTableRecord
100
AcDbLinetypeTableRecord
  2
CENTER
 70
    0
  3
Center ____ _ ____ _ ____ _ ____ _ ____ _ ____
 72
   65
 73
    4
 40
50.8
 49
31.75
 74
    0
 49
-6.35
 74
    0
 49
6.35
 74
    0
 49
-6.35
 74
    0
  0
LTYPE
  5
47
330
5
100
AcDbSymbolTableRecord
100
AcDbLinetypeTableRecord
  2
CENTERTINY
 70
    0
  3
Center (.15x) ___ _ ___ _ ___ _ ___ _ ___ _ ___
 72
   65
 73
    4
 40
7.619999999999999
 49
4.7625
 74
    0
 49
-0.9525
 74
    0
 49
0.9525
 74
    0
 49
-0.9525
 74
    0
  0
LTYPE
  5
48
330
5
100
AcDbSymbolTableRecord
100
AcDbLinetypeTableRecord
  2
CENTER2
 70
    0
  3
Center (.5x) ___ _ ___ _ ___ _ ___ _ ___ _ ___
 72
   65
 73
    4
 40
28.575
 49
19.05
 74
    0
 49
-3.175
 74
    0
 49
3.175
 74
    0
 49
-3.175
 74
    0
  0
LTYPE
  5
49
330
5
100
AcDbSymbolTableRecord
100
AcDbLinetypeTableRecord
  2
CENTERX2
 70
    0
  3
Center (2x) ________  __  ________  __  _____
 72
   65
 73
    4
 40
101.6
 49
63.5
 74
    0
 49
-12.7
 74
    0
 49
12.7
 74
    0
 49
-12.7
 74
    0
  0
ENDTAB
  0
TABLE
  2
LAYER
  5
2
330
0
100
AcDbSymbolTable
 70
    1
  0
LAYER
  5
10
330
2
100
AcDbSymbolTableRecord
100
AcDbLayerTableRecord
  2
0
 70
    4
 62
    7
  6
CONTINUOUS
370
    0
390
F
  0
LAYER
  5
4A
330
2
100
AcDbSymbolTableRecord
100
AcDbLayerTableRecord
  2
AC socket
 70
    5
 62
   96
420
32768
  6
CONTINUOUS
370
    0
390
F
  0
LAYER
  5
4B
330
2
100
AcDbSymbolTableRecord
100
AcDbLayerTableRecord
  2
AC socket cut
 70
    4
 62
    7
  6
CONTINUOUS
370
    0
390
F
  0
LAYER
  5
4C
330
2
100
AcDbSymbolTableRecord
100
AcDbLayerTableRecord
  2
Chassis
 70
    5
 62
   96
420
32768
  6
CONTINUOUS
370
    0
390
F
  0
LAYER
  5
4D
330
2
100
AcDbSymbolTableRecord
100
AcDbLayerTableRecord
  2
Chassis cut
 70
    4
 62
    7
  6
CONTINUOUS
370
    0
390
F
  0
LAYER
  5
4E
330
2
100
AcDbSymbolTableRecord
100
AcDbLayerTableRecord
  2
Dimensions
 70
    4
 62
    1
  6
CONTINUOUS
370
    0
390
F
  0
LAYER
  5
4F
330
2
100
AcDbSymbolTableRecord
100
AcDbLayerTableRecord
  2
Fan
 70
    5
 62
   96
420
32768
  6
CONTINUOUS
370
    0
390
F
  0
LAYER
  5
50
330
2
100
AcDbSymbolTableRecord
100
AcDbLayerTableRecord
  2
Fan cut
 70
    4
 62
    7
  6
CONTINUOUS
370
    0
390
F
  0
LAYER
  5
51
330
2
100
AcDbSymbolTableRecord
100
AcDbLayerTableRecord
  2
Vent
 70
    5
 62
   96
420
32768
  6
CONTINUOUS
370
    0
390
F
  0
LAYER
  5
52
330
2
100
AcDbSymbolTableRecord
100
AcDbLayerTableRecord
  2
Vent cut
 70
    4
 62
    7
  6
CONTINUOUS
370
    0
390
F
  0
ENDTAB
  0
TABLE
  2
STYLE
  5
3
330
0
100
AcDbSymbolTable
 70
    3
  0
STYLE
  5
53
330
2
100
AcDbSymbolTableRecord
100
AcDbTextStyleTableRecord
  2
Standard
 70
    0
 40
0
 41
1
 50
0
 71
    0
 42
1
  3
txt
  4

  0
ENDTAB
  0
TABLE
  2
VIEW
  5
6
330
0
100
AcDbSymbolTable
 70
    0
  0
ENDTAB
  0
TABLE
  2
UCS
  5
7
330
0
100
AcDbSymbolTable
 70
    0
  0
ENDTAB
  0
TABLE
  2
APPID
  5
9
330
0
100
AcDbSymbolTable
 70
    1
  0
APPID
  5
12
330
9
100
AcDbSymbolTableRecord
100
AcDbRegAppTableRecord
  2
ACAD
 70
    0
  0
APPID
  5
54
330
9
100
AcDbSymbolTableRecord
100
AcDbRegAppTableRecord
  2
LibreCad
 70
    0
  0
ENDTAB
  0
TABLE
  2
DIMSTYLE
  5
A
330
0
100
AcDbSymbolTable
 70
    1
100
AcDbDimStyleTable
 71
    1
  0
DIMSTYLE
105
55
330
A
100
AcDbSymbolTableRecord
100
AcDbDimStyleTableRecord
  2
Standard
 70
    0
 40
1
 41
2.5
 42
0.625
 43
0.38
 44
1.25
 45
0
 46
0
 47
0
 48
0
 49
1
140
2.5
141
0.09
142
0
143
25.4
144
1
145
0
146
1
147
0.625
148
0
 71
    0
 72
    0
 73
    0
 74
    1
 75
    0
 76
    0
 77
    0
 78
    8
 79
    0
170
    0
171
    2
172
    0
173
    0
174
    0
175
    0
176
    0
177
    0
178
    0
179
    0
271
    2
272
    4
273
    2
274
    2
275
    0
276
    0
277
    2
278
    0
279
    0
280
    0
281
    0
282
    0
283
    1
284
    0
285
    0
286
    0
288
    0
289
    3
340
standard
341

371
   -2
372
   -2
  0
ENDTAB
  0
TABLE
  2
BLOCK_RECORD
  5
1
330
0
100
AcDbSymbolTable
 70
    2
  0
BLOCK_RECORD
  5
1F
330
1
100
AcDbSymbolTableRecord
100
AcDbBlockTableRecord
  2
*Model_Space
 70
    0
280
    1
281
    0
  0
BLOCK_RECORD
  5
1E
330
1
100
AcDbSymbolTableRecord
100
AcDbBlockTableRecord
  2
*Paper_Space
 70
    0
280
    1
281
    0
  0
BLOCK_RECORD
  5
56
330
1
100
AcDbSymbolTableRecord
100
AcDbBlockTableRecord
  2
*D1
 70
    0
280
    1
281
    0
  0
BLOCK_RECORD
  5
59
330
1
100
AcDbSymbolTableRecord
100
AcDbBlockTableRecord
  2
*D17
 70
    0
280
    1
281
    0
  0
BLOCK_RECORD
  5
5C
330
1
100
AcDbSymbolTableRecord
100
AcDbBlockTableRecord
  2
*D8
 70
    0
280
    1
281
    0
  0
BLOCK_RECORD
  5
5F
330
1
100
AcDbSymbolTableRecord
100
AcDbBlockTableRecord
  2
*D6
 70
    0
280
    1
281
    0
  0
BLOCK_RECORD
  5
62
330
1
100
AcDbSymbolTableRecord
100
AcDbBlockTableRecord
  2
*D35
 70
    0
280
    1
281
    0
  0
BLOCK_RECORD
  5
65
330
1
100
AcDbSymbolTableRecord
100
AcDbBlockTableRecord
  2
*D9
 70
    0
280
    1
281
    0
  0
BLOCK_RECORD
  5
68
330
1
100
AcDbSymbolTableRecord
100
AcDbBlockTableRecord
  2
*D24
 70
    0
280
    1
281
    0
  0
BLOCK_RECORD
  5
6B
330
1
100
AcDbSymbolTableRecord
100
AcDbBlockTableRecord
  2
*D32
 70
    0
280
    1
281
    0
  0
BLOCK_RECORD
  5
6E
330
1
100
AcDbSymbolTableRecord
100
AcDbBlockTableRecord
  2
*D15
 70
    0
280
    1
281
    0
  0
BLOCK_RECORD
  5
71
330
1
100
AcDbSymbolTableRecord
100
AcDbBlockTableRecord
  2
*D13
 70
    0
280
    1
281
    0
  0
BLOCK_RECORD
  5
74
330
1
100
AcDbSymbolTableRecord
100
AcDbBlockTableRecord
  2
*D20
 70
    0
280
    1
281
    0
  0
BLOCK_RECORD
  5
77
330
1
100
AcDbSymbolTableRecord
100
AcDbBlockTableRecord
  2
*D16
 70
    0
280
    1
281
    0
  0
BLOCK_RECORD
  5
7A
330
1
100
AcDbSymbolTableRecord
100
AcDbBlockTableRecord
  2
*D30
 70
    0
280
    1
281
    0
  0
BLOCK_RECORD
  5
7D
330
1
100
AcDbSymbolTableRecord
100
AcDbBlockTableRecord
  2
*D33
 70
    0
280
    1
281
    0
  0
BLOCK_RECORD
  5
80
330
1
100
AcDbSymbolTableRecord
100
AcDbBlockTableRecord
  2
*D34
 70
    0
280
    1
281
    0
  0
BLOCK_RECORD
  5
83
330
1
100
AcDbSymbolTableRecord
100
AcDbBlockTableRecord
  2
*D21
 70
    0
280
    1
281
    0
  0
BLOCK_RECORD
  5
86
330
1
100
AcDbSymbolTableRecord
100
AcDbBlockTableRecord
  2
*D22
 70
    0
280
    1
281
    0
  0
BLOCK_RECORD
  5
89
330
1
100
AcDbSymbolTableRecord
100
AcDbBlockTableRecord
  2
*D29
 70
    0
280
    1
281
    0
  0
BLOCK_RECORD
  5
8C
330
1
100
AcDbSymbolTableRecord
100
AcDbBlockTableRecord
  2
*D27
 70
    0
280
    1
281
    0
  0
BLOCK_RECORD
  5
8F
330
1
100
AcDbSymbolTableRecord
100
AcDbBlockTableRecord
  2
*D31
 70
    0
280
    1
281
    0
  0
BLOCK_RECORD
  5
92
330
1
100
AcDbSymbolTableRecord
100
AcDbBlockTableRecord
  2
*D25
 70
    0
280
    1
281
    0
  0
BLOCK_RECORD
  5
95
330
1
100
AcDbSymbolTableRecord
100
AcDbBlockTableRecord
  2
*D26
 70
    0
280
    1
281
    0
  0
BLOCK_RECORD
  5
98
330
1
100
AcDbSymbolTableRecord
100
AcDbBlockTableRecord
  2
*D23
 70
    0
280
    1
281
    0
  0
BLOCK_RECORD
  5
9B
330
1
100
AcDbSymbolTableRecord
100
AcDbBlockTableRecord
  2
*D3
 70
    0
280
    1
281
    0
  0
BLOCK_RECORD
  5
9E
330
1
100
AcDbSymbolTableRecord
100
AcDbBlockTableRecord
  2
*D10
 70
    0
280
    1
281
    0
  0
BLOCK_RECORD
  5
A1
330
1
100
AcDbSymbolTableRecord
100
AcDbBlockTableRecord
  2
*D28
 70
    0
280
    1
281
    0
  0
BLOCK_RECORD
  5
A4
330
1
100
AcDbSymbolTableRecord
100
AcDbBlockTableRecord
  2
*D4
 70
    0
280
    1
281
    0
  0
BLOCK_RECORD
  5
A7
330
1
100
AcDbSymbolTableRecord
100
AcDbBlockTableRecord
  2
*D5
 70
    0
280
    1
281
    0
  0
BLOCK_RECORD
  5
AA
330
1
100
AcDbSymbolTableRecord
100
AcDbBlockTableRecord
  2
*D14
 70
    0
280
    1
281
    0
  0
BLOCK_RECORD
  5
AD
330
1
100
AcDbSymbolTableRecord
100
AcDbBlockTableRecord
  2
*D18
 70
    0
280
    1
281
    0
  0
BLOCK_RECORD
  5
B0
330
1
100
AcDbSymbolTableRecord
100
AcDbBlockTableRecord
  2
*D11
 70
    0
280
    1
281
    0
  0
BLOCK_RECORD
  5
B3
330
1
100
AcDbSymbolTableRecord
100
AcDbBlockTableRecord
  2
*D12
 70
    0
280
    1
281
    0
  0
BLOCK_RECORD
  5
B6
330
1
100
AcDbSymbolTableRecord
100
AcDbBlockTableRecord
  2
*D2
 70
    0
280
    1
281
    0
  0
BLOCK_RECORD
  5
B9
330
1
100
AcDbSymbolTableRecord
100
AcDbBlockTableRecord
  2
*D19
 70
    0
280
    1
281
    0
  0
BLOCK_RECORD
  5
BC
330
1
100
AcDbSymbolTableRecord
100
AcDbBlockTableRecord
  2
*D7
 70
    0
280
    1
281
    0
  0
ENDTAB
  0
ENDSEC
  0
SECTION
  2
BLOCKS
  0
BLOCK
  5
20
330
1F
100
AcDbEntity
  8
0
100
AcDbBlockBegin
  2
*Model_Space
 70
    0
 10
0
 20
0
 30
0
  3
*Model_Space
  1

  0
ENDBLK
  5
21
330
1F
100
AcDbEntity
  8
0
100
AcDbBlockEnd
  0
BLOCK
  5
1C
330
1B
100
AcDbEntity
  8
0
100
AcDbBlockBegin
  2
*Paper_Space
 70
    0
 10
0
 20
0
 30
0
  3
*Paper_Space
  1

  0
ENDBLK
  5
1D
330
1F
100
AcDbEntity
  8
0
100
AcDbBlockEnd
  0
BLOCK
  5
57
330
56
100
AcDbEntity
  8
0
100
AcDbBlockBegin
  2
*D1
 70
    1
 10
0
 20
0
  3
*D1
  1

  0
LINE
  5
BF
100
AcDbEntity
  8
Dimensions
  6
ByBlock
 62
    0
370
   -2
100
AcDbLine
 10
250
 20
136
 11
242.5
 21
136
  0
SOLID
  5
C0
100
AcDbEntity
  8
Dimensions
  6
ByBlock
 62
    0
370
   -2
100
AcDbTrace
 10
250
 20
136
 30
0
 11
247.5
 21
135.5837153422272
 31
0
 12
247.5
 22
136.4162846577728
 32
0
 13
247.5
 23
136.4162846577728
 33
0
  0
SOLID
  5
C1
100
AcDbEntity
  8
Dimensions
  6
ByBlock
 62
    0
370
   -2
100
AcDbTrace
 10
242.5
 20
136
 30
0
 11
245
 21
136.4162846577728
 31
0
 12
245
 22
135.5837153422272
 32
0
 13
245
 23
135.5837153422272
 33
0
  0
MTEXT
  5
C2
100
AcDbEntity
  8
Dimensions
  6
CONTINUOUS
 62
    0
370
   -2
100
AcDbMText
 10
246.25
 20
137.875
 30
0
 40
2.5
 41
3.888888888889044
 71
    5
 72
    1
  1
7.5
  7
standard
210
0
220
0
230
1
 50
360
 73
    2
 44
1
  0
LINE
  5
C3
100
AcDbEntity
  8
Dimensions
  6
ByBlock
 62
    0
370
   -2
100
AcDbLine
 10
250
 20
131.625
 11
250
 21
137.25
  0
LINE
  5
C4
100
AcDbEntity
  8
Dimensions
  6
ByBlock
 62
    0
370
   -2
100
AcDbLine
 10
242.5
 20
119.625
 11
242.5
 21
137.25
  0
ENDBLK
  5
58
330
56
100
AcDbEntity
  8
0
100
AcDbBlockEnd
  0
BLOCK
  5
5A
330
59
100
AcDbEntity
  8
0
100
AcDbBlockBegin
  2
*D17
 70
    1
 10
0
 20
0
  3
*D17
  1

  0
LINE
  5
C5
100
AcDbEntity
  8
Dimensions
  6
ByBlock
 62
    0
370
   -2
100
AcDbLine
 10
0
 20
141
 11
71
 21
141
  0
SOLID
  5
C6
100
AcDbEntity
  8
Dimensions
  6
ByBlock
 62
    0
370
   -2
100
AcDbTrace
 10
0
 20
141
 30
0
 11
2.5
 21
141.4162846577728
 31
0
 12
2.5
 22
140.5837153422272
 32
0
 13
2.5
 23
140.5837153422272
 33
0
  0
SOLID
  5
C7
100
AcDbEntity
  8
Dimensions
  6
ByBlock
 62
    0
370
   -2
100
AcDbTrace
 10
71
 20
141
 30
0
 11
68.5
 21
140.5837153422272
 31
0
 12
68.5
 22
141.4162846577728
 32
0
 13
68.5
 23
141.4162846577728
 33
0
  0
MTEXT
  5
C8
100
AcDbEntity
  8
Dimensions
  6
CONTINUOUS
 62
    0
370
   -2
100
AcDbMText
 10
35.5
 20
142.875
 30
0
 40
2.5
 41
2.5
 71
    5
 72
    1
  1
71
  7
standard
210
0
220
0
230
1
 50
0
 73
    2
 44
1
  0
LINE
  5
C9
100
AcDbEntity
  8
Dimensions
  6
ByBlock
 62
    0
370
   -2
100
AcDbLine
 10
3.827021247335479e-17
 20
131.625
 11
7.654042494670958e-17
 21
142.25
  0
LINE
  5
CA
100
AcDbEntity
  8
Dimensions
  6
ByBlock
 62
    0
370
   -2
100
AcDbLine
 10
71
 20
75.625
 11
71
 21
142.25
  0
ENDBLK
  5
5B
330
59
100
AcDbEntity
  8
0
100
AcDbBlockEnd
  0
BLOCK
  5
5D
330
5C
100
AcDbEntity
  8
0
100
AcDbBlockBegin
  2
*D8
 70
    1
 10
0
 20
0
  3
*D8
  1

  0
LINE
  5
CB
100
AcDbEntity
  8
Dimensions
  6
ByBlock
 62
    0
370
   -2
100
AcDbLine
 10
250
 20
-15
 11
215
 21
-15
  0
SOLID
  5
CC
100
AcDbEntity
  8
Dimensions
  6
ByBlock
 62
    0
370
   -2
100
AcDbTrace
 10
250
 20
-15
 30
0
 11
247.5
 21
-15.41628465777284
 31
0
 12
247.5
 22
-14.58371534222716
 32
0
 13
247.5
 23
-14.58371534222716
 33
0
  0
SOLID
  5
CD
100
AcDbEntity
  8
Dimensions
  6
ByBlock
 62
    0
370
   -2
100
AcDbTrace
 10
215
 20
-15
 30
0
 11
217.5
 21
-14.58371534222716
 31
0
 12
217.5
 22
-15.41628465777284
 32
0
 13
217.5
 23
-15.41628465777284
 33
0
  0
MTEXT
  5
CE
100
AcDbEntity
  8
Dimensions
  6
CONTINUOUS
 62
    0
370
   -2
100
AcDbMText
 10
232.5
 20
-13.125
 30
0
 40
2.5
 41
3.055555555555866
 71
    5
 72
    1
  1
35
  7
standard
210
0
220
0
230
1
 50
360
 73
    2
 44
1
  0
LINE
  5
CF
100
AcDbEntity
  8
Dimensions
  6
ByBlock
 62
    0
370
   -2
100
AcDbLine
 10
250
 20
-0.625
 11
250
 21
-16.25
  0
LINE
  5
D0
100
AcDbEntity
  8
Dimensions
  6
ByBlock
 62
    0
370
   -2
100
AcDbLine
 10
215
 20
24.875
 11
215
 21
-16.25
  0
ENDBLK
  5
5E
330
5C
100
AcDbEntity
  8
0
100
AcDbBlockEnd
  0
BLOCK
  5
60
330
5F
100
AcDbEntity
  8
0
100
AcDbBlockBegin
  2
*D6
 70
    1
 10
0
 20
0
  3
*D6
  1

  0
LINE
  5
D1
100
AcDbEntity
  8
Dimensions
  6
ByBlock
 62
    0
370
   -2
100
AcDbLine
 10
265
 20
15
 11
265
 21
35.99999999999999
  0
SOLID
  5
D2
100
AcDbEntity
  8
Dimensions
  6
ByBlock
 62
    0
370
   -2
100
AcDbTrace
 10
265
 20
15
 30
0
 11
264.5837153422272
 21
17.5
 31
0
 12
265.4162846577728
 22
17.5
 32
0
 13
265.4162846577728
 23
17.5
 33
0
  0
SOLID
  5
D3
100
AcDbEntity
  8
Dimensions
  6
ByBlock
 62
    0
370
   -2
100
AcDbTrace
 10
265
 20
35.99999999999999
 30
0
 11
265.4162846577728
 21
33.49999999999999
 31
0
 12
264.5837153422272
 22
33.49999999999999
 32
0
 13
264.5837153422272
 23
33.49999999999999
 33
0
  0
MTEXT
  5
D4
100
AcDbEntity
  8
Dimensions
  6
CONTINUOUS
 62
    0
370
   -2
100
AcDbMText
 10
263.125
 20
25.5
 30
0
 40
2.5
 41
2.5
 71
    5
 72
    1
  1
21
  7
standard
210
0
220
0
230
1
 50
90
 73
    2
 44
1
  0
LINE
  5
D5
100
AcDbEntity
  8
Dimensions
  6
ByBlock
 62
    0
370
   -2
100
AcDbLine
 10
206.125
 20
15
 11
266.25
 21
15
  0
LINE
  5
D6
100
AcDbEntity
  8
Dimensions
  6
ByBlock
 62
    0
370
   -2
100
AcDbLine
 10
206.1249961275677
 20
35.99999999999999
 11
266.25
 21
35.99999999999999
  0
ENDBLK
  5
61
330
5F
100
AcDbEntity
  8
0
100
AcDbBlockEnd
  0
BLOCK
  5
63
330
62
100
AcDbEntity
  8
0
100
AcDbBlockBegin
  2
*D35
 70
    1
 10
0
 20
0
  3
*D35
  1

  0
LINE
  5
D7
100
AcDbEntity
  8
Dimensions
  6
ByBlock
 62
    0
370
   -2
100
AcDbLine
 10
88.6776695296637
 20
57.32233047033633
 11
53.3223304703363
 21
92.67766952966369
  0
SOLID
  5
D8
100
AcDbEntity
  8
Dimensions
  6
ByBlock
 62
    0
370
   -2
100
AcDbTrace
 10
88.6776695296637
 20
57.32233047033633
 30
0
 11
86.61554487228224
 21
58.7957397188876
 31
0
 12
87.20426028111243
 22
59.38445512771779
 32
0
 13
87.20426028111243
 23
59.38445512771779
 33
0
  0
SOLID
  5
D9
100
AcDbEntity
  8
Dimensions
  6
ByBlock
 62
    0
370
   -2
100
AcDbTrace
 10
53.3223304703363
 20
92.67766952966369
 30
0
 11
55.38445512771777
 21
91.20426028111241
 31
0
 12
54.79573971888757
 22
90.61554487228223
 32
0
 13
54.79573971888757
 23
90.61554487228223
 33
0
  0
MTEXT
  5
DA
100
AcDbEntity
  8
Dimensions
  6
CONTINUOUS
 62
    0
370
   -2
100
AcDbMText
 10
79
 20
70
 30
0
 40
2.5
 41
3.055555555555711
 71
    5
 72
    1
  1
50
  7
standard
210
0
220
0
230
1
 50
315.0000000000001
 73
    2
 44
1
  0
ENDBLK
  5
64
330
62
100
AcDbEntity
  8
0
100
AcDbBlockEnd
  0
BLOCK
  5
66
330
65
100
AcDbEntity
  8
0
100
AcDbBlockBegin
  2
*D9
 70
    1
 10
0
 20
0
  3
*D9
  1

  0
LINE
  5
DB
100
AcDbEntity
  8
Dimensions
  6
ByBlock
 62
    0
370
   -2
100
AcDbLine
 10
215
 20
-15
 11
175
 21
-15
  0
SOLID
  5
DC
100
AcDbEntity
  8
Dimensions
  6
ByBlock
 62
    0
370
   -2
100
AcDbTrace
 10
215
 20
-15
 30
0
 11
212.5
 21
-15.41628465777284
 31
0
 12
212.5
 22
-14.58371534222716
 32
0
 13
212.5
 23
-14.58371534222716
 33
0
  0
SOLID
  5
DD
100
AcDbEntity
  8
Dimensions
  6
ByBlock
 62
    0
370
   -2
100
AcDbTrace
 10
175
 20
-15
 30
0
 11
177.5
 21
-14.58371534222716
 31
0
 12
177.5
 22
-15.41628465777284
 32
0
 13
177.5
 23
-15.41628465777284
 33
0
  0
MTEXT
  5
DE
100
AcDbEntity
  8
Dimensions
  6
CONTINUOUS
 62
    0
370
   -2
100
AcDbMText
 10
195
 20
-13.125
 30
0
 40
2.5
 41
3.333333333333333
 71
    5
 72
    1
  1
40
  7
standard
210
0
220
0
230
1
 50
360
 73
    2
 44
1
  0
LINE
  5
DF
100
AcDbEntity
  8
Dimensions
  6
ByBlock
 62
    0
370
   -2
100
AcDbLine
 10
215
 20
24.875
 11
215
 21
-16.25
  0
LINE
  5
E0
100
AcDbEntity
  8
Dimensions
  6
ByBlock
 62
    0
370
   -2
100
AcDbLine
 10
175
 20
24.875
 11
175
 21
-16.25
  0
ENDBLK
  5
67
330
65
100
AcDbEntity
  8
0
100
AcDbBlockEnd
  0
BLOCK
  5
69
330
68
100
AcDbEntity
  8
0
100
AcDbBlockBegin
  2
*D24
 70
    1
 10
0
 20
0
  3
*D24
  1

  0
LINE
  5
E1
100
AcDbEntity
  8
Dimensions
  6
ByBlock
 62
    0
370
   -2
100
AcDbLine
 10
0
 20
151
 11
250
 21
151
  0
SOLID
  5
E2
100
AcDbEntity
  8
Dimensions
  6
ByBlock
 62
    0
370
   -2
100
AcDbTrace
 10
0
 20
151
 30
0
 11
2.5
 21
151.4162846577728
 31
0
 12
2.5
 22
150.5837153422272
 32
0
 13
2.5
 23
150.5837153422272
 33
0
  0
SOLID
  5
E3
100
AcDbEntity
  8
Dimensions
  6
ByBlock
 62
    0
370
   -2
100
AcDbTrace
 10
250
 20
151
 30
0
 11
247.5
 21
150.5837153422272
 31
0
 12
247.5
 22
151.4162846577728
 32
0
 13
247.5
 23
151.4162846577728
 33
0
  0
MTEXT
  5
E4
100
AcDbEntity
  8
Dimensions
  6
CONTINUOUS
 62
    0
370
   -2
100
AcDbMText
 10
125
 20
152.875
 30
0
 40
2.5
 41
5.000000000000155
 71
    5
 72
    1
  1
250
  7
standard
210
0
220
0
230
1
 50
0
 73
    2
 44
1
  0
LINE
  5
E5
100
AcDbEntity
  8
Dimensions
  6
ByBlock
 62
    0
370
   -2
100
AcDbLine
 10
3.827021247335479e-17
 20
131.625
 11
7.654042494670958e-17
 21
152.25
  0
LINE
  5
E6
100
AcDbEntity
  8
Dimensions
  6
ByBlock
 62
    0
370
   -2
100
AcDbLine
 10
250
 20
131.625
 11
250
 21
152.25
  0
ENDBLK
  5
6A
330
68
100
AcDbEntity
  8
0
100
AcDbBlockEnd
  0
BLOCK
  5
6C
330
6B
100
AcDbEntity
  8
0
100
AcDbBlockBegin
  2
*D32
 70
    1
 10
0
 20
0
  3
*D32
  1

  0
LINE
  5
E7
100
AcDbEntity
  8
Dimensions
  6
ByBlock
 62
    0
370
   -2
100
AcDbLine
 10
-15
 20
131
 11
-15
 21
100
  0
SOLID
  5
E8
100
AcDbEntity
  8
Dimensions
  6
ByBlock
 62
    0
370
   -2
100
AcDbTrace
 10
-15
 20
131
 30
0
 11
-14.58371534222716
 21
128.5
 31
0
 12
-15.41628465777284
 22
128.5
 32
0
 13
-15.41628465777284
 23
128.5
 33
0
  0
SOLID
  5
E9
100
AcDbEntity
  8
Dimensions
  6
ByBlock
 62
    0
370
   -2
100
AcDbTrace
 10
-15
 20
100
 30
0
 11
-15.41628465777284
 21
102.5
 31
0
 12
-14.58371534222716
 22
102.5
 32
0
 13
-14.58371534222716
 23
102.5
 33
0
  0
MTEXT
  5
EA
100
AcDbEntity
  8
Dimensions
  6
CONTINUOUS
 62
    0
370
   -2
100
AcDbMText
 10
-16.875
 20
115.5
 30
0
 40
2.5
 41
2.500000000000155
 71
    5
 72
    1
  1
31
  7
standard
210
0
220
0
230
1
 50
90
 73
    2
 44
1
  0
LINE
  5
EB
100
AcDbEntity
  8
Dimensions
  6
ByBlock
 62
    0
370
   -2
100
AcDbLine
 10
-0.625
 20
131
 11
-16.25
 21
131
  0
LINE
  5
EC
100
AcDbEntity
  8
Dimensions
  6
ByBlock
 62
    0
370
   -2
100
AcDbLine
 10
95.375
 20
100
 11
-16.25
 21
100
  0
ENDBLK
  5
6D
330
6B
100
AcDbEntity
  8
0
100
AcDbBlockEnd
  0
BLOCK
  5
6F
330
6E
100
AcDbEntity
  8
0
100
AcDbBlockBegin
  2
*D15
 70
    1
 10
0
 20
0
  3
*D15
  1

  0
LINE
  5
ED
100
AcDbEntity
  8
Dimensions
  6
ByBlock
 62
    0
370
   -2
100
AcDbLine
 10
-4.999999999999999
 20
12
 11
-5
 21
3.108624468950438e-16
  0
SOLID
  5
EE
100
AcDbEntity
  8
Dimensions
  6
ByBlock
 62
    0
370
   -2
100
AcDbTrace
 10
-4.999999999999999
 20
12
 30
0
 11
-4.583715342227158
 21
9.500000000000004
 31
0
 12
-5.41628465777284
 22
9.500000000000004
 32
0
 13
-5.41628465777284
 23
9.500000000000004
 33
0
  0
SOLID
  5
EF
100
AcDbEntity
  8
Dimensions
  6
ByBlock
 62
    0
370
   -2
100
AcDbTrace
 10
-5
 20
3.108624468950438e-16
 30
0
 11
-5.41628465777284
 21
2.5
 31
0
 12
-4.583715342227159
 22
2.5
 32
0
 13
-4.583715342227159
 23
2.5
 33
0
  0
MTEXT
  5
F0
100
AcDbEntity
  8
Dimensions
  6
CONTINUOUS
 62
    0
370
   -2
100
AcDbMText
 10
-6.875
 20
6.000000000000002
 30
0
 40
2.5
 41
2.5
 71
    5
 72
    1
  1
12
  7
standard
210
0
220
0
230
1
 50
90
 73
    2
 44
1
  0
LINE
  5
F1
100
AcDbEntity
  8
Dimensions
  6
ByBlock
 62
    0
370
   -2
100
AcDbLine
 10
6.875
 20
12
 11
-6.249999999999999
 21
12
  0
LINE
  5
F2
100
AcDbEntity
  8
Dimensions
  6
ByBlock
 62
    0
370
   -2
100
AcDbLine
 10
-0.625
 20
7.654042494670958e-17
 11
-6.25
 21
4.639432967884629e-16
  0
ENDBLK
  5
70
330
6E
100
AcDbEntity
  8
0
100
AcDbBlockEnd
  0
BLOCK
  5
72
330
71
100
AcDbEntity
  8
0
100
AcDbBlockBegin
  2
*D13
 70
    1
 10
0
 20
0
  3
*D13
  1

  0
LINE
  5
F3
100
AcDbEntity
  8
Dimensions
  6
ByBlock
 62
    0
370
   -2
100
AcDbLine
 10
7.5
 20
136
 11
0
 21
136
  0
SOLID
  5
F4
100
AcDbEntity
  8
Dimensions
  6
ByBlock
 62
    0
370
   -2
100
AcDbTrace
 10
7.5
 20
136
 30
0
 11
5
 21
135.5837153422272
 31
0
 12
5
 22
136.4162846577728
 32
0
 13
5
 23
136.4162846577728
 33
0
  0
SOLID
  5
F5
100
AcDbEntity
  8
Dimensions
  6
ByBlock
 62
    0
370
   -2
100
AcDbTrace
 10
0
 20
136
 30
0
 11
2.5
 21
136.4162846577728
 31
0
 12
2.5
 22
135.5837153422272
 32
0
 13
2.5
 23
135.5837153422272
 33
0
  0
MTEXT
  5
F6
100
AcDbEntity
  8
Dimensions
  6
CONTINUOUS
 62
    0
370
   -2
100
AcDbMText
 10
3.75
 20
137.875
 30
0
 40
2.5
 41
3.888888888889044
 71
    5
 72
    1
  1
7.5
  7
standard
210
0
220
0
230
1
 50
360
 73
    2
 44
1
  0
LINE
  5
F7
100
AcDbEntity
  8
Dimensions
  6
ByBlock
 62
    0
370
   -2
100
AcDbLine
 10
7.5
 20
119.625
 11
7.5
 21
137.25
  0
LINE
  5
F8
100
AcDbEntity
  8
Dimensions
  6
ByBlock
 62
    0
370
   -2
100
AcDbLine
 10
3.827021247335479e-17
 20
131.625
 11
7.654042494670958e-17
 21
137.25
  0
ENDBLK
  5
73
330
71
100
AcDbEntity
  8
0
100
AcDbBlockEnd
  0
BLOCK
  5
75
330
74
100
AcDbEntity
  8
0
100
AcDbBlockBegin
  2
*D20
 70
    1
 10
0
 20
0
  3
*D20
  1

  0
LINE
  5
F9
100
AcDbEntity
  8
Dimensions
  6
ByBlock
 62
    0
370
   -2
100
AcDbLine
 10
260
 20
131
 11
260
 21
75
  0
SOLID
  5
FA
100
AcDbEntity
  8
Dimensions
  6
ByBlock
 62
    0
370
   -2
100
AcDbTrace
 10
260
 20
131
 30
0
 11
260.4162846577728
 21
128.5
 31
0
 12
259.5837153422272
 22
128.5
 32
0
 13
259.5837153422272
 23
128.5
 33
0
  0
SOLID
  5
FB
100
AcDbEntity
  8
Dimensions
  6
ByBlock
 62
    0
370
   -2
100
AcDbTrace
 10
260
 20
75
 30
0
 11
259.5837153422272
 21
77.5
 31
0
 12
260.4162846577728
 22
77.5
 32
0
 13
260.4162846577728
 23
77.5
 33
0
  0
MTEXT
  5
FC
100
AcDbEntity
  8
Dimensions
  6
CONTINUOUS
 62
    0
370
   -2
100
AcDbMText
 10
258.125
 20
103
 30
0
 40
2.5
 41
3.055555555555866
 71
    5
 72
    1
  1
56
  7
standard
210
0
220
0
230
1
 50
90
 73
    2
 44
1
  0
LINE
  5
FD
100
AcDbEntity
  8
Dimensions
  6
ByBlock
 62
    0
370
   -2
100
AcDbLine
 10
250.625
 20
131
 11
261.25
 21
131
  0
LINE
  5
FE
100
AcDbEntity
  8
Dimensions
  6
ByBlock
 62
    0
370
   -2
100
AcDbLine
 10
179.625
 20
75
 11
261.25
 21
75
  0
ENDBLK
  5
76
330
74
100
AcDbEntity
  8
0
100
AcDbBlockEnd
  0
BLOCK
  5
78
330
77
100
AcDbEntity
  8
0
100
AcDbBlockBegin
  2
*D16
 70
    1
 10
0
 20
0
  3
*D16
  1

  0
LINE
  5
FF
100
AcDbEntity
  8
Dimensions
  6
ByBlock
 62
    0
370
   -2
100
AcDbLine
 10
255
 20
1.77635683940025e-15
 11
255
 21
12
  0
SOLID
  5
100
100
AcDbEntity
  8
Dimensions
  6
ByBlock
 62
    0
370
   -2
100
AcDbTrace
 10
255
 20
1.77635683940025e-15
 30
0
 11
254.5837153422272
 21
2.500000000000002
 31
0
 12
255.4162846577728
 22
2.500000000000002
 32
0
 13
255.4162846577728
 23
2.500000000000002
 33
0
  0
SOLID
  5
101
100
AcDbEntity
  8
Dimensions
  6
ByBlock
 62
    0
370
   -2
100
AcDbTrace
 10
255
 20
12
 30
0
 11
255.4162846577728
 21
9.5
 31
0
 12
254.5837153422272
 22
9.5
 32
0
 13
254.5837153422272
 23
9.5
 33
0
  0
MTEXT
  5
102
100
AcDbEntity
  8
Dimensions
  6
CONTINUOUS
 62
    0
370
   -2
100
AcDbMText
 10
253.125
 20
6.000000000000001
 30
0
 40
2.5
 41
2.5
 71
    5
 72
    1
  1
12
  7
standard
210
0
220
0
230
1
 50
90
 73
    2
 44
1
  0
LINE
  5
103
100
AcDbEntity
  8
Dimensions
  6
ByBlock
 62
    0
370
   -2
100
AcDbLine
 10
250.625
 20
2.775557561562891e-16
 11
256.25
 21
2.331468351712829e-15
  0
LINE
  5
104
100
AcDbEntity
  8
Dimensions
  6
ByBlock
 62
    0
370
   -2
100
AcDbLine
 10
243.125
 20
12
 11
256.25
 21
12
  0
ENDBLK
  5
79
330
77
100
AcDbEntity
  8
0
100
AcDbBlockEnd
  0
BLOCK
  5
7B
330
7A
100
AcDbEntity
  8
0
100
AcDbBlockBegin
  2
*D30
 70
    1
 10
0
 20
0
  3
*D30
  1

  0
LINE
  5
105
100
AcDbEntity
  8
Dimensions
  6
ByBlock
 62
    0
370
   -2
100
AcDbLine
 10
265
 20
131
 11
265
 21
100
  0
SOLID
  5
106
100
AcDbEntity
  8
Dimensions
  6
ByBlock
 62
    0
370
   -2
100
AcDbTrace
 10
265
 20
131
 30
0
 11
265.4162846577728
 21
128.5
 31
0
 12
264.5837153422272
 22
128.5
 32
0
 13
264.5837153422272
 23
128.5
 33
0
  0
SOLID
  5
107
100
AcDbEntity
  8
Dimensions
  6
ByBlock
 62
    0
370
   -2
100
AcDbTrace
 10
265
 20
100
 30
0
 11
264.5837153422272
 21
102.5
 31
0
 12
265.4162846577728
 22
102.5
 32
0
 13
265.4162846577728
 23
102.5
 33
0
  0
MTEXT
  5
108
100
AcDbEntity
  8
Dimensions
  6
CONTINUOUS
 62
    0
370
   -2
100
AcDbMText
 10
263.125
 20
115.5
 30
0
 40
2.5
 41
2.500000000000155
 71
    5
 72
    1
  1
31
  7
standard
210
0
220
0
230
1
 50
90
 73
    2
 44
1
  0
LINE
  5
109
100
AcDbEntity
  8
Dimensions
  6
ByBlock
 62
    0
370
   -2
100
AcDbLine
 10
250.625
 20
131
 11
266.25
 21
131
  0
LINE
  5
10A
100
AcDbEntity
  8
Dimensions
  6
ByBlock
 62
    0
370
   -2
100
AcDbLine
 10
154.625
 20
100
 11
266.25
 21
100
  0
ENDBLK
  5
7C
330
7A
100
AcDbEntity
  8
0
100
AcDbBlockEnd
  0
BLOCK
  5
7E
330
7D
100
AcDbEntity
  8
0
100
AcDbBlockBegin
  2
*D33
 70
    1
 10
0
 20
0
  3
*D33
  1

  0
LINE
  5
10B
100
AcDbEntity
  8
Dimensions
  6
ByBlock
 62
    0
370
   -2
100
AcDbLine
 10
-15
 20
100
 11
-15
 21
50.00000000000001
  0
SOLID
  5
10C
100
AcDbEntity
  8
Dimensions
  6
ByBlock
 62
    0
370
   -2
100
AcDbTrace
 10
-15
 20
100
 30
0
 11
-14.58371534222716
 21
97.50000000000001
 31
0
 12
-15.41628465777284
 22
97.50000000000001
 32
0
 13
-15.41628465777284
 23
97.50000000000001
 33
0
  0
SOLID
  5
10D
100
AcDbEntity
  8
Dimensions
  6
ByBlock
 62
    0
370
   -2
100
AcDbTrace
 10
-15
 20
50.00000000000001
 30
0
 11
-15.41628465777284
 21
52.50000000000001
 31
0
 12
-14.58371534222716
 22
52.50000000000001
 32
0
 13
-14.58371534222716
 23
52.50000000000001
 33
0
  0
MTEXT
  5
10E
100
AcDbEntity
  8
Dimensions
  6
CONTINUOUS
 62
    0
370
   -2
100
AcDbMText
 10
-16.875
 20
75.00000000000001
 30
0
 40
2.5
 41
3.055555555555711
 71
    5
 72
    1
  1
50
  7
standard
210
0
220
0
230
1
 50
90
 73
    2
 44
1
  0
LINE
  5
10F
100
AcDbEntity
  8
Dimensions
  6
ByBlock
 62
    0
370
   -2
100
AcDbLine
 10
95.375
 20
100
 11
-16.25
 21
100
  0
LINE
  5
110
100
AcDbEntity
  8
Dimensions
  6
ByBlock
 62
    0
370
   -2
100
AcDbLine
 10
95.375
 20
50
 11
-16.25
 21
50.00000000000001
  0
ENDBLK
  5
7F
330
7D
100
AcDbEntity
  8
0
100
AcDbBlockEnd
  0
BLOCK
  5
81
330
80
100
AcDbEntity
  8
0
100
AcDbBlockBegin
  2
*D34
 70
    1
 10
0
 20
0
  3
*D34
  1

  0
LINE
  5
111
100
AcDbEntity
  8
Dimensions
  6
ByBlock
 62
    0
370
   -2
100
AcDbLine
 10
196.6776695296637
 20
57.32233047033631
 11
161.3223304703363
 21
92.67766952966369
  0
SOLID
  5
112
100
AcDbEntity
  8
Dimensions
  6
ByBlock
 62
    0
370
   -2
100
AcDbTrace
 10
196.6776695296637
 20
57.32233047033631
 30
0
 11
194.6155448722822
 21
58.79573971888758
 31
0
 12
195.2042602811124
 22
59.38445512771778
 32
0
 13
195.2042602811124
 23
59.38445512771778
 33
0
  0
SOLID
  5
113
100
AcDbEntity
  8
Dimensions
  6
ByBlock
 62
    0
370
   -2
100
AcDbTrace
 10
161.3223304703363
 20
92.67766952966369
 30
0
 11
163.3844551277178
 21
91.20426028111241
 31
0
 12
162.7957397188876
 22
90.61554487228223
 32
0
 13
162.7957397188876
 23
90.61554487228223
 33
0
  0
MTEXT
  5
114
100
AcDbEntity
  8
Dimensions
  6
CONTINUOUS
 62
    0
370
   -2
100
AcDbMText
 10
187
 20
70
 30
0
 40
2.5
 41
3.055555555555711
 71
    5
 72
    1
  1
50
  7
standard
210
0
220
0
230
1
 50
315
 73
    2
 44
1
  0
ENDBLK
  5
82
330
80
100
AcDbEntity
  8
0
100
AcDbBlockEnd
  0
BLOCK
  5
84
330
83
100
AcDbEntity
  8
0
100
AcDbBlockBegin
  2
*D21
 70
    1
 10
0
 20
0
  3
*D21
  1

  0
LINE
  5
115
100
AcDbEntity
  8
Dimensions
  6
ByBlock
 62
    0
370
   -2
100
AcDbLine
 10
2.408831175456864
 20
17.09116882454315
 11
12.59116882454314
 21
6.908831175456854
  0
SOLID
  5
116
100
AcDbEntity
  8
Dimensions
  6
ByBlock
 62
    0
370
   -2
100
AcDbTrace
 10
5.944365081389599
 20
13.55563491861041
 30
0
 11
3.882240424008134
 21
15.02904416716168
 31
0
 12
4.470955832838328
 22
15.61775957599187
 32
0
 13
4.470955832838328
 23
15.61775957599187
 33
0
  0
SOLID
  5
117
100
AcDbEntity
  8
Dimensions
  6
ByBlock
 62
    0
370
   -2
100
AcDbTrace
 10
9.055634918610405
 20
10.44436508138959
 30
0
 11
11.11775957599187
 21
8.970955832838321
 31
0
 12
10.52904416716168
 22
8.382240424008128
 32
0
 13
10.52904416716168
 23
8.382240424008128
 33
0
  0
MTEXT
  5
118
100
AcDbEntity
  8
Dimensions
  6
CONTINUOUS
 62
    0
370
   -2
100
AcDbMText
 10
23.41874176782294
 20
-1.267091338373422
 30
0
 40
2.5
 41
35.62500100794057
 71
    5
 72
    1
  1
M4 clearance (4 pos)
  7
standard
210
0
220
0
230
1
 50
314.9999999999999
 73
    2
 44
1
  0
ENDBLK
  5
85
330
83
100
AcDbEntity
  8
0
100
AcDbBlockEnd
  0
BLOCK
  5
87
330
86
100
AcDbEntity
  8
0
100
AcDbBlockBegin
  2
*D22
 70
    1
 10
0
 20
0
  3
*D22
  1

  0
LINE
  5
119
100
AcDbEntity
  8
Dimensions
  6
ByBlock
 62
    0
370
   -2
100
AcDbLine
 10
170.2270292269907
 20
30.27297077300914
 11
179.7729707730093
 21
20.72702922699087
  0
SOLID
  5
11A
100
AcDbEntity
  8
Dimensions
  6
ByBlock
 62
    0
370
   -2
100
AcDbTrace
 10
173.7625631329235
 20
26.73743686707646
 30
0
 11
171.700438475542
 21
28.2108461156277
 31
0
 12
172.2891538843722
 22
28.7995615244579
 32
0
 13
172.2891538843722
 23
28.7995615244579
 33
0
  0
SOLID
  5
11B
100
AcDbEntity
  8
Dimensions
  6
ByBlock
 62
    0
370
   -2
100
AcDbTrace
 10
176.2374368670765
 20
24.26256313292355
 30
0
 11
178.299561524458
 21
22.78915388437231
 31
0
 12
177.7108461156278
 22
22.20043847554211
 32
0
 13
177.7108461156278
 23
22.20043847554211
 33
0
  0
MTEXT
  5
11C
100
AcDbEntity
  8
Dimensions
  6
CONTINUOUS
 62
    0
370
   -2
100
AcDbMText
 10
190.4041251659597
 20
12.74752526349032
 30
0
 40
2.5
 41
35.06944545238516
 71
    5
 72
    1
  1
M3 clearance (2 pos)
  7
standard
210
0
220
0
230
1
 50
315.0000000000009
 73
    2
 44
1
  0
ENDBLK
  5
88
330
86
100
AcDbEntity
  8
0
100
AcDbBlockEnd
  0
BLOCK
  5
8A
330
89
100
AcDbEntity
  8
0
100
AcDbBlockBegin
  2
*D29
 70
    1
 10
0
 20
0
  3
*D29
  1

  0
LINE
  5
11D
100
AcDbEntity
  8
Dimensions
  6
ByBlock
 62
    0
370
   -2
100
AcDbLine
 10
204
 20
146
 11
154
 21
146
  0
SOLID
  5
11E
100
AcDbEntity
  8
Dimensions
  6
ByBlock
 62
    0
370
   -2
100
AcDbTrace
 10
204
 20
146
 30
0
 11
201.5
 21
145.5837153422272
 31
0
 12
201.5
 22
146.4162846577728
 32
0
 13
201.5
 23
146.4162846577728
 33
0
  0
SOLID
  5
11F
100
AcDbEntity
  8
Dimensions
  6
ByBlock
 62
    0
370
   -2
100
AcDbTrace
 10
154
 20
146
 30
0
 11
156.5
 21
146.4162846577728
 31
0
 12
156.5
 22
145.5837153422272
 32
0
 13
156.5
 23
145.5837153422272
 33
0
  0
MTEXT
  5
120
100
AcDbEntity
  8
Dimensions
  6
CONTINUOUS
 62
    0
370
   -2
100
AcDbMText
 10
179
 20
147.875
 30
0
 40
2.5
 41
3.055555555555711
 71
    5
 72
    1
  1
50
  7
standard
210
0
220
0
230
1
 50
360
 73
    2
 44
1
  0
LINE
  5
121
100
AcDbEntity
  8
Dimensions
  6
ByBlock
 62
    0
370
   -2
100
AcDbLine
 10
204
 20
50.625
 11
204
 21
147.25
  0
LINE
  5
122
100
AcDbEntity
  8
Dimensions
  6
ByBlock
 62
    0
370
   -2
100
AcDbLine
 10
154
 20
50.625
 11
154
 21
147.25
  0
ENDBLK
  5
8B
330
89
100
AcDbEntity
  8
0
100
AcDbBlockEnd
  0
BLOCK
  5
8D
330
8C
100
AcDbEntity
  8
0
100
AcDbBlockBegin
  2
*D27
 70
    1
 10
0
 20
0
  3
*D27
  1

  0
LINE
  5
123
100
AcDbEntity
  8
Dimensions
  6
ByBlock
 62
    0
370
   -2
100
AcDbLine
 10
46
 20
146
 11
96
 21
146
  0
SOLID
  5
124
100
AcDbEntity
  8
Dimensions
  6
ByBlock
 62
    0
370
   -2
100
AcDbTrace
 10
46
 20
146
 30
0
 11
48.5
 21
146.4162846577728
 31
0
 12
48.5
 22
145.5837153422272
 32
0
 13
48.5
 23
145.5837153422272
 33
0
  0
SOLID
  5
125
100
AcDbEntity
  8
Dimensions
  6
ByBlock
 62
    0
370
   -2
100
AcDbTrace
 10
96
 20
146
 30
0
 11
93.5
 21
145.5837153422272
 31
0
 12
93.5
 22
146.4162846577728
 32
0
 13
93.5
 23
146.4162846577728
 33
0
  0
MTEXT
  5
126
100
AcDbEntity
  8
Dimensions
  6
CONTINUOUS
 62
    0
370
   -2
100
AcDbMText
 10
71
 20
147.875
 30
0
 40
2.5
 41
3.055555555555711
 71
    5
 72
    1
  1
50
  7
standard
210
0
220
0
230
1
 50
0
 73
    2
 44
1
  0
LINE
  5
127
100
AcDbEntity
  8
Dimensions
  6
ByBlock
 62
    0
370
   -2
100
AcDbLine
 10
46
 20
50.625
 11
46
 21
147.25
  0
LINE
  5
128
100
AcDbEntity
  8
Dimensions
  6
ByBlock
 62
    0
370
   -2
100
AcDbLine
 10
96
 20
50.625
 11
96
 21
147.25
  0
ENDBLK
  5
8E
330
8C
100
AcDbEntity
  8
0
100
AcDbBlockEnd
  0
BLOCK
  5
90
330
8F
100
AcDbEntity
  8
0
100
AcDbBlockBegin
  2
*D31
 70
    1
 10
0
 20
0
  3
*D31
  1

  0
LINE
  5
129
100
AcDbEntity
  8
Dimensions
  6
ByBlock
 62
    0
370
   -2
100
AcDbLine
 10
265
 20
100
 11
265
 21
50
  0
SOLID
  5
12A
100
AcDbEntity
  8
Dimensions
  6
ByBlock
 62
    0
370
   -2
100
AcDbTrace
 10
265
 20
100
 30
0
 11
265.4162846577728
 21
97.5
 31
0
 12
264.5837153422272
 22
97.5
 32
0
 13
264.5837153422272
 23
97.5
 33
0
  0
SOLID
  5
12B
100
AcDbEntity
  8
Dimensions
  6
ByBlock
 62
    0
370
   -2
100
AcDbTrace
 10
265
 20
50
 30
0
 11
264.5837153422272
 21
52.5
 31
0
 12
265.4162846577728
 22
52.5
 32
0
 13
265.4162846577728
 23
52.5
 33
0
  0
MTEXT
  5
12C
100
AcDbEntity
  8
Dimensions
  6
CONTINUOUS
 62
    0
370
   -2
100
AcDbMText
 10
263.125
 20
75
 30
0
 40
2.5
 41
3.055555555555711
 71
    5
 72
    1
  1
50
  7
standard
210
0
220
0
230
1
 50
90
 73
    2
 44
1
  0
LINE
  5
12D
100
AcDbEntity
  8
Dimensions
  6
ByBlock
 62
    0
370
   -2
100
AcDbLine
 10
154.625
 20
100
 11
266.25
 21
100
  0
LINE
  5
12E
100
AcDbEntity
  8
Dimensions
  6
ByBlock
 62
    0
370
   -2
100
AcDbLine
 10
154.625
 20
50
 11
266.25
 21
50
  0
ENDBLK
  5
91
330
8F
100
AcDbEntity
  8
0
100
AcDbBlockEnd
  0
BLOCK
  5
93
330
92
100
AcDbEntity
  8
0
100
AcDbBlockBegin
  2
*D25
 70
    1
 10
0
 20
0
  3
*D25
  1

  0
LINE
  5
12F
100
AcDbEntity
  8
Dimensions
  6
ByBlock
 62
    0
370
   -2
100
AcDbLine
 10
-19.99999999999999
 20
131
 11
-20
 21
1.4210854715202e-15
  0
SOLID
  5
130
100
AcDbEntity
  8
Dimensions
  6
ByBlock
 62
    0
370
   -2
100
AcDbTrace
 10
-19.99999999999999
 20
131
 30
0
 11
-19.58371534222715
 21
128.5
 31
0
 12
-20.41628465777283
 22
128.5
 32
0
 13
-20.41628465777283
 23
128.5
 33
0
  0
SOLID
  5
131
100
AcDbEntity
  8
Dimensions
  6
ByBlock
 62
    0
370
   -2
100
AcDbTrace
 10
-20
 20
1.4210854715202e-15
 30
0
 11
-20.41628465777284
 21
2.500000000000001
 31
0
 12
-19.58371534222716
 22
2.500000000000001
 32
0
 13
-19.58371534222716
 23
2.500000000000001
 33
0
  0
MTEXT
  5
132
100
AcDbEntity
  8
Dimensions
  6
CONTINUOUS
 62
    0
370
   -2
100
AcDbMText
 10
-21.87499999999999
 20
65.5
 30
0
 40
2.5
 41
3.888888888889044
 71
    5
 72
    1
  1
131
  7
standard
210
0
220
0
230
1
 50
90
 73
    2
 44
1
  0
LINE
  5
133
100
AcDbEntity
  8
Dimensions
  6
ByBlock
 62
    0
370
   -2
100
AcDbLine
 10
-0.625
 20
131
 11
-21.24999999999999
 21
131
  0
LINE
  5
134
100
AcDbEntity
  8
Dimensions
  6
ByBlock
 62
    0
370
   -2
100
AcDbLine
 10
-0.625
 20
7.654042494670958e-17
 11
-21.25
 21
1.57416632141362e-15
  0
ENDBLK
  5
94
330
92
100
AcDbEntity
  8
0
100
AcDbBlockEnd
  0
BLOCK
  5
96
330
95
100
AcDbEntity
  8
0
100
AcDbBlockBegin
  2
*D26
 70
    1
 10
0
 20
0
  3
*D26
  1

  0
LINE
  5
135
100
AcDbEntity
  8
Dimensions
  6
ByBlock
 62
    0
370
   -2
100
AcDbLine
 10
-7.105427357601002e-15
 20
146
 11
46
 21
146
  0
SOLID
  5
136
100
AcDbEntity
  8
Dimensions
  6
ByBlock
 62
    0
370
   -2
100
AcDbTrace
 10
-7.105427357601002e-15
 20
146
 30
0
 11
2.499999999999993
 21
146.4162846577728
 31
0
 12
2.499999999999993
 22
145.5837153422272
 32
0
 13
2.499999999999993
 23
145.5837153422272
 33
0
  0
SOLID
  5
137
100
AcDbEntity
  8
Dimensions
  6
ByBlock
 62
    0
370
   -2
100
AcDbTrace
 10
46
 20
146
 30
0
 11
43.5
 21
145.5837153422272
 31
0
 12
43.5
 22
146.4162846577728
 32
0
 13
43.5
 23
146.4162846577728
 33
0
  0
MTEXT
  5
138
100
AcDbEntity
  8
Dimensions
  6
CONTINUOUS
 62
    0
370
   -2
100
AcDbMText
 10
23
 20
147.875
 30
0
 40
2.5
 41
3.333333333333488
 71
    5
 72
    1
  1
46
  7
standard
210
0
220
0
230
1
 50
0
 73
    2
 44
1
  0
LINE
  5
139
100
AcDbEntity
  8
Dimensions
  6
ByBlock
 62
    0
370
   -2
100
AcDbLine
 10
-2.392855436829344e-16
 20
131.625
 11
-7.583998444966871e-15
 21
147.25
  0
LINE
  5
13A
100
AcDbEntity
  8
Dimensions
  6
ByBlock
 62
    0
370
   -2
100
AcDbLine
 10
46
 20
50.625
 11
46
 21
147.25
  0
ENDBLK
  5
97
330
95
100
AcDbEntity
  8
0
100
AcDbBlockEnd
  0
BLOCK
  5
99
330
98
100
AcDbEntity
  8
0
100
AcDbBlockBegin
  2
*D23
 70
    1
 10
0
 20
0
  3
*D23
  1

  0
LINE
  5
13B
100
AcDbEntity
  8
Dimensions
  6
ByBlock
 62
    0
370
   -2
100
AcDbLine
 10
90.90883117545688
 20
55.09116882454316
 11
101.0911688245431
 21
44.90883117545684
  0
SOLID
  5
13C
100
AcDbEntity
  8
Dimensions
  6
ByBlock
 62
    0
370
   -2
100
AcDbTrace
 10
94.44436508138961
 20
51.55563491861041
 30
0
 11
92.38224042400815
 21
53.02904416716169
 31
0
 12
92.97095583283834
 22
53.61775957599188
 32
0
 13
92.97095583283834
 23
53.61775957599188
 33
0
  0
SOLID
  5
13D
100
AcDbEntity
  8
Dimensions
  6
ByBlock
 62
    0
370
   -2
100
AcDbTrace
 10
97.55563491861039
 20
48.44436508138959
 30
0
 11
99.61775957599185
 21
46.97095583283831
 31
0
 12
99.02904416716166
 22
46.38224042400812
 32
0
 13
99.02904416716166
 23
46.38224042400812
 33
0
  0
MTEXT
  5
13E
100
AcDbEntity
  8
Dimensions
  6
CONTINUOUS
 62
    0
370
   -2
100
AcDbMText
 10
111.8205324926581
 20
36.83111793679133
 30
0
 40
2.5
 41
35.34722323016278
 71
    5
 72
    1
  1
M4 clearance (8 pos)
  7
standard
210
0
220
0
230
1
 50
314.9999999999998
 73
    2
 44
1
  0
ENDBLK
  5
9A
330
98
100
AcDbEntity
  8
0
100
AcDbBlockEnd
  0
BLOCK
  5
9C
330
9B
100
AcDbEntity
  8
0
100
AcDbBlockBegin
  2
*D3
 70
    1
 10
0
 20
0
  3
*D3
  1

  0
LINE
  5
13F
100
AcDbEntity
  8
Dimensions
  6
ByBlock
 62
    0
370
   -2
100
AcDbLine
 10
250
 20
-10
 11
209
 21
-10
  0
SOLID
  5
140
100
AcDbEntity
  8
Dimensions
  6
ByBlock
 62
    0
370
   -2
100
AcDbTrace
 10
250
 20
-10
 30
0
 11
247.5
 21
-10.41628465777284
 31
0
 12
247.5
 22
-9.58371534222716
 32
0
 13
247.5
 23
-9.58371534222716
 33
0
  0
SOLID
  5
141
100
AcDbEntity
  8
Dimensions
  6
ByBlock
 62
    0
370
   -2
100
AcDbTrace
 10
209
 20
-10
 30
0
 11
211.5
 21
-9.58371534222716
 31
0
 12
211.5
 22
-10.41628465777284
 32
0
 13
211.5
 23
-10.41628465777284
 33
0
  0
MTEXT
  5
142
100
AcDbEntity
  8
Dimensions
  6
CONTINUOUS
 62
    0
370
   -2
100
AcDbMText
 10
229.5
 20
-8.125
 30
0
 40
2.5
 41
2.777777777777778
 71
    5
 72
    1
  1
41
  7
standard
210
0
220
0
230
1
 50
360
 73
    2
 44
1
  0
LINE
  5
143
100
AcDbEntity
  8
Dimensions
  6
ByBlock
 62
    0
370
   -2
100
AcDbLine
 10
250
 20
-0.625
 11
250
 21
-11.25
  0
LINE
  5
144
100
AcDbEntity
  8
Dimensions
  6
ByBlock
 62
    0
370
   -2
100
AcDbLine
 10
209
 20
17.87500139942378
 11
209
 21
-11.25
  0
ENDBLK
  5
9D
330
9B
100
AcDbEntity
  8
0
100
AcDbBlockEnd
  0
BLOCK
  5
9F
330
9E
100
AcDbEntity
  8
0
100
AcDbBlockBegin
  2
*D10
 70
    1
 10
0
 20
0
  3
*D10
  1

  0
SOLID
  5
145
100
AcDbEntity
  8
Dimensions
  6
ByBlock
 62
    0
370
   -2
100
AcDbTrace
 10
182.0251262658471
 20
34.97487373415292
 30
0
 11
179.9630016084656
 21
36.4482829827042
 31
0
 12
180.5517170172958
 22
37.03699839153439
 32
0
 13
180.5517170172958
 23
37.03699839153439
 33
0
  0
LINE
  5
146
100
AcDbEntity
  8
Dimensions
  6
ByBlock
 62
    0
370
   -2
100
AcDbLine
 10
184.5
 20
32.5
 11
175.7397326552998
 21
41.26026734470025
  0
MTEXT
  5
147
100
AcDbEntity
  8
Dimensions
  6
CONTINUOUS
 62
    0
370
   -2
100
AcDbMText
 10
180.2082546752982
 20
39.44339575415135
 30
0
 40
2.5
 41
3.888888888889199
 71
    5
 72
    1
  1
3.5
  7
standard
210
0
220
0
230
1
 50
314.9999999999998
 73
    2
 44
1
  0
ENDBLK
  5
A0
330
9E
100
AcDbEntity
  8
0
100
AcDbBlockEnd
  0
BLOCK
  5
A2
330
A1
100
AcDbEntity
  8
0
100
AcDbBlockBegin
  2
*D28
 70
    1
 10
0
 20
0
  3
*D28
  1

  0
LINE
  5
148
100
AcDbEntity
  8
Dimensions
  6
ByBlock
 62
    0
370
   -2
100
AcDbLine
 10
250
 20
146
 11
204
 21
146
  0
SOLID
  5
149
100
AcDbEntity
  8
Dimensions
  6
ByBlock
 62
    0
370
   -2
100
AcDbTrace
 10
250
 20
146
 30
0
 11
247.5
 21
145.5837153422272
 31
0
 12
247.5
 22
146.4162846577728
 32
0
 13
247.5
 23
146.4162846577728
 33
0
  0
SOLID
  5
14A
100
AcDbEntity
  8
Dimensions
  6
ByBlock
 62
    0
370
   -2
100
AcDbTrace
 10
204
 20
146
 30
0
 11
206.5
 21
146.4162846577728
 31
0
 12
206.5
 22
145.5837153422272
 32
0
 13
206.5
 23
145.5837153422272
 33
0
  0
MTEXT
  5
14B
100
AcDbEntity
  8
Dimensions
  6
CONTINUOUS
 62
    0
370
   -2
100
AcDbMText
 10
227
 20
147.875
 30
0
 40
2.5
 41
3.333333333333488
 71
    5
 72
    1
  1
46
  7
standard
210
0
220
0
230
1
 50
360
 73
    2
 44
1
  0
LINE
  5
14C
100
AcDbEntity
  8
Dimensions
  6
ByBlock
 62
    0
370
   -2
100
AcDbLine
 10
250
 20
131.625
 11
250
 21
147.25
  0
LINE
  5
14D
100
AcDbEntity
  8
Dimensions
  6
ByBlock
 62
    0
370
   -2
100
AcDbLine
 10
204
 20
50.625
 11
204
 21
147.25
  0
ENDBLK
  5
A3
330
A1
100
AcDbEntity
  8
0
100
AcDbBlockEnd
  0
BLOCK
  5
A5
330
A4
100
AcDbEntity
  8
0
100
AcDbBlockBegin
  2
*D4
 70
    1
 10
0
 20
0
  3
*D4
  1

  0
LINE
  5
14E
100
AcDbEntity
  8
Dimensions
  6
ByBlock
 62
    0
370
   -2
100
AcDbLine
 10
209
 20
-10
 11
181
 21
-10
  0
SOLID
  5
14F
100
AcDbEntity
  8
Dimensions
  6
ByBlock
 62
    0
370
   -2
100
AcDbTrace
 10
209
 20
-10
 30
0
 11
206.5
 21
-10.41628465777284
 31
0
 12
206.5
 22
-9.58371534222716
 32
0
 13
206.5
 23
-9.58371534222716
 33
0
  0
SOLID
  5
150
100
AcDbEntity
  8
Dimensions
  6
ByBlock
 62
    0
370
   -2
100
AcDbTrace
 10
181
 20
-10
 30
0
 11
183.5
 21
-9.58371534222716
 31
0
 12
183.5
 22
-10.41628465777284
 32
0
 13
183.5
 23
-10.41628465777284
 33
0
  0
MTEXT
  5
151
100
AcDbEntity
  8
Dimensions
  6
CONTINUOUS
 62
    0
370
   -2
100
AcDbMText
 10
195
 20
-8.125
 30
0
 40
2.5
 41
3.055555555555556
 71
    5
 72
    1
  1
28
  7
standard
210
0
220
0
230
1
 50
360
 73
    2
 44
1
  0
LINE
  5
152
100
AcDbEntity
  8
Dimensions
  6
ByBlock
 62
    0
370
   -2
100
AcDbLine
 10
209
 20
17.87500139942378
 11
209
 21
-11.25
  0
LINE
  5
153
100
AcDbEntity
  8
Dimensions
  6
ByBlock
 62
    0
370
   -2
100
AcDbLine
 10
181
 20
17.875
 11
181
 21
-11.25
  0
ENDBLK
  5
A6
330
A4
100
AcDbEntity
  8
0
100
AcDbBlockEnd
  0
BLOCK
  5
A8
330
A7
100
AcDbEntity
  8
0
100
AcDbBlockBegin
  2
*D5
 70
    1
 10
0
 20
0
  3
*D5
  1

  0
LINE
  5
154
100
AcDbEntity
  8
Dimensions
  6
ByBlock
 62
    0
370
   -2
100
AcDbLine
 10
265
 20
0
 11
265
 21
15
  0
SOLID
  5
155
100
AcDbEntity
  8
Dimensions
  6
ByBlock
 62
    0
370
   -2
100
AcDbTrace
 10
265
 20
0
 30
0
 11
264.5837153422272
 21
2.5
 31
0
 12
265.4162846577728
 22
2.5
 32
0
 13
265.4162846577728
 23
2.5
 33
0
  0
SOLID
  5
156
100
AcDbEntity
  8
Dimensions
  6
ByBlock
 62
    0
370
   -2
100
AcDbTrace
 10
265
 20
15
 30
0
 11
265.4162846577728
 21
12.5
 31
0
 12
264.5837153422272
 22
12.5
 32
0
 13
264.5837153422272
 23
12.5
 33
0
  0
MTEXT
  5
157
100
AcDbEntity
  8
Dimensions
  6
CONTINUOUS
 62
    0
370
   -2
100
AcDbMText
 10
263.125
 20
7.5
 30
0
 40
2.5
 41
2.500000000000155
 71
    5
 72
    1
  1
15
  7
standard
210
0
220
0
230
1
 50
90
 73
    2
 44
1
  0
LINE
  5
158
100
AcDbEntity
  8
Dimensions
  6
ByBlock
 62
    0
370
   -2
100
AcDbLine
 10
250.625
 20
0
 11
266.25
 21
0
  0
LINE
  5
159
100
AcDbEntity
  8
Dimensions
  6
ByBlock
 62
    0
370
   -2
100
AcDbLine
 10
206.125
 20
15
 11
266.25
 21
15
  0
ENDBLK
  5
A9
330
A7
100
AcDbEntity
  8
0
100
AcDbBlockEnd
  0
BLOCK
  5
AB
330
AA
100
AcDbEntity
  8
0
100
AcDbBlockBegin
  2
*D14
 70
    1
 10
0
 20
0
  3
*D14
  1

  0
LINE
  5
15A
100
AcDbEntity
  8
Dimensions
  6
ByBlock
 62
    0
370
   -2
100
AcDbLine
 10
-4.999999999999999
 20
131
 11
-5
 21
119
  0
SOLID
  5
15B
100
AcDbEntity
  8
Dimensions
  6
ByBlock
 62
    0
370
   -2
100
AcDbTrace
 10
-4.999999999999999
 20
131
 30
0
 11
-4.583715342227158
 21
128.5
 31
0
 12
-5.41628465777284
 22
128.5
 32
0
 13
-5.41628465777284
 23
128.5
 33
0
  0
SOLID
  5
15C
100
AcDbEntity
  8
Dimensions
  6
ByBlock
 62
    0
370
   -2
100
AcDbTrace
 10
-5
 20
119
 30
0
 11
-5.41628465777284
 21
121.5
 31
0
 12
-4.583715342227159
 22
121.5
 32
0
 13
-4.583715342227159
 23
121.5
 33
0
  0
MTEXT
  5
15D
100
AcDbEntity
  8
Dimensions
  6
CONTINUOUS
 62
    0
370
   -2
100
AcDbMText
 10
-6.875
 20
125
 30
0
 40
2.5
 41
2.5
 71
    5
 72
    1
  1
12
  7
standard
210
0
220
0
230
1
 50
90
 73
    2
 44
1
  0
LINE
  5
15E
100
AcDbEntity
  8
Dimensions
  6
ByBlock
 62
    0
370
   -2
100
AcDbLine
 10
-0.625
 20
131
 11
-6.249999999999999
 21
131
  0
LINE
  5
15F
100
AcDbEntity
  8
Dimensions
  6
ByBlock
 62
    0
370
   -2
100
AcDbLine
 10
6.875
 20
119
 11
-6.25
 21
119
  0
ENDBLK
  5
AC
330
AA
100
AcDbEntity
  8
0
100
AcDbBlockEnd
  0
BLOCK
  5
AE
330
AD
100
AcDbEntity
  8
0
100
AcDbBlockBegin
  2
*D18
 70
    1
 10
0
 20
0
  3
*D18
  1

  0
LINE
  5
160
100
AcDbEntity
  8
Dimensions
  6
ByBlock
 62
    0
370
   -2
100
AcDbLine
 10
-9.999999999999996
 20
131
 11
-10
 21
75
  0
SOLID
  5
161
100
AcDbEntity
  8
Dimensions
  6
ByBlock
 62
    0
370
   -2
100
AcDbTrace
 10
-9.999999999999996
 20
131
 30
0
 11
-9.583715342227157
 21
128.5
 31
0
 12
-10.41628465777284
 22
128.5
 32
0
 13
-10.41628465777284
 23
128.5
 33
0
  0
SOLID
  5
162
100
AcDbEntity
  8
Dimensions
  6
ByBlock
 62
    0
370
   -2
100
AcDbTrace
 10
-10
 20
75
 30
0
 11
-10.41628465777284
 21
77.5
 31
0
 12
-9.583715342227158
 22
77.5
 32
0
 13
-9.583715342227158
 23
77.5
 33
0
  0
MTEXT
  5
163
100
AcDbEntity
  8
Dimensions
  6
CONTINUOUS
 62
    0
370
   -2
100
AcDbMText
 10
-11.875
 20
103
 30
0
 40
2.5
 41
3.055555555555866
 71
    5
 72
    1
  1
56
  7
standard
210
0
220
0
230
1
 50
90
 73
    2
 44
1
  0
LINE
  5
164
100
AcDbEntity
  8
Dimensions
  6
ByBlock
 62
    0
370
   -2
100
AcDbLine
 10
-0.625
 20
131
 11
-11.25
 21
131
  0
LINE
  5
165
100
AcDbEntity
  8
Dimensions
  6
ByBlock
 62
    0
370
   -2
100
AcDbLine
 10
70.375
 20
75
 11
-11.25
 21
75
  0
ENDBLK
  5
AF
330
AD
100
AcDbEntity
  8
0
100
AcDbBlockEnd
  0
BLOCK
  5
B1
330
B0
100
AcDbEntity
  8
0
100
AcDbBlockBegin
  2
*D11
 70
    1
 10
0
 20
0
  3
*D11
  1

  0
LINE
  5
166
100
AcDbEntity
  8
Dimensions
  6
ByBlock
 62
    0
370
   -2
100
AcDbLine
 10
250
 20
-5
 11
242.5
 21
-5
  0
SOLID
  5
167
100
AcDbEntity
  8
Dimensions
  6
ByBlock
 62
    0
370
   -2
100
AcDbTrace
 10
250
 20
-5
 30
0
 11
247.5
 21
-5.416284657772841
 31
0
 12
247.5
 22
-4.583715342227159
 32
0
 13
247.5
 23
-4.583715342227159
 33
0
  0
SOLID
  5
168
100
AcDbEntity
  8
Dimensions
  6
ByBlock
 62
    0
370
   -2
100
AcDbTrace
 10
242.5
 20
-5
 30
0
 11
245
 21
-4.58371534222716
 31
0
 12
245
 22
-5.416284657772841
 32
0
 13
245
 23
-5.416284657772841
 33
0
  0
MTEXT
  5
169
100
AcDbEntity
  8
Dimensions
  6
CONTINUOUS
 62
    0
370
   -2
100
AcDbMText
 10
246.25
 20
-3.125
 30
0
 40
2.5
 41
3.888888888889044
 71
    5
 72
    1
  1
7.5
  7
standard
210
0
220
0
230
1
 50
360
 73
    2
 44
1
  0
LINE
  5
16A
100
AcDbEntity
  8
Dimensions
  6
ByBlock
 62
    0
370
   -2
100
AcDbLine
 10
250
 20
-0.625
 11
250
 21
-6.25
  0
LINE
  5
16B
100
AcDbEntity
  8
Dimensions
  6
ByBlock
 62
    0
370
   -2
100
AcDbLine
 10
242.5
 20
11.375
 11
242.5
 21
-6.25
  0
ENDBLK
  5
B2
330
B0
100
AcDbEntity
  8
0
100
AcDbBlockEnd
  0
BLOCK
  5
B4
330
B3
100
AcDbEntity
  8
0
100
AcDbBlockBegin
  2
*D12
 70
    1
 10
0
 20
0
  3
*D12
  1

  0
LINE
  5
16C
100
AcDbEntity
  8
Dimensions
  6
ByBlock
 62
    0
370
   -2
100
AcDbLine
 10
8.881784197001252e-16
 20
-4.999999999999998
 11
7.5
 21
-4.999999999999998
  0
SOLID
  5
16D
100
AcDbEntity
  8
Dimensions
  6
ByBlock
 62
    0
370
   -2
100
AcDbTrace
 10
8.881784197001252e-16
 20
-4.999999999999998
 30
0
 11
2.500000000000001
 21
-4.583715342227158
 31
0
 12
2.500000000000001
 22
-5.416284657772839
 32
0
 13
2.500000000000001
 23
-5.416284657772839
 33
0
  0
SOLID
  5
16E
100
AcDbEntity
  8
Dimensions
  6
ByBlock
 62
    0
370
   -2
100
AcDbTrace
 10
7.5
 20
-4.999999999999998
 30
0
 11
5
 21
-5.416284657772839
 31
0
 12
5
 22
-4.583715342227157
 32
0
 13
5
 23
-4.583715342227157
 33
0
  0
MTEXT
  5
16F
100
AcDbEntity
  8
Dimensions
  6
CONTINUOUS
 62
    0
370
   -2
100
AcDbMText
 10
3.75
 20
-3.124999999999998
 30
0
 40
2.5
 41
3.888888888889044
 71
    5
 72
    1
  1
7.5
  7
standard
210
0
220
0
230
1
 50
0
 73
    2
 44
1
  0
LINE
  5
170
100
AcDbEntity
  8
Dimensions
  6
ByBlock
 62
    0
370
   -2
100
AcDbLine
 10
-1.148106374200643e-16
 20
-0.625
 11
6.585571448599965e-16
 21
-6.249999999999998
  0
LINE
  5
171
100
AcDbEntity
  8
Dimensions
  6
ByBlock
 62
    0
370
   -2
100
AcDbLine
 10
7.5
 20
11.375
 11
7.5
 21
-6.249999999999998
  0
ENDBLK
  5
B5
330
B3
100
AcDbEntity
  8
0
100
AcDbBlockEnd
  0
BLOCK
  5
B7
330
B6
100
AcDbEntity
  8
0
100
AcDbBlockBegin
  2
*D2
 70
    1
 10
0
 20
0
  3
*D2
  1

  0
LINE
  5
172
100
AcDbEntity
  8
Dimensions
  6
ByBlock
 62
    0
370
   -2
100
AcDbLine
 10
255
 20
131
 11
255
 21
119
  0
SOLID
  5
173
100
AcDbEntity
  8
Dimensions
  6
ByBlock
 62
    0
370
   -2
100
AcDbTrace
 10
255
 20
131
 30
0
 11
255.4162846577728
 21
128.5
 31
0
 12
254.5837153422272
 22
128.5
 32
0
 13
254.5837153422272
 23
128.5
 33
0
  0
SOLID
  5
174
100
AcDbEntity
  8
Dimensions
  6
ByBlock
 62
    0
370
   -2
100
AcDbTrace
 10
255
 20
119
 30
0
 11
254.5837153422272
 21
121.5
 31
0
 12
255.4162846577728
 22
121.5
 32
0
 13
255.4162846577728
 23
121.5
 33
0
  0
MTEXT
  5
175
100
AcDbEntity
  8
Dimensions
  6
CONTINUOUS
 62
    0
370
   -2
100
AcDbMText
 10
253.125
 20
125
 30
0
 40
2.5
 41
2.5
 71
    5
 72
    1
  1
12
  7
standard
210
0
220
0
230
1
 50
90
 73
    2
 44
1
  0
LINE
  5
176
100
AcDbEntity
  8
Dimensions
  6
ByBlock
 62
    0
370
   -2
100
AcDbLine
 10
250.625
 20
131
 11
256.25
 21
131
  0
LINE
  5
177
100
AcDbEntity
  8
Dimensions
  6
ByBlock
 62
    0
370
   -2
100
AcDbLine
 10
243.125
 20
119
 11
256.25
 21
119
  0
ENDBLK
  5
B8
330
B6
100
AcDbEntity
  8
0
100
AcDbBlockEnd
  0
BLOCK
  5
BA
330
B9
100
AcDbEntity
  8
0
100
AcDbBlockBegin
  2
*D19
 70
    1
 10
0
 20
0
  3
*D19
  1

  0
LINE
  5
178
100
AcDbEntity
  8
Dimensions
  6
ByBlock
 62
    0
370
   -2
100
AcDbLine
 10
250
 20
141
 11
179
 21
141
  0
SOLID
  5
179
100
AcDbEntity
  8
Dimensions
  6
ByBlock
 62
    0
370
   -2
100
AcDbTrace
 10
250
 20
141
 30
0
 11
247.5
 21
140.5837153422272
 31
0
 12
247.5
 22
141.4162846577728
 32
0
 13
247.5
 23
141.4162846577728
 33
0
  0
SOLID
  5
17A
100
AcDbEntity
  8
Dimensions
  6
ByBlock
 62
    0
370
   -2
100
AcDbTrace
 10
179
 20
141
 30
0
 11
181.5
 21
141.4162846577728
 31
0
 12
181.5
 22
140.5837153422272
 32
0
 13
181.5
 23
140.5837153422272
 33
0
  0
MTEXT
  5
17B
100
AcDbEntity
  8
Dimensions
  6
CONTINUOUS
 62
    0
370
   -2
100
AcDbMText
 10
214.5
 20
142.875
 30
0
 40
2.5
 41
2.5
 71
    5
 72
    1
  1
71
  7
standard
210
0
220
0
230
1
 50
360
 73
    2
 44
1
  0
LINE
  5
17C
100
AcDbEntity
  8
Dimensions
  6
ByBlock
 62
    0
370
   -2
100
AcDbLine
 10
250
 20
131.625
 11
250
 21
142.25
  0
LINE
  5
17D
100
AcDbEntity
  8
Dimensions
  6
ByBlock
 62
    0
370
   -2
100
AcDbLine
 10
179
 20
75.625
 11
179
 21
142.25
  0
ENDBLK
  5
BB
330
B9
100
AcDbEntity
  8
0
100
AcDbBlockEnd
  0
BLOCK
  5
BD
330
BC
100
AcDbEntity
  8
0
100
AcDbBlockBegin
  2
*D7
 70
    1
 10
0
 20
0
  3
*D7
  1

  0
LINE
  5
17E
100
AcDbEntity
  8
Dimensions
  6
ByBlock
 62
    0
370
   -2
100
AcDbLine
 10
260
 20
0
 11
260
 21
25.5
  0
SOLID
  5
17F
100
AcDbEntity
  8
Dimensions
  6
ByBlock
 62
    0
370
   -2
100
AcDbTrace
 10
260
 20
0
 30
0
 11
259.5837153422272
 21
2.5
 31
0
 12
260.4162846577728
 22
2.5
 32
0
 13
260.4162846577728
 23
2.5
 33
0
  0
SOLID
  5
180
100
AcDbEntity
  8
Dimensions
  6
ByBlock
 62
    0
370
   -2
100
AcDbTrace
 10
260
 20
25.5
 30
0
 11
260.4162846577728
 21
23
 31
0
 12
259.5837153422272
 22
23
 32
0
 13
259.5837153422272
 23
23
 33
0
  0
MTEXT
  5
181
100
AcDbEntity
  8
Dimensions
  6
CONTINUOUS
 62
    0
370
   -2
100
AcDbMText
 10
258.125
 20
12.75
 30
0
 40
2.5
 41
5.833333333333645
 71
    5
 72
    1
  1
25.5
  7
standard
210
0
220
0
230
1
 50
90
 73
    2
 44
1
  0
LINE
  5
182
100
AcDbEntity
  8
Dimensions
  6
ByBlock
 62
    0
370
   -2
100
AcDbLine
 10
250.625
 20
0
 11
261.25
 21
0
  0
LINE
  5
183
100
AcDbEntity
  8
Dimensions
  6
ByBlock
 62
    0
370
   -2
100
AcDbLine
 10
215.625
 20
25.5
 11
261.25
 21
25.5
  0
ENDBLK
  5
BE
330
BC
100
AcDbEntity
  8
0
100
AcDbBlockEnd
  0
ENDSEC
  0
SECTION
  2
ENTITIES
  0
LWPOLYLINE
  5
184
100
AcDbEntity
  8
Chassis cut
  6
ByLayer
 62
  256
370
   -1
100
AcDbPolyline
 90
    5
 70
    1
 43
0
 10
0
 20
0
 10
250
 20
0
 10
250
 20
131
 10
0
 20
131
 10
0
 20
131
  0
CIRCLE
  5
185
100
AcDbEntity
  8
Chassis cut
  6
ByLayer
 62
  256
370
   -1
100
AcDbCircle
 10
7.500000000000001
 20
119
 40
2.2
  0
CIRCLE
  5
186
100
AcDbEntity
  8
Chassis cut
  6
ByLayer
 62
  256
370
   -1
100
AcDbCircle
 10
7.500000000000001
 20
12
 40
2.2
  0
CIRCLE
  5
187
100
AcDbEntity
  8
Chassis cut
  6
ByLayer
 62
  256
370
   -1
100
AcDbCircle
 10
242.5
 20
119
 40
2.2
  0
CIRCLE
  5
188
100
AcDbEntity
  8
Chassis cut
  6
ByLayer
 62
  256
370
   -1
100
AcDbCircle
 10
242.5
 20
12
 40
2.2
  0
ARC
  5
189
100
AcDbEntity
  8
AC socket cut
  6
ByLayer
 62
  256
370
   -1
100
AcDbCircle
 10
184.5
 20
32.5
 40
3.5
100
AcDbArc
 50
90
 51
180
  0
ARC
  5
18A
100
AcDbEntity
  8
AC socket cut
  6
ByLayer
 62
  256
370
   -1
100
AcDbCircle
 10
205.5
 20
32.5
 40
3.5
100
AcDbArc
 50
0
 51
90
  0
ARC
  5
18B
100
AcDbEntity
  8
AC socket cut
  6
ByLayer
 62
  256
370
   -1
100
AcDbCircle
 10
205.5
 20
18.5
 40
3.5
100
AcDbArc
 50
270
 51
0
  0
ARC
  5
18C
100
AcDbEntity
  8
AC socket cut
  6
ByLayer
 62
  256
370
   -1
100
AcDbCircle
 10
184.5
 20
18.5
 40
3.5
100
AcDbArc
 50
180
 51
270
  0
LINE
  5
18D
100
AcDbEntity
  8
AC socket cut
  6
ByLayer
 62
  256
370
   -1
100
AcDbLine
 10
181
 20
32.50000152632032
 11
181
 21
18.49999785431237
  0
LINE
  5
18E
100
AcDbEntity
  8
AC socket cut
  6
ByLayer
 62
  256
370
   -1
100
AcDbLine
 10
184.49999948785
 20
15
 11
205.4999960172348
 21
15
  0
LINE
  5
18F
100
AcDbEntity
  8
AC socket cut
  6
ByLayer
 62
  256
370
   -1
100
AcDbLine
 10
209
 20
18.49999617823542
 11
209
 21
32.50000347144193
  0
LINE
  5
190
100
AcDbEntity
  8
AC socket cut
  6
ByLayer
 62
  256
370
   -1
100
AcDbLine
 10
184.5
 20
36
 11
205.5
 21
36
  0
LINE
  5
191
100
AcDbEntity
  8
AC socket
  6
ByLayer
 62
  256
370
   -1
100
AcDbLine
 10
173
 20
27.50000000000001
 11
177
 21
23.50000000000001
  0
LINE
  5
192
100
AcDbEntity
  8
AC socket
  6
ByLayer
 62
  256
370
   -1
100
AcDbLine
 10
177
 20
27.50000000000001
 11
173
 21
23.50000000000001
  0
LINE
  5
193
100
AcDbEntity
  8
AC socket
  6
ByLayer
 62
  256
370
   -1
100
AcDbLine
 10
213
 20
27.5
 11
217
 21
23.5
  0
LINE
  5
194
100
AcDbEntity
  8
AC socket
  6
ByLayer
 62
  256
370
   -1
100
AcDbLine
 10
217
 20
27.5
 11
213
 21
23.5
  0
CIRCLE
  5
195
100
AcDbEntity
  8
AC socket cut
  6
ByLayer
 62
  256
370
   -1
100
AcDbCircle
 10
175
 20
25.5
 40
1.75
  0
CIRCLE
  5
196
100
AcDbEntity
  8
AC socket cut
  6
ByLayer
 62
  256
370
   -1
100
AcDbCircle
 10
215
 20
25.5
 40
1.75
  0
DIMENSION
  5
197
100
AcDbEntity
  8
Dimensions
  6
ByLayer
 62
  256
370
   -1
100
AcDbDimension
  2
*D1
 10
243
 20
136
 30
0
 11
246.25
 21
137.875
 31
0
 70
   32
 71
    5
 72
    0
  3
Standard
 53
0
210
0
220
0
230
1
100
AcDbAlignedDimension
 13
250
 23
131
 33
0
 14
242.5
 24
119
 34
0
100
AcDbRotatedDimension
  0
DIMENSION
  5
198
100
AcDbEntity
  8
Dimensions
  6
ByLayer
 62
  256
370
   -1
100
AcDbDimension
  2
*D2
 10
255
 20
119
 30
0
 11
253.125
 21
125
 31
0
 70
   32
 71
    5
 72
    0
  3
Standard
 53
0
210
0
220
0
230
1
100
AcDbAlignedDimension
 13
250
 23
131
 33
0
 14
242.5
 24
119
 34
0
 50
90
100
AcDbRotatedDimension
  0
DIMENSION
  5
199
100
AcDbEntity
  8
Dimensions
  6
ByLayer
 62
  256
370
   -1
100
AcDbDimension
  2
*D3
 10
209
 20
-10
 30
0
 11
229.5
 21
-8.125
 31
0
 70
   32
 71
    5
 72
    0
  3
Standard
 53
0
210
0
220
0
230
1
100
AcDbAlignedDimension
 13
250
 23
0
 33
0
 14
209
 24
18.50000139942378
 34
0
100
AcDbRotatedDimension
  0
DIMENSION
  5
19A
100
AcDbEntity
  8
Dimensions
  6
ByLayer
 62
  256
370
   -1
100
AcDbDimension
  2
*D4
 10
181
 20
-10
 30
0
 11
195
 21
-8.125
 31
0
 70
   32
 71
    5
 72
    0
  3
Standard
 53
0
210
0
220
0
230
1
100
AcDbAlignedDimension
 13
209
 23
18.50000139942378
 33
0
 14
181
 24
18.5
 34
0
100
AcDbRotatedDimension
  0
DIMENSION
  5
19B
100
AcDbEntity
  8
Dimensions
  6
ByLayer
 62
  256
370
   -1
100
AcDbDimension
  2
*D5
 10
265
 20
15
 30
0
 11
263.125
 21
7.5
 31
0
 70
   32
 71
    5
 72
    0
  3
Standard
 53
0
210
0
220
0
230
1
100
AcDbAlignedDimension
 13
250
 23
0
 33
0
 14
205.5
 24
15
 34
0
 50
90
100
AcDbRotatedDimension
  0
DIMENSION
  5
19C
100
AcDbEntity
  8
Dimensions
  6
ByLayer
 62
  256
370
   -1
100
AcDbDimension
  2
*D6
 10
265
 20
36
 30
0
 11
263.125
 21
25.5
 31
0
 70
   32
 71
    5
 72
    0
  3
Standard
 53
0
210
0
220
0
230
1
100
AcDbAlignedDimension
 13
205.5
 23
15
 33
0
 14
205.4999961275677
 24
35.99999999999999
 34
0
 50
90
100
AcDbRotatedDimension
  0
DIMENSION
  5
19D
100
AcDbEntity
  8
Dimensions
  6
ByLayer
 62
  256
370
   -1
100
AcDbDimension
  2
*D7
 10
260
 20
25.5
 30
0
 11
258.125
 21
12.75
 31
0
 70
   32
 71
    5
 72
    0
  3
Standard
 53
0
210
0
220
0
230
1
100
AcDbAlignedDimension
 13
250
 23
0
 33
0
 14
215
 24
25.5
 34
0
 50
90
100
AcDbRotatedDimension
  0
DIMENSION
  5
19E
100
AcDbEntity
  8
Dimensions
  6
ByLayer
 62
  256
370
   -1
100
AcDbDimension
  2
*D8
 10
215
 20
-15
 30
0
 11
232.5
 21
-13.125
 31
0
 70
   32
 71
    5
 72
    0
  3
Standard
 53
0
210
0
220
0
230
1
100
AcDbAlignedDimension
 13
250
 23
0
 33
0
 14
215
 24
25.5
 34
0
100
AcDbRotatedDimension
  0
DIMENSION
  5
19F
100
AcDbEntity
  8
Dimensions
  6
ByLayer
 62
  256
370
   -1
100
AcDbDimension
  2
*D9
 10
175
 20
-15
 30
0
 11
195
 21
-13.125
 31
0
 70
   32
 71
    5
 72
    0
  3
Standard
 53
0
210
0
220
0
230
1
100
AcDbAlignedDimension
 13
215
 23
25.5
 33
0
 14
175
 24
25.5
 34
0
100
AcDbRotatedDimension
  0
DIMENSION
  5
1A0
100
AcDbEntity
  8
Dimensions
  6
ByLayer
 62
  256
370
   -1
100
AcDbDimension
  2
*D10
 10
184.5
 20
32.5
 30
0
 11
180.2082546752982
 21
39.44339575415135
 31
0
 70
   36
 71
    5
 72
    0
  3
Standard
 53
0
210
0
220
0
230
1
100
AcDbRadialDimension
 15
182.0251262658471
 25
34.97487373415292
 35
0
 40
0
  0
MTEXT
  5
1A1
100
AcDbEntity
  8
Dimensions
  6
ByLayer
 62
  256
370
   -1
100
AcDbMText
 10
125
 20
170
 30
0
 40
10
 41
243.0555555555588
 71
    5
 72
    1
  1
Tape punch controller - rear panel
  7

210
0
220
0
230
1
 50
0
 73
    2
 44
1
  0
DIMENSION
  5
1A2
100
AcDbEntity
  8
Dimensions
  6
ByLayer
 62
  256
370
   -1
100
AcDbDimension
  2
*D11
 10
242.5
 20
-5
 30
0
 11
246.25
 21
-3.125
 31
0
 70
   32
 71
    5
  3
Standard
 53
0
210
0
220
0
230
1
100
AcDbAlignedDimension
 13
250
 23
0
 33
0
 14
242.5
 24
12
 34
0
100
AcDbRotatedDimension
  0
DIMENSION
  5
1A3
100
AcDbEntity
  8
Dimensions
  6
ByLayer
 62
  256
370
   -1
100
AcDbDimension
  2
*D12
 10
7.499999999999999
 20
-4.999999999999998
 30
0
 11
3.75
 21
-3.124999999999998
 31
0
 70
   32
 71
    5
  3
Standard
 53
0
210
0
220
0
230
1
100
AcDbAlignedDimension
 13
0
 23
0
 33
0
 14
7.5
 24
12
 34
0
100
AcDbRotatedDimension
  0
DIMENSION
  5
1A4
100
AcDbEntity
  8
Dimensions
  6
ByLayer
 62
  256
370
   -1
100
AcDbDimension
  2
*D13
 10
3.061616997868383e-16
 20
136
 30
0
 11
3.75
 21
137.875
 31
0
 70
   32
 71
    5
  3
Standard
 53
0
210
0
220
0
230
1
100
AcDbAlignedDimension
 13
7.5
 23
119
 33
0
 14
0
 24
131
 34
0
100
AcDbRotatedDimension
  0
DIMENSION
  5
1A5
100
AcDbEntity
  8
Dimensions
  6
ByLayer
 62
  256
370
   -1
100
AcDbDimension
  2
*D14
 10
-5
 20
119
 30
0
 11
-6.875
 21
125
 31
0
 70
   32
 71
    5
  3
Standard
 53
0
210
0
220
0
230
1
100
AcDbAlignedDimension
 13
0
 23
131
 33
0
 14
7.5
 24
119
 34
0
 50
90
100
AcDbRotatedDimension
  0
DIMENSION
  5
1A6
100
AcDbEntity
  8
Dimensions
  6
ByLayer
 62
  256
370
   -1
100
AcDbDimension
  2
*D15
 10
-5
 20
6.123233995736766e-16
 30
0
 11
-6.875
 21
6.000000000000002
 31
0
 70
   32
 71
    5
  3
Standard
 53
0
210
0
220
0
230
1
100
AcDbAlignedDimension
 13
7.5
 23
12
 33
0
 14
0
 24
0
 34
0
 50
90
100
AcDbRotatedDimension
  0
DIMENSION
  5
1A7
100
AcDbEntity
  8
Dimensions
  6
ByLayer
 62
  256
370
   -1
100
AcDbDimension
  2
*D16
 10
255
 20
12
 30
0
 11
253.125
 21
6.000000000000001
 31
0
 70
   32
 71
    5
  3
Standard
 53
0
210
0
220
0
230
1
100
AcDbAlignedDimension
 13
250
 23
0
 33
0
 14
242.5
 24
12
 34
0
 50
90
100
AcDbRotatedDimension
  0
LWPOLYLINE
  5
1A8
100
AcDbEntity
  8
Chassis
  6
ByLayer
 62
  256
370
   -1
100
AcDbPolyline
 90
    4
 70
    1
 43
0
 10
-1
 20
-2
 10
251
 20
-2
 10
251
 20
133
 10
-1
 20
133
  0
LINE
  5
1A9
100
AcDbEntity
  8
Chassis
  6
ByLayer
 62
  256
370
   -1
100
AcDbLine
 10
5.500000000000001
 20
121
 11
9.5
 21
117
  0
LINE
  5
1AA
100
AcDbEntity
  8
Chassis
  6
ByLayer
 62
  256
370
   -1
100
AcDbLine
 10
9.5
 20
14
 11
5.500000000000002
 21
10
  0
LINE
  5
1AB
100
AcDbEntity
  8
Chassis
  6
ByLayer
 62
  256
370
   -1
100
AcDbLine
 10
5.500000000000002
 20
14
 11
9.5
 21
10
  0
LINE
  5
1AC
100
AcDbEntity
  8
Chassis
  6
ByLayer
 62
  256
370
   -1
100
AcDbLine
 10
9.5
 20
121
 11
5.500000000000001
 21
117
  0
LINE
  5
1AD
100
AcDbEntity
  8
Chassis
  6
ByLayer
 62
  256
370
   -1
100
AcDbLine
 10
244.5
 20
14
 11
240.5
 21
10
  0
LINE
  5
1AE
100
AcDbEntity
  8
Chassis
  6
ByLayer
 62
  256
370
   -1
100
AcDbLine
 10
240.5
 20
14
 11
244.5
 21
10
  0
LINE
  5
1AF
100
AcDbEntity
  8
Chassis
  6
ByLayer
 62
  256
370
   -1
100
AcDbLine
 10
244.5
 20
121
 11
240.5
 21
117
  0
LINE
  5
1B0
100
AcDbEntity
  8
Chassis
  6
ByLayer
 62
  256
370
   -1
100
AcDbLine
 10
240.5
 20
121
 11
244.5
 21
117
  0
LWPOLYLINE
  5
1B1
100
AcDbEntity
  8
Chassis
  6
ByLayer
 62
  256
370
   -1
100
AcDbPolyline
 90
    5
 70
    1
 43
0
 10
232
 20
126
 10
18
 20
126
 10
18
 20
5
 10
232
 20
5
 10
232
 20
5
  0
LWPOLYLINE
  5
1B2
100
AcDbEntity
  8
Fan
  6
ByLayer
 62
  256
370
   -1
100
AcDbPolyline
 90
    4
 70
    1
 43
0
 10
149
 20
105
 10
209
 20
105
 10
209
 20
45
 10
149
 20
45
  0
LINE
  5
1B3
100
AcDbEntity
  8
Fan
  6
ByLayer
 62
  256
370
   -1
100
AcDbLine
 10
152
 20
102
 11
156
 21
98
  0
LINE
  5
1B4
100
AcDbEntity
  8
Fan
  6
ByLayer
 62
  256
370
   -1
100
AcDbLine
 10
156
 20
102
 11
152
 21
98
  0
LINE
  5
1B5
100
AcDbEntity
  8
Fan
  6
ByLayer
 62
  256
370
   -1
100
AcDbLine
 10
202
 20
102
 11
206
 21
98
  0
LINE
  5
1B6
100
AcDbEntity
  8
Fan
  6
ByLayer
 62
  256
370
   -1
100
AcDbLine
 10
206
 20
102
 11
202
 21
98
  0
LINE
  5
1B7
100
AcDbEntity
  8
Fan
  6
ByLayer
 62
  256
370
   -1
100
AcDbLine
 10
202
 20
52
 11
206
 21
48
  0
LINE
  5
1B8
100
AcDbEntity
  8
Fan
  6
ByLayer
 62
  256
370
   -1
100
AcDbLine
 10
206
 20
52
 11
202
 21
48
  0
LINE
  5
1B9
100
AcDbEntity
  8
Fan
  6
ByLayer
 62
  256
370
   -1
100
AcDbLine
 10
152
 20
52
 11
156
 21
48
  0
LINE
  5
1BA
100
AcDbEntity
  8
Fan
  6
ByLayer
 62
  256
370
   -1
100
AcDbLine
 10
156
 20
52
 11
152
 21
48
  0
CIRCLE
  5
1BB
100
AcDbEntity
  8
Fan cut
  6
ByLayer
 62
  256
370
   -1
100
AcDbCircle
 10
154
 20
100
 40
2.2
  0
CIRCLE
  5
1BC
100
AcDbEntity
  8
Fan cut
  6
ByLayer
 62
  256
370
   -1
100
AcDbCircle
 10
204
 20
100
 40
2.2
  0
CIRCLE
  5
1BD
100
AcDbEntity
  8
Fan cut
  6
ByLayer
 62
  256
370
   -1
100
AcDbCircle
 10
154
 20
50
 40
2.2
  0
CIRCLE
  5
1BE
100
AcDbEntity
  8
Fan cut
  6
ByLayer
 62
  256
370
   -1
100
AcDbCircle
 10
204
 20
50
 40
2.2
  0
CIRCLE
  5
1BF
100
AcDbEntity
  8
Vent cut
  6
ByLayer
 62
  256
370
   -1
100
AcDbCircle
 10
179
 20
75
 40
25
  0
LWPOLYLINE
  5
1C0
100
AcDbEntity
  8
Fan
  6
ByLayer
 62
  256
370
   -1
100
AcDbPolyline
 90
    4
 70
    1
 43
0
 10
41
 20
105
 10
101
 20
105
 10
101
 20
45
 10
41
 20
45
  0
LINE
  5
1C1
100
AcDbEntity
  8
Fan
  6
ByLayer
 62
  256
370
   -1
100
AcDbLine
 10
44
 20
102
 11
48
 21
98
  0
LINE
  5
1C2
100
AcDbEntity
  8
Fan
  6
ByLayer
 62
  256
370
   -1
100
AcDbLine
 10
48
 20
102
 11
44
 21
98
  0
LINE
  5
1C3
100
AcDbEntity
  8
Fan
  6
ByLayer
 62
  256
370
   -1
100
AcDbLine
 10
94
 20
102
 11
98
 21
98
  0
LINE
  5
1C4
100
AcDbEntity
  8
Fan
  6
ByLayer
 62
  256
370
   -1
100
AcDbLine
 10
98
 20
102
 11
94
 21
98
  0
LINE
  5
1C5
100
AcDbEntity
  8
Fan
  6
ByLayer
 62
  256
370
   -1
100
AcDbLine
 10
94
 20
52
 11
98
 21
48
  0
LINE
  5
1C6
100
AcDbEntity
  8
Fan
  6
ByLayer
 62
  256
370
   -1
100
AcDbLine
 10
98
 20
52
 11
94
 21
48
  0
LINE
  5
1C7
100
AcDbEntity
  8
Fan
  6
ByLayer
 62
  256
370
   -1
100
AcDbLine
 10
44
 20
52
 11
48
 21
48
  0
LINE
  5
1C8
100
AcDbEntity
  8
Fan
  6
ByLayer
 62
  256
370
   -1
100
AcDbLine
 10
48
 20
52
 11
44
 21
48
  0
CIRCLE
  5
1C9
100
AcDbEntity
  8
Fan cut
  6
ByLayer
 62
  256
370
   -1
100
AcDbCircle
 10
46
 20
100
 40
2.2
  0
CIRCLE
  5
1CA
100
AcDbEntity
  8
Fan cut
  6
ByLayer
 62
  256
370
   -1
100
AcDbCircle
 10
96
 20
100
 40
2.2
  0
CIRCLE
  5
1CB
100
AcDbEntity
  8
Fan cut
  6
ByLayer
 62
  256
370
   -1
100
AcDbCircle
 10
46
 20
50
 40
2.2
  0
CIRCLE
  5
1CC
100
AcDbEntity
  8
Fan cut
  6
ByLayer
 62
  256
370
   -1
100
AcDbCircle
 10
96
 20
50
 40
2.2
  0
CIRCLE
  5
1CD
100
AcDbEntity
  8
Vent cut
  6
ByLayer
 62
  256
370
   -1
100
AcDbCircle
 10
71
 20
75
 40
25
  0
LINE
  5
1CE
100
AcDbEntity
  8
Vent
  6
ByLayer
 62
  256
370
   -1
100
AcDbLine
 10
51
 20
95
 11
91
 21
55
  0
LINE
  5
1CF
100
AcDbEntity
  8
Vent
  6
ByLayer
 62
  256
370
   -1
100
AcDbLine
 10
91
 20
95
 11
51
 21
55
  0
LINE
  5
1D0
100
AcDbEntity
  8
Vent
  6
ByLayer
 62
  256
370
   -1
100
AcDbLine
 10
159
 20
95
 11
199
 21
55
  0
LINE
  5
1D1
100
AcDbEntity
  8
Vent
  6
ByLayer
 62
  256
370
   -1
100
AcDbLine
 10
199
 20
95
 11
159
 21
55
  0
DIMENSION
  5
1D2
100
AcDbEntity
  8
Dimensions
  6
ByLayer
 62
  256
370
   -1
100
AcDbDimension
  2
*D17
 10
71
 20
141
 30
0
 11
35.5
 21
142.875
 31
0
 70
   32
 71
    5
  3
Standard
 53
0
210
0
220
0
230
1
100
AcDbAlignedDimension
 13
0
 23
131
 33
0
 14
71
 24
75
 34
0
100
AcDbRotatedDimension
  0
DIMENSION
  5
1D3
100
AcDbEntity
  8
Dimensions
  6
ByLayer
 62
  256
370
   -1
100
AcDbDimension
  2
*D18
 10
-10
 20
75.00000000000001
 30
0
 11
-11.875
 21
103
 31
0
 70
   32
 71
    5
  3
Standard
 53
0
210
0
220
0
230
1
100
AcDbAlignedDimension
 13
0
 23
131
 33
0
 14
71
 24
75
 34
0
 50
90
100
AcDbRotatedDimension
  0
DIMENSION
  5
1D4
100
AcDbEntity
  8
Dimensions
  6
ByLayer
 62
  256
370
   -1
100
AcDbDimension
  2
*D19
 10
179
 20
141
 30
0
 11
214.5
 21
142.875
 31
0
 70
   32
 71
    5
  3
Standard
 53
0
210
0
220
0
230
1
100
AcDbAlignedDimension
 13
250
 23
131
 33
0
 14
179
 24
75
 34
0
100
AcDbRotatedDimension
  0
DIMENSION
  5
1D5
100
AcDbEntity
  8
Dimensions
  6
ByLayer
 62
  256
370
   -1
100
AcDbDimension
  2
*D20
 10
260
 20
74.99999999999999
 30
0
 11
258.125
 21
103
 31
0
 70
   32
 71
    5
  3
Standard
 53
0
210
0
220
0
230
1
100
AcDbAlignedDimension
 13
250
 23
131
 33
0
 14
179
 24
75
 34
0
 50
90
100
AcDbRotatedDimension
  0
DIMENSION
  5
1D6
100
AcDbEntity
  8
Dimensions
  6
ByLayer
 62
  256
370
   -1
100
AcDbDimension
  2
*D21
 10
5.944365081389599
 20
13.55563491861041
 30
0
 11
8.82582521472478
 21
13.32582521472477
 31
0
 70
   35
  1
M4 clearance (4 pos)
 71
    5
  3
Standard
 53
0
210
0
220
0
230
1
100
AcDbDiametricDimension
 15
9.055634918610405
 25
10.44436508138959
 35
0
 40
0
  0
DIMENSION
  5
1D7
100
AcDbEntity
  8
Dimensions
  6
ByLayer
 62
  256
370
   -1
100
AcDbDimension
  2
*D22
 10
173.7625631329235
 20
26.73743686707646
 30
0
 11
176.3258252147247
 21
26.82582521472481
 31
0
 70
   35
  1
M3 clearance (2 pos)
 71
    5
 72
    0
  3
Standard
 53
0
210
0
220
0
230
1
100
AcDbDiametricDimension
 15
176.2374368670765
 25
24.26256313292355
 35
0
 40
0
  0
DIMENSION
  5
1D8
100
AcDbEntity
  8
Dimensions
  6
ByLayer
 62
  256
370
   -1
100
AcDbDimension
  2
*D23
 10
94.44436508138961
 20
51.55563491861041
 30
0
 11
97.32582521472479
 21
51.32582521472477
 31
0
 70
   35
  1
M4 clearance (8 pos)
 71
    5
  3
Standard
 53
0
210
0
220
0
230
1
100
AcDbDiametricDimension
 15
97.55563491861039
 25
48.44436508138959
 35
0
 40
0
  0
DIMENSION
  5
1D9
100
AcDbEntity
  8
Dimensions
  6
ByLayer
 62
  256
370
   -1
100
AcDbDimension
  2
*D24
 10
250
 20
151
 30
0
 11
125
 21
152.875
 31
0
 70
   32
 71
    5
  3
Standard
 53
0
210
0
220
0
230
1
100
AcDbAlignedDimension
 13
0
 23
131
 33
0
 14
250
 24
131
 34
0
100
AcDbRotatedDimension
  0
DIMENSION
  5
1DA
100
AcDbEntity
  8
Dimensions
  6
ByLayer
 62
  256
370
   -1
100
AcDbDimension
  2
*D25
 10
-20
 20
2.449293598294707e-15
 30
0
 11
-21.87499999999999
 21
65.5
 31
0
 70
   32
 71
    5
  3
Standard
 53
0
210
0
220
0
230
1
100
AcDbAlignedDimension
 13
0
 23
131
 33
0
 14
0
 24
0
 34
0
 50
90
100
AcDbRotatedDimension
  0
DIMENSION
  5
1DB
100
AcDbEntity
  8
Dimensions
  6
ByLayer
 62
  256
370
   -1
100
AcDbDimension
  2
*D26
 10
46.00000000000001
 20
146
 30
0
 11
23
 21
147.875
 31
0
 70
   32
 71
    5
  3
Standard
 53
0
210
0
220
0
230
1
100
AcDbAlignedDimension
 13
0
 23
131
 33
0
 14
46
 24
50
 34
0
100
AcDbRotatedDimension
  0
DIMENSION
  5
1DC
100
AcDbEntity
  8
Dimensions
  6
ByLayer
 62
  256
370
   -1
100
AcDbDimension
  2
*D27
 10
96
 20
146
 30
0
 11
71
 21
147.875
 31
0
 70
   32
 71
    5
  3
Standard
 53
0
210
0
220
0
230
1
100
AcDbAlignedDimension
 13
46
 23
50
 33
0
 14
96
 24
50
 34
0
100
AcDbRotatedDimension
  0
DIMENSION
  5
1DD
100
AcDbEntity
  8
Dimensions
  6
ByLayer
 62
  256
370
   -1
100
AcDbDimension
  2
*D28
 10
204
 20
146
 30
0
 11
227
 21
147.875
 31
0
 70
   32
 71
    5
  3
Standard
 53
0
210
0
220
0
230
1
100
AcDbAlignedDimension
 13
250
 23
131
 33
0
 14
204
 24
50
 34
0
100
AcDbRotatedDimension
  0
DIMENSION
  5
1DE
100
AcDbEntity
  8
Dimensions
  6
ByLayer
 62
  256
370
   -1
100
AcDbDimension
  2
*D29
 10
154
 20
146
 30
0
 11
179
 21
147.875
 31
0
 70
   32
 71
    5
  3
Standard
 53
0
210
0
220
0
230
1
100
AcDbAlignedDimension
 13
204
 23
50
 33
0
 14
154
 24
50
 34
0
100
AcDbRotatedDimension
  0
DIMENSION
  5
1DF
100
AcDbEntity
  8
Dimensions
  6
ByLayer
 62
  256
370
   -1
100
AcDbDimension
  2
*D30
 10
265
 20
99.99999999999999
 30
0
 11
263.125
 21
115.5
 31
0
 70
   32
 71
    5
  3
Standard
 53
0
210
0
220
0
230
1
100
AcDbAlignedDimension
 13
250
 23
131
 33
0
 14
154
 24
100
 34
0
 50
90
100
AcDbRotatedDimension
  0
DIMENSION
  5
1E0
100
AcDbEntity
  8
Dimensions
  6
ByLayer
 62
  256
370
   -1
100
AcDbDimension
  2
*D31
 10
265
 20
49.99999999999999
 30
0
 11
263.125
 21
75
 31
0
 70
   32
 71
    5
  3
Standard
 53
0
210
0
220
0
230
1
100
AcDbAlignedDimension
 13
154
 23
100
 33
0
 14
154
 24
50
 34
0
 50
90
100
AcDbRotatedDimension
  0
DIMENSION
  5
1E1
100
AcDbEntity
  8
Dimensions
  6
ByLayer
 62
  256
370
   -1
100
AcDbDimension
  2
*D32
 10
-15
 20
100
 30
0
 11
-16.875
 21
115.5
 31
0
 70
   32
 71
    5
  3
Standard
 53
0
210
0
220
0
230
1
100
AcDbAlignedDimension
 13
0
 23
131
 33
0
 14
96
 24
100
 34
0
 50
90
100
AcDbRotatedDimension
  0
DIMENSION
  5
1E2
100
AcDbEntity
  8
Dimensions
  6
ByLayer
 62
  256
370
   -1
100
AcDbDimension
  2
*D33
 10
-15
 20
50.00000000000001
 30
0
 11
-16.875
 21
75.00000000000001
 31
0
 70
   32
 71
    5
  3
Standard
 53
0
210
0
220
0
230
1
100
AcDbAlignedDimension
 13
96
 23
100
 33
0
 14
96
 24
50
 34
0
 50
90
100
AcDbRotatedDimension
  0
DIMENSION
  5
1E3
100
AcDbEntity
  8
Dimensions
  6
ByLayer
 62
  256
370
   -1
100
AcDbDimension
  2
*D34
 10
196.6776695296637
 20
57.32233047033631
 30
0
 11
187
 21
70
 31
0
 70
   35
 71
    5
  3
Standard
 53
0
210
0
220
0
230
1
100
AcDbDiametricDimension
 15
161.3223304703363
 25
92.67766952966369
 35
0
 40
0
  0
DIMENSION
  5
1E4
100
AcDbEntity
  8
Dimensions
  6
ByLayer
 62
  256
370
   -1
100
AcDbDimension
  2
*D35
 10
88.6776695296637
 20
57.32233047033633
 30
0
 11
79
 21
70
 31
0
 70
   35
 71
    5
  3
Standard
 53
0
210
0
220
0
230
1
100
AcDbDiametricDimension
 15
53.3223304703363
 25
92.67766952966369
 35
0
 40
0
  0
ENDSEC
  0
SECTION
  2
OBJECTS
  0
DICTIONARY
  5
C
330
0
100
AcDbDictionary
281
    1
  3
ACAD_GROUP
350
D
  0
DICTIONARY
  5
D
330
C
100
AcDbDictionary
281
    1
  0
ENDSEC
  0
EOF
