999
dxfrw 0.6.3
  0
SECTION
  2
HEADER
  9
$ACADVER
  1
AC1021
  9
$DWGCODEPAGE
  3
ANSI_1252
  9
$INSBASE
 10
0
 20
0
 30
0
  9
$EXTMIN
 10
0
 20
-21.25
 30
0
  9
$EXTMAX
 10
271.25
 20
144.125
 30
0
  9
$LIMMIN
 10
0
 20
0
  9
$LIMMAX
 10
420
 20
297
  9
$ORTHOMODE
 70
    0
  9
$REGENMODE
 70
    1
  9
$FILLMODE
 70
    1
  9
$QTEXTMODE
 70
    0
  9
$MIRRTEXT
 70
    0
  9
$LTSCALE
 40
1
  9
$ATTMODE
 70
    0
  9
$TEXTSIZE
 40
2.5
  9
$TRACEWID
 40
15.68
  9
$TEXTSTYLE
  7
STANDARD
  9
$CLAYER
  8
Dimensions (drill)
  9
$CELTYPE
  6
BYLAYER
  9
$CECOLOR
 62
  256
  9
$CELTSCALE
 40
1
  9
$DISPSILH
 70
    0
  9
$DIMSCALE
 40
1
  9
$DIMASZ
 40
2.5
  9
$DIMEXO
 40
0.625
  9
$DIMDLI
 40
3.75
  9
$DIMRND
 40
0
  9
$DIMDLE
 40
0
  9
$DIMEXE
 40
1.25
  9
$DIMTP
 40
0
  9
$DIMTM
 40
0
  9
$DIMTXT
 40
2.5
  9
$DIMCEN
 40
2.5
  9
$DIMTSZ
 40
0
  9
$DIMTOL
 70
    0
  9
$DIMLIM
 70
    0
  9
$DIMTIH
 70
    0
  9
$DIMTOH
 70
    0
  9
$DIMSE1
 70
    0
  9
$DIMSE2
 70
    0
  9
$DIMTAD
 70
    1
  9
$DIMZIN
 70
    8
  9
$DIMBLK
  1

  9
$DIMASO
 70
    1
  9
$DIMSHO
 70
    1
  9
$DIMPOST
  1

  9
$DIMAPOST
  1

  9
$DIMALT
 70
    0
  9
$DIMALTD
 70
    3
  9
$DIMALTF
 40
0.03937
  9
$DIMLFAC
 40
1
  9
$DIMTOFL
 70
    1
  9
$DIMTVP
 40
0
  9
$DIMTIX
 70
    0
  9
$DIMSOXD
 70
    0
  9
$DIMSAH
 70
    0
  9
$DIMBLK1
  1

  9
$DIMBLK2
  1

  9
$DIMSTYLE
  2
STANDARD
  9
$DIMCLRD
 70
    0
  9
$DIMCLRE
 70
    0
  9
$DIMCLRT
 70
    0
  9
$DIMTFAC
 40
1
  9
$DIMGAP
 40
0.625
  9
$DIMJUST
 70
    0
  9
$DIMSD1
 70
    0
  9
$DIMSD2
 70
    0
  9
$DIMTOLJ
 70
    0
  9
$DIMTZIN
 70
    8
  9
$DIMALTZ
 70
    0
  9
$DIMALTTZ
 70
    0
  9
$DIMUPT
 70
    0
  9
$DIMDEC
 70
    2
  9
$DIMTDEC
 70
    2
  9
$DIMALTU
 70
    2
  9
$DIMALTTD
 70
    3
  9
$DIMTXSTY
  7
standard
  9
$DIMAUNIT
 70
    0
  9
$DIMADEC
 70
    0
  9
$DIMALTRND
 40
0
  9
$DIMAZIN
 70
    0
  9
$DIMDSEP
 70
    0
  9
$DIMATFIT
 70
    3
  9
$DIMFRAC
 70
    0
  9
$DIMLDRBLK
  1
STANDARD
  9
$DIMLUNIT
 70
    2
  9
$DIMLWD
 70
   -2
  9
$DIMLWE
 70
   -2
  9
$DIMTMOVE
 70
    0
  9
$DIMFXL
 40
1
  9
$DIMFXLON
 70
    0
  9
$DIMJOGANG
 40
0.7854
  9
$DIMTFILL
 70
    0
  9
$DIMTFILLCLR
 70
    0
  9
$DIMARCSYM
 70
    0
  9
$DIMLTYPE
  6

  9
$DIMLTEX1
  6

  9
$DIMLTEX2
  6

  9
$LUNITS
 70
    2
  9
$LUPREC
 70
    4
  9
$SKETCHINC
 40
1
  9
$FILLETRAD
 40
0
  9
$AUNITS
 70
    0
  9
$AUPREC
 70
    2
  9
$MENU
  1
.
  9
$ELEVATION
 40
0
  9
$PELEVATION
 40
0
  9
$THICKNESS
 40
0
  9
$LIMCHECK
 70
    0
  9
$CHAMFERA
 40
0
  9
$CHAMFERB
 40
0
  9
$CHAMFERC
 40
0
  9
$CHAMFERD
 40
0
  9
$SKPOLY
 70
    0
  9
$USRTIMER
 70
    1
  9
$ANGBASE
 50
0
  9
$ANGDIR
 70
    0
  9
$PDMODE
 70
   34
  9
$PDSIZE
 40
0
  9
$PLINEWID
 40
0
  9
$SPLFRAME
 70
    0
  9
$SPLINETYPE
 70
    2
  9
$SPLINESEGS
 70
    8
  9
$HANDSEED
  5
20000
  9
$SURFTAB1
 70
    6
  9
$SURFTAB2
 70
    6
  9
$SURFTYPE
 70
    6
  9
$SURFU
 70
    6
  9
$SURFV
 70
    6
  9
$UCSBASE
  2

  9
$UCSNAME
  2

  9
$UCSORG
 10
0
 20
0
 30
0
  9
$UCSXDIR
 10
1
 20
0
 30
0
  9
$UCSYDIR
 10
0
 20
1
 30
0
  9
$UCSORTHOREF
  2

  9
$UCSORTHOVIEW
 70
    0
  9
$UCSORGTOP
 10
0
 20
0
 30
0
  9
$UCSORGBOTTOM
 10
0
 20
0
 30
0
  9
$UCSORGLEFT
 10
0
 20
0
 30
0
  9
$UCSORGRIGHT
 10
0
 20
0
 30
0
  9
$UCSORGFRONT
 10
0
 20
0
 30
0
  9
$UCSORGBACK
 10
0
 20
0
 30
0
  9
$PUCSBASE
  2

  9
$PUCSNAME
  2

  9
$PUCSORG
 10
0
 20
0
 30
0
  9
$PUCSXDIR
 10
1
 20
0
 30
0
  9
$PUCSYDIR
 10
0
 20
1
 30
0
  9
$PUCSORTHOREF
  2

  9
$PUCSORTHOVIEW
 70
    0
  9
$PUCSORGTOP
 10
0
 20
0
 30
0
  9
$PUCSORGBOTTOM
 10
0
 20
0
 30
0
  9
$PUCSORGLEFT
 10
0
 20
0
 30
0
  9
$PUCSORGRIGHT
 10
0
 20
0
 30
0
  9
$PUCSORGFRONT
 10
0
 20
0
 30
0
  9
$PUCSORGBACK
 10
0
 20
0
 30
0
  9
$USERI1
 70
    0
  9
$USERI2
 70
    0
  9
$USERI3
 70
    0
  9
$USERI4
 70
    0
  9
$USERI5
 70
    0
  9
$USERR1
 40
0
  9
$USERR2
 40
0
  9
$USERR3
 40
0
  9
$USERR4
 40
0
  9
$USERR5
 40
0
  9
$WORLDVIEW
 70
    1
  9
$SHADEDGE
 70
    3
  9
$SHADEDIF
 70
   70
  9
$TILEMODE
 70
    1
  9
$MAXACTVP
 70
   64
  9
$PINSBASE
 10
12.5
 20
43.3926267281106
 30
0
  9
$PLIMCHECK
 70
    0
  9
$PEXTMIN
 10
0
 20
0
 30
0
  9
$PEXTMAX
 10
0
 20
0
 30
0
  9
$GRIDMODE
 70
    1
  9
$SNAPSTYLE
 70
    0
  9
$GRIDUNIT
 10
0
 20
0
  9
$PLIMMIN
 10
0
 20
0
  9
$PLIMMAX
 10
297
 20
210
  9
$UNITMODE
 70
    0
  9
$VISRETAIN
 70
    1
  9
$PLINEGEN
 70
    0
  9
$PSLTSCALE
 70
    1
  9
$TREEDEPTH
 70
 3020
  9
$CMLSTYLE
  2
Standard
  9
$CMLJUST
 70
    0
  9
$CMLSCALE
 40
20
  9
$PROXYGRAPHICS
 70
    1
  9
$MEASUREMENT
 70
    1
  9
$CELWEIGHT
370
   -1
  9
$ENDCAPS
280
    0
  9
$JOINSTYLE
280
    0
  9
$LWDISPLAY
290
    0
  9
$INSUNITS
 70
    4
  9
$HYPERLINKBASE
  1

  9
$STYLESHEET
  1

  9
$XEDIT
290
    1
  9
$CEPSNTYPE
380
    0
  9
$PSTYLEMODE
290
    1
  9
$EXTNAMES
290
    1
  9
$PSVPSCALE
 40
1.00276
  9
$OLESTARTUP
290
    0
  9
$SORTENTS
280
  127
  9
$INDEXCTL
280
    0
  9
$HIDETEXT
280
    1
  9
$XCLIPFRAME
290
    0
  9
$HALOGAP
280
    0
  9
$OBSCOLOR
 70
  257
  9
$OBSLTYPE
280
    0
  9
$INTERSECTIONDISPLAY
280
    0
  9
$INTERSECTIONCOLOR
 70
  257
  9
$DIMASSOC
280
    1
  9
$PROJECTNAME
  1

  9
$CAMERADISPLAY
290
    0
  9
$LENSLENGTH
 40
50
  9
$CAMERAHEIGHT
 40
0
  9
$STEPSPERSEC
 40
2
  9
$STEPSIZE
 40
50
  9
$3DDWFPREC
 40
2
  9
$PSOLWIDTH
 40
5
  9
$PSOLHEIGHT
 40
80
  9
$LOFTANG1
 40
1.570796326794897
  9
$LOFTANG2
 40
1.570796326794897
  9
$LOFTMAG1
 40
0
  9
$LOFTMAG2
 40
0
  9
$LOFTPARAM
 70
    7
  9
$LOFTNORMALS
280
    1
  9
$LATITUDE
 40
1
  9
$LONGITUDE
 40
1
  9
$NORTHDIRECTION
 40
0
  9
$TIMEZONE
 70
-8000
  9
$LIGHTGLYPHDISPLAY
280
    1
  9
$TILEMODELIGHTSYNCH
280
    1
  9
$SOLIDHIST
280
    1
  9
$SHOWHIST
280
    1
  9
$DWFFRAME
280
    2
  9
$DGNFRAME
280
    0
  9
$REALWORLDSCALE
290
    1
  9
$INTERFERECOLOR
 62
    1
  9
$CSHADOW
280
    0
  9
$SHADOWPLANELOCATION
 40
0
  0
ENDSEC
  0
SECTION
  2
CLASSES
  0
ENDSEC
  0
SECTION
  2
TABLES
  0
TABLE
  2
VPORT
  5
8
330
0
100
AcDbSymbolTable
 70
    1
  0
VPORT
  5
31
330
2
100
AcDbSymbolTableRecord
100
AcDbViewportTableRecord
  2
*ACTIVE
 70
    0
 10
0
 20
0
 11
1
 21
1
 12
197.7463393762677
 22
84.37016670892494
 13
0
 23
0
 14
10
 24
10
 15
10
 25
10
 16
0
 26
0
 36
1
 17
0
 27
0
 37
0
 40
214.2352307302231
 41
2.424719101123595
 42
50
 43
0
 44
0
 50
0
 51
0
 71
    0
 72
  100
 73
    1
 74
    3
 75
    0
 76
    1
 77
    0
 78
    0
281
    0
 65
    1
110
0
120
0
130
0
111
1
121
0
131
0
112
0
122
1
132
0
 79
    0
146
0
348
10020
 60
    7
 61
    5
292
1
282
    1
141
0
142
0
 63
  250
421
3358443
  0
ENDTAB
  0
TABLE
  2
LTYPE
  5
5
330
0
100
AcDbSymbolTable
 70
    4
  0
LTYPE
  5
14
330
5
100
AcDbSymbolTableRecord
100
AcDbLinetypeTableRecord
  2
ByBlock
 70
    0
  3

 72
   65
 73
    0
 40
0
  0
LTYPE
  5
15
330
5
100
AcDbSymbolTableRecord
100
AcDbLinetypeTableRecord
  2
ByLayer
 70
    0
  3

 72
   65
 73
    0
 40
0
  0
LTYPE
  5
16
330
5
100
AcDbSymbolTableRecord
100
AcDbLinetypeTableRecord
  2
Continuous
 70
    0
  3
Solid line
 72
   65
 73
    0
 40
0
  0
LTYPE
  5
32
330
5
100
AcDbSymbolTableRecord
100
AcDbLinetypeTableRecord
  2
DOT
 70
    0
  3
Dot . . . . . . . . . . . . . . . . . . . . . .
 72
   65
 73
    2
 40
6.35
 49
0
 74
    0
 49
-6.35
 74
    0
  0
LTYPE
  5
33
330
5
100
AcDbSymbolTableRecord
100
AcDbLinetypeTableRecord
  2
DOTTINY
 70
    0
  3
Dot (.15x) .....................................
 72
   65
 73
    2
 40
0.9525
 49
0
 74
    0
 49
-0.9525
 74
    0
  0
LTYPE
  5
34
330
5
100
AcDbSymbolTableRecord
100
AcDbLinetypeTableRecord
  2
DOT2
 70
    0
  3
Dot (.5x) .....................................
 72
   65
 73
    2
 40
3.175
 49
0
 74
    0
 49
-3.175
 74
    0
  0
LTYPE
  5
35
330
5
100
AcDbSymbolTableRecord
100
AcDbLinetypeTableRecord
  2
DOTX2
 70
    0
  3
Dot (2x) .  .  .  .  .  .  .  .  .  .  .  .  .
 72
   65
 73
    2
 40
12.7
 49
0
 74
    0
 49
-12.7
 74
    0
  0
LTYPE
  5
36
330
5
100
AcDbSymbolTableRecord
100
AcDbLinetypeTableRecord
  2
DASHED
 70
    0
  3
Dashed _ _ _ _ _ _ _ _ _ _ _ _ _ _ _ _ _
 72
   65
 73
    2
 40
19.05
 49
12.7
 74
    0
 49
-6.35
 74
    0
  0
LTYPE
  5
37
330
5
100
AcDbSymbolTableRecord
100
AcDbLinetypeTableRecord
  2
DASHEDTINY
 70
    0
  3
Dashed (.15x) _ _ _ _ _ _ _ _ _ _ _ _ _ _ _ _ _
 72
   65
 73
    2
 40
2.8575
 49
1.905
 74
    0
 49
-0.9525
 74
    0
  0
LTYPE
  5
38
330
5
100
AcDbSymbolTableRecord
100
AcDbLinetypeTableRecord
  2
DASHED2
 70
    0
  3
Dashed (.5x) _ _ _ _ _ _ _ _ _ _ _ _ _ _ _ _ _
 72
   65
 73
    2
 40
9.524999999999999
 49
6.35
 74
    0
 49
-3.175
 74
    0
  0
LTYPE
  5
39
330
5
100
AcDbSymbolTableRecord
100
AcDbLinetypeTableRecord
  2
DASHEDX2
 70
    0
  3
Dashed (2x) ____  ____  ____  ____  ____  ___
 72
   65
 73
    2
 40
38.09999999999999
 49
25.4
 74
    0
 49
-12.7
 74
    0
  0
LTYPE
  5
3A
330
5
100
AcDbSymbolTableRecord
100
AcDbLinetypeTableRecord
  2
DASHDOT
 70
    0
  3
Dash dot __ . __ . __ . __ . __ . __ . __ . __
 72
   65
 73
    4
 40
25.4
 49
12.7
 74
    0
 49
-6.35
 74
    0
 49
0
 74
    0
 49
-6.35
 74
    0
  0
LTYPE
  5
3B
330
5
100
AcDbSymbolTableRecord
100
AcDbLinetypeTableRecord
  2
DASHDOTTINY
 70
    0
  3
Dash dot (.15x) _._._._._._._._._._._._._._._.
 72
   65
 73
    4
 40
3.81
 49
1.905
 74
    0
 49
-0.9525
 74
    0
 49
0
 74
    0
 49
-0.9525
 74
    0
  0
LTYPE
  5
3C
330
5
100
AcDbSymbolTableRecord
100
AcDbLinetypeTableRecord
  2
DASHDOT2
 70
    0
  3
Dash dot (.5x) _._._._._._._._._._._._._._._.
 72
   65
 73
    4
 40
12.7
 49
6.35
 74
    0
 49
-3.175
 74
    0
 49
0
 74
    0
 49
-3.175
 74
    0
  0
LTYPE
  5
3D
330
5
100
AcDbSymbolTableRecord
100
AcDbLinetypeTableRecord
  2
DASHDOTX2
 70
    0
  3
Dash dot (2x) ____  .  ____  .  ____  .  ___
 72
   65
 73
    4
 40
50.8
 49
25.4
 74
    0
 49
-12.7
 74
    0
 49
0
 74
    0
 49
-12.7
 74
    0
  0
LTYPE
  5
3E
330
5
100
AcDbSymbolTableRecord
100
AcDbLinetypeTableRecord
  2
DIVIDE
 70
    0
  3
Divide ____ . . ____ . . ____ . . ____ . . ____
 72
   65
 73
    6
 40
31.75
 49
12.7
 74
    0
 49
-6.35
 74
    0
 49
0
 74
    0
 49
-6.35
 74
    0
 49
0
 74
    0
 49
-6.35
 74
    0
  0
LTYPE
  5
3F
330
5
100
AcDbSymbolTableRecord
100
AcDbLinetypeTableRecord
  2
DIVIDETINY
 70
    0
  3
Divide (.15x) __..__..__..__..__..__..__..__.._
 72
   65
 73
    6
 40
4.7625
 49
1.905
 74
    0
 49
-0.9525
 74
    0
 49
0
 74
    0
 49
-0.9525
 74
    0
 49
0
 74
    0
 49
-0.9525
 74
    0
  0
LTYPE
  5
40
330
5
100
AcDbSymbolTableRecord
100
AcDbLinetypeTableRecord
  2
DIVIDE2
 70
    0
  3
Divide (.5x) __..__..__..__..__..__..__..__.._
 72
   65
 73
    6
 40
15.875
 49
6.35
 74
    0
 49
-3.175
 74
    0
 49
0
 74
    0
 49
-3.175
 74
    0
 49
0
 74
    0
 49
-3.175
 74
    0
  0
LTYPE
  5
41
330
5
100
AcDbSymbolTableRecord
100
AcDbLinetypeTableRecord
  2
DIVIDEX2
 70
    0
  3
Divide (2x) ________  .  .  ________  .  .  _
 72
   65
 73
    6
 40
63.5
 49
25.4
 74
    0
 49
-12.7
 74
    0
 49
0
 74
    0
 49
-12.7
 74
    0
 49
0
 74
    0
 49
-12.7
 74
    0
  0
LTYPE
  5
42
330
5
100
AcDbSymbolTableRecord
100
AcDbLinetypeTableRecord
  2
BORDER
 70
    0
  3
Border __ __ . __ __ . __ __ . __ __ . __ __ .
 72
   65
 73
    6
 40
44.45
 49
12.7
 74
    0
 49
-6.35
 74
    0
 49
12.7
 74
    0
 49
-6.35
 74
    0
 49
0
 74
    0
 49
-6.35
 74
    0
  0
LTYPE
  5
43
330
5
100
AcDbSymbolTableRecord
100
AcDbLinetypeTableRecord
  2
BORDERTINY
 70
    0
  3
Border (.15x) __.__.__.__.__.__.__.__.__.__.__.
 72
   65
 73
    6
 40
6.6675
 49
1.905
 74
    0
 49
-0.9525
 74
    0
 49
1.905
 74
    0
 49
-0.9525
 74
    0
 49
0
 74
    0
 49
-0.9525
 74
    0
  0
LTYPE
  5
44
330
5
100
AcDbSymbolTableRecord
100
AcDbLinetypeTableRecord
  2
BORDER2
 70
    0
  3
Border (.5x) __.__.__.__.__.__.__.__.__.__.__.
 72
   65
 73
    6
 40
22.225
 49
6.35
 74
    0
 49
-3.175
 74
    0
 49
6.35
 74
    0
 49
-3.175
 74
    0
 49
0
 74
    0
 49
-3.175
 74
    0
  0
LTYPE
  5
45
330
5
100
AcDbSymbolTableRecord
100
AcDbLinetypeTableRecord
  2
BORDERX2
 70
    0
  3
Border (2x) ____  ____  .  ____  ____  .  ___
 72
   65
 73
    6
 40
88.89999999999999
 49
25.4
 74
    0
 49
-12.7
 74
    0
 49
25.4
 74
    0
 49
-12.7
 74
    0
 49
0
 74
    0
 49
-12.7
 74
    0
  0
LTYPE
  5
46
330
5
100
AcDbSymbolTableRecord
100
AcDbLinetypeTableRecord
  2
CENTER
 70
    0
  3
Center ____ _ ____ _ ____ _ ____ _ ____ _ ____
 72
   65
 73
    4
 40
50.8
 49
31.75
 74
    0
 49
-6.35
 74
    0
 49
6.35
 74
    0
 49
-6.35
 74
    0
  0
LTYPE
  5
47
330
5
100
AcDbSymbolTableRecord
100
AcDbLinetypeTableRecord
  2
CENTERTINY
 70
    0
  3
Center (.15x) ___ _ ___ _ ___ _ ___ _ ___ _ ___
 72
   65
 73
    4
 40
7.619999999999999
 49
4.7625
 74
    0
 49
-0.9525
 74
    0
 49
0.9525
 74
    0
 49
-0.9525
 74
    0
  0
LTYPE
  5
48
330
5
100
AcDbSymbolTableRecord
100
AcDbLinetypeTableRecord
  2
CENTER2
 70
    0
  3
Center (.5x) ___ _ ___ _ ___ _ ___ _ ___ _ ___
 72
   65
 73
    4
 40
28.575
 49
19.05
 74
    0
 49
-3.175
 74
    0
 49
3.175
 74
    0
 49
-3.175
 74
    0
  0
LTYPE
  5
49
330
5
100
AcDbSymbolTableRecord
100
AcDbLinetypeTableRecord
  2
CENTERX2
 70
    0
  3
Center (2x) ________  __  ________  __  _____
 72
   65
 73
    4
 40
101.6
 49
63.5
 74
    0
 49
-12.7
 74
    0
 49
12.7
 74
    0
 49
-12.7
 74
    0
  0
ENDTAB
  0
TABLE
  2
LAYER
  5
2
330
0
100
AcDbSymbolTable
 70
    1
  0
LAYER
  5
10
330
2
100
AcDbSymbolTableRecord
100
AcDbLayerTableRecord
  2
0
 70
    4
 62
    7
  6
CONTINUOUS
370
    0
390
F
  0
LAYER
  5
4A
330
2
100
AcDbSymbolTableRecord
100
AcDbLayerTableRecord
  2
AC socket
 70
    5
 62
   96
420
32768
  6
CONTINUOUS
370
    0
390
F
  0
LAYER
  5
4B
330
2
100
AcDbSymbolTableRecord
100
AcDbLayerTableRecord
  2
AC socket cut
 70
    4
 62
    7
  6
CONTINUOUS
370
    0
390
F
  0
LAYER
  5
4C
330
2
100
AcDbSymbolTableRecord
100
AcDbLayerTableRecord
  2
Chassis
 70
    5
 62
   96
420
32768
  6
CONTINUOUS
370
    0
390
F
  0
LAYER
  5
4D
330
2
100
AcDbSymbolTableRecord
100
AcDbLayerTableRecord
  2
Chassis cut
 70
    4
 62
    7
  6
CONTINUOUS
370
    0
390
F
  0
LAYER
  5
4E
330
2
100
AcDbSymbolTableRecord
100
AcDbLayerTableRecord
  2
Dimensions (cut)
 70
    4
 62
    1
  6
CONTINUOUS
370
    0
390
F
  0
LAYER
  5
4F
330
2
100
AcDbSymbolTableRecord
100
AcDbLayerTableRecord
  2
Dimensions (drill)
 70
    4
 62
    1
  6
CONTINUOUS
370
    0
390
F
  0
LAYER
  5
50
330
2
100
AcDbSymbolTableRecord
100
AcDbLayerTableRecord
  2
Fan
 70
    1
 62
   96
420
32768
  6
CONTINUOUS
370
    0
390
F
  0
LAYER
  5
51
330
2
100
AcDbSymbolTableRecord
100
AcDbLayerTableRecord
  2
Fan cut
 70
    0
 62
    7
  6
CONTINUOUS
370
    0
390
F
  0
LAYER
  5
52
330
2
100
AcDbSymbolTableRecord
100
AcDbLayerTableRecord
  2
Vent boundary
 70
    1
 62
   96
420
32768
  6
CONTINUOUS
370
    0
390
F
  0
LAYER
  5
53
330
2
100
AcDbSymbolTableRecord
100
AcDbLayerTableRecord
  2
Vent construction
 70
    1
 62
    5
  6
CONTINUOUS
370
    0
390
F
1001
LibreCad
1070
    1
  0
LAYER
  5
54
330
2
100
AcDbSymbolTableRecord
100
AcDbLayerTableRecord
  2
Vent cut
 70
    0
 62
    7
  6
CONTINUOUS
370
    0
390
F
  0
LAYER
  5
55
330
2
100
AcDbSymbolTableRecord
100
AcDbLayerTableRecord
  2
temp
 70
    5
 62
    5
  6
CONTINUOUS
370
    0
390
F
1001
LibreCad
1070
    1
  0
ENDTAB
  0
TABLE
  2
STYLE
  5
3
330
0
100
AcDbSymbolTable
 70
    3
  0
STYLE
  5
56
330
2
100
AcDbSymbolTableRecord
100
AcDbTextStyleTableRecord
  2
Standard
 70
    0
 40
0
 41
1
 50
0
 71
    0
 42
1
  3
txt
  4

  0
ENDTAB
  0
TABLE
  2
VIEW
  5
6
330
0
100
AcDbSymbolTable
 70
    0
  0
ENDTAB
  0
TABLE
  2
UCS
  5
7
330
0
100
AcDbSymbolTable
 70
    0
  0
ENDTAB
  0
TABLE
  2
APPID
  5
9
330
0
100
AcDbSymbolTable
 70
    1
  0
APPID
  5
12
330
9
100
AcDbSymbolTableRecord
100
AcDbRegAppTableRecord
  2
ACAD
 70
    0
  0
APPID
  5
57
330
9
100
AcDbSymbolTableRecord
100
AcDbRegAppTableRecord
  2
LibreCad
 70
    0
  0
ENDTAB
  0
TABLE
  2
DIMSTYLE
  5
A
330
0
100
AcDbSymbolTable
 70
    1
100
AcDbDimStyleTable
 71
    1
  0
DIMSTYLE
105
58
330
A
100
AcDbSymbolTableRecord
100
AcDbDimStyleTableRecord
  2
Standard
 70
    0
 40
1
 41
2.5
 42
0.625
 43
0.38
 44
1.25
 45
0
 46
0
 47
0
 48
0
 49
1
140
2.5
141
0.09
142
0
143
25.4
144
1
145
0
146
1
147
0.625
148
0
 71
    0
 72
    0
 73
    0
 74
    1
 75
    0
 76
    0
 77
    0
 78
    8
 79
    0
170
    0
171
    2
172
    0
173
    0
174
    0
175
    0
176
    0
177
    0
178
    0
179
    0
271
    2
272
    4
273
    2
274
    2
275
    0
276
    0
277
    2
278
    0
279
    0
280
    0
281
    0
282
    0
283
    1
284
    0
285
    0
286
    0
288
    0
289
    3
340
standard
341

371
   -2
372
   -2
  0
ENDTAB
  0
TABLE
  2
BLOCK_RECORD
  5
1
330
0
100
AcDbSymbolTable
 70
    2
  0
BLOCK_RECORD
  5
1F
330
1
100
AcDbSymbolTableRecord
100
AcDbBlockTableRecord
  2
*Model_Space
 70
    0
280
    1
281
    0
  0
BLOCK_RECORD
  5
1E
330
1
100
AcDbSymbolTableRecord
100
AcDbBlockTableRecord
  2
*Paper_Space
 70
    0
280
    1
281
    0
  0
BLOCK_RECORD
  5
59
330
1
100
AcDbSymbolTableRecord
100
AcDbBlockTableRecord
  2
*D10
 70
    0
280
    1
281
    0
  0
BLOCK_RECORD
  5
5C
330
1
100
AcDbSymbolTableRecord
100
AcDbBlockTableRecord
  2
*D11
 70
    0
280
    1
281
    0
  0
BLOCK_RECORD
  5
5F
330
1
100
AcDbSymbolTableRecord
100
AcDbBlockTableRecord
  2
*D12
 70
    0
280
    1
281
    0
  0
BLOCK_RECORD
  5
62
330
1
100
AcDbSymbolTableRecord
100
AcDbBlockTableRecord
  2
*D5
 70
    0
280
    1
281
    0
  0
BLOCK_RECORD
  5
65
330
1
100
AcDbSymbolTableRecord
100
AcDbBlockTableRecord
  2
*D1
 70
    0
280
    1
281
    0
  0
BLOCK_RECORD
  5
68
330
1
100
AcDbSymbolTableRecord
100
AcDbBlockTableRecord
  2
*D3
 70
    0
280
    1
281
    0
  0
BLOCK_RECORD
  5
6B
330
1
100
AcDbSymbolTableRecord
100
AcDbBlockTableRecord
  2
*D8
 70
    0
280
    1
281
    0
  0
BLOCK_RECORD
  5
6E
330
1
100
AcDbSymbolTableRecord
100
AcDbBlockTableRecord
  2
*D2
 70
    0
280
    1
281
    0
  0
BLOCK_RECORD
  5
71
330
1
100
AcDbSymbolTableRecord
100
AcDbBlockTableRecord
  2
*D7
 70
    0
280
    1
281
    0
  0
BLOCK_RECORD
  5
74
330
1
100
AcDbSymbolTableRecord
100
AcDbBlockTableRecord
  2
*D4
 70
    0
280
    1
281
    0
  0
BLOCK_RECORD
  5
77
330
1
100
AcDbSymbolTableRecord
100
AcDbBlockTableRecord
  2
*D6
 70
    0
280
    1
281
    0
  0
BLOCK_RECORD
  5
7A
330
1
100
AcDbSymbolTableRecord
100
AcDbBlockTableRecord
  2
*D9
 70
    0
280
    1
281
    0
  0
ENDTAB
  0
ENDSEC
  0
SECTION
  2
BLOCKS
  0
BLOCK
  5
20
330
1F
100
AcDbEntity
  8
0
100
AcDbBlockBegin
  2
*Model_Space
 70
    0
 10
0
 20
0
 30
0
  3
*Model_Space
  1

  0
ENDBLK
  5
21
330
1F
100
AcDbEntity
  8
0
100
AcDbBlockEnd
  0
BLOCK
  5
1C
330
1B
100
AcDbEntity
  8
0
100
AcDbBlockBegin
  2
*Paper_Space
 70
    0
 10
0
 20
0
 30
0
  3
*Paper_Space
  1

  0
ENDBLK
  5
1D
330
1F
100
AcDbEntity
  8
0
100
AcDbBlockEnd
  0
BLOCK
  5
5A
330
59
100
AcDbEntity
  8
0
100
AcDbBlockBegin
  2
*D10
 70
    1
 10
0
 20
0
  3
*D10
  1

  0
LINE
  5
7D
100
AcDbEntity
  8
Dimensions (drill)
  6
ByBlock
 62
    0
370
   -2
100
AcDbLine
 10
215
 20
-20
 11
175
 21
-20
  0
SOLID
  5
7E
100
AcDbEntity
  8
Dimensions (drill)
  6
ByBlock
 62
    0
370
   -2
100
AcDbTrace
 10
215
 20
-20
 30
0
 11
212.5
 21
-20.41628465777284
 31
0
 12
212.5
 22
-19.58371534222716
 32
0
 13
212.5
 23
-19.58371534222716
 33
0
  0
SOLID
  5
7F
100
AcDbEntity
  8
Dimensions (drill)
  6
ByBlock
 62
    0
370
   -2
100
AcDbTrace
 10
175
 20
-20
 30
0
 11
177.5
 21
-19.58371534222716
 31
0
 12
177.5
 22
-20.41628465777284
 32
0
 13
177.5
 23
-20.41628465777284
 33
0
  0
MTEXT
  5
80
100
AcDbEntity
  8
Dimensions (drill)
  6
CONTINUOUS
 62
    0
370
   -2
100
AcDbMText
 10
195
 20
-18.125
 30
0
 40
2.5
 41
3.333333333333333
 71
    5
 72
    1
  1
40
  7
standard
210
0
220
0
230
1
 50
360
 73
    2
 44
1
  0
LINE
  5
81
100
AcDbEntity
  8
Dimensions (drill)
  6
ByBlock
 62
    0
370
   -2
100
AcDbLine
 10
215
 20
24.875
 11
215
 21
-21.25
  0
LINE
  5
82
100
AcDbEntity
  8
Dimensions (drill)
  6
ByBlock
 62
    0
370
   -2
100
AcDbLine
 10
175
 20
24.875
 11
175
 21
-21.25
  0
ENDBLK
  5
5B
330
59
100
AcDbEntity
  8
0
100
AcDbBlockEnd
  0
BLOCK
  5
5D
330
5C
100
AcDbEntity
  8
0
100
AcDbBlockBegin
  2
*D11
 70
    1
 10
0
 20
0
  3
*D11
  1

  0
SOLID
  5
83
100
AcDbEntity
  8
Dimensions (cut)
  6
ByBlock
 62
    0
370
   -2
100
AcDbTrace
 10
182.0251262658471
 20
34.97487373415292
 30
0
 11
179.9630016084656
 21
36.44828298270419
 31
0
 12
180.5517170172958
 22
37.03699839153438
 32
0
 13
180.5517170172958
 23
37.03699839153438
 33
0
  0
LINE
  5
84
100
AcDbEntity
  8
Dimensions (cut)
  6
ByBlock
 62
    0
370
   -2
100
AcDbLine
 10
184.5
 20
32.5
 11
175.7397326552998
 21
41.26026734470023
  0
MTEXT
  5
85
100
AcDbEntity
  8
Dimensions (cut)
  6
CONTINUOUS
 62
    0
370
   -2
100
AcDbMText
 10
180.2082546752982
 20
39.44339575415135
 30
0
 40
2.5
 41
3.888888888889199
 71
    5
 72
    1
  1
3.5
  7
standard
210
0
220
0
230
1
 50
314.9999999999999
 73
    2
 44
1
  0
ENDBLK
  5
5E
330
5C
100
AcDbEntity
  8
0
100
AcDbBlockEnd
  0
BLOCK
  5
60
330
5F
100
AcDbEntity
  8
0
100
AcDbBlockBegin
  2
*D12
 70
    1
 10
0
 20
0
  3
*D12
  1

  0
LINE
  5
86
100
AcDbEntity
  8
Dimensions (drill)
  6
ByBlock
 62
    0
370
   -2
100
AcDbLine
 10
170.2270292269908
 20
30.27297077300917
 11
179.7729707730092
 21
20.72702922699083
  0
SOLID
  5
87
100
AcDbEntity
  8
Dimensions (drill)
  6
ByBlock
 62
    0
370
   -2
100
AcDbTrace
 10
173.7625631329235
 20
26.73743686707646
 30
0
 11
171.7004384755421
 21
28.21084611562772
 31
0
 12
172.2891538843722
 22
28.79956152445791
 32
0
 13
172.2891538843722
 23
28.79956152445791
 33
0
  0
SOLID
  5
88
100
AcDbEntity
  8
Dimensions (drill)
  6
ByBlock
 62
    0
370
   -2
100
AcDbTrace
 10
176.2374368670765
 20
24.26256313292355
 30
0
 11
178.2995615244579
 21
22.78915388437229
 31
0
 12
177.7108461156278
 22
22.20043847554209
 32
0
 13
177.7108461156278
 23
22.20043847554209
 33
0
  0
MTEXT
  5
89
100
AcDbEntity
  8
Dimensions (drill)
  6
CONTINUOUS
 62
    0
370
   -2
100
AcDbMText
 10
185.5427656889413
 20
17.60888474050835
 30
0
 40
2.5
 41
21.31944444444494
 71
    5
 72
    1
  1
M3 clearance
  7
standard
210
0
220
0
230
1
 50
315.0000000000003
 73
    2
 44
1
  0
ENDBLK
  5
61
330
5F
100
AcDbEntity
  8
0
100
AcDbBlockEnd
  0
BLOCK
  5
63
330
62
100
AcDbEntity
  8
0
100
AcDbBlockBegin
  2
*D5
 70
    1
 10
0
 20
0
  3
*D5
  1

  0
LINE
  5
8A
100
AcDbEntity
  8
Dimensions (cut)
  6
ByBlock
 62
    0
370
   -2
100
AcDbLine
 10
209
 20
-10
 11
181
 21
-10
  0
SOLID
  5
8B
100
AcDbEntity
  8
Dimensions (cut)
  6
ByBlock
 62
    0
370
   -2
100
AcDbTrace
 10
209
 20
-10
 30
0
 11
206.5
 21
-10.41628465777284
 31
0
 12
206.5
 22
-9.58371534222716
 32
0
 13
206.5
 23
-9.58371534222716
 33
0
  0
SOLID
  5
8C
100
AcDbEntity
  8
Dimensions (cut)
  6
ByBlock
 62
    0
370
   -2
100
AcDbTrace
 10
181
 20
-10
 30
0
 11
183.5
 21
-9.58371534222716
 31
0
 12
183.5
 22
-10.41628465777284
 32
0
 13
183.5
 23
-10.41628465777284
 33
0
  0
MTEXT
  5
8D
100
AcDbEntity
  8
Dimensions (cut)
  6
CONTINUOUS
 62
    0
370
   -2
100
AcDbMText
 10
195
 20
-8.125
 30
0
 40
2.5
 41
3.055555555555556
 71
    5
 72
    1
  1
28
  7
standard
210
0
220
0
230
1
 50
360
 73
    2
 44
1
  0
LINE
  5
8E
100
AcDbEntity
  8
Dimensions (cut)
  6
ByBlock
 62
    0
370
   -2
100
AcDbLine
 10
209
 20
17.87500139942378
 11
209
 21
-11.25
  0
LINE
  5
8F
100
AcDbEntity
  8
Dimensions (cut)
  6
ByBlock
 62
    0
370
   -2
100
AcDbLine
 10
181
 20
17.875
 11
181
 21
-11.25
  0
ENDBLK
  5
64
330
62
100
AcDbEntity
  8
0
100
AcDbBlockEnd
  0
BLOCK
  5
66
330
65
100
AcDbEntity
  8
0
100
AcDbBlockBegin
  2
*D1
 70
    1
 10
0
 20
0
  3
*D1
  1

  0
LINE
  5
90
100
AcDbEntity
  8
Dimensions (drill)
  6
ByBlock
 62
    0
370
   -2
100
AcDbLine
 10
250
 20
141
 11
242.5
 21
141
  0
SOLID
  5
91
100
AcDbEntity
  8
Dimensions (drill)
  6
ByBlock
 62
    0
370
   -2
100
AcDbTrace
 10
250
 20
141
 30
0
 11
247.5
 21
140.5837153422272
 31
0
 12
247.5
 22
141.4162846577728
 32
0
 13
247.5
 23
141.4162846577728
 33
0
  0
SOLID
  5
92
100
AcDbEntity
  8
Dimensions (drill)
  6
ByBlock
 62
    0
370
   -2
100
AcDbTrace
 10
242.5
 20
141
 30
0
 11
245
 21
141.4162846577728
 31
0
 12
245
 22
140.5837153422272
 32
0
 13
245
 23
140.5837153422272
 33
0
  0
MTEXT
  5
93
100
AcDbEntity
  8
Dimensions (drill)
  6
CONTINUOUS
 62
    0
370
   -2
100
AcDbMText
 10
246.25
 20
142.875
 30
0
 40
2.5
 41
3.888888888889044
 71
    5
 72
    1
  1
7.5
  7
standard
210
0
220
0
230
1
 50
360
 73
    2
 44
1
  0
LINE
  5
94
100
AcDbEntity
  8
Dimensions (drill)
  6
ByBlock
 62
    0
370
   -2
100
AcDbLine
 10
250
 20
131.625
 11
250
 21
142.25
  0
LINE
  5
95
100
AcDbEntity
  8
Dimensions (drill)
  6
ByBlock
 62
    0
370
   -2
100
AcDbLine
 10
242.5
 20
119.625
 11
242.5
 21
142.25
  0
ENDBLK
  5
67
330
65
100
AcDbEntity
  8
0
100
AcDbBlockEnd
  0
BLOCK
  5
69
330
68
100
AcDbEntity
  8
0
100
AcDbBlockBegin
  2
*D3
 70
    1
 10
0
 20
0
  3
*D3
  1

  0
LINE
  5
96
100
AcDbEntity
  8
Dimensions (drill)
  6
ByBlock
 62
    0
370
   -2
100
AcDbLine
 10
237.4088311754569
 20
124.0911688245432
 11
247.5911688245431
 21
113.9088311754568
  0
SOLID
  5
97
100
AcDbEntity
  8
Dimensions (drill)
  6
ByBlock
 62
    0
370
   -2
100
AcDbTrace
 10
240.9443650813896
 20
120.5556349186104
 30
0
 11
238.8822404240082
 21
122.0290441671617
 31
0
 12
239.4709558328383
 22
122.6177595759919
 32
0
 13
239.4709558328383
 23
122.6177595759919
 33
0
  0
SOLID
  5
98
100
AcDbEntity
  8
Dimensions (drill)
  6
ByBlock
 62
    0
370
   -2
100
AcDbTrace
 10
244.0556349186104
 20
117.4443650813896
 30
0
 11
246.1177595759918
 21
115.9709558328383
 31
0
 12
245.5290441671617
 22
115.3822404240081
 32
0
 13
245.5290441671617
 23
115.3822404240081
 33
0
  0
MTEXT
  5
99
100
AcDbEntity
  8
Dimensions (drill)
  6
CONTINUOUS
 62
    0
370
   -2
100
AcDbMText
 10
253.4591730156399
 20
110.6924774138095
 30
0
 40
2.5
 41
21.59722222222257
 71
    5
 72
    1
  1
M4 clearance
  7
standard
210
0
220
0
230
1
 50
314.9999999999997
 73
    2
 44
1
  0
ENDBLK
  5
6A
330
68
100
AcDbEntity
  8
0
100
AcDbBlockEnd
  0
BLOCK
  5
6C
330
6B
100
AcDbEntity
  8
0
100
AcDbBlockBegin
  2
*D8
 70
    1
 10
0
 20
0
  3
*D8
  1

  0
LINE
  5
9A
100
AcDbEntity
  8
Dimensions (drill)
  6
ByBlock
 62
    0
370
   -2
100
AcDbLine
 10
260
 20
3.552713678800501e-15
 11
260
 21
25.5
  0
SOLID
  5
9B
100
AcDbEntity
  8
Dimensions (drill)
  6
ByBlock
 62
    0
370
   -2
100
AcDbTrace
 10
260
 20
3.552713678800501e-15
 30
0
 11
259.5837153422272
 21
2.500000000000004
 31
0
 12
260.4162846577728
 22
2.500000000000004
 32
0
 13
260.4162846577728
 23
2.500000000000004
 33
0
  0
SOLID
  5
9C
100
AcDbEntity
  8
Dimensions (drill)
  6
ByBlock
 62
    0
370
   -2
100
AcDbTrace
 10
260
 20
25.5
 30
0
 11
260.4162846577728
 21
23
 31
0
 12
259.5837153422272
 22
23
 32
0
 13
259.5837153422272
 23
23
 33
0
  0
MTEXT
  5
9D
100
AcDbEntity
  8
Dimensions (drill)
  6
CONTINUOUS
 62
    0
370
   -2
100
AcDbMText
 10
258.125
 20
12.75
 30
0
 40
2.5
 41
5.833333333333645
 71
    5
 72
    1
  1
25.5
  7
standard
210
0
220
0
230
1
 50
90
 73
    2
 44
1
  0
LINE
  5
9E
100
AcDbEntity
  8
Dimensions (drill)
  6
ByBlock
 62
    0
370
   -2
100
AcDbLine
 10
250.625
 20
2.775557561562891e-16
 11
261.25
 21
4.107825191113079e-15
  0
LINE
  5
9F
100
AcDbEntity
  8
Dimensions (drill)
  6
ByBlock
 62
    0
370
   -2
100
AcDbLine
 10
215.625
 20
25.5
 11
261.25
 21
25.5
  0
ENDBLK
  5
6D
330
6B
100
AcDbEntity
  8
0
100
AcDbBlockEnd
  0
BLOCK
  5
6F
330
6E
100
AcDbEntity
  8
0
100
AcDbBlockBegin
  2
*D2
 70
    1
 10
0
 20
0
  3
*D2
  1

  0
LINE
  5
A0
100
AcDbEntity
  8
Dimensions (drill)
  6
ByBlock
 62
    0
370
   -2
100
AcDbLine
 10
260
 20
131
 11
260
 21
119
  0
SOLID
  5
A1
100
AcDbEntity
  8
Dimensions (drill)
  6
ByBlock
 62
    0
370
   -2
100
AcDbTrace
 10
260
 20
131
 30
0
 11
260.4162846577728
 21
128.5
 31
0
 12
259.5837153422272
 22
128.5
 32
0
 13
259.5837153422272
 23
128.5
 33
0
  0
SOLID
  5
A2
100
AcDbEntity
  8
Dimensions (drill)
  6
ByBlock
 62
    0
370
   -2
100
AcDbTrace
 10
260
 20
119
 30
0
 11
259.5837153422272
 21
121.5
 31
0
 12
260.4162846577728
 22
121.5
 32
0
 13
260.4162846577728
 23
121.5
 33
0
  0
MTEXT
  5
A3
100
AcDbEntity
  8
Dimensions (drill)
  6
CONTINUOUS
 62
    0
370
   -2
100
AcDbMText
 10
258.125
 20
125
 30
0
 40
2.5
 41
2.5
 71
    5
 72
    1
  1
12
  7
standard
210
0
220
0
230
1
 50
90
 73
    2
 44
1
  0
LINE
  5
A4
100
AcDbEntity
  8
Dimensions (drill)
  6
ByBlock
 62
    0
370
   -2
100
AcDbLine
 10
250.625
 20
131
 11
261.25
 21
131
  0
LINE
  5
A5
100
AcDbEntity
  8
Dimensions (drill)
  6
ByBlock
 62
    0
370
   -2
100
AcDbLine
 10
243.125
 20
119
 11
261.25
 21
119
  0
ENDBLK
  5
70
330
6E
100
AcDbEntity
  8
0
100
AcDbBlockEnd
  0
BLOCK
  5
72
330
71
100
AcDbEntity
  8
0
100
AcDbBlockBegin
  2
*D7
 70
    1
 10
0
 20
0
  3
*D7
  1

  0
LINE
  5
A6
100
AcDbEntity
  8
Dimensions (cut)
  6
ByBlock
 62
    0
370
   -2
100
AcDbLine
 10
270
 20
15
 11
270
 21
35.99999999999999
  0
SOLID
  5
A7
100
AcDbEntity
  8
Dimensions (cut)
  6
ByBlock
 62
    0
370
   -2
100
AcDbTrace
 10
270
 20
15
 30
0
 11
269.5837153422272
 21
17.5
 31
0
 12
270.4162846577728
 22
17.5
 32
0
 13
270.4162846577728
 23
17.5
 33
0
  0
SOLID
  5
A8
100
AcDbEntity
  8
Dimensions (cut)
  6
ByBlock
 62
    0
370
   -2
100
AcDbTrace
 10
270
 20
35.99999999999999
 30
0
 11
270.4162846577728
 21
33.49999999999999
 31
0
 12
269.5837153422272
 22
33.49999999999999
 32
0
 13
269.5837153422272
 23
33.49999999999999
 33
0
  0
MTEXT
  5
A9
100
AcDbEntity
  8
Dimensions (cut)
  6
CONTINUOUS
 62
    0
370
   -2
100
AcDbMText
 10
268.125
 20
25.49999999999999
 30
0
 40
2.5
 41
2.5
 71
    5
 72
    1
  1
21
  7
standard
210
0
220
0
230
1
 50
90
 73
    2
 44
1
  0
LINE
  5
AA
100
AcDbEntity
  8
Dimensions (cut)
  6
ByBlock
 62
    0
370
   -2
100
AcDbLine
 10
206.125
 20
15
 11
271.25
 21
15
  0
LINE
  5
AB
100
AcDbEntity
  8
Dimensions (cut)
  6
ByBlock
 62
    0
370
   -2
100
AcDbLine
 10
206.1249961275677
 20
35.99999999999999
 11
271.25
 21
35.99999999999999
  0
ENDBLK
  5
73
330
71
100
AcDbEntity
  8
0
100
AcDbBlockEnd
  0
BLOCK
  5
75
330
74
100
AcDbEntity
  8
0
100
AcDbBlockBegin
  2
*D4
 70
    1
 10
0
 20
0
  3
*D4
  1

  0
LINE
  5
AC
100
AcDbEntity
  8
Dimensions (cut)
  6
ByBlock
 62
    0
370
   -2
100
AcDbLine
 10
250
 20
-10
 11
209
 21
-10
  0
SOLID
  5
AD
100
AcDbEntity
  8
Dimensions (cut)
  6
ByBlock
 62
    0
370
   -2
100
AcDbTrace
 10
250
 20
-10
 30
0
 11
247.5
 21
-10.41628465777284
 31
0
 12
247.5
 22
-9.58371534222716
 32
0
 13
247.5
 23
-9.58371534222716
 33
0
  0
SOLID
  5
AE
100
AcDbEntity
  8
Dimensions (cut)
  6
ByBlock
 62
    0
370
   -2
100
AcDbTrace
 10
209
 20
-10
 30
0
 11
211.5
 21
-9.58371534222716
 31
0
 12
211.5
 22
-10.41628465777284
 32
0
 13
211.5
 23
-10.41628465777284
 33
0
  0
MTEXT
  5
AF
100
AcDbEntity
  8
Dimensions (cut)
  6
CONTINUOUS
 62
    0
370
   -2
100
AcDbMText
 10
229.5
 20
-8.125
 30
0
 40
2.5
 41
2.777777777777778
 71
    5
 72
    1
  1
41
  7
standard
210
0
220
0
230
1
 50
360
 73
    2
 44
1
  0
LINE
  5
B0
100
AcDbEntity
  8
Dimensions (cut)
  6
ByBlock
 62
    0
370
   -2
100
AcDbLine
 10
250
 20
-0.625
 11
250
 21
-11.25
  0
LINE
  5
B1
100
AcDbEntity
  8
Dimensions (cut)
  6
ByBlock
 62
    0
370
   -2
100
AcDbLine
 10
209
 20
17.87500139942378
 11
209
 21
-11.25
  0
ENDBLK
  5
76
330
74
100
AcDbEntity
  8
0
100
AcDbBlockEnd
  0
BLOCK
  5
78
330
77
100
AcDbEntity
  8
0
100
AcDbBlockBegin
  2
*D6
 70
    1
 10
0
 20
0
  3
*D6
  1

  0
LINE
  5
B2
100
AcDbEntity
  8
Dimensions (cut)
  6
ByBlock
 62
    0
370
   -2
100
AcDbLine
 10
270
 20
0
 11
270
 21
15
  0
SOLID
  5
B3
100
AcDbEntity
  8
Dimensions (cut)
  6
ByBlock
 62
    0
370
   -2
100
AcDbTrace
 10
270
 20
0
 30
0
 11
269.5837153422272
 21
2.5
 31
0
 12
270.4162846577728
 22
2.5
 32
0
 13
270.4162846577728
 23
2.5
 33
0
  0
SOLID
  5
B4
100
AcDbEntity
  8
Dimensions (cut)
  6
ByBlock
 62
    0
370
   -2
100
AcDbTrace
 10
270
 20
15
 30
0
 11
270.4162846577728
 21
12.5
 31
0
 12
269.5837153422272
 22
12.5
 32
0
 13
269.5837153422272
 23
12.5
 33
0
  0
MTEXT
  5
B5
100
AcDbEntity
  8
Dimensions (cut)
  6
CONTINUOUS
 62
    0
370
   -2
100
AcDbMText
 10
268.125
 20
7.5
 30
0
 40
2.5
 41
2.500000000000155
 71
    5
 72
    1
  1
15
  7
standard
210
0
220
0
230
1
 50
90
 73
    2
 44
1
  0
LINE
  5
B6
100
AcDbEntity
  8
Dimensions (cut)
  6
ByBlock
 62
    0
370
   -2
100
AcDbLine
 10
250.625
 20
0
 11
271.25
 21
0
  0
LINE
  5
B7
100
AcDbEntity
  8
Dimensions (cut)
  6
ByBlock
 62
    0
370
   -2
100
AcDbLine
 10
206.125
 20
15
 11
271.25
 21
15
  0
ENDBLK
  5
79
330
77
100
AcDbEntity
  8
0
100
AcDbBlockEnd
  0
BLOCK
  5
7B
330
7A
100
AcDbEntity
  8
0
100
AcDbBlockBegin
  2
*D9
 70
    1
 10
0
 20
0
  3
*D9
  1

  0
LINE
  5
B8
100
AcDbEntity
  8
Dimensions (drill)
  6
ByBlock
 62
    0
370
   -2
100
AcDbLine
 10
250
 20
-20
 11
215
 21
-20
  0
SOLID
  5
B9
100
AcDbEntity
  8
Dimensions (drill)
  6
ByBlock
 62
    0
370
   -2
100
AcDbTrace
 10
250
 20
-20
 30
0
 11
247.5
 21
-20.41628465777284
 31
0
 12
247.5
 22
-19.58371534222716
 32
0
 13
247.5
 23
-19.58371534222716
 33
0
  0
SOLID
  5
BA
100
AcDbEntity
  8
Dimensions (drill)
  6
ByBlock
 62
    0
370
   -2
100
AcDbTrace
 10
215
 20
-20
 30
0
 11
217.5
 21
-19.58371534222716
 31
0
 12
217.5
 22
-20.41628465777284
 32
0
 13
217.5
 23
-20.41628465777284
 33
0
  0
MTEXT
  5
BB
100
AcDbEntity
  8
Dimensions (drill)
  6
CONTINUOUS
 62
    0
370
   -2
100
AcDbMText
 10
232.5
 20
-18.125
 30
0
 40
2.5
 41
3.055555555555866
 71
    5
 72
    1
  1
35
  7
standard
210
0
220
0
230
1
 50
360
 73
    2
 44
1
  0
LINE
  5
BC
100
AcDbEntity
  8
Dimensions (drill)
  6
ByBlock
 62
    0
370
   -2
100
AcDbLine
 10
250
 20
-0.625
 11
250
 21
-21.25
  0
LINE
  5
BD
100
AcDbEntity
  8
Dimensions (drill)
  6
ByBlock
 62
    0
370
   -2
100
AcDbLine
 10
215
 20
24.875
 11
215
 21
-21.25
  0
ENDBLK
  5
7C
330
7A
100
AcDbEntity
  8
0
100
AcDbBlockEnd
  0
ENDSEC
  0
SECTION
  2
ENTITIES
  0
LWPOLYLINE
  5
BE
100
AcDbEntity
  8
Chassis cut
  6
ByLayer
 62
  256
370
   -1
100
AcDbPolyline
 90
    5
 70
    1
 43
0
 10
0
 20
0
 10
250
 20
0
 10
250
 20
131
 10
0
 20
131
 10
0
 20
131
  0
LWPOLYLINE
  5
BF
100
AcDbEntity
  8
Chassis
  6
ByLayer
 62
  256
370
   -1
100
AcDbPolyline
 90
    4
 70
    1
 43
0
 10
-1
 20
-2
 10
251
 20
-2
 10
251
 20
133
 10
-1
 20
133
  0
LWPOLYLINE
  5
C0
100
AcDbEntity
  8
Chassis
  6
ByLayer
 62
  256
370
   -1
100
AcDbPolyline
 90
    4
 70
    1
 43
0
 10
232
 20
126
 10
18
 20
126
 10
18
 20
5
 10
232
 20
5
  0
LINE
  5
C1
100
AcDbEntity
  8
Chassis
  6
ByLayer
 62
  256
370
   -1
100
AcDbLine
 10
5.500000000000001
 20
121
 11
9.5
 21
117
  0
LINE
  5
C2
100
AcDbEntity
  8
Chassis
  6
ByLayer
 62
  256
370
   -1
100
AcDbLine
 10
9.5
 20
14
 11
5.500000000000002
 21
10
  0
LINE
  5
C3
100
AcDbEntity
  8
Chassis
  6
ByLayer
 62
  256
370
   -1
100
AcDbLine
 10
5.500000000000002
 20
14
 11
9.5
 21
10
  0
LINE
  5
C4
100
AcDbEntity
  8
Chassis
  6
ByLayer
 62
  256
370
   -1
100
AcDbLine
 10
9.5
 20
121
 11
5.500000000000001
 21
117
  0
CIRCLE
  5
C5
100
AcDbEntity
  8
Chassis cut
  6
ByLayer
 62
  256
370
   -1
100
AcDbCircle
 10
7.500000000000001
 20
119
 40
2.2
  0
CIRCLE
  5
C6
100
AcDbEntity
  8
Chassis cut
  6
ByLayer
 62
  256
370
   -1
100
AcDbCircle
 10
7.500000000000001
 20
12
 40
2.2
  0
LINE
  5
C7
100
AcDbEntity
  8
Chassis
  6
ByLayer
 62
  256
370
   -1
100
AcDbLine
 10
244.5
 20
14
 11
240.5
 21
10
  0
LINE
  5
C8
100
AcDbEntity
  8
Chassis
  6
ByLayer
 62
  256
370
   -1
100
AcDbLine
 10
240.5
 20
14
 11
244.5
 21
10
  0
LINE
  5
C9
100
AcDbEntity
  8
Chassis
  6
ByLayer
 62
  256
370
   -1
100
AcDbLine
 10
244.5
 20
121
 11
240.5
 21
117
  0
LINE
  5
CA
100
AcDbEntity
  8
Chassis
  6
ByLayer
 62
  256
370
   -1
100
AcDbLine
 10
240.5
 20
121
 11
244.5
 21
117
  0
CIRCLE
  5
CB
100
AcDbEntity
  8
Chassis cut
  6
ByLayer
 62
  256
370
   -1
100
AcDbCircle
 10
242.5
 20
119
 40
2.2
  0
CIRCLE
  5
CC
100
AcDbEntity
  8
Chassis cut
  6
ByLayer
 62
  256
370
   -1
100
AcDbCircle
 10
242.5
 20
12
 40
2.2
  0
DIMENSION
  5
CD
100
AcDbEntity
  8
Dimensions (drill)
  6
ByLayer
 62
  256
370
   -1
100
AcDbDimension
  2
*D1
 10
242.5
 20
141
 30
0
 11
246.25
 21
142.875
 31
0
 70
   32
 71
    5
  3
Standard
 53
0
210
0
220
0
230
1
100
AcDbAlignedDimension
 13
250
 23
131
 33
0
 14
242.5
 24
119
 34
0
100
AcDbRotatedDimension
  0
DIMENSION
  5
CE
100
AcDbEntity
  8
Dimensions (drill)
  6
ByLayer
 62
  256
370
   -1
100
AcDbDimension
  2
*D2
 10
260
 20
119
 30
0
 11
258.125
 21
125
 31
0
 70
   32
 71
    5
  3
Standard
 53
0
210
0
220
0
230
1
100
AcDbAlignedDimension
 13
250
 23
131
 33
0
 14
242.5
 24
119
 34
0
 50
90
100
AcDbRotatedDimension
  0
DIMENSION
  5
CF
100
AcDbEntity
  8
Dimensions (drill)
  6
ByLayer
 62
  256
370
   -1
100
AcDbDimension
  2
*D3
 10
240.9443650813896
 20
120.5556349186104
 30
0
 11
243.8258252147248
 21
120.3258252147248
 31
0
 70
   35
  1
M4 clearance
 71
    5
  3
Standard
 53
0
210
0
220
0
230
1
100
AcDbDiametricDimension
 15
244.0556349186104
 25
117.4443650813896
 35
0
 40
0
  0
LINE
  5
D0
100
AcDbEntity
  8
temp
  6
ByLayer
 62
  256
370
   -1
100
AcDbLine
 10
181
 20
36
 11
191
 21
36
  0
LINE
  5
D1
100
AcDbEntity
  8
temp
  6
ByLayer
 62
  256
370
   -1
100
AcDbLine
 10
181
 20
36
 11
181
 21
46
  0
LINE
  5
D2
100
AcDbEntity
  8
temp
  6
ByLayer
 62
  256
370
   -1
100
AcDbLine
 10
181
 20
15
 11
191
 21
15
  0
LINE
  5
D3
100
AcDbEntity
  8
temp
  6
ByLayer
 62
  256
370
   -1
100
AcDbLine
 10
209
 20
36
 11
209
 21
46
  0
ARC
  5
D4
100
AcDbEntity
  8
AC socket cut
  6
ByLayer
 62
  256
370
   -1
100
AcDbCircle
 10
184.5
 20
32.5
 40
3.5
100
AcDbArc
 50
90
 51
180
  0
ARC
  5
D5
100
AcDbEntity
  8
AC socket cut
  6
ByLayer
 62
  256
370
   -1
100
AcDbCircle
 10
205.5
 20
32.5
 40
3.5
100
AcDbArc
 50
0
 51
90
  0
ARC
  5
D6
100
AcDbEntity
  8
AC socket cut
  6
ByLayer
 62
  256
370
   -1
100
AcDbCircle
 10
205.5
 20
18.5
 40
3.5
100
AcDbArc
 50
270
 51
0
  0
ARC
  5
D7
100
AcDbEntity
  8
AC socket cut
  6
ByLayer
 62
  256
370
   -1
100
AcDbCircle
 10
184.5
 20
18.5
 40
3.5
100
AcDbArc
 50
180
 51
270
  0
LINE
  5
D8
100
AcDbEntity
  8
AC socket cut
  6
ByLayer
 62
  256
370
   -1
100
AcDbLine
 10
181
 20
32.50000152632032
 11
181
 21
18.49999785431237
  0
LINE
  5
D9
100
AcDbEntity
  8
AC socket cut
  6
ByLayer
 62
  256
370
   -1
100
AcDbLine
 10
184.49999948785
 20
15
 11
205.4999960172348
 21
15
  0
LINE
  5
DA
100
AcDbEntity
  8
AC socket cut
  6
ByLayer
 62
  256
370
   -1
100
AcDbLine
 10
209
 20
18.49999617823542
 11
209
 21
32.50000347144193
  0
LINE
  5
DB
100
AcDbEntity
  8
AC socket cut
  6
ByLayer
 62
  256
370
   -1
100
AcDbLine
 10
184.5
 20
36
 11
205.5
 21
36
  0
LINE
  5
DC
100
AcDbEntity
  8
temp
  6
ByLayer
 62
  256
370
   -1
100
AcDbLine
 10
195
 20
25.5
 11
205
 21
25.5
  0
LINE
  5
DD
100
AcDbEntity
  8
temp
  6
ByLayer
 62
  256
370
   -1
100
AcDbLine
 10
175
 20
29
 11
175
 21
39
  0
LINE
  5
DE
100
AcDbEntity
  8
temp
  6
ByLayer
 62
  256
370
   -1
100
AcDbLine
 10
215
 20
29
 11
215
 21
39
  0
LINE
  5
DF
100
AcDbEntity
  8
AC socket
  6
ByLayer
 62
  256
370
   -1
100
AcDbLine
 10
173
 20
27.50000000000001
 11
177
 21
23.50000000000001
  0
LINE
  5
E0
100
AcDbEntity
  8
AC socket
  6
ByLayer
 62
  256
370
   -1
100
AcDbLine
 10
177
 20
27.50000000000001
 11
173
 21
23.50000000000001
  0
LINE
  5
E1
100
AcDbEntity
  8
AC socket
  6
ByLayer
 62
  256
370
   -1
100
AcDbLine
 10
213
 20
27.5
 11
217
 21
23.5
  0
LINE
  5
E2
100
AcDbEntity
  8
AC socket
  6
ByLayer
 62
  256
370
   -1
100
AcDbLine
 10
217
 20
27.5
 11
213
 21
23.5
  0
CIRCLE
  5
E3
100
AcDbEntity
  8
AC socket cut
  6
ByLayer
 62
  256
370
   -1
100
AcDbCircle
 10
175
 20
25.5
 40
1.75
  0
CIRCLE
  5
E4
100
AcDbEntity
  8
AC socket cut
  6
ByLayer
 62
  256
370
   -1
100
AcDbCircle
 10
215
 20
25.5
 40
1.75
  0
LINE
  5
E5
100
AcDbEntity
  8
temp
  6
ByLayer
 62
  256
370
   -1
100
AcDbLine
 10
195
 20
25.5
 11
195
 21
35.5
  0
LINE
  5
E6
100
AcDbEntity
  8
temp
  6
ByLayer
 62
  256
370
   -1
100
AcDbLine
 10
125
 20
30
 11
125
 21
40
  0
LINE
  5
E7
100
AcDbEntity
  8
temp
  6
ByLayer
 62
  256
370
   -1
100
AcDbLine
 10
135
 20
42
 11
135
 21
52
  0
LINE
  5
E8
100
AcDbEntity
  8
temp
  6
ByLayer
 62
  256
370
   -1
100
AcDbLine
 10
115
 20
43
 11
115
 21
53
  0
LWPOLYLINE
  5
E9
100
AcDbEntity
  8
Fan
  6
ByLayer
 62
  256
370
   -1
100
AcDbPolyline
 90
    4
 70
    1
 43
0
 10
33
 20
111
 10
93
 20
111
 10
93
 20
51
 10
33
 20
51
  0
LINE
  5
EA
100
AcDbEntity
  8
Fan
  6
ByLayer
 62
  256
370
   -1
100
AcDbLine
 10
36
 20
108
 11
40
 21
104
  0
LINE
  5
EB
100
AcDbEntity
  8
Fan
  6
ByLayer
 62
  256
370
   -1
100
AcDbLine
 10
40
 20
108
 11
36
 21
104
  0
LINE
  5
EC
100
AcDbEntity
  8
Fan
  6
ByLayer
 62
  256
370
   -1
100
AcDbLine
 10
86
 20
108
 11
90
 21
104
  0
LINE
  5
ED
100
AcDbEntity
  8
Fan
  6
ByLayer
 62
  256
370
   -1
100
AcDbLine
 10
90
 20
108
 11
86
 21
104
  0
LINE
  5
EE
100
AcDbEntity
  8
Fan
  6
ByLayer
 62
  256
370
   -1
100
AcDbLine
 10
86
 20
58
 11
90
 21
54
  0
LINE
  5
EF
100
AcDbEntity
  8
Fan
  6
ByLayer
 62
  256
370
   -1
100
AcDbLine
 10
90
 20
58
 11
86
 21
54
  0
LINE
  5
F0
100
AcDbEntity
  8
Fan
  6
ByLayer
 62
  256
370
   -1
100
AcDbLine
 10
36
 20
58
 11
40
 21
54
  0
LINE
  5
F1
100
AcDbEntity
  8
Fan
  6
ByLayer
 62
  256
370
   -1
100
AcDbLine
 10
40
 20
58
 11
36
 21
54
  0
CIRCLE
  5
F2
100
AcDbEntity
  8
Fan cut
  6
ByLayer
 62
  256
370
   -1
100
AcDbCircle
 10
38
 20
106
 40
2.2
  0
CIRCLE
  5
F3
100
AcDbEntity
  8
Fan cut
  6
ByLayer
 62
  256
370
   -1
100
AcDbCircle
 10
88
 20
106
 40
2.2
  0
CIRCLE
  5
F4
100
AcDbEntity
  8
Fan cut
  6
ByLayer
 62
  256
370
   -1
100
AcDbCircle
 10
88
 20
56
 40
2.2
  0
CIRCLE
  5
F5
100
AcDbEntity
  8
Fan cut
  6
ByLayer
 62
  256
370
   -1
100
AcDbCircle
 10
38
 20
56
 40
2.2
  0
LINE
  5
F6
100
AcDbEntity
  8
Vent construction
  6
ByLayer
 62
  256
370
   -1
100
AcDbLine
 10
41
 20
62
 11
48.07106781186548
 21
69.07106781186548
  0
LINE
  5
F7
100
AcDbEntity
  8
Vent construction
  6
ByLayer
 62
  256
370
   -1
100
AcDbLine
 10
44
 20
59
 11
51.07106781186548
 21
66.07106781186548
  0
LINE
  5
F8
100
AcDbEntity
  8
Vent construction
  6
ByLayer
 62
  256
370
   -1
100
AcDbLine
 10
37
 20
66
 11
44.07106781186548
 21
73.07106781186548
  0
LINE
  5
F9
100
AcDbEntity
  8
Vent construction
  6
ByLayer
 62
  256
370
   -1
100
AcDbLine
 10
34
 20
69
 11
41.07106781186548
 21
76.07106781186548
  0
LINE
  5
FA
100
AcDbEntity
  8
Vent construction
  6
ByLayer
 62
  256
370
   -1
100
AcDbLine
 10
30
 20
73
 11
37.07106781186548
 21
80.07106781186548
  0
LINE
  5
FB
100
AcDbEntity
  8
Vent construction
  6
ByLayer
 62
  256
370
   -1
100
AcDbLine
 10
27
 20
76
 11
34.07106781186548
 21
83.07106781186548
  0
LINE
  5
FC
100
AcDbEntity
  8
Vent construction
  6
ByLayer
 62
  256
370
   -1
100
AcDbLine
 10
23
 20
80
 11
30.07106781186548
 21
87.07106781186548
  0
LINE
  5
FD
100
AcDbEntity
  8
Vent construction
  6
ByLayer
 62
  256
370
   -1
100
AcDbLine
 10
48
 20
55
 11
55.07106781186548
 21
62.07106781186548
  0
LINE
  5
FE
100
AcDbEntity
  8
Vent construction
  6
ByLayer
 62
  256
370
   -1
100
AcDbLine
 10
51
 20
52
 11
58.07106781186548
 21
59.07106781186548
  0
LINE
  5
FF
100
AcDbEntity
  8
Vent construction
  6
ByLayer
 62
  256
370
   -1
100
AcDbLine
 10
55
 20
48
 11
62.07106781186548
 21
55.07106781186548
  0
LINE
  5
100
100
AcDbEntity
  8
Vent construction
  6
ByLayer
 62
  256
370
   -1
100
AcDbLine
 10
62
 20
41
 11
69.07106781186548
 21
48.07106781186548
  0
LINE
  5
101
100
AcDbEntity
  8
Vent construction
  6
ByLayer
 62
  256
370
   -1
100
AcDbLine
 10
58
 20
45
 11
65.07106781186548
 21
52.07106781186548
  0
LINE
  5
102
100
AcDbEntity
  8
Vent boundary
  6
ByLayer
 62
  256
370
   -1
100
AcDbLine
 10
51
 20
110
 11
75
 21
110
  0
LINE
  5
103
100
AcDbEntity
  8
Vent boundary
  6
ByLayer
 62
  256
370
   -1
100
AcDbLine
 10
75
 20
110
 11
92
 21
93
  0
LINE
  5
104
100
AcDbEntity
  8
Vent boundary
  6
ByLayer
 62
  256
370
   -1
100
AcDbLine
 10
92
 20
93
 11
92
 21
69
  0
LINE
  5
105
100
AcDbEntity
  8
Vent boundary
  6
ByLayer
 62
  256
370
   -1
100
AcDbLine
 10
92
 20
69
 11
75
 21
52
  0
LINE
  5
106
100
AcDbEntity
  8
Vent boundary
  6
ByLayer
 62
  256
370
   -1
100
AcDbLine
 10
75
 20
52
 11
51
 21
52
  0
LINE
  5
107
100
AcDbEntity
  8
Vent boundary
  6
ByLayer
 62
  256
370
   -1
100
AcDbLine
 10
51
 20
52
 11
34
 21
69
  0
LINE
  5
108
100
AcDbEntity
  8
Vent boundary
  6
ByLayer
 62
  256
370
   -1
100
AcDbLine
 10
34
 20
69
 11
34
 21
93
  0
LINE
  5
109
100
AcDbEntity
  8
Vent boundary
  6
ByLayer
 62
  256
370
   -1
100
AcDbLine
 10
34
 20
93
 11
51
 21
110
  0
LINE
  5
10A
100
AcDbEntity
  8
Vent cut
  6
ByLayer
 62
  256
370
   -1
100
AcDbLine
 10
52.99999999999999
 20
110
 11
34
 21
91.00000000000001
  0
LINE
  5
10B
100
AcDbEntity
  8
Vent cut
  6
ByLayer
 62
  256
370
   -1
100
AcDbLine
 10
34
 20
91.00000000000001
 11
34
 21
83.00000000000001
  0
LINE
  5
10C
100
AcDbEntity
  8
Vent cut
  6
ByLayer
 62
  256
370
   -1
100
AcDbLine
 10
34
 20
83.00000000000001
 11
61
 21
110
  0
LINE
  5
10D
100
AcDbEntity
  8
Vent cut
  6
ByLayer
 62
  256
370
   -1
100
AcDbLine
 10
61
 20
110
 11
53
 21
110
  0
LINE
  5
10E
100
AcDbEntity
  8
Vent cut
  6
ByLayer
 62
  256
370
   -1
100
AcDbLine
 10
67
 20
110
 11
34
 21
77
  0
LINE
  5
10F
100
AcDbEntity
  8
Vent cut
  6
ByLayer
 62
  256
370
   -1
100
AcDbLine
 10
34
 20
77
 11
34
 21
69
  0
LINE
  5
110
100
AcDbEntity
  8
Vent cut
  6
ByLayer
 62
  256
370
   -1
100
AcDbLine
 10
34
 20
69
 11
75
 21
110
  0
LINE
  5
111
100
AcDbEntity
  8
Vent cut
  6
ByLayer
 62
  256
370
   -1
100
AcDbLine
 10
75
 20
110
 11
67
 21
110
  0
LINE
  5
112
100
AcDbEntity
  8
Vent cut
  6
ByLayer
 62
  256
370
   -1
100
AcDbLine
 10
78
 20
107
 11
37.00000000000001
 21
66
  0
LINE
  5
113
100
AcDbEntity
  8
Vent cut
  6
ByLayer
 62
  256
370
   -1
100
AcDbLine
 10
37.00000000000001
 20
66
 11
41.00000000000001
 21
61.99999999999999
  0
LINE
  5
114
100
AcDbEntity
  8
Vent cut
  6
ByLayer
 62
  256
370
   -1
100
AcDbLine
 10
41.00000000000001
 20
61.99999999999999
 11
82
 21
103
  0
LINE
  5
115
100
AcDbEntity
  8
Vent cut
  6
ByLayer
 62
  256
370
   -1
100
AcDbLine
 10
82
 20
103
 11
78.00000000000001
 21
107
  0
LINE
  5
116
100
AcDbEntity
  8
Vent cut
  6
ByLayer
 62
  256
370
   -1
100
AcDbLine
 10
84.99999999999999
 20
100
 11
44
 21
59
  0
LINE
  5
117
100
AcDbEntity
  8
Vent cut
  6
ByLayer
 62
  256
370
   -1
100
AcDbLine
 10
44
 20
59
 11
48
 21
55
  0
LINE
  5
118
100
AcDbEntity
  8
Vent cut
  6
ByLayer
 62
  256
370
   -1
100
AcDbLine
 10
48
 20
55
 11
88.99999999999999
 21
96.00000000000001
  0
LINE
  5
119
100
AcDbEntity
  8
Vent cut
  6
ByLayer
 62
  256
370
   -1
100
AcDbLine
 10
88.99999999999999
 20
96.00000000000001
 11
85
 21
100
  0
LINE
  5
11A
100
AcDbEntity
  8
Vent cut
  6
ByLayer
 62
  256
370
   -1
100
AcDbLine
 10
92
 20
93
 11
51
 21
52
  0
LINE
  5
11B
100
AcDbEntity
  8
Vent cut
  6
ByLayer
 62
  256
370
   -1
100
AcDbLine
 10
51
 20
52
 11
59
 21
52
  0
LINE
  5
11C
100
AcDbEntity
  8
Vent cut
  6
ByLayer
 62
  256
370
   -1
100
AcDbLine
 10
59
 20
52
 11
92
 21
85
  0
LINE
  5
11D
100
AcDbEntity
  8
Vent cut
  6
ByLayer
 62
  256
370
   -1
100
AcDbLine
 10
92
 20
85
 11
92
 21
93
  0
LINE
  5
11E
100
AcDbEntity
  8
Vent cut
  6
ByLayer
 62
  256
370
   -1
100
AcDbLine
 10
92
 20
79.00000000000001
 11
65
 21
52
  0
LINE
  5
11F
100
AcDbEntity
  8
Vent cut
  6
ByLayer
 62
  256
370
   -1
100
AcDbLine
 10
65
 20
52
 11
73
 21
52
  0
LINE
  5
120
100
AcDbEntity
  8
Vent cut
  6
ByLayer
 62
  256
370
   -1
100
AcDbLine
 10
73
 20
52
 11
92
 21
71
  0
LINE
  5
121
100
AcDbEntity
  8
Vent cut
  6
ByLayer
 62
  256
370
   -1
100
AcDbLine
 10
92
 20
71
 11
92
 21
79.00000000000003
  0
LWPOLYLINE
  5
122
100
AcDbEntity
  8
Fan
  6
ByLayer
 62
  256
370
   -1
100
AcDbPolyline
 90
    4
 70
    1
 43
0
 10
157
 20
111
 10
217
 20
111
 10
217
 20
51
 10
157
 20
51
  0
LINE
  5
123
100
AcDbEntity
  8
Fan
  6
ByLayer
 62
  256
370
   -1
100
AcDbLine
 10
160
 20
108
 11
164
 21
104
  0
LINE
  5
124
100
AcDbEntity
  8
Fan
  6
ByLayer
 62
  256
370
   -1
100
AcDbLine
 10
164
 20
108
 11
160
 21
104
  0
LINE
  5
125
100
AcDbEntity
  8
Fan
  6
ByLayer
 62
  256
370
   -1
100
AcDbLine
 10
210
 20
108
 11
214
 21
104
  0
LINE
  5
126
100
AcDbEntity
  8
Fan
  6
ByLayer
 62
  256
370
   -1
100
AcDbLine
 10
214
 20
108
 11
210
 21
104
  0
LINE
  5
127
100
AcDbEntity
  8
Fan
  6
ByLayer
 62
  256
370
   -1
100
AcDbLine
 10
210
 20
58
 11
214
 21
54
  0
LINE
  5
128
100
AcDbEntity
  8
Fan
  6
ByLayer
 62
  256
370
   -1
100
AcDbLine
 10
214
 20
58
 11
210
 21
54
  0
LINE
  5
129
100
AcDbEntity
  8
Fan
  6
ByLayer
 62
  256
370
   -1
100
AcDbLine
 10
160
 20
58
 11
164
 21
54
  0
LINE
  5
12A
100
AcDbEntity
  8
Fan
  6
ByLayer
 62
  256
370
   -1
100
AcDbLine
 10
164
 20
58
 11
160
 21
54
  0
CIRCLE
  5
12B
100
AcDbEntity
  8
Fan cut
  6
ByLayer
 62
  256
370
   -1
100
AcDbCircle
 10
162
 20
106
 40
2.2
  0
CIRCLE
  5
12C
100
AcDbEntity
  8
Fan cut
  6
ByLayer
 62
  256
370
   -1
100
AcDbCircle
 10
212
 20
106
 40
2.2
  0
CIRCLE
  5
12D
100
AcDbEntity
  8
Fan cut
  6
ByLayer
 62
  256
370
   -1
100
AcDbCircle
 10
212
 20
56
 40
2.2
  0
CIRCLE
  5
12E
100
AcDbEntity
  8
Fan cut
  6
ByLayer
 62
  256
370
   -1
100
AcDbCircle
 10
162
 20
56
 40
2.2
  0
LINE
  5
12F
100
AcDbEntity
  8
Vent construction
  6
ByLayer
 62
  256
370
   -1
100
AcDbLine
 10
165
 20
62
 11
172.0710678118655
 21
69.07106781186548
  0
LINE
  5
130
100
AcDbEntity
  8
Vent construction
  6
ByLayer
 62
  256
370
   -1
100
AcDbLine
 10
168
 20
59
 11
175.0710678118655
 21
66.07106781186548
  0
LINE
  5
131
100
AcDbEntity
  8
Vent construction
  6
ByLayer
 62
  256
370
   -1
100
AcDbLine
 10
161
 20
66
 11
168.0710678118655
 21
73.07106781186548
  0
LINE
  5
132
100
AcDbEntity
  8
Vent construction
  6
ByLayer
 62
  256
370
   -1
100
AcDbLine
 10
158
 20
69
 11
165.0710678118655
 21
76.07106781186548
  0
LINE
  5
133
100
AcDbEntity
  8
Vent construction
  6
ByLayer
 62
  256
370
   -1
100
AcDbLine
 10
154
 20
73
 11
161.0710678118655
 21
80.07106781186548
  0
LINE
  5
134
100
AcDbEntity
  8
Vent construction
  6
ByLayer
 62
  256
370
   -1
100
AcDbLine
 10
151
 20
76
 11
158.0710678118655
 21
83.07106781186548
  0
LINE
  5
135
100
AcDbEntity
  8
Vent construction
  6
ByLayer
 62
  256
370
   -1
100
AcDbLine
 10
147
 20
80
 11
154.0710678118655
 21
87.07106781186548
  0
LINE
  5
136
100
AcDbEntity
  8
Vent construction
  6
ByLayer
 62
  256
370
   -1
100
AcDbLine
 10
172
 20
55
 11
179.0710678118655
 21
62.07106781186548
  0
LINE
  5
137
100
AcDbEntity
  8
Vent construction
  6
ByLayer
 62
  256
370
   -1
100
AcDbLine
 10
175
 20
52
 11
182.0710678118655
 21
59.07106781186548
  0
LINE
  5
138
100
AcDbEntity
  8
Vent construction
  6
ByLayer
 62
  256
370
   -1
100
AcDbLine
 10
179
 20
48
 11
186.0710678118655
 21
55.07106781186548
  0
LINE
  5
139
100
AcDbEntity
  8
Vent construction
  6
ByLayer
 62
  256
370
   -1
100
AcDbLine
 10
186
 20
41
 11
193.0710678118655
 21
48.07106781186548
  0
LINE
  5
13A
100
AcDbEntity
  8
Vent construction
  6
ByLayer
 62
  256
370
   -1
100
AcDbLine
 10
182
 20
45
 11
189.0710678118655
 21
52.07106781186548
  0
LINE
  5
13B
100
AcDbEntity
  8
Vent boundary
  6
ByLayer
 62
  256
370
   -1
100
AcDbLine
 10
175
 20
110
 11
199
 21
110
  0
LINE
  5
13C
100
AcDbEntity
  8
Vent boundary
  6
ByLayer
 62
  256
370
   -1
100
AcDbLine
 10
199
 20
110
 11
216
 21
93
  0
LINE
  5
13D
100
AcDbEntity
  8
Vent boundary
  6
ByLayer
 62
  256
370
   -1
100
AcDbLine
 10
216
 20
93
 11
216
 21
69
  0
LINE
  5
13E
100
AcDbEntity
  8
Vent boundary
  6
ByLayer
 62
  256
370
   -1
100
AcDbLine
 10
216
 20
69
 11
199
 21
52
  0
LINE
  5
13F
100
AcDbEntity
  8
Vent boundary
  6
ByLayer
 62
  256
370
   -1
100
AcDbLine
 10
199
 20
52
 11
175
 21
52
  0
LINE
  5
140
100
AcDbEntity
  8
Vent boundary
  6
ByLayer
 62
  256
370
   -1
100
AcDbLine
 10
175
 20
52
 11
158
 21
69
  0
LINE
  5
141
100
AcDbEntity
  8
Vent boundary
  6
ByLayer
 62
  256
370
   -1
100
AcDbLine
 10
158
 20
69
 11
158
 21
93
  0
LINE
  5
142
100
AcDbEntity
  8
Vent boundary
  6
ByLayer
 62
  256
370
   -1
100
AcDbLine
 10
158
 20
93
 11
175
 21
110
  0
LINE
  5
143
100
AcDbEntity
  8
Vent cut
  6
ByLayer
 62
  256
370
   -1
100
AcDbLine
 10
177
 20
110
 11
158
 21
91.00000000000001
  0
LINE
  5
144
100
AcDbEntity
  8
Vent cut
  6
ByLayer
 62
  256
370
   -1
100
AcDbLine
 10
158
 20
91.00000000000001
 11
158
 21
83.00000000000001
  0
LINE
  5
145
100
AcDbEntity
  8
Vent cut
  6
ByLayer
 62
  256
370
   -1
100
AcDbLine
 10
158
 20
83.00000000000001
 11
185
 21
110
  0
LINE
  5
146
100
AcDbEntity
  8
Vent cut
  6
ByLayer
 62
  256
370
   -1
100
AcDbLine
 10
185
 20
110
 11
177
 21
110
  0
LINE
  5
147
100
AcDbEntity
  8
Vent cut
  6
ByLayer
 62
  256
370
   -1
100
AcDbLine
 10
191
 20
110
 11
158
 21
77
  0
LINE
  5
148
100
AcDbEntity
  8
Vent cut
  6
ByLayer
 62
  256
370
   -1
100
AcDbLine
 10
158
 20
77
 11
158
 21
69
  0
LINE
  5
149
100
AcDbEntity
  8
Vent cut
  6
ByLayer
 62
  256
370
   -1
100
AcDbLine
 10
158
 20
69
 11
199
 21
110
  0
LINE
  5
14A
100
AcDbEntity
  8
Vent cut
  6
ByLayer
 62
  256
370
   -1
100
AcDbLine
 10
199
 20
110
 11
191
 21
110
  0
LINE
  5
14B
100
AcDbEntity
  8
Vent cut
  6
ByLayer
 62
  256
370
   -1
100
AcDbLine
 10
202
 20
107
 11
161
 21
66
  0
LINE
  5
14C
100
AcDbEntity
  8
Vent cut
  6
ByLayer
 62
  256
370
   -1
100
AcDbLine
 10
161
 20
66
 11
165
 21
61.99999999999999
  0
LINE
  5
14D
100
AcDbEntity
  8
Vent cut
  6
ByLayer
 62
  256
370
   -1
100
AcDbLine
 10
165
 20
61.99999999999999
 11
206
 21
103
  0
LINE
  5
14E
100
AcDbEntity
  8
Vent cut
  6
ByLayer
 62
  256
370
   -1
100
AcDbLine
 10
206
 20
103
 11
202
 21
107
  0
LINE
  5
14F
100
AcDbEntity
  8
Vent cut
  6
ByLayer
 62
  256
370
   -1
100
AcDbLine
 10
209
 20
100
 11
168
 21
59
  0
LINE
  5
150
100
AcDbEntity
  8
Vent cut
  6
ByLayer
 62
  256
370
   -1
100
AcDbLine
 10
168
 20
59
 11
172
 21
55
  0
LINE
  5
151
100
AcDbEntity
  8
Vent cut
  6
ByLayer
 62
  256
370
   -1
100
AcDbLine
 10
172
 20
55
 11
213
 21
96.00000000000001
  0
LINE
  5
152
100
AcDbEntity
  8
Vent cut
  6
ByLayer
 62
  256
370
   -1
100
AcDbLine
 10
213
 20
96.00000000000001
 11
209
 21
100
  0
LINE
  5
153
100
AcDbEntity
  8
Vent cut
  6
ByLayer
 62
  256
370
   -1
100
AcDbLine
 10
216
 20
93
 11
175
 21
52
  0
LINE
  5
154
100
AcDbEntity
  8
Vent cut
  6
ByLayer
 62
  256
370
   -1
100
AcDbLine
 10
175
 20
52
 11
183
 21
52
  0
LINE
  5
155
100
AcDbEntity
  8
Vent cut
  6
ByLayer
 62
  256
370
   -1
100
AcDbLine
 10
183
 20
52
 11
216
 21
85
  0
LINE
  5
156
100
AcDbEntity
  8
Vent cut
  6
ByLayer
 62
  256
370
   -1
100
AcDbLine
 10
216
 20
85
 11
216
 21
93
  0
LINE
  5
157
100
AcDbEntity
  8
Vent cut
  6
ByLayer
 62
  256
370
   -1
100
AcDbLine
 10
216
 20
79.00000000000001
 11
189
 21
52
  0
LINE
  5
158
100
AcDbEntity
  8
Vent cut
  6
ByLayer
 62
  256
370
   -1
100
AcDbLine
 10
189
 20
52
 11
197
 21
52
  0
LINE
  5
159
100
AcDbEntity
  8
Vent cut
  6
ByLayer
 62
  256
370
   -1
100
AcDbLine
 10
197
 20
52
 11
216
 21
71
  0
LINE
  5
15A
100
AcDbEntity
  8
Vent cut
  6
ByLayer
 62
  256
370
   -1
100
AcDbLine
 10
216
 20
71
 11
216
 21
79.00000000000003
  0
DIMENSION
  5
15B
100
AcDbEntity
  8
Dimensions (cut)
  6
ByLayer
 62
  256
370
   -1
100
AcDbDimension
  2
*D4
 10
209
 20
-10
 30
0
 11
229.5
 21
-8.125
 31
0
 70
   32
 71
    5
  3
Standard
 53
0
210
0
220
0
230
1
100
AcDbAlignedDimension
 13
250
 23
0
 33
0
 14
209
 24
18.50000139942378
 34
0
100
AcDbRotatedDimension
  0
DIMENSION
  5
15C
100
AcDbEntity
  8
Dimensions (cut)
  6
ByLayer
 62
  256
370
   -1
100
AcDbDimension
  2
*D5
 10
181
 20
-10
 30
0
 11
195
 21
-8.125
 31
0
 70
   32
 71
    5
  3
Standard
 53
0
210
0
220
0
230
1
100
AcDbAlignedDimension
 13
209
 23
18.50000139942378
 33
0
 14
181
 24
18.5
 34
0
100
AcDbRotatedDimension
  0
DIMENSION
  5
15D
100
AcDbEntity
  8
Dimensions (cut)
  6
ByLayer
 62
  256
370
   -1
100
AcDbDimension
  2
*D6
 10
270
 20
14.99999999999999
 30
0
 11
268.125
 21
7.5
 31
0
 70
   32
 71
    5
  3
Standard
 53
0
210
0
220
0
230
1
100
AcDbAlignedDimension
 13
250
 23
0
 33
0
 14
205.5
 24
15
 34
0
 50
90
100
AcDbRotatedDimension
  0
DIMENSION
  5
15E
100
AcDbEntity
  8
Dimensions (cut)
  6
ByLayer
 62
  256
370
   -1
100
AcDbDimension
  2
*D7
 10
270
 20
35.99999999999998
 30
0
 11
268.125
 21
25.49999999999999
 31
0
 70
   32
 71
    5
  3
Standard
 53
0
210
0
220
0
230
1
100
AcDbAlignedDimension
 13
205.5
 23
15
 33
0
 14
205.4999961275677
 24
35.99999999999999
 34
0
 50
90
100
AcDbRotatedDimension
  0
DIMENSION
  5
15F
100
AcDbEntity
  8
Dimensions (drill)
  6
ByLayer
 62
  256
370
   -1
100
AcDbDimension
  2
*D8
 10
260
 20
25.5
 30
0
 11
258.125
 21
12.75
 31
0
 70
   32
 71
    5
  3
Standard
 53
0
210
0
220
0
230
1
100
AcDbAlignedDimension
 13
250
 23
0
 33
0
 14
215
 24
25.5
 34
0
 50
90
100
AcDbRotatedDimension
  0
DIMENSION
  5
160
100
AcDbEntity
  8
Dimensions (drill)
  6
ByLayer
 62
  256
370
   -1
100
AcDbDimension
  2
*D9
 10
215
 20
-20
 30
0
 11
232.5
 21
-18.125
 31
0
 70
   32
 71
    5
  3
Standard
 53
0
210
0
220
0
230
1
100
AcDbAlignedDimension
 13
250
 23
0
 33
0
 14
215
 24
25.5
 34
0
100
AcDbRotatedDimension
  0
DIMENSION
  5
161
100
AcDbEntity
  8
Dimensions (drill)
  6
ByLayer
 62
  256
370
   -1
100
AcDbDimension
  2
*D10
 10
175
 20
-20
 30
0
 11
195
 21
-18.125
 31
0
 70
   32
 71
    5
  3
Standard
 53
0
210
0
220
0
230
1
100
AcDbAlignedDimension
 13
215
 23
25.5
 33
0
 14
175
 24
25.5
 34
0
100
AcDbRotatedDimension
  0
DIMENSION
  5
162
100
AcDbEntity
  8
Dimensions (cut)
  6
ByLayer
 62
  256
370
   -1
100
AcDbDimension
  2
*D11
 10
184.5
 20
32.5
 30
0
 11
180.2082546752982
 21
39.44339575415135
 31
0
 70
   36
 71
    5
  3
Standard
 53
0
210
0
220
0
230
1
100
AcDbRadialDimension
 15
182.0251262658471
 25
34.97487373415292
 35
0
 40
0
  0
DIMENSION
  5
163
100
AcDbEntity
  8
Dimensions (drill)
  6
ByLayer
 62
  256
370
   -1
100
AcDbDimension
  2
*D12
 10
173.7625631329235
 20
26.73743686707646
 30
0
 11
176.3258252147248
 21
26.82582521472479
 31
0
 70
   35
  1
M3 clearance
 71
    5
  3
Standard
 53
0
210
0
220
0
230
1
100
AcDbDiametricDimension
 15
176.2374368670765
 25
24.26256313292355
 35
0
 40
0
  0
ENDSEC
  0
SECTION
  2
OBJECTS
  0
DICTIONARY
  5
C
330
0
100
AcDbDictionary
281
    1
  3
ACAD_GROUP
350
D
  0
DICTIONARY
  5
D
330
C
100
AcDbDictionary
281
    1
  0
ENDSEC
  0
EOF
