G04 #@! TF.FileFunction,Legend,Top*
%FSLAX46Y46*%
G04 Gerber Fmt 4.6, Leading zero omitted, Abs format (unit mm)*
G04 Created by KiCad (PCBNEW 4.0.7) date Tue Jan 30 12:06:56 2018*
%MOMM*%
%LPD*%
G01*
G04 APERTURE LIST*
%ADD10C,0.100000*%
%ADD11C,0.200000*%
%ADD12C,0.150000*%
%ADD13R,1.700000X1.700000*%
%ADD14O,1.700000X1.700000*%
%ADD15C,2.100000*%
%ADD16C,1.750000*%
%ADD17C,1.500000*%
%ADD18R,1.800000X1.800000*%
%ADD19O,1.800000X1.800000*%
%ADD20C,8.600000*%
%ADD21C,2.500000*%
%ADD22C,2.200000*%
%ADD23C,3.500000*%
%ADD24C,1.600000*%
G04 APERTURE END LIST*
D10*
D11*
X122301000Y-69596000D02*
X121412000Y-68707000D01*
X122301000Y-69596000D02*
X121666000Y-69596000D01*
X122301000Y-69596000D02*
X122301000Y-68961000D01*
X126619000Y-73914000D02*
X127889000Y-75184000D01*
X126619000Y-73914000D02*
X127254000Y-73914000D01*
X126619000Y-73914000D02*
X126619000Y-74549000D01*
D12*
X126300000Y-92450000D02*
X138700000Y-92450000D01*
X138700000Y-92450000D02*
X138700000Y-103550000D01*
X126300000Y-103550000D02*
X138700000Y-103550000D01*
X126300000Y-92450000D02*
X126300000Y-103550000D01*
X123833095Y-66762381D02*
X124404524Y-66762381D01*
X124118809Y-67762381D02*
X124118809Y-66762381D01*
X124737857Y-67762381D02*
X124737857Y-66762381D01*
X125118810Y-66762381D01*
X125214048Y-66810000D01*
X125261667Y-66857619D01*
X125309286Y-66952857D01*
X125309286Y-67095714D01*
X125261667Y-67190952D01*
X125214048Y-67238571D01*
X125118810Y-67286190D01*
X124737857Y-67286190D01*
X126261667Y-67762381D02*
X125690238Y-67762381D01*
X125975952Y-67762381D02*
X125975952Y-66762381D01*
X125880714Y-66905238D01*
X125785476Y-67000476D01*
X125690238Y-67048095D01*
X123833095Y-61682381D02*
X124404524Y-61682381D01*
X124118809Y-62682381D02*
X124118809Y-61682381D01*
X124737857Y-62682381D02*
X124737857Y-61682381D01*
X125118810Y-61682381D01*
X125214048Y-61730000D01*
X125261667Y-61777619D01*
X125309286Y-61872857D01*
X125309286Y-62015714D01*
X125261667Y-62110952D01*
X125214048Y-62158571D01*
X125118810Y-62206190D01*
X124737857Y-62206190D01*
X125690238Y-61777619D02*
X125737857Y-61730000D01*
X125833095Y-61682381D01*
X126071191Y-61682381D01*
X126166429Y-61730000D01*
X126214048Y-61777619D01*
X126261667Y-61872857D01*
X126261667Y-61968095D01*
X126214048Y-62110952D01*
X125642619Y-62682381D01*
X126261667Y-62682381D01*
X130183095Y-88987381D02*
X130754524Y-88987381D01*
X130468809Y-89987381D02*
X130468809Y-88987381D01*
X131087857Y-89987381D02*
X131087857Y-88987381D01*
X131468810Y-88987381D01*
X131564048Y-89035000D01*
X131611667Y-89082619D01*
X131659286Y-89177857D01*
X131659286Y-89320714D01*
X131611667Y-89415952D01*
X131564048Y-89463571D01*
X131468810Y-89511190D01*
X131087857Y-89511190D01*
X131992619Y-88987381D02*
X132611667Y-88987381D01*
X132278333Y-89368333D01*
X132421191Y-89368333D01*
X132516429Y-89415952D01*
X132564048Y-89463571D01*
X132611667Y-89558810D01*
X132611667Y-89796905D01*
X132564048Y-89892143D01*
X132516429Y-89939762D01*
X132421191Y-89987381D01*
X132135476Y-89987381D01*
X132040238Y-89939762D01*
X131992619Y-89892143D01*
X142248095Y-101687381D02*
X142819524Y-101687381D01*
X142533809Y-102687381D02*
X142533809Y-101687381D01*
X143152857Y-102687381D02*
X143152857Y-101687381D01*
X143533810Y-101687381D01*
X143629048Y-101735000D01*
X143676667Y-101782619D01*
X143724286Y-101877857D01*
X143724286Y-102020714D01*
X143676667Y-102115952D01*
X143629048Y-102163571D01*
X143533810Y-102211190D01*
X143152857Y-102211190D01*
X144581429Y-102020714D02*
X144581429Y-102687381D01*
X144343333Y-101639762D02*
X144105238Y-102354048D01*
X144724286Y-102354048D01*
X119467381Y-29201905D02*
X119467381Y-28630476D01*
X120467381Y-28916191D02*
X119467381Y-28916191D01*
X120467381Y-28297143D02*
X119467381Y-28297143D01*
X119467381Y-27916190D01*
X119515000Y-27820952D01*
X119562619Y-27773333D01*
X119657857Y-27725714D01*
X119800714Y-27725714D01*
X119895952Y-27773333D01*
X119943571Y-27820952D01*
X119991190Y-27916190D01*
X119991190Y-28297143D01*
X119467381Y-26820952D02*
X119467381Y-27297143D01*
X119943571Y-27344762D01*
X119895952Y-27297143D01*
X119848333Y-27201905D01*
X119848333Y-26963809D01*
X119895952Y-26868571D01*
X119943571Y-26820952D01*
X120038810Y-26773333D01*
X120276905Y-26773333D01*
X120372143Y-26820952D01*
X120419762Y-26868571D01*
X120467381Y-26963809D01*
X120467381Y-27201905D01*
X120419762Y-27297143D01*
X120372143Y-27344762D01*
X114387381Y-29201905D02*
X114387381Y-28630476D01*
X115387381Y-28916191D02*
X114387381Y-28916191D01*
X115387381Y-28297143D02*
X114387381Y-28297143D01*
X114387381Y-27916190D01*
X114435000Y-27820952D01*
X114482619Y-27773333D01*
X114577857Y-27725714D01*
X114720714Y-27725714D01*
X114815952Y-27773333D01*
X114863571Y-27820952D01*
X114911190Y-27916190D01*
X114911190Y-28297143D01*
X114387381Y-26868571D02*
X114387381Y-27059048D01*
X114435000Y-27154286D01*
X114482619Y-27201905D01*
X114625476Y-27297143D01*
X114815952Y-27344762D01*
X115196905Y-27344762D01*
X115292143Y-27297143D01*
X115339762Y-27249524D01*
X115387381Y-27154286D01*
X115387381Y-26963809D01*
X115339762Y-26868571D01*
X115292143Y-26820952D01*
X115196905Y-26773333D01*
X114958810Y-26773333D01*
X114863571Y-26820952D01*
X114815952Y-26868571D01*
X114768333Y-26963809D01*
X114768333Y-27154286D01*
X114815952Y-27249524D01*
X114863571Y-27297143D01*
X114958810Y-27344762D01*
X128913095Y-52792381D02*
X129484524Y-52792381D01*
X129198809Y-53792381D02*
X129198809Y-52792381D01*
X129817857Y-53792381D02*
X129817857Y-52792381D01*
X130198810Y-52792381D01*
X130294048Y-52840000D01*
X130341667Y-52887619D01*
X130389286Y-52982857D01*
X130389286Y-53125714D01*
X130341667Y-53220952D01*
X130294048Y-53268571D01*
X130198810Y-53316190D01*
X129817857Y-53316190D01*
X130722619Y-52792381D02*
X131389286Y-52792381D01*
X130960714Y-53792381D01*
X128913095Y-41362381D02*
X129484524Y-41362381D01*
X129198809Y-42362381D02*
X129198809Y-41362381D01*
X129817857Y-42362381D02*
X129817857Y-41362381D01*
X130198810Y-41362381D01*
X130294048Y-41410000D01*
X130341667Y-41457619D01*
X130389286Y-41552857D01*
X130389286Y-41695714D01*
X130341667Y-41790952D01*
X130294048Y-41838571D01*
X130198810Y-41886190D01*
X129817857Y-41886190D01*
X130960714Y-41790952D02*
X130865476Y-41743333D01*
X130817857Y-41695714D01*
X130770238Y-41600476D01*
X130770238Y-41552857D01*
X130817857Y-41457619D01*
X130865476Y-41410000D01*
X130960714Y-41362381D01*
X131151191Y-41362381D01*
X131246429Y-41410000D01*
X131294048Y-41457619D01*
X131341667Y-41552857D01*
X131341667Y-41600476D01*
X131294048Y-41695714D01*
X131246429Y-41743333D01*
X131151191Y-41790952D01*
X130960714Y-41790952D01*
X130865476Y-41838571D01*
X130817857Y-41886190D01*
X130770238Y-41981429D01*
X130770238Y-42171905D01*
X130817857Y-42267143D01*
X130865476Y-42314762D01*
X130960714Y-42362381D01*
X131151191Y-42362381D01*
X131246429Y-42314762D01*
X131294048Y-42267143D01*
X131341667Y-42171905D01*
X131341667Y-41981429D01*
X131294048Y-41886190D01*
X131246429Y-41838571D01*
X131151191Y-41790952D01*
X106688095Y-87717381D02*
X107259524Y-87717381D01*
X106973809Y-88717381D02*
X106973809Y-87717381D01*
X107592857Y-88717381D02*
X107592857Y-87717381D01*
X107973810Y-87717381D01*
X108069048Y-87765000D01*
X108116667Y-87812619D01*
X108164286Y-87907857D01*
X108164286Y-88050714D01*
X108116667Y-88145952D01*
X108069048Y-88193571D01*
X107973810Y-88241190D01*
X107592857Y-88241190D01*
X108640476Y-88717381D02*
X108830952Y-88717381D01*
X108926191Y-88669762D01*
X108973810Y-88622143D01*
X109069048Y-88479286D01*
X109116667Y-88288810D01*
X109116667Y-87907857D01*
X109069048Y-87812619D01*
X109021429Y-87765000D01*
X108926191Y-87717381D01*
X108735714Y-87717381D01*
X108640476Y-87765000D01*
X108592857Y-87812619D01*
X108545238Y-87907857D01*
X108545238Y-88145952D01*
X108592857Y-88241190D01*
X108640476Y-88288810D01*
X108735714Y-88336429D01*
X108926191Y-88336429D01*
X109021429Y-88288810D01*
X109069048Y-88241190D01*
X109116667Y-88145952D01*
X97242381Y-93178095D02*
X97242381Y-92606666D01*
X98242381Y-92892381D02*
X97242381Y-92892381D01*
X98242381Y-92273333D02*
X97242381Y-92273333D01*
X97242381Y-91892380D01*
X97290000Y-91797142D01*
X97337619Y-91749523D01*
X97432857Y-91701904D01*
X97575714Y-91701904D01*
X97670952Y-91749523D01*
X97718571Y-91797142D01*
X97766190Y-91892380D01*
X97766190Y-92273333D01*
X98242381Y-90749523D02*
X98242381Y-91320952D01*
X98242381Y-91035238D02*
X97242381Y-91035238D01*
X97385238Y-91130476D01*
X97480476Y-91225714D01*
X97528095Y-91320952D01*
X97242381Y-90130476D02*
X97242381Y-90035237D01*
X97290000Y-89939999D01*
X97337619Y-89892380D01*
X97432857Y-89844761D01*
X97623333Y-89797142D01*
X97861429Y-89797142D01*
X98051905Y-89844761D01*
X98147143Y-89892380D01*
X98194762Y-89939999D01*
X98242381Y-90035237D01*
X98242381Y-90130476D01*
X98194762Y-90225714D01*
X98147143Y-90273333D01*
X98051905Y-90320952D01*
X97861429Y-90368571D01*
X97623333Y-90368571D01*
X97432857Y-90320952D01*
X97337619Y-90273333D01*
X97290000Y-90225714D01*
X97242381Y-90130476D01*
X113831905Y-99782381D02*
X114403334Y-99782381D01*
X114117619Y-100782381D02*
X114117619Y-99782381D01*
X114736667Y-100782381D02*
X114736667Y-99782381D01*
X115117620Y-99782381D01*
X115212858Y-99830000D01*
X115260477Y-99877619D01*
X115308096Y-99972857D01*
X115308096Y-100115714D01*
X115260477Y-100210952D01*
X115212858Y-100258571D01*
X115117620Y-100306190D01*
X114736667Y-100306190D01*
X116260477Y-100782381D02*
X115689048Y-100782381D01*
X115974762Y-100782381D02*
X115974762Y-99782381D01*
X115879524Y-99925238D01*
X115784286Y-100020476D01*
X115689048Y-100068095D01*
X117212858Y-100782381D02*
X116641429Y-100782381D01*
X116927143Y-100782381D02*
X116927143Y-99782381D01*
X116831905Y-99925238D01*
X116736667Y-100020476D01*
X116641429Y-100068095D01*
X106846905Y-83907381D02*
X107418334Y-83907381D01*
X107132619Y-84907381D02*
X107132619Y-83907381D01*
X107751667Y-84907381D02*
X107751667Y-83907381D01*
X108132620Y-83907381D01*
X108227858Y-83955000D01*
X108275477Y-84002619D01*
X108323096Y-84097857D01*
X108323096Y-84240714D01*
X108275477Y-84335952D01*
X108227858Y-84383571D01*
X108132620Y-84431190D01*
X107751667Y-84431190D01*
X109275477Y-84907381D02*
X108704048Y-84907381D01*
X108989762Y-84907381D02*
X108989762Y-83907381D01*
X108894524Y-84050238D01*
X108799286Y-84145476D01*
X108704048Y-84193095D01*
X109656429Y-84002619D02*
X109704048Y-83955000D01*
X109799286Y-83907381D01*
X110037382Y-83907381D01*
X110132620Y-83955000D01*
X110180239Y-84002619D01*
X110227858Y-84097857D01*
X110227858Y-84193095D01*
X110180239Y-84335952D01*
X109608810Y-84907381D01*
X110227858Y-84907381D01*
X113831905Y-87082381D02*
X114403334Y-87082381D01*
X114117619Y-88082381D02*
X114117619Y-87082381D01*
X114736667Y-88082381D02*
X114736667Y-87082381D01*
X115117620Y-87082381D01*
X115212858Y-87130000D01*
X115260477Y-87177619D01*
X115308096Y-87272857D01*
X115308096Y-87415714D01*
X115260477Y-87510952D01*
X115212858Y-87558571D01*
X115117620Y-87606190D01*
X114736667Y-87606190D01*
X116260477Y-88082381D02*
X115689048Y-88082381D01*
X115974762Y-88082381D02*
X115974762Y-87082381D01*
X115879524Y-87225238D01*
X115784286Y-87320476D01*
X115689048Y-87368095D01*
X116593810Y-87082381D02*
X117212858Y-87082381D01*
X116879524Y-87463333D01*
X117022382Y-87463333D01*
X117117620Y-87510952D01*
X117165239Y-87558571D01*
X117212858Y-87653810D01*
X117212858Y-87891905D01*
X117165239Y-87987143D01*
X117117620Y-88034762D01*
X117022382Y-88082381D01*
X116736667Y-88082381D01*
X116641429Y-88034762D01*
X116593810Y-87987143D01*
X127801905Y-75652381D02*
X128373334Y-75652381D01*
X128087619Y-76652381D02*
X128087619Y-75652381D01*
X128706667Y-76652381D02*
X128706667Y-75652381D01*
X129087620Y-75652381D01*
X129182858Y-75700000D01*
X129230477Y-75747619D01*
X129278096Y-75842857D01*
X129278096Y-75985714D01*
X129230477Y-76080952D01*
X129182858Y-76128571D01*
X129087620Y-76176190D01*
X128706667Y-76176190D01*
X130230477Y-76652381D02*
X129659048Y-76652381D01*
X129944762Y-76652381D02*
X129944762Y-75652381D01*
X129849524Y-75795238D01*
X129754286Y-75890476D01*
X129659048Y-75938095D01*
X131087620Y-75985714D02*
X131087620Y-76652381D01*
X130849524Y-75604762D02*
X130611429Y-76319048D01*
X131230477Y-76319048D01*
X120816905Y-75017381D02*
X121388334Y-75017381D01*
X121102619Y-76017381D02*
X121102619Y-75017381D01*
X121721667Y-76017381D02*
X121721667Y-75017381D01*
X122102620Y-75017381D01*
X122197858Y-75065000D01*
X122245477Y-75112619D01*
X122293096Y-75207857D01*
X122293096Y-75350714D01*
X122245477Y-75445952D01*
X122197858Y-75493571D01*
X122102620Y-75541190D01*
X121721667Y-75541190D01*
X123245477Y-76017381D02*
X122674048Y-76017381D01*
X122959762Y-76017381D02*
X122959762Y-75017381D01*
X122864524Y-75160238D01*
X122769286Y-75255476D01*
X122674048Y-75303095D01*
X124150239Y-75017381D02*
X123674048Y-75017381D01*
X123626429Y-75493571D01*
X123674048Y-75445952D01*
X123769286Y-75398333D01*
X124007382Y-75398333D01*
X124102620Y-75445952D01*
X124150239Y-75493571D01*
X124197858Y-75588810D01*
X124197858Y-75826905D01*
X124150239Y-75922143D01*
X124102620Y-75969762D01*
X124007382Y-76017381D01*
X123769286Y-76017381D01*
X123674048Y-75969762D01*
X123626429Y-75922143D01*
X118911905Y-71842381D02*
X119483334Y-71842381D01*
X119197619Y-72842381D02*
X119197619Y-71842381D01*
X119816667Y-72842381D02*
X119816667Y-71842381D01*
X120197620Y-71842381D01*
X120292858Y-71890000D01*
X120340477Y-71937619D01*
X120388096Y-72032857D01*
X120388096Y-72175714D01*
X120340477Y-72270952D01*
X120292858Y-72318571D01*
X120197620Y-72366190D01*
X119816667Y-72366190D01*
X121340477Y-72842381D02*
X120769048Y-72842381D01*
X121054762Y-72842381D02*
X121054762Y-71842381D01*
X120959524Y-71985238D01*
X120864286Y-72080476D01*
X120769048Y-72128095D01*
X122197620Y-71842381D02*
X122007143Y-71842381D01*
X121911905Y-71890000D01*
X121864286Y-71937619D01*
X121769048Y-72080476D01*
X121721429Y-72270952D01*
X121721429Y-72651905D01*
X121769048Y-72747143D01*
X121816667Y-72794762D01*
X121911905Y-72842381D01*
X122102382Y-72842381D01*
X122197620Y-72794762D01*
X122245239Y-72747143D01*
X122292858Y-72651905D01*
X122292858Y-72413810D01*
X122245239Y-72318571D01*
X122197620Y-72270952D01*
X122102382Y-72223333D01*
X121911905Y-72223333D01*
X121816667Y-72270952D01*
X121769048Y-72318571D01*
X121721429Y-72413810D01*
X118276905Y-67397381D02*
X118848334Y-67397381D01*
X118562619Y-68397381D02*
X118562619Y-67397381D01*
X119181667Y-68397381D02*
X119181667Y-67397381D01*
X119562620Y-67397381D01*
X119657858Y-67445000D01*
X119705477Y-67492619D01*
X119753096Y-67587857D01*
X119753096Y-67730714D01*
X119705477Y-67825952D01*
X119657858Y-67873571D01*
X119562620Y-67921190D01*
X119181667Y-67921190D01*
X120705477Y-68397381D02*
X120134048Y-68397381D01*
X120419762Y-68397381D02*
X120419762Y-67397381D01*
X120324524Y-67540238D01*
X120229286Y-67635476D01*
X120134048Y-67683095D01*
X121038810Y-67397381D02*
X121705477Y-67397381D01*
X121276905Y-68397381D01*
X125261905Y-34377381D02*
X125833334Y-34377381D01*
X125547619Y-35377381D02*
X125547619Y-34377381D01*
X126166667Y-35377381D02*
X126166667Y-34377381D01*
X126547620Y-34377381D01*
X126642858Y-34425000D01*
X126690477Y-34472619D01*
X126738096Y-34567857D01*
X126738096Y-34710714D01*
X126690477Y-34805952D01*
X126642858Y-34853571D01*
X126547620Y-34901190D01*
X126166667Y-34901190D01*
X127690477Y-35377381D02*
X127119048Y-35377381D01*
X127404762Y-35377381D02*
X127404762Y-34377381D01*
X127309524Y-34520238D01*
X127214286Y-34615476D01*
X127119048Y-34663095D01*
X128261905Y-34805952D02*
X128166667Y-34758333D01*
X128119048Y-34710714D01*
X128071429Y-34615476D01*
X128071429Y-34567857D01*
X128119048Y-34472619D01*
X128166667Y-34425000D01*
X128261905Y-34377381D01*
X128452382Y-34377381D01*
X128547620Y-34425000D01*
X128595239Y-34472619D01*
X128642858Y-34567857D01*
X128642858Y-34615476D01*
X128595239Y-34710714D01*
X128547620Y-34758333D01*
X128452382Y-34805952D01*
X128261905Y-34805952D01*
X128166667Y-34853571D01*
X128119048Y-34901190D01*
X128071429Y-34996429D01*
X128071429Y-35186905D01*
X128119048Y-35282143D01*
X128166667Y-35329762D01*
X128261905Y-35377381D01*
X128452382Y-35377381D01*
X128547620Y-35329762D01*
X128595239Y-35282143D01*
X128642858Y-35186905D01*
X128642858Y-34996429D01*
X128595239Y-34901190D01*
X128547620Y-34853571D01*
X128452382Y-34805952D01*
X103671905Y-40092381D02*
X104243334Y-40092381D01*
X103957619Y-41092381D02*
X103957619Y-40092381D01*
X104576667Y-41092381D02*
X104576667Y-40092381D01*
X104957620Y-40092381D01*
X105052858Y-40140000D01*
X105100477Y-40187619D01*
X105148096Y-40282857D01*
X105148096Y-40425714D01*
X105100477Y-40520952D01*
X105052858Y-40568571D01*
X104957620Y-40616190D01*
X104576667Y-40616190D01*
X106100477Y-41092381D02*
X105529048Y-41092381D01*
X105814762Y-41092381D02*
X105814762Y-40092381D01*
X105719524Y-40235238D01*
X105624286Y-40330476D01*
X105529048Y-40378095D01*
X106576667Y-41092381D02*
X106767143Y-41092381D01*
X106862382Y-41044762D01*
X106910001Y-40997143D01*
X107005239Y-40854286D01*
X107052858Y-40663810D01*
X107052858Y-40282857D01*
X107005239Y-40187619D01*
X106957620Y-40140000D01*
X106862382Y-40092381D01*
X106671905Y-40092381D01*
X106576667Y-40140000D01*
X106529048Y-40187619D01*
X106481429Y-40282857D01*
X106481429Y-40520952D01*
X106529048Y-40616190D01*
X106576667Y-40663810D01*
X106671905Y-40711429D01*
X106862382Y-40711429D01*
X106957620Y-40663810D01*
X107005239Y-40616190D01*
X107052858Y-40520952D01*
X103671905Y-75652381D02*
X104243334Y-75652381D01*
X103957619Y-76652381D02*
X103957619Y-75652381D01*
X104576667Y-76652381D02*
X104576667Y-75652381D01*
X104957620Y-75652381D01*
X105052858Y-75700000D01*
X105100477Y-75747619D01*
X105148096Y-75842857D01*
X105148096Y-75985714D01*
X105100477Y-76080952D01*
X105052858Y-76128571D01*
X104957620Y-76176190D01*
X104576667Y-76176190D01*
X105529048Y-75747619D02*
X105576667Y-75700000D01*
X105671905Y-75652381D01*
X105910001Y-75652381D01*
X106005239Y-75700000D01*
X106052858Y-75747619D01*
X106100477Y-75842857D01*
X106100477Y-75938095D01*
X106052858Y-76080952D01*
X105481429Y-76652381D01*
X106100477Y-76652381D01*
X106719524Y-75652381D02*
X106814763Y-75652381D01*
X106910001Y-75700000D01*
X106957620Y-75747619D01*
X107005239Y-75842857D01*
X107052858Y-76033333D01*
X107052858Y-76271429D01*
X107005239Y-76461905D01*
X106957620Y-76557143D01*
X106910001Y-76604762D01*
X106814763Y-76652381D01*
X106719524Y-76652381D01*
X106624286Y-76604762D01*
X106576667Y-76557143D01*
X106529048Y-76461905D01*
X106481429Y-76271429D01*
X106481429Y-76033333D01*
X106529048Y-75842857D01*
X106576667Y-75747619D01*
X106624286Y-75700000D01*
X106719524Y-75652381D01*
X103671905Y-70572381D02*
X104243334Y-70572381D01*
X103957619Y-71572381D02*
X103957619Y-70572381D01*
X104576667Y-71572381D02*
X104576667Y-70572381D01*
X104957620Y-70572381D01*
X105052858Y-70620000D01*
X105100477Y-70667619D01*
X105148096Y-70762857D01*
X105148096Y-70905714D01*
X105100477Y-71000952D01*
X105052858Y-71048571D01*
X104957620Y-71096190D01*
X104576667Y-71096190D01*
X105529048Y-70667619D02*
X105576667Y-70620000D01*
X105671905Y-70572381D01*
X105910001Y-70572381D01*
X106005239Y-70620000D01*
X106052858Y-70667619D01*
X106100477Y-70762857D01*
X106100477Y-70858095D01*
X106052858Y-71000952D01*
X105481429Y-71572381D01*
X106100477Y-71572381D01*
X107052858Y-71572381D02*
X106481429Y-71572381D01*
X106767143Y-71572381D02*
X106767143Y-70572381D01*
X106671905Y-70715238D01*
X106576667Y-70810476D01*
X106481429Y-70858095D01*
X103671905Y-65492381D02*
X104243334Y-65492381D01*
X103957619Y-66492381D02*
X103957619Y-65492381D01*
X104576667Y-66492381D02*
X104576667Y-65492381D01*
X104957620Y-65492381D01*
X105052858Y-65540000D01*
X105100477Y-65587619D01*
X105148096Y-65682857D01*
X105148096Y-65825714D01*
X105100477Y-65920952D01*
X105052858Y-65968571D01*
X104957620Y-66016190D01*
X104576667Y-66016190D01*
X105529048Y-65587619D02*
X105576667Y-65540000D01*
X105671905Y-65492381D01*
X105910001Y-65492381D01*
X106005239Y-65540000D01*
X106052858Y-65587619D01*
X106100477Y-65682857D01*
X106100477Y-65778095D01*
X106052858Y-65920952D01*
X105481429Y-66492381D01*
X106100477Y-66492381D01*
X106481429Y-65587619D02*
X106529048Y-65540000D01*
X106624286Y-65492381D01*
X106862382Y-65492381D01*
X106957620Y-65540000D01*
X107005239Y-65587619D01*
X107052858Y-65682857D01*
X107052858Y-65778095D01*
X107005239Y-65920952D01*
X106433810Y-66492381D01*
X107052858Y-66492381D01*
X101766905Y-32472381D02*
X102338334Y-32472381D01*
X102052619Y-33472381D02*
X102052619Y-32472381D01*
X102671667Y-33472381D02*
X102671667Y-32472381D01*
X103052620Y-32472381D01*
X103147858Y-32520000D01*
X103195477Y-32567619D01*
X103243096Y-32662857D01*
X103243096Y-32805714D01*
X103195477Y-32900952D01*
X103147858Y-32948571D01*
X103052620Y-32996190D01*
X102671667Y-32996190D01*
X103624048Y-32567619D02*
X103671667Y-32520000D01*
X103766905Y-32472381D01*
X104005001Y-32472381D01*
X104100239Y-32520000D01*
X104147858Y-32567619D01*
X104195477Y-32662857D01*
X104195477Y-32758095D01*
X104147858Y-32900952D01*
X103576429Y-33472381D01*
X104195477Y-33472381D01*
X104528810Y-32472381D02*
X105147858Y-32472381D01*
X104814524Y-32853333D01*
X104957382Y-32853333D01*
X105052620Y-32900952D01*
X105100239Y-32948571D01*
X105147858Y-33043810D01*
X105147858Y-33281905D01*
X105100239Y-33377143D01*
X105052620Y-33424762D01*
X104957382Y-33472381D01*
X104671667Y-33472381D01*
X104576429Y-33424762D01*
X104528810Y-33377143D01*
X95416905Y-37552381D02*
X95988334Y-37552381D01*
X95702619Y-38552381D02*
X95702619Y-37552381D01*
X96321667Y-38552381D02*
X96321667Y-37552381D01*
X96702620Y-37552381D01*
X96797858Y-37600000D01*
X96845477Y-37647619D01*
X96893096Y-37742857D01*
X96893096Y-37885714D01*
X96845477Y-37980952D01*
X96797858Y-38028571D01*
X96702620Y-38076190D01*
X96321667Y-38076190D01*
X97274048Y-37647619D02*
X97321667Y-37600000D01*
X97416905Y-37552381D01*
X97655001Y-37552381D01*
X97750239Y-37600000D01*
X97797858Y-37647619D01*
X97845477Y-37742857D01*
X97845477Y-37838095D01*
X97797858Y-37980952D01*
X97226429Y-38552381D01*
X97845477Y-38552381D01*
X98702620Y-37885714D02*
X98702620Y-38552381D01*
X98464524Y-37504762D02*
X98226429Y-38219048D01*
X98845477Y-38219048D01*
X95416905Y-73112381D02*
X95988334Y-73112381D01*
X95702619Y-74112381D02*
X95702619Y-73112381D01*
X96321667Y-74112381D02*
X96321667Y-73112381D01*
X96702620Y-73112381D01*
X96797858Y-73160000D01*
X96845477Y-73207619D01*
X96893096Y-73302857D01*
X96893096Y-73445714D01*
X96845477Y-73540952D01*
X96797858Y-73588571D01*
X96702620Y-73636190D01*
X96321667Y-73636190D01*
X97274048Y-73207619D02*
X97321667Y-73160000D01*
X97416905Y-73112381D01*
X97655001Y-73112381D01*
X97750239Y-73160000D01*
X97797858Y-73207619D01*
X97845477Y-73302857D01*
X97845477Y-73398095D01*
X97797858Y-73540952D01*
X97226429Y-74112381D01*
X97845477Y-74112381D01*
X98750239Y-73112381D02*
X98274048Y-73112381D01*
X98226429Y-73588571D01*
X98274048Y-73540952D01*
X98369286Y-73493333D01*
X98607382Y-73493333D01*
X98702620Y-73540952D01*
X98750239Y-73588571D01*
X98797858Y-73683810D01*
X98797858Y-73921905D01*
X98750239Y-74017143D01*
X98702620Y-74064762D01*
X98607382Y-74112381D01*
X98369286Y-74112381D01*
X98274048Y-74064762D01*
X98226429Y-74017143D01*
X95416905Y-68032381D02*
X95988334Y-68032381D01*
X95702619Y-69032381D02*
X95702619Y-68032381D01*
X96321667Y-69032381D02*
X96321667Y-68032381D01*
X96702620Y-68032381D01*
X96797858Y-68080000D01*
X96845477Y-68127619D01*
X96893096Y-68222857D01*
X96893096Y-68365714D01*
X96845477Y-68460952D01*
X96797858Y-68508571D01*
X96702620Y-68556190D01*
X96321667Y-68556190D01*
X97274048Y-68127619D02*
X97321667Y-68080000D01*
X97416905Y-68032381D01*
X97655001Y-68032381D01*
X97750239Y-68080000D01*
X97797858Y-68127619D01*
X97845477Y-68222857D01*
X97845477Y-68318095D01*
X97797858Y-68460952D01*
X97226429Y-69032381D01*
X97845477Y-69032381D01*
X98702620Y-68032381D02*
X98512143Y-68032381D01*
X98416905Y-68080000D01*
X98369286Y-68127619D01*
X98274048Y-68270476D01*
X98226429Y-68460952D01*
X98226429Y-68841905D01*
X98274048Y-68937143D01*
X98321667Y-68984762D01*
X98416905Y-69032381D01*
X98607382Y-69032381D01*
X98702620Y-68984762D01*
X98750239Y-68937143D01*
X98797858Y-68841905D01*
X98797858Y-68603810D01*
X98750239Y-68508571D01*
X98702620Y-68460952D01*
X98607382Y-68413333D01*
X98416905Y-68413333D01*
X98321667Y-68460952D01*
X98274048Y-68508571D01*
X98226429Y-68603810D01*
X95416905Y-62952381D02*
X95988334Y-62952381D01*
X95702619Y-63952381D02*
X95702619Y-62952381D01*
X96321667Y-63952381D02*
X96321667Y-62952381D01*
X96702620Y-62952381D01*
X96797858Y-63000000D01*
X96845477Y-63047619D01*
X96893096Y-63142857D01*
X96893096Y-63285714D01*
X96845477Y-63380952D01*
X96797858Y-63428571D01*
X96702620Y-63476190D01*
X96321667Y-63476190D01*
X97274048Y-63047619D02*
X97321667Y-63000000D01*
X97416905Y-62952381D01*
X97655001Y-62952381D01*
X97750239Y-63000000D01*
X97797858Y-63047619D01*
X97845477Y-63142857D01*
X97845477Y-63238095D01*
X97797858Y-63380952D01*
X97226429Y-63952381D01*
X97845477Y-63952381D01*
X98178810Y-62952381D02*
X98845477Y-62952381D01*
X98416905Y-63952381D01*
X95416905Y-32472381D02*
X95988334Y-32472381D01*
X95702619Y-33472381D02*
X95702619Y-32472381D01*
X96321667Y-33472381D02*
X96321667Y-32472381D01*
X96702620Y-32472381D01*
X96797858Y-32520000D01*
X96845477Y-32567619D01*
X96893096Y-32662857D01*
X96893096Y-32805714D01*
X96845477Y-32900952D01*
X96797858Y-32948571D01*
X96702620Y-32996190D01*
X96321667Y-32996190D01*
X97274048Y-32567619D02*
X97321667Y-32520000D01*
X97416905Y-32472381D01*
X97655001Y-32472381D01*
X97750239Y-32520000D01*
X97797858Y-32567619D01*
X97845477Y-32662857D01*
X97845477Y-32758095D01*
X97797858Y-32900952D01*
X97226429Y-33472381D01*
X97845477Y-33472381D01*
X98416905Y-32900952D02*
X98321667Y-32853333D01*
X98274048Y-32805714D01*
X98226429Y-32710476D01*
X98226429Y-32662857D01*
X98274048Y-32567619D01*
X98321667Y-32520000D01*
X98416905Y-32472381D01*
X98607382Y-32472381D01*
X98702620Y-32520000D01*
X98750239Y-32567619D01*
X98797858Y-32662857D01*
X98797858Y-32710476D01*
X98750239Y-32805714D01*
X98702620Y-32853333D01*
X98607382Y-32900952D01*
X98416905Y-32900952D01*
X98321667Y-32948571D01*
X98274048Y-32996190D01*
X98226429Y-33091429D01*
X98226429Y-33281905D01*
X98274048Y-33377143D01*
X98321667Y-33424762D01*
X98416905Y-33472381D01*
X98607382Y-33472381D01*
X98702620Y-33424762D01*
X98750239Y-33377143D01*
X98797858Y-33281905D01*
X98797858Y-33091429D01*
X98750239Y-32996190D01*
X98702620Y-32948571D01*
X98607382Y-32900952D01*
X134151905Y-75652381D02*
X134723334Y-75652381D01*
X134437619Y-76652381D02*
X134437619Y-75652381D01*
X135056667Y-76652381D02*
X135056667Y-75652381D01*
X135437620Y-75652381D01*
X135532858Y-75700000D01*
X135580477Y-75747619D01*
X135628096Y-75842857D01*
X135628096Y-75985714D01*
X135580477Y-76080952D01*
X135532858Y-76128571D01*
X135437620Y-76176190D01*
X135056667Y-76176190D01*
X136009048Y-75747619D02*
X136056667Y-75700000D01*
X136151905Y-75652381D01*
X136390001Y-75652381D01*
X136485239Y-75700000D01*
X136532858Y-75747619D01*
X136580477Y-75842857D01*
X136580477Y-75938095D01*
X136532858Y-76080952D01*
X135961429Y-76652381D01*
X136580477Y-76652381D01*
X137056667Y-76652381D02*
X137247143Y-76652381D01*
X137342382Y-76604762D01*
X137390001Y-76557143D01*
X137485239Y-76414286D01*
X137532858Y-76223810D01*
X137532858Y-75842857D01*
X137485239Y-75747619D01*
X137437620Y-75700000D01*
X137342382Y-75652381D01*
X137151905Y-75652381D01*
X137056667Y-75700000D01*
X137009048Y-75747619D01*
X136961429Y-75842857D01*
X136961429Y-76080952D01*
X137009048Y-76176190D01*
X137056667Y-76223810D01*
X137151905Y-76271429D01*
X137342382Y-76271429D01*
X137437620Y-76223810D01*
X137485239Y-76176190D01*
X137532858Y-76080952D01*
X125261905Y-57237381D02*
X125833334Y-57237381D01*
X125547619Y-58237381D02*
X125547619Y-57237381D01*
X126166667Y-58237381D02*
X126166667Y-57237381D01*
X126547620Y-57237381D01*
X126642858Y-57285000D01*
X126690477Y-57332619D01*
X126738096Y-57427857D01*
X126738096Y-57570714D01*
X126690477Y-57665952D01*
X126642858Y-57713571D01*
X126547620Y-57761190D01*
X126166667Y-57761190D01*
X127071429Y-57237381D02*
X127690477Y-57237381D01*
X127357143Y-57618333D01*
X127500001Y-57618333D01*
X127595239Y-57665952D01*
X127642858Y-57713571D01*
X127690477Y-57808810D01*
X127690477Y-58046905D01*
X127642858Y-58142143D01*
X127595239Y-58189762D01*
X127500001Y-58237381D01*
X127214286Y-58237381D01*
X127119048Y-58189762D01*
X127071429Y-58142143D01*
X128309524Y-57237381D02*
X128404763Y-57237381D01*
X128500001Y-57285000D01*
X128547620Y-57332619D01*
X128595239Y-57427857D01*
X128642858Y-57618333D01*
X128642858Y-57856429D01*
X128595239Y-58046905D01*
X128547620Y-58142143D01*
X128500001Y-58189762D01*
X128404763Y-58237381D01*
X128309524Y-58237381D01*
X128214286Y-58189762D01*
X128166667Y-58142143D01*
X128119048Y-58046905D01*
X128071429Y-57856429D01*
X128071429Y-57618333D01*
X128119048Y-57427857D01*
X128166667Y-57332619D01*
X128214286Y-57285000D01*
X128309524Y-57237381D01*
X130341905Y-71207381D02*
X130913334Y-71207381D01*
X130627619Y-72207381D02*
X130627619Y-71207381D01*
X131246667Y-72207381D02*
X131246667Y-71207381D01*
X131627620Y-71207381D01*
X131722858Y-71255000D01*
X131770477Y-71302619D01*
X131818096Y-71397857D01*
X131818096Y-71540714D01*
X131770477Y-71635952D01*
X131722858Y-71683571D01*
X131627620Y-71731190D01*
X131246667Y-71731190D01*
X132151429Y-71207381D02*
X132770477Y-71207381D01*
X132437143Y-71588333D01*
X132580001Y-71588333D01*
X132675239Y-71635952D01*
X132722858Y-71683571D01*
X132770477Y-71778810D01*
X132770477Y-72016905D01*
X132722858Y-72112143D01*
X132675239Y-72159762D01*
X132580001Y-72207381D01*
X132294286Y-72207381D01*
X132199048Y-72159762D01*
X132151429Y-72112143D01*
X133722858Y-72207381D02*
X133151429Y-72207381D01*
X133437143Y-72207381D02*
X133437143Y-71207381D01*
X133341905Y-71350238D01*
X133246667Y-71445476D01*
X133151429Y-71493095D01*
X122721905Y-64222381D02*
X123293334Y-64222381D01*
X123007619Y-65222381D02*
X123007619Y-64222381D01*
X123626667Y-65222381D02*
X123626667Y-64222381D01*
X124007620Y-64222381D01*
X124102858Y-64270000D01*
X124150477Y-64317619D01*
X124198096Y-64412857D01*
X124198096Y-64555714D01*
X124150477Y-64650952D01*
X124102858Y-64698571D01*
X124007620Y-64746190D01*
X123626667Y-64746190D01*
X124531429Y-64222381D02*
X125150477Y-64222381D01*
X124817143Y-64603333D01*
X124960001Y-64603333D01*
X125055239Y-64650952D01*
X125102858Y-64698571D01*
X125150477Y-64793810D01*
X125150477Y-65031905D01*
X125102858Y-65127143D01*
X125055239Y-65174762D01*
X124960001Y-65222381D01*
X124674286Y-65222381D01*
X124579048Y-65174762D01*
X124531429Y-65127143D01*
X125531429Y-64317619D02*
X125579048Y-64270000D01*
X125674286Y-64222381D01*
X125912382Y-64222381D01*
X126007620Y-64270000D01*
X126055239Y-64317619D01*
X126102858Y-64412857D01*
X126102858Y-64508095D01*
X126055239Y-64650952D01*
X125483810Y-65222381D01*
X126102858Y-65222381D01*
X117006905Y-97877381D02*
X117578334Y-97877381D01*
X117292619Y-98877381D02*
X117292619Y-97877381D01*
X117911667Y-98877381D02*
X117911667Y-97877381D01*
X118292620Y-97877381D01*
X118387858Y-97925000D01*
X118435477Y-97972619D01*
X118483096Y-98067857D01*
X118483096Y-98210714D01*
X118435477Y-98305952D01*
X118387858Y-98353571D01*
X118292620Y-98401190D01*
X117911667Y-98401190D01*
X118816429Y-97877381D02*
X119435477Y-97877381D01*
X119102143Y-98258333D01*
X119245001Y-98258333D01*
X119340239Y-98305952D01*
X119387858Y-98353571D01*
X119435477Y-98448810D01*
X119435477Y-98686905D01*
X119387858Y-98782143D01*
X119340239Y-98829762D01*
X119245001Y-98877381D01*
X118959286Y-98877381D01*
X118864048Y-98829762D01*
X118816429Y-98782143D01*
X119768810Y-97877381D02*
X120387858Y-97877381D01*
X120054524Y-98258333D01*
X120197382Y-98258333D01*
X120292620Y-98305952D01*
X120340239Y-98353571D01*
X120387858Y-98448810D01*
X120387858Y-98686905D01*
X120340239Y-98782143D01*
X120292620Y-98829762D01*
X120197382Y-98877381D01*
X119911667Y-98877381D01*
X119816429Y-98829762D01*
X119768810Y-98782143D01*
X103671905Y-60412381D02*
X104243334Y-60412381D01*
X103957619Y-61412381D02*
X103957619Y-60412381D01*
X104576667Y-61412381D02*
X104576667Y-60412381D01*
X104957620Y-60412381D01*
X105052858Y-60460000D01*
X105100477Y-60507619D01*
X105148096Y-60602857D01*
X105148096Y-60745714D01*
X105100477Y-60840952D01*
X105052858Y-60888571D01*
X104957620Y-60936190D01*
X104576667Y-60936190D01*
X105481429Y-60412381D02*
X106100477Y-60412381D01*
X105767143Y-60793333D01*
X105910001Y-60793333D01*
X106005239Y-60840952D01*
X106052858Y-60888571D01*
X106100477Y-60983810D01*
X106100477Y-61221905D01*
X106052858Y-61317143D01*
X106005239Y-61364762D01*
X105910001Y-61412381D01*
X105624286Y-61412381D01*
X105529048Y-61364762D01*
X105481429Y-61317143D01*
X106957620Y-60745714D02*
X106957620Y-61412381D01*
X106719524Y-60364762D02*
X106481429Y-61079048D01*
X107100477Y-61079048D01*
X103671905Y-55332381D02*
X104243334Y-55332381D01*
X103957619Y-56332381D02*
X103957619Y-55332381D01*
X104576667Y-56332381D02*
X104576667Y-55332381D01*
X104957620Y-55332381D01*
X105052858Y-55380000D01*
X105100477Y-55427619D01*
X105148096Y-55522857D01*
X105148096Y-55665714D01*
X105100477Y-55760952D01*
X105052858Y-55808571D01*
X104957620Y-55856190D01*
X104576667Y-55856190D01*
X105481429Y-55332381D02*
X106100477Y-55332381D01*
X105767143Y-55713333D01*
X105910001Y-55713333D01*
X106005239Y-55760952D01*
X106052858Y-55808571D01*
X106100477Y-55903810D01*
X106100477Y-56141905D01*
X106052858Y-56237143D01*
X106005239Y-56284762D01*
X105910001Y-56332381D01*
X105624286Y-56332381D01*
X105529048Y-56284762D01*
X105481429Y-56237143D01*
X107005239Y-55332381D02*
X106529048Y-55332381D01*
X106481429Y-55808571D01*
X106529048Y-55760952D01*
X106624286Y-55713333D01*
X106862382Y-55713333D01*
X106957620Y-55760952D01*
X107005239Y-55808571D01*
X107052858Y-55903810D01*
X107052858Y-56141905D01*
X107005239Y-56237143D01*
X106957620Y-56284762D01*
X106862382Y-56332381D01*
X106624286Y-56332381D01*
X106529048Y-56284762D01*
X106481429Y-56237143D01*
X103671905Y-50252381D02*
X104243334Y-50252381D01*
X103957619Y-51252381D02*
X103957619Y-50252381D01*
X104576667Y-51252381D02*
X104576667Y-50252381D01*
X104957620Y-50252381D01*
X105052858Y-50300000D01*
X105100477Y-50347619D01*
X105148096Y-50442857D01*
X105148096Y-50585714D01*
X105100477Y-50680952D01*
X105052858Y-50728571D01*
X104957620Y-50776190D01*
X104576667Y-50776190D01*
X105481429Y-50252381D02*
X106100477Y-50252381D01*
X105767143Y-50633333D01*
X105910001Y-50633333D01*
X106005239Y-50680952D01*
X106052858Y-50728571D01*
X106100477Y-50823810D01*
X106100477Y-51061905D01*
X106052858Y-51157143D01*
X106005239Y-51204762D01*
X105910001Y-51252381D01*
X105624286Y-51252381D01*
X105529048Y-51204762D01*
X105481429Y-51157143D01*
X106957620Y-50252381D02*
X106767143Y-50252381D01*
X106671905Y-50300000D01*
X106624286Y-50347619D01*
X106529048Y-50490476D01*
X106481429Y-50680952D01*
X106481429Y-51061905D01*
X106529048Y-51157143D01*
X106576667Y-51204762D01*
X106671905Y-51252381D01*
X106862382Y-51252381D01*
X106957620Y-51204762D01*
X107005239Y-51157143D01*
X107052858Y-51061905D01*
X107052858Y-50823810D01*
X107005239Y-50728571D01*
X106957620Y-50680952D01*
X106862382Y-50633333D01*
X106671905Y-50633333D01*
X106576667Y-50680952D01*
X106529048Y-50728571D01*
X106481429Y-50823810D01*
X103671905Y-45172381D02*
X104243334Y-45172381D01*
X103957619Y-46172381D02*
X103957619Y-45172381D01*
X104576667Y-46172381D02*
X104576667Y-45172381D01*
X104957620Y-45172381D01*
X105052858Y-45220000D01*
X105100477Y-45267619D01*
X105148096Y-45362857D01*
X105148096Y-45505714D01*
X105100477Y-45600952D01*
X105052858Y-45648571D01*
X104957620Y-45696190D01*
X104576667Y-45696190D01*
X105481429Y-45172381D02*
X106100477Y-45172381D01*
X105767143Y-45553333D01*
X105910001Y-45553333D01*
X106005239Y-45600952D01*
X106052858Y-45648571D01*
X106100477Y-45743810D01*
X106100477Y-45981905D01*
X106052858Y-46077143D01*
X106005239Y-46124762D01*
X105910001Y-46172381D01*
X105624286Y-46172381D01*
X105529048Y-46124762D01*
X105481429Y-46077143D01*
X106433810Y-45172381D02*
X107100477Y-45172381D01*
X106671905Y-46172381D01*
X113831905Y-102322381D02*
X114403334Y-102322381D01*
X114117619Y-103322381D02*
X114117619Y-102322381D01*
X114736667Y-103322381D02*
X114736667Y-102322381D01*
X115117620Y-102322381D01*
X115212858Y-102370000D01*
X115260477Y-102417619D01*
X115308096Y-102512857D01*
X115308096Y-102655714D01*
X115260477Y-102750952D01*
X115212858Y-102798571D01*
X115117620Y-102846190D01*
X114736667Y-102846190D01*
X115641429Y-102322381D02*
X116260477Y-102322381D01*
X115927143Y-102703333D01*
X116070001Y-102703333D01*
X116165239Y-102750952D01*
X116212858Y-102798571D01*
X116260477Y-102893810D01*
X116260477Y-103131905D01*
X116212858Y-103227143D01*
X116165239Y-103274762D01*
X116070001Y-103322381D01*
X115784286Y-103322381D01*
X115689048Y-103274762D01*
X115641429Y-103227143D01*
X116831905Y-102750952D02*
X116736667Y-102703333D01*
X116689048Y-102655714D01*
X116641429Y-102560476D01*
X116641429Y-102512857D01*
X116689048Y-102417619D01*
X116736667Y-102370000D01*
X116831905Y-102322381D01*
X117022382Y-102322381D01*
X117117620Y-102370000D01*
X117165239Y-102417619D01*
X117212858Y-102512857D01*
X117212858Y-102560476D01*
X117165239Y-102655714D01*
X117117620Y-102703333D01*
X117022382Y-102750952D01*
X116831905Y-102750952D01*
X116736667Y-102798571D01*
X116689048Y-102846190D01*
X116641429Y-102941429D01*
X116641429Y-103131905D01*
X116689048Y-103227143D01*
X116736667Y-103274762D01*
X116831905Y-103322381D01*
X117022382Y-103322381D01*
X117117620Y-103274762D01*
X117165239Y-103227143D01*
X117212858Y-103131905D01*
X117212858Y-102941429D01*
X117165239Y-102846190D01*
X117117620Y-102798571D01*
X117022382Y-102750952D01*
X95416905Y-57872381D02*
X95988334Y-57872381D01*
X95702619Y-58872381D02*
X95702619Y-57872381D01*
X96321667Y-58872381D02*
X96321667Y-57872381D01*
X96702620Y-57872381D01*
X96797858Y-57920000D01*
X96845477Y-57967619D01*
X96893096Y-58062857D01*
X96893096Y-58205714D01*
X96845477Y-58300952D01*
X96797858Y-58348571D01*
X96702620Y-58396190D01*
X96321667Y-58396190D01*
X97226429Y-57872381D02*
X97845477Y-57872381D01*
X97512143Y-58253333D01*
X97655001Y-58253333D01*
X97750239Y-58300952D01*
X97797858Y-58348571D01*
X97845477Y-58443810D01*
X97845477Y-58681905D01*
X97797858Y-58777143D01*
X97750239Y-58824762D01*
X97655001Y-58872381D01*
X97369286Y-58872381D01*
X97274048Y-58824762D01*
X97226429Y-58777143D01*
X98321667Y-58872381D02*
X98512143Y-58872381D01*
X98607382Y-58824762D01*
X98655001Y-58777143D01*
X98750239Y-58634286D01*
X98797858Y-58443810D01*
X98797858Y-58062857D01*
X98750239Y-57967619D01*
X98702620Y-57920000D01*
X98607382Y-57872381D01*
X98416905Y-57872381D01*
X98321667Y-57920000D01*
X98274048Y-57967619D01*
X98226429Y-58062857D01*
X98226429Y-58300952D01*
X98274048Y-58396190D01*
X98321667Y-58443810D01*
X98416905Y-58491429D01*
X98607382Y-58491429D01*
X98702620Y-58443810D01*
X98750239Y-58396190D01*
X98797858Y-58300952D01*
X95416905Y-52792381D02*
X95988334Y-52792381D01*
X95702619Y-53792381D02*
X95702619Y-52792381D01*
X96321667Y-53792381D02*
X96321667Y-52792381D01*
X96702620Y-52792381D01*
X96797858Y-52840000D01*
X96845477Y-52887619D01*
X96893096Y-52982857D01*
X96893096Y-53125714D01*
X96845477Y-53220952D01*
X96797858Y-53268571D01*
X96702620Y-53316190D01*
X96321667Y-53316190D01*
X97750239Y-53125714D02*
X97750239Y-53792381D01*
X97512143Y-52744762D02*
X97274048Y-53459048D01*
X97893096Y-53459048D01*
X98464524Y-52792381D02*
X98559763Y-52792381D01*
X98655001Y-52840000D01*
X98702620Y-52887619D01*
X98750239Y-52982857D01*
X98797858Y-53173333D01*
X98797858Y-53411429D01*
X98750239Y-53601905D01*
X98702620Y-53697143D01*
X98655001Y-53744762D01*
X98559763Y-53792381D01*
X98464524Y-53792381D01*
X98369286Y-53744762D01*
X98321667Y-53697143D01*
X98274048Y-53601905D01*
X98226429Y-53411429D01*
X98226429Y-53173333D01*
X98274048Y-52982857D01*
X98321667Y-52887619D01*
X98369286Y-52840000D01*
X98464524Y-52792381D01*
X95416905Y-47712381D02*
X95988334Y-47712381D01*
X95702619Y-48712381D02*
X95702619Y-47712381D01*
X96321667Y-48712381D02*
X96321667Y-47712381D01*
X96702620Y-47712381D01*
X96797858Y-47760000D01*
X96845477Y-47807619D01*
X96893096Y-47902857D01*
X96893096Y-48045714D01*
X96845477Y-48140952D01*
X96797858Y-48188571D01*
X96702620Y-48236190D01*
X96321667Y-48236190D01*
X97750239Y-48045714D02*
X97750239Y-48712381D01*
X97512143Y-47664762D02*
X97274048Y-48379048D01*
X97893096Y-48379048D01*
X98797858Y-48712381D02*
X98226429Y-48712381D01*
X98512143Y-48712381D02*
X98512143Y-47712381D01*
X98416905Y-47855238D01*
X98321667Y-47950476D01*
X98226429Y-47998095D01*
X95416905Y-42632381D02*
X95988334Y-42632381D01*
X95702619Y-43632381D02*
X95702619Y-42632381D01*
X96321667Y-43632381D02*
X96321667Y-42632381D01*
X96702620Y-42632381D01*
X96797858Y-42680000D01*
X96845477Y-42727619D01*
X96893096Y-42822857D01*
X96893096Y-42965714D01*
X96845477Y-43060952D01*
X96797858Y-43108571D01*
X96702620Y-43156190D01*
X96321667Y-43156190D01*
X97750239Y-42965714D02*
X97750239Y-43632381D01*
X97512143Y-42584762D02*
X97274048Y-43299048D01*
X97893096Y-43299048D01*
X98226429Y-42727619D02*
X98274048Y-42680000D01*
X98369286Y-42632381D01*
X98607382Y-42632381D01*
X98702620Y-42680000D01*
X98750239Y-42727619D01*
X98797858Y-42822857D01*
X98797858Y-42918095D01*
X98750239Y-43060952D01*
X98178810Y-43632381D01*
X98797858Y-43632381D01*
X106846905Y-90257381D02*
X107418334Y-90257381D01*
X107132619Y-91257381D02*
X107132619Y-90257381D01*
X107751667Y-91257381D02*
X107751667Y-90257381D01*
X108132620Y-90257381D01*
X108227858Y-90305000D01*
X108275477Y-90352619D01*
X108323096Y-90447857D01*
X108323096Y-90590714D01*
X108275477Y-90685952D01*
X108227858Y-90733571D01*
X108132620Y-90781190D01*
X107751667Y-90781190D01*
X109180239Y-90590714D02*
X109180239Y-91257381D01*
X108942143Y-90209762D02*
X108704048Y-90924048D01*
X109323096Y-90924048D01*
X109608810Y-90257381D02*
X110227858Y-90257381D01*
X109894524Y-90638333D01*
X110037382Y-90638333D01*
X110132620Y-90685952D01*
X110180239Y-90733571D01*
X110227858Y-90828810D01*
X110227858Y-91066905D01*
X110180239Y-91162143D01*
X110132620Y-91209762D01*
X110037382Y-91257381D01*
X109751667Y-91257381D01*
X109656429Y-91209762D01*
X109608810Y-91162143D01*
X106211905Y-102322381D02*
X106783334Y-102322381D01*
X106497619Y-103322381D02*
X106497619Y-102322381D01*
X107116667Y-103322381D02*
X107116667Y-102322381D01*
X107497620Y-102322381D01*
X107592858Y-102370000D01*
X107640477Y-102417619D01*
X107688096Y-102512857D01*
X107688096Y-102655714D01*
X107640477Y-102750952D01*
X107592858Y-102798571D01*
X107497620Y-102846190D01*
X107116667Y-102846190D01*
X108545239Y-102655714D02*
X108545239Y-103322381D01*
X108307143Y-102274762D02*
X108069048Y-102989048D01*
X108688096Y-102989048D01*
X109497620Y-102655714D02*
X109497620Y-103322381D01*
X109259524Y-102274762D02*
X109021429Y-102989048D01*
X109640477Y-102989048D01*
X97242381Y-84288095D02*
X97242381Y-83716666D01*
X98242381Y-84002381D02*
X97242381Y-84002381D01*
X98242381Y-83383333D02*
X97242381Y-83383333D01*
X97242381Y-83002380D01*
X97290000Y-82907142D01*
X97337619Y-82859523D01*
X97432857Y-82811904D01*
X97575714Y-82811904D01*
X97670952Y-82859523D01*
X97718571Y-82907142D01*
X97766190Y-83002380D01*
X97766190Y-83383333D01*
X97575714Y-81954761D02*
X98242381Y-81954761D01*
X97194762Y-82192857D02*
X97909048Y-82430952D01*
X97909048Y-81811904D01*
X97242381Y-80954761D02*
X97242381Y-81430952D01*
X97718571Y-81478571D01*
X97670952Y-81430952D01*
X97623333Y-81335714D01*
X97623333Y-81097618D01*
X97670952Y-81002380D01*
X97718571Y-80954761D01*
X97813810Y-80907142D01*
X98051905Y-80907142D01*
X98147143Y-80954761D01*
X98194762Y-81002380D01*
X98242381Y-81097618D01*
X98242381Y-81335714D01*
X98194762Y-81430952D01*
X98147143Y-81478571D01*
X101131905Y-80732381D02*
X101703334Y-80732381D01*
X101417619Y-81732381D02*
X101417619Y-80732381D01*
X102036667Y-81732381D02*
X102036667Y-80732381D01*
X102417620Y-80732381D01*
X102512858Y-80780000D01*
X102560477Y-80827619D01*
X102608096Y-80922857D01*
X102608096Y-81065714D01*
X102560477Y-81160952D01*
X102512858Y-81208571D01*
X102417620Y-81256190D01*
X102036667Y-81256190D01*
X103465239Y-81065714D02*
X103465239Y-81732381D01*
X103227143Y-80684762D02*
X102989048Y-81399048D01*
X103608096Y-81399048D01*
X104417620Y-80732381D02*
X104227143Y-80732381D01*
X104131905Y-80780000D01*
X104084286Y-80827619D01*
X103989048Y-80970476D01*
X103941429Y-81160952D01*
X103941429Y-81541905D01*
X103989048Y-81637143D01*
X104036667Y-81684762D01*
X104131905Y-81732381D01*
X104322382Y-81732381D01*
X104417620Y-81684762D01*
X104465239Y-81637143D01*
X104512858Y-81541905D01*
X104512858Y-81303810D01*
X104465239Y-81208571D01*
X104417620Y-81160952D01*
X104322382Y-81113333D01*
X104131905Y-81113333D01*
X104036667Y-81160952D01*
X103989048Y-81208571D01*
X103941429Y-81303810D01*
X113831905Y-82002381D02*
X114403334Y-82002381D01*
X114117619Y-83002381D02*
X114117619Y-82002381D01*
X114736667Y-83002381D02*
X114736667Y-82002381D01*
X115117620Y-82002381D01*
X115212858Y-82050000D01*
X115260477Y-82097619D01*
X115308096Y-82192857D01*
X115308096Y-82335714D01*
X115260477Y-82430952D01*
X115212858Y-82478571D01*
X115117620Y-82526190D01*
X114736667Y-82526190D01*
X116165239Y-82335714D02*
X116165239Y-83002381D01*
X115927143Y-81954762D02*
X115689048Y-82669048D01*
X116308096Y-82669048D01*
X116593810Y-82002381D02*
X117260477Y-82002381D01*
X116831905Y-83002381D01*
X113831905Y-84542381D02*
X114403334Y-84542381D01*
X114117619Y-85542381D02*
X114117619Y-84542381D01*
X114736667Y-85542381D02*
X114736667Y-84542381D01*
X115117620Y-84542381D01*
X115212858Y-84590000D01*
X115260477Y-84637619D01*
X115308096Y-84732857D01*
X115308096Y-84875714D01*
X115260477Y-84970952D01*
X115212858Y-85018571D01*
X115117620Y-85066190D01*
X114736667Y-85066190D01*
X116165239Y-84875714D02*
X116165239Y-85542381D01*
X115927143Y-84494762D02*
X115689048Y-85209048D01*
X116308096Y-85209048D01*
X116831905Y-84970952D02*
X116736667Y-84923333D01*
X116689048Y-84875714D01*
X116641429Y-84780476D01*
X116641429Y-84732857D01*
X116689048Y-84637619D01*
X116736667Y-84590000D01*
X116831905Y-84542381D01*
X117022382Y-84542381D01*
X117117620Y-84590000D01*
X117165239Y-84637619D01*
X117212858Y-84732857D01*
X117212858Y-84780476D01*
X117165239Y-84875714D01*
X117117620Y-84923333D01*
X117022382Y-84970952D01*
X116831905Y-84970952D01*
X116736667Y-85018571D01*
X116689048Y-85066190D01*
X116641429Y-85161429D01*
X116641429Y-85351905D01*
X116689048Y-85447143D01*
X116736667Y-85494762D01*
X116831905Y-85542381D01*
X117022382Y-85542381D01*
X117117620Y-85494762D01*
X117165239Y-85447143D01*
X117212858Y-85351905D01*
X117212858Y-85161429D01*
X117165239Y-85066190D01*
X117117620Y-85018571D01*
X117022382Y-84970952D01*
X154471905Y-40092381D02*
X155043334Y-40092381D01*
X154757619Y-41092381D02*
X154757619Y-40092381D01*
X155376667Y-41092381D02*
X155376667Y-40092381D01*
X155757620Y-40092381D01*
X155852858Y-40140000D01*
X155900477Y-40187619D01*
X155948096Y-40282857D01*
X155948096Y-40425714D01*
X155900477Y-40520952D01*
X155852858Y-40568571D01*
X155757620Y-40616190D01*
X155376667Y-40616190D01*
X156805239Y-40425714D02*
X156805239Y-41092381D01*
X156567143Y-40044762D02*
X156329048Y-40759048D01*
X156948096Y-40759048D01*
X157376667Y-41092381D02*
X157567143Y-41092381D01*
X157662382Y-41044762D01*
X157710001Y-40997143D01*
X157805239Y-40854286D01*
X157852858Y-40663810D01*
X157852858Y-40282857D01*
X157805239Y-40187619D01*
X157757620Y-40140000D01*
X157662382Y-40092381D01*
X157471905Y-40092381D01*
X157376667Y-40140000D01*
X157329048Y-40187619D01*
X157281429Y-40282857D01*
X157281429Y-40520952D01*
X157329048Y-40616190D01*
X157376667Y-40663810D01*
X157471905Y-40711429D01*
X157662382Y-40711429D01*
X157757620Y-40663810D01*
X157805239Y-40616190D01*
X157852858Y-40520952D01*
X145581905Y-40092381D02*
X146153334Y-40092381D01*
X145867619Y-41092381D02*
X145867619Y-40092381D01*
X146486667Y-41092381D02*
X146486667Y-40092381D01*
X146867620Y-40092381D01*
X146962858Y-40140000D01*
X147010477Y-40187619D01*
X147058096Y-40282857D01*
X147058096Y-40425714D01*
X147010477Y-40520952D01*
X146962858Y-40568571D01*
X146867620Y-40616190D01*
X146486667Y-40616190D01*
X147962858Y-40092381D02*
X147486667Y-40092381D01*
X147439048Y-40568571D01*
X147486667Y-40520952D01*
X147581905Y-40473333D01*
X147820001Y-40473333D01*
X147915239Y-40520952D01*
X147962858Y-40568571D01*
X148010477Y-40663810D01*
X148010477Y-40901905D01*
X147962858Y-40997143D01*
X147915239Y-41044762D01*
X147820001Y-41092381D01*
X147581905Y-41092381D01*
X147486667Y-41044762D01*
X147439048Y-40997143D01*
X148629524Y-40092381D02*
X148724763Y-40092381D01*
X148820001Y-40140000D01*
X148867620Y-40187619D01*
X148915239Y-40282857D01*
X148962858Y-40473333D01*
X148962858Y-40711429D01*
X148915239Y-40901905D01*
X148867620Y-40997143D01*
X148820001Y-41044762D01*
X148724763Y-41092381D01*
X148629524Y-41092381D01*
X148534286Y-41044762D01*
X148486667Y-40997143D01*
X148439048Y-40901905D01*
X148391429Y-40711429D01*
X148391429Y-40473333D01*
X148439048Y-40282857D01*
X148486667Y-40187619D01*
X148534286Y-40140000D01*
X148629524Y-40092381D01*
X139231905Y-45172381D02*
X139803334Y-45172381D01*
X139517619Y-46172381D02*
X139517619Y-45172381D01*
X140136667Y-46172381D02*
X140136667Y-45172381D01*
X140517620Y-45172381D01*
X140612858Y-45220000D01*
X140660477Y-45267619D01*
X140708096Y-45362857D01*
X140708096Y-45505714D01*
X140660477Y-45600952D01*
X140612858Y-45648571D01*
X140517620Y-45696190D01*
X140136667Y-45696190D01*
X141612858Y-45172381D02*
X141136667Y-45172381D01*
X141089048Y-45648571D01*
X141136667Y-45600952D01*
X141231905Y-45553333D01*
X141470001Y-45553333D01*
X141565239Y-45600952D01*
X141612858Y-45648571D01*
X141660477Y-45743810D01*
X141660477Y-45981905D01*
X141612858Y-46077143D01*
X141565239Y-46124762D01*
X141470001Y-46172381D01*
X141231905Y-46172381D01*
X141136667Y-46124762D01*
X141089048Y-46077143D01*
X142612858Y-46172381D02*
X142041429Y-46172381D01*
X142327143Y-46172381D02*
X142327143Y-45172381D01*
X142231905Y-45315238D01*
X142136667Y-45410476D01*
X142041429Y-45458095D01*
X138596905Y-43267381D02*
X139168334Y-43267381D01*
X138882619Y-44267381D02*
X138882619Y-43267381D01*
X139501667Y-44267381D02*
X139501667Y-43267381D01*
X139882620Y-43267381D01*
X139977858Y-43315000D01*
X140025477Y-43362619D01*
X140073096Y-43457857D01*
X140073096Y-43600714D01*
X140025477Y-43695952D01*
X139977858Y-43743571D01*
X139882620Y-43791190D01*
X139501667Y-43791190D01*
X140977858Y-43267381D02*
X140501667Y-43267381D01*
X140454048Y-43743571D01*
X140501667Y-43695952D01*
X140596905Y-43648333D01*
X140835001Y-43648333D01*
X140930239Y-43695952D01*
X140977858Y-43743571D01*
X141025477Y-43838810D01*
X141025477Y-44076905D01*
X140977858Y-44172143D01*
X140930239Y-44219762D01*
X140835001Y-44267381D01*
X140596905Y-44267381D01*
X140501667Y-44219762D01*
X140454048Y-44172143D01*
X141406429Y-43362619D02*
X141454048Y-43315000D01*
X141549286Y-43267381D01*
X141787382Y-43267381D01*
X141882620Y-43315000D01*
X141930239Y-43362619D01*
X141977858Y-43457857D01*
X141977858Y-43553095D01*
X141930239Y-43695952D01*
X141358810Y-44267381D01*
X141977858Y-44267381D01*
X140422381Y-36663095D02*
X140422381Y-36091666D01*
X141422381Y-36377381D02*
X140422381Y-36377381D01*
X141422381Y-35758333D02*
X140422381Y-35758333D01*
X140422381Y-35377380D01*
X140470000Y-35282142D01*
X140517619Y-35234523D01*
X140612857Y-35186904D01*
X140755714Y-35186904D01*
X140850952Y-35234523D01*
X140898571Y-35282142D01*
X140946190Y-35377380D01*
X140946190Y-35758333D01*
X140422381Y-34282142D02*
X140422381Y-34758333D01*
X140898571Y-34805952D01*
X140850952Y-34758333D01*
X140803333Y-34663095D01*
X140803333Y-34424999D01*
X140850952Y-34329761D01*
X140898571Y-34282142D01*
X140993810Y-34234523D01*
X141231905Y-34234523D01*
X141327143Y-34282142D01*
X141374762Y-34329761D01*
X141422381Y-34424999D01*
X141422381Y-34663095D01*
X141374762Y-34758333D01*
X141327143Y-34805952D01*
X140422381Y-33901190D02*
X140422381Y-33282142D01*
X140803333Y-33615476D01*
X140803333Y-33472618D01*
X140850952Y-33377380D01*
X140898571Y-33329761D01*
X140993810Y-33282142D01*
X141231905Y-33282142D01*
X141327143Y-33329761D01*
X141374762Y-33377380D01*
X141422381Y-33472618D01*
X141422381Y-33758333D01*
X141374762Y-33853571D01*
X141327143Y-33901190D01*
X142962381Y-36663095D02*
X142962381Y-36091666D01*
X143962381Y-36377381D02*
X142962381Y-36377381D01*
X143962381Y-35758333D02*
X142962381Y-35758333D01*
X142962381Y-35377380D01*
X143010000Y-35282142D01*
X143057619Y-35234523D01*
X143152857Y-35186904D01*
X143295714Y-35186904D01*
X143390952Y-35234523D01*
X143438571Y-35282142D01*
X143486190Y-35377380D01*
X143486190Y-35758333D01*
X142962381Y-34282142D02*
X142962381Y-34758333D01*
X143438571Y-34805952D01*
X143390952Y-34758333D01*
X143343333Y-34663095D01*
X143343333Y-34424999D01*
X143390952Y-34329761D01*
X143438571Y-34282142D01*
X143533810Y-34234523D01*
X143771905Y-34234523D01*
X143867143Y-34282142D01*
X143914762Y-34329761D01*
X143962381Y-34424999D01*
X143962381Y-34663095D01*
X143914762Y-34758333D01*
X143867143Y-34805952D01*
X143295714Y-33377380D02*
X143962381Y-33377380D01*
X142914762Y-33615476D02*
X143629048Y-33853571D01*
X143629048Y-33234523D01*
X142406905Y-84542381D02*
X142978334Y-84542381D01*
X142692619Y-85542381D02*
X142692619Y-84542381D01*
X143311667Y-85542381D02*
X143311667Y-84542381D01*
X143692620Y-84542381D01*
X143787858Y-84590000D01*
X143835477Y-84637619D01*
X143883096Y-84732857D01*
X143883096Y-84875714D01*
X143835477Y-84970952D01*
X143787858Y-85018571D01*
X143692620Y-85066190D01*
X143311667Y-85066190D01*
X144787858Y-84542381D02*
X144311667Y-84542381D01*
X144264048Y-85018571D01*
X144311667Y-84970952D01*
X144406905Y-84923333D01*
X144645001Y-84923333D01*
X144740239Y-84970952D01*
X144787858Y-85018571D01*
X144835477Y-85113810D01*
X144835477Y-85351905D01*
X144787858Y-85447143D01*
X144740239Y-85494762D01*
X144645001Y-85542381D01*
X144406905Y-85542381D01*
X144311667Y-85494762D01*
X144264048Y-85447143D01*
X145740239Y-84542381D02*
X145264048Y-84542381D01*
X145216429Y-85018571D01*
X145264048Y-84970952D01*
X145359286Y-84923333D01*
X145597382Y-84923333D01*
X145692620Y-84970952D01*
X145740239Y-85018571D01*
X145787858Y-85113810D01*
X145787858Y-85351905D01*
X145740239Y-85447143D01*
X145692620Y-85494762D01*
X145597382Y-85542381D01*
X145359286Y-85542381D01*
X145264048Y-85494762D01*
X145216429Y-85447143D01*
X142406905Y-87082381D02*
X142978334Y-87082381D01*
X142692619Y-88082381D02*
X142692619Y-87082381D01*
X143311667Y-88082381D02*
X143311667Y-87082381D01*
X143692620Y-87082381D01*
X143787858Y-87130000D01*
X143835477Y-87177619D01*
X143883096Y-87272857D01*
X143883096Y-87415714D01*
X143835477Y-87510952D01*
X143787858Y-87558571D01*
X143692620Y-87606190D01*
X143311667Y-87606190D01*
X144787858Y-87082381D02*
X144311667Y-87082381D01*
X144264048Y-87558571D01*
X144311667Y-87510952D01*
X144406905Y-87463333D01*
X144645001Y-87463333D01*
X144740239Y-87510952D01*
X144787858Y-87558571D01*
X144835477Y-87653810D01*
X144835477Y-87891905D01*
X144787858Y-87987143D01*
X144740239Y-88034762D01*
X144645001Y-88082381D01*
X144406905Y-88082381D01*
X144311667Y-88034762D01*
X144264048Y-87987143D01*
X145692620Y-87082381D02*
X145502143Y-87082381D01*
X145406905Y-87130000D01*
X145359286Y-87177619D01*
X145264048Y-87320476D01*
X145216429Y-87510952D01*
X145216429Y-87891905D01*
X145264048Y-87987143D01*
X145311667Y-88034762D01*
X145406905Y-88082381D01*
X145597382Y-88082381D01*
X145692620Y-88034762D01*
X145740239Y-87987143D01*
X145787858Y-87891905D01*
X145787858Y-87653810D01*
X145740239Y-87558571D01*
X145692620Y-87510952D01*
X145597382Y-87463333D01*
X145406905Y-87463333D01*
X145311667Y-87510952D01*
X145264048Y-87558571D01*
X145216429Y-87653810D01*
X156376905Y-84542381D02*
X156948334Y-84542381D01*
X156662619Y-85542381D02*
X156662619Y-84542381D01*
X157281667Y-85542381D02*
X157281667Y-84542381D01*
X157662620Y-84542381D01*
X157757858Y-84590000D01*
X157805477Y-84637619D01*
X157853096Y-84732857D01*
X157853096Y-84875714D01*
X157805477Y-84970952D01*
X157757858Y-85018571D01*
X157662620Y-85066190D01*
X157281667Y-85066190D01*
X158757858Y-84542381D02*
X158281667Y-84542381D01*
X158234048Y-85018571D01*
X158281667Y-84970952D01*
X158376905Y-84923333D01*
X158615001Y-84923333D01*
X158710239Y-84970952D01*
X158757858Y-85018571D01*
X158805477Y-85113810D01*
X158805477Y-85351905D01*
X158757858Y-85447143D01*
X158710239Y-85494762D01*
X158615001Y-85542381D01*
X158376905Y-85542381D01*
X158281667Y-85494762D01*
X158234048Y-85447143D01*
X159138810Y-84542381D02*
X159805477Y-84542381D01*
X159376905Y-85542381D01*
X156376905Y-99782381D02*
X156948334Y-99782381D01*
X156662619Y-100782381D02*
X156662619Y-99782381D01*
X157281667Y-100782381D02*
X157281667Y-99782381D01*
X157662620Y-99782381D01*
X157757858Y-99830000D01*
X157805477Y-99877619D01*
X157853096Y-99972857D01*
X157853096Y-100115714D01*
X157805477Y-100210952D01*
X157757858Y-100258571D01*
X157662620Y-100306190D01*
X157281667Y-100306190D01*
X158757858Y-99782381D02*
X158281667Y-99782381D01*
X158234048Y-100258571D01*
X158281667Y-100210952D01*
X158376905Y-100163333D01*
X158615001Y-100163333D01*
X158710239Y-100210952D01*
X158757858Y-100258571D01*
X158805477Y-100353810D01*
X158805477Y-100591905D01*
X158757858Y-100687143D01*
X158710239Y-100734762D01*
X158615001Y-100782381D01*
X158376905Y-100782381D01*
X158281667Y-100734762D01*
X158234048Y-100687143D01*
X159376905Y-100210952D02*
X159281667Y-100163333D01*
X159234048Y-100115714D01*
X159186429Y-100020476D01*
X159186429Y-99972857D01*
X159234048Y-99877619D01*
X159281667Y-99830000D01*
X159376905Y-99782381D01*
X159567382Y-99782381D01*
X159662620Y-99830000D01*
X159710239Y-99877619D01*
X159757858Y-99972857D01*
X159757858Y-100020476D01*
X159710239Y-100115714D01*
X159662620Y-100163333D01*
X159567382Y-100210952D01*
X159376905Y-100210952D01*
X159281667Y-100258571D01*
X159234048Y-100306190D01*
X159186429Y-100401429D01*
X159186429Y-100591905D01*
X159234048Y-100687143D01*
X159281667Y-100734762D01*
X159376905Y-100782381D01*
X159567382Y-100782381D01*
X159662620Y-100734762D01*
X159710239Y-100687143D01*
X159757858Y-100591905D01*
X159757858Y-100401429D01*
X159710239Y-100306190D01*
X159662620Y-100258571D01*
X159567382Y-100210952D01*
X156376905Y-94702381D02*
X156948334Y-94702381D01*
X156662619Y-95702381D02*
X156662619Y-94702381D01*
X157281667Y-95702381D02*
X157281667Y-94702381D01*
X157662620Y-94702381D01*
X157757858Y-94750000D01*
X157805477Y-94797619D01*
X157853096Y-94892857D01*
X157853096Y-95035714D01*
X157805477Y-95130952D01*
X157757858Y-95178571D01*
X157662620Y-95226190D01*
X157281667Y-95226190D01*
X158757858Y-94702381D02*
X158281667Y-94702381D01*
X158234048Y-95178571D01*
X158281667Y-95130952D01*
X158376905Y-95083333D01*
X158615001Y-95083333D01*
X158710239Y-95130952D01*
X158757858Y-95178571D01*
X158805477Y-95273810D01*
X158805477Y-95511905D01*
X158757858Y-95607143D01*
X158710239Y-95654762D01*
X158615001Y-95702381D01*
X158376905Y-95702381D01*
X158281667Y-95654762D01*
X158234048Y-95607143D01*
X159281667Y-95702381D02*
X159472143Y-95702381D01*
X159567382Y-95654762D01*
X159615001Y-95607143D01*
X159710239Y-95464286D01*
X159757858Y-95273810D01*
X159757858Y-94892857D01*
X159710239Y-94797619D01*
X159662620Y-94750000D01*
X159567382Y-94702381D01*
X159376905Y-94702381D01*
X159281667Y-94750000D01*
X159234048Y-94797619D01*
X159186429Y-94892857D01*
X159186429Y-95130952D01*
X159234048Y-95226190D01*
X159281667Y-95273810D01*
X159376905Y-95321429D01*
X159567382Y-95321429D01*
X159662620Y-95273810D01*
X159710239Y-95226190D01*
X159757858Y-95130952D01*
X142406905Y-94702381D02*
X142978334Y-94702381D01*
X142692619Y-95702381D02*
X142692619Y-94702381D01*
X143311667Y-95702381D02*
X143311667Y-94702381D01*
X143692620Y-94702381D01*
X143787858Y-94750000D01*
X143835477Y-94797619D01*
X143883096Y-94892857D01*
X143883096Y-95035714D01*
X143835477Y-95130952D01*
X143787858Y-95178571D01*
X143692620Y-95226190D01*
X143311667Y-95226190D01*
X144740239Y-94702381D02*
X144549762Y-94702381D01*
X144454524Y-94750000D01*
X144406905Y-94797619D01*
X144311667Y-94940476D01*
X144264048Y-95130952D01*
X144264048Y-95511905D01*
X144311667Y-95607143D01*
X144359286Y-95654762D01*
X144454524Y-95702381D01*
X144645001Y-95702381D01*
X144740239Y-95654762D01*
X144787858Y-95607143D01*
X144835477Y-95511905D01*
X144835477Y-95273810D01*
X144787858Y-95178571D01*
X144740239Y-95130952D01*
X144645001Y-95083333D01*
X144454524Y-95083333D01*
X144359286Y-95130952D01*
X144311667Y-95178571D01*
X144264048Y-95273810D01*
X145454524Y-94702381D02*
X145549763Y-94702381D01*
X145645001Y-94750000D01*
X145692620Y-94797619D01*
X145740239Y-94892857D01*
X145787858Y-95083333D01*
X145787858Y-95321429D01*
X145740239Y-95511905D01*
X145692620Y-95607143D01*
X145645001Y-95654762D01*
X145549763Y-95702381D01*
X145454524Y-95702381D01*
X145359286Y-95654762D01*
X145311667Y-95607143D01*
X145264048Y-95511905D01*
X145216429Y-95321429D01*
X145216429Y-95083333D01*
X145264048Y-94892857D01*
X145311667Y-94797619D01*
X145359286Y-94750000D01*
X145454524Y-94702381D01*
X156376905Y-97242381D02*
X156948334Y-97242381D01*
X156662619Y-98242381D02*
X156662619Y-97242381D01*
X157281667Y-98242381D02*
X157281667Y-97242381D01*
X157662620Y-97242381D01*
X157757858Y-97290000D01*
X157805477Y-97337619D01*
X157853096Y-97432857D01*
X157853096Y-97575714D01*
X157805477Y-97670952D01*
X157757858Y-97718571D01*
X157662620Y-97766190D01*
X157281667Y-97766190D01*
X158710239Y-97242381D02*
X158519762Y-97242381D01*
X158424524Y-97290000D01*
X158376905Y-97337619D01*
X158281667Y-97480476D01*
X158234048Y-97670952D01*
X158234048Y-98051905D01*
X158281667Y-98147143D01*
X158329286Y-98194762D01*
X158424524Y-98242381D01*
X158615001Y-98242381D01*
X158710239Y-98194762D01*
X158757858Y-98147143D01*
X158805477Y-98051905D01*
X158805477Y-97813810D01*
X158757858Y-97718571D01*
X158710239Y-97670952D01*
X158615001Y-97623333D01*
X158424524Y-97623333D01*
X158329286Y-97670952D01*
X158281667Y-97718571D01*
X158234048Y-97813810D01*
X159757858Y-98242381D02*
X159186429Y-98242381D01*
X159472143Y-98242381D02*
X159472143Y-97242381D01*
X159376905Y-97385238D01*
X159281667Y-97480476D01*
X159186429Y-97528095D01*
X142406905Y-97242381D02*
X142978334Y-97242381D01*
X142692619Y-98242381D02*
X142692619Y-97242381D01*
X143311667Y-98242381D02*
X143311667Y-97242381D01*
X143692620Y-97242381D01*
X143787858Y-97290000D01*
X143835477Y-97337619D01*
X143883096Y-97432857D01*
X143883096Y-97575714D01*
X143835477Y-97670952D01*
X143787858Y-97718571D01*
X143692620Y-97766190D01*
X143311667Y-97766190D01*
X144740239Y-97242381D02*
X144549762Y-97242381D01*
X144454524Y-97290000D01*
X144406905Y-97337619D01*
X144311667Y-97480476D01*
X144264048Y-97670952D01*
X144264048Y-98051905D01*
X144311667Y-98147143D01*
X144359286Y-98194762D01*
X144454524Y-98242381D01*
X144645001Y-98242381D01*
X144740239Y-98194762D01*
X144787858Y-98147143D01*
X144835477Y-98051905D01*
X144835477Y-97813810D01*
X144787858Y-97718571D01*
X144740239Y-97670952D01*
X144645001Y-97623333D01*
X144454524Y-97623333D01*
X144359286Y-97670952D01*
X144311667Y-97718571D01*
X144264048Y-97813810D01*
X145216429Y-97337619D02*
X145264048Y-97290000D01*
X145359286Y-97242381D01*
X145597382Y-97242381D01*
X145692620Y-97290000D01*
X145740239Y-97337619D01*
X145787858Y-97432857D01*
X145787858Y-97528095D01*
X145740239Y-97670952D01*
X145168810Y-98242381D01*
X145787858Y-98242381D01*
X132127667Y-103973381D02*
X132127667Y-104687667D01*
X132080047Y-104830524D01*
X131984809Y-104925762D01*
X131841952Y-104973381D01*
X131746714Y-104973381D01*
X132508619Y-103973381D02*
X133127667Y-103973381D01*
X132794333Y-104354333D01*
X132937191Y-104354333D01*
X133032429Y-104401952D01*
X133080048Y-104449571D01*
X133127667Y-104544810D01*
X133127667Y-104782905D01*
X133080048Y-104878143D01*
X133032429Y-104925762D01*
X132937191Y-104973381D01*
X132651476Y-104973381D01*
X132556238Y-104925762D01*
X132508619Y-104878143D01*
%LPC*%
D13*
X152400000Y-82550000D03*
D14*
X149860000Y-82550000D03*
X152400000Y-85090000D03*
X149860000Y-85090000D03*
X152400000Y-87630000D03*
X149860000Y-87630000D03*
X152400000Y-90170000D03*
X149860000Y-90170000D03*
X152400000Y-92710000D03*
X149860000Y-92710000D03*
X152400000Y-95250000D03*
X149860000Y-95250000D03*
X152400000Y-97790000D03*
X149860000Y-97790000D03*
X152400000Y-100330000D03*
X149860000Y-100330000D03*
D13*
X100330000Y-90805000D03*
D14*
X102870000Y-90805000D03*
X100330000Y-88265000D03*
X102870000Y-88265000D03*
X100330000Y-85725000D03*
X102870000Y-85725000D03*
D13*
X153035000Y-33020000D03*
D14*
X150495000Y-33020000D03*
X153035000Y-35560000D03*
X150495000Y-35560000D03*
X153035000Y-38100000D03*
X150495000Y-38100000D03*
D13*
X130175000Y-67310000D03*
D14*
X132715000Y-67310000D03*
X130175000Y-64770000D03*
X132715000Y-64770000D03*
X130175000Y-62230000D03*
X132715000Y-62230000D03*
D13*
X148590000Y-56515000D03*
D14*
X146050000Y-56515000D03*
X143510000Y-56515000D03*
X140970000Y-56515000D03*
D15*
X151180000Y-45675000D03*
D16*
X153670000Y-46935000D03*
X153670000Y-51435000D03*
D15*
X151180000Y-52685000D03*
D17*
X127635000Y-67310000D03*
X127635000Y-62230000D03*
X133985000Y-89535000D03*
X143510000Y-100330000D03*
X120015000Y-30480000D03*
X114935000Y-30480000D03*
X132715000Y-53340000D03*
X132715000Y-41910000D03*
X105410000Y-88265000D03*
X97790000Y-88265000D03*
X112395000Y-100330000D03*
X111760000Y-84455000D03*
X118745000Y-87630000D03*
X125730000Y-73025000D03*
X125730000Y-75565000D03*
X123825000Y-72390000D03*
X123190000Y-70485000D03*
X130175000Y-34925000D03*
X108585000Y-40640000D03*
X108585000Y-76200000D03*
X108585000Y-71120000D03*
X108585000Y-66040000D03*
X103505000Y-31115000D03*
X97155000Y-40005000D03*
X97155000Y-75565000D03*
X97155000Y-70485000D03*
X97155000Y-65405000D03*
X97155000Y-34925000D03*
X132715000Y-75565000D03*
X127000000Y-59690000D03*
X128905000Y-71755000D03*
X127635000Y-64770000D03*
X118745000Y-96520000D03*
X108585000Y-60960000D03*
X108585000Y-55880000D03*
X108585000Y-50800000D03*
X108585000Y-45720000D03*
X115570000Y-104775000D03*
X97155000Y-60325000D03*
X97155000Y-55245000D03*
X97155000Y-50165000D03*
X97155000Y-45085000D03*
X105410000Y-90805000D03*
X104775000Y-102870000D03*
X97790000Y-85725000D03*
X102870000Y-83185000D03*
X118745000Y-82550000D03*
X118745000Y-85090000D03*
X153035000Y-40640000D03*
X150495000Y-40640000D03*
X137795000Y-45720000D03*
X137160000Y-43815000D03*
X140970000Y-38100000D03*
X143510000Y-38100000D03*
X147320000Y-85090000D03*
X147320000Y-87630000D03*
X154940000Y-85090000D03*
X154940000Y-100330000D03*
X154940000Y-95250000D03*
X147320000Y-95250000D03*
X154940000Y-97790000D03*
X147320000Y-97790000D03*
D18*
X127635000Y-50800000D03*
D19*
X130175000Y-50800000D03*
X132715000Y-50800000D03*
D18*
X127635000Y-39370000D03*
D19*
X130175000Y-39370000D03*
X132715000Y-39370000D03*
D20*
X98000000Y-26000000D03*
X156000000Y-59000000D03*
X98000000Y-102000000D03*
D21*
X120015000Y-33655000D03*
X114935000Y-33655000D03*
D22*
X100330000Y-34925000D03*
X100330000Y-40005000D03*
X100330000Y-45085000D03*
X100330000Y-50165000D03*
X100330000Y-55245000D03*
X100330000Y-60325000D03*
X100330000Y-65405000D03*
X100330000Y-70485000D03*
X100330000Y-75565000D03*
D15*
X153630000Y-74850000D03*
X151130000Y-64850000D03*
X148630000Y-74850000D03*
X116245000Y-94695000D03*
X118745000Y-104695000D03*
X121245000Y-94695000D03*
D23*
X138520000Y-99100000D03*
D24*
X133750000Y-99600000D03*
X131250000Y-99600000D03*
X131250000Y-96400000D03*
X133750000Y-96400000D03*
D23*
X126480000Y-99100000D03*
M02*
