G04 #@! TF.FileFunction,Soldermask,Top*
%FSLAX46Y46*%
G04 Gerber Fmt 4.6, Leading zero omitted, Abs format (unit mm)*
G04 Created by KiCad (PCBNEW 4.0.7) date Tue Jan 30 12:06:56 2018*
%MOMM*%
%LPD*%
G01*
G04 APERTURE LIST*
%ADD10C,0.100000*%
%ADD11R,1.700000X1.700000*%
%ADD12O,1.700000X1.700000*%
%ADD13C,2.100000*%
%ADD14C,1.750000*%
%ADD15C,1.500000*%
%ADD16R,1.800000X1.800000*%
%ADD17O,1.800000X1.800000*%
%ADD18C,8.600000*%
%ADD19C,2.500000*%
%ADD20C,2.200000*%
%ADD21C,3.500000*%
%ADD22C,1.600000*%
G04 APERTURE END LIST*
D10*
D11*
X152400000Y-82550000D03*
D12*
X149860000Y-82550000D03*
X152400000Y-85090000D03*
X149860000Y-85090000D03*
X152400000Y-87630000D03*
X149860000Y-87630000D03*
X152400000Y-90170000D03*
X149860000Y-90170000D03*
X152400000Y-92710000D03*
X149860000Y-92710000D03*
X152400000Y-95250000D03*
X149860000Y-95250000D03*
X152400000Y-97790000D03*
X149860000Y-97790000D03*
X152400000Y-100330000D03*
X149860000Y-100330000D03*
D11*
X100330000Y-90805000D03*
D12*
X102870000Y-90805000D03*
X100330000Y-88265000D03*
X102870000Y-88265000D03*
X100330000Y-85725000D03*
X102870000Y-85725000D03*
D11*
X153035000Y-33020000D03*
D12*
X150495000Y-33020000D03*
X153035000Y-35560000D03*
X150495000Y-35560000D03*
X153035000Y-38100000D03*
X150495000Y-38100000D03*
D11*
X130175000Y-67310000D03*
D12*
X132715000Y-67310000D03*
X130175000Y-64770000D03*
X132715000Y-64770000D03*
X130175000Y-62230000D03*
X132715000Y-62230000D03*
D11*
X148590000Y-56515000D03*
D12*
X146050000Y-56515000D03*
X143510000Y-56515000D03*
X140970000Y-56515000D03*
D13*
X151180000Y-45675000D03*
D14*
X153670000Y-46935000D03*
X153670000Y-51435000D03*
D13*
X151180000Y-52685000D03*
D15*
X127635000Y-67310000D03*
X127635000Y-62230000D03*
X133985000Y-89535000D03*
X143510000Y-100330000D03*
X120015000Y-30480000D03*
X114935000Y-30480000D03*
X132715000Y-53340000D03*
X132715000Y-41910000D03*
X105410000Y-88265000D03*
X97790000Y-88265000D03*
X112395000Y-100330000D03*
X111760000Y-84455000D03*
X118745000Y-87630000D03*
X125730000Y-73025000D03*
X125730000Y-75565000D03*
X123825000Y-72390000D03*
X123190000Y-70485000D03*
X130175000Y-34925000D03*
X108585000Y-40640000D03*
X108585000Y-76200000D03*
X108585000Y-71120000D03*
X108585000Y-66040000D03*
X103505000Y-31115000D03*
X97155000Y-40005000D03*
X97155000Y-75565000D03*
X97155000Y-70485000D03*
X97155000Y-65405000D03*
X97155000Y-34925000D03*
X132715000Y-75565000D03*
X127000000Y-59690000D03*
X128905000Y-71755000D03*
X127635000Y-64770000D03*
X118745000Y-96520000D03*
X108585000Y-60960000D03*
X108585000Y-55880000D03*
X108585000Y-50800000D03*
X108585000Y-45720000D03*
X115570000Y-104775000D03*
X97155000Y-60325000D03*
X97155000Y-55245000D03*
X97155000Y-50165000D03*
X97155000Y-45085000D03*
X105410000Y-90805000D03*
X104775000Y-102870000D03*
X97790000Y-85725000D03*
X102870000Y-83185000D03*
X118745000Y-82550000D03*
X118745000Y-85090000D03*
X153035000Y-40640000D03*
X150495000Y-40640000D03*
X137795000Y-45720000D03*
X137160000Y-43815000D03*
X140970000Y-38100000D03*
X143510000Y-38100000D03*
X147320000Y-85090000D03*
X147320000Y-87630000D03*
X154940000Y-85090000D03*
X154940000Y-100330000D03*
X154940000Y-95250000D03*
X147320000Y-95250000D03*
X154940000Y-97790000D03*
X147320000Y-97790000D03*
D16*
X127635000Y-50800000D03*
D17*
X130175000Y-50800000D03*
X132715000Y-50800000D03*
D16*
X127635000Y-39370000D03*
D17*
X130175000Y-39370000D03*
X132715000Y-39370000D03*
D18*
X98000000Y-26000000D03*
X156000000Y-59000000D03*
X98000000Y-102000000D03*
D19*
X120015000Y-33655000D03*
X114935000Y-33655000D03*
D20*
X100330000Y-34925000D03*
X100330000Y-40005000D03*
X100330000Y-45085000D03*
X100330000Y-50165000D03*
X100330000Y-55245000D03*
X100330000Y-60325000D03*
X100330000Y-65405000D03*
X100330000Y-70485000D03*
X100330000Y-75565000D03*
D13*
X153630000Y-74850000D03*
X151130000Y-64850000D03*
X148630000Y-74850000D03*
X116245000Y-94695000D03*
X118745000Y-104695000D03*
X121245000Y-94695000D03*
D21*
X138520000Y-99100000D03*
D22*
X133750000Y-99600000D03*
X131250000Y-99600000D03*
X131250000Y-96400000D03*
X133750000Y-96400000D03*
D21*
X126480000Y-99100000D03*
M02*
