G04 #@! TF.FileFunction,Copper,L1,Top,Signal*
%FSLAX46Y46*%
G04 Gerber Fmt 4.6, Leading zero omitted, Abs format (unit mm)*
G04 Created by KiCad (PCBNEW 4.0.7) date Tue Jan 30 12:06:56 2018*
%MOMM*%
%LPD*%
G01*
G04 APERTURE LIST*
%ADD10C,0.100000*%
%ADD11R,1.700000X1.700000*%
%ADD12O,1.700000X1.700000*%
%ADD13C,2.100000*%
%ADD14C,1.750000*%
%ADD15C,1.500000*%
%ADD16R,1.800000X1.800000*%
%ADD17O,1.800000X1.800000*%
%ADD18C,8.600000*%
%ADD19C,2.500000*%
%ADD20C,2.200000*%
%ADD21C,3.500000*%
%ADD22C,1.600000*%
%ADD23C,1.000000*%
%ADD24C,0.600000*%
%ADD25C,0.500000*%
%ADD26C,0.250000*%
G04 APERTURE END LIST*
D10*
D11*
X152400000Y-82550000D03*
D12*
X149860000Y-82550000D03*
X152400000Y-85090000D03*
X149860000Y-85090000D03*
X152400000Y-87630000D03*
X149860000Y-87630000D03*
X152400000Y-90170000D03*
X149860000Y-90170000D03*
X152400000Y-92710000D03*
X149860000Y-92710000D03*
X152400000Y-95250000D03*
X149860000Y-95250000D03*
X152400000Y-97790000D03*
X149860000Y-97790000D03*
X152400000Y-100330000D03*
X149860000Y-100330000D03*
D11*
X100330000Y-90805000D03*
D12*
X102870000Y-90805000D03*
X100330000Y-88265000D03*
X102870000Y-88265000D03*
X100330000Y-85725000D03*
X102870000Y-85725000D03*
D11*
X153035000Y-33020000D03*
D12*
X150495000Y-33020000D03*
X153035000Y-35560000D03*
X150495000Y-35560000D03*
X153035000Y-38100000D03*
X150495000Y-38100000D03*
D11*
X130175000Y-67310000D03*
D12*
X132715000Y-67310000D03*
X130175000Y-64770000D03*
X132715000Y-64770000D03*
X130175000Y-62230000D03*
X132715000Y-62230000D03*
D11*
X148590000Y-56515000D03*
D12*
X146050000Y-56515000D03*
X143510000Y-56515000D03*
X140970000Y-56515000D03*
D13*
X151180000Y-45675000D03*
D14*
X153670000Y-46935000D03*
X153670000Y-51435000D03*
D13*
X151180000Y-52685000D03*
D15*
X127635000Y-67310000D03*
X127635000Y-62230000D03*
X133985000Y-89535000D03*
X143510000Y-100330000D03*
X120015000Y-30480000D03*
X114935000Y-30480000D03*
X132715000Y-53340000D03*
X132715000Y-41910000D03*
X105410000Y-88265000D03*
X97790000Y-88265000D03*
X112395000Y-100330000D03*
X111760000Y-84455000D03*
X118745000Y-87630000D03*
X125730000Y-73025000D03*
X125730000Y-75565000D03*
X123825000Y-72390000D03*
X123190000Y-70485000D03*
X130175000Y-34925000D03*
X108585000Y-40640000D03*
X108585000Y-76200000D03*
X108585000Y-71120000D03*
X108585000Y-66040000D03*
X103505000Y-31115000D03*
X97155000Y-40005000D03*
X97155000Y-75565000D03*
X97155000Y-70485000D03*
X97155000Y-65405000D03*
X97155000Y-34925000D03*
X132715000Y-75565000D03*
X127000000Y-59690000D03*
X128905000Y-71755000D03*
X127635000Y-64770000D03*
X118745000Y-96520000D03*
X108585000Y-60960000D03*
X108585000Y-55880000D03*
X108585000Y-50800000D03*
X108585000Y-45720000D03*
X115570000Y-104775000D03*
X97155000Y-60325000D03*
X97155000Y-55245000D03*
X97155000Y-50165000D03*
X97155000Y-45085000D03*
X105410000Y-90805000D03*
X104775000Y-102870000D03*
X97790000Y-85725000D03*
X102870000Y-83185000D03*
X118745000Y-82550000D03*
X118745000Y-85090000D03*
X153035000Y-40640000D03*
X150495000Y-40640000D03*
X137795000Y-45720000D03*
X137160000Y-43815000D03*
X140970000Y-38100000D03*
X143510000Y-38100000D03*
X147320000Y-85090000D03*
X147320000Y-87630000D03*
X154940000Y-85090000D03*
X154940000Y-100330000D03*
X154940000Y-95250000D03*
X147320000Y-95250000D03*
X154940000Y-97790000D03*
X147320000Y-97790000D03*
D16*
X127635000Y-50800000D03*
D17*
X130175000Y-50800000D03*
X132715000Y-50800000D03*
D16*
X127635000Y-39370000D03*
D17*
X130175000Y-39370000D03*
X132715000Y-39370000D03*
D18*
X98000000Y-26000000D03*
X156000000Y-59000000D03*
X98000000Y-102000000D03*
D19*
X120015000Y-33655000D03*
X114935000Y-33655000D03*
D20*
X100330000Y-34925000D03*
X100330000Y-40005000D03*
X100330000Y-45085000D03*
X100330000Y-50165000D03*
X100330000Y-55245000D03*
X100330000Y-60325000D03*
X100330000Y-65405000D03*
X100330000Y-70485000D03*
X100330000Y-75565000D03*
D13*
X153630000Y-74850000D03*
X151130000Y-64850000D03*
X148630000Y-74850000D03*
X116245000Y-94695000D03*
X118745000Y-104695000D03*
X121245000Y-94695000D03*
D21*
X138520000Y-99100000D03*
D22*
X133750000Y-99600000D03*
X131250000Y-99600000D03*
X131250000Y-96400000D03*
X133750000Y-96400000D03*
D21*
X126480000Y-99100000D03*
D23*
X125730000Y-86995000D03*
X123825000Y-77470000D03*
X106680000Y-82550000D03*
X146050000Y-92075000D03*
X137160000Y-90805000D03*
D24*
X121920000Y-38100000D03*
X120015000Y-38100000D03*
X137160000Y-93980000D03*
D23*
X115610000Y-90130000D03*
D24*
X141605000Y-100330000D03*
X127000000Y-80010000D03*
X120650000Y-82550000D03*
X120650000Y-85090000D03*
X127000000Y-81280000D03*
X138430000Y-46990000D03*
X142240000Y-71120000D03*
X137795000Y-47625000D03*
X141605000Y-74295000D03*
D23*
X135890000Y-49530000D03*
D24*
X136525000Y-74930000D03*
X138430000Y-64770000D03*
X137160000Y-74295000D03*
X139065000Y-81915000D03*
X138430000Y-81280000D03*
X119380000Y-74930000D03*
X107315000Y-74295000D03*
X119380000Y-69850000D03*
X107315000Y-69215000D03*
X119380000Y-64770000D03*
X107315000Y-64135000D03*
X119380000Y-59690000D03*
X107315000Y-59055000D03*
X119380000Y-54610000D03*
X107315000Y-53975000D03*
X119380000Y-49530000D03*
X107315000Y-48895000D03*
X119380000Y-44450000D03*
X107315000Y-43815000D03*
X107315000Y-38735000D03*
X119380000Y-39370000D03*
X105410000Y-31115000D03*
X113665000Y-104775000D03*
D23*
X106045000Y-101600000D03*
D24*
X124460000Y-75565000D03*
X124460000Y-74295000D03*
X125095000Y-71755000D03*
X131445000Y-74295000D03*
X125095000Y-59690000D03*
X123825000Y-52070000D03*
X133985000Y-74930000D03*
X123825000Y-46990000D03*
X135255000Y-74930000D03*
X123825000Y-41910000D03*
X127000000Y-76200000D03*
X111125000Y-29845000D03*
X140970000Y-74930000D03*
X130175000Y-79375000D03*
X118745000Y-94615000D03*
X120650000Y-87630000D03*
X127000000Y-82550000D03*
X112395000Y-85725000D03*
X142240000Y-74930000D03*
X140970000Y-40005000D03*
X142875000Y-75565000D03*
X143510000Y-40005000D03*
X106680000Y-86360000D03*
D25*
X132715000Y-50800000D02*
X132715000Y-53340000D01*
X131445000Y-80645000D02*
X131445000Y-78105000D01*
X125730000Y-86995000D02*
X125730000Y-86360000D01*
X125730000Y-86360000D02*
X131445000Y-80645000D01*
X123190000Y-78105000D02*
X123825000Y-77470000D01*
X123825000Y-77470000D02*
X124460000Y-78105000D01*
X134620000Y-78105000D02*
X131445000Y-78105000D01*
X134620000Y-78105000D02*
X135890000Y-78105000D01*
X135890000Y-78105000D02*
X138430000Y-75565000D01*
X132715000Y-68580000D02*
X132715000Y-67310000D01*
X138430000Y-74295000D02*
X138430000Y-75565000D01*
X132715000Y-68580000D02*
X138430000Y-74295000D01*
X131445000Y-78105000D02*
X124460000Y-78105000D01*
X124460000Y-78105000D02*
X123190000Y-78105000D01*
X123190000Y-78105000D02*
X111125000Y-78105000D01*
X111125000Y-78105000D02*
X106680000Y-82550000D01*
X146050000Y-92075000D02*
X144780000Y-90805000D01*
X144780000Y-90805000D02*
X144780000Y-83185000D01*
X137160000Y-90805000D02*
X144780000Y-83185000D01*
X144780000Y-83185000D02*
X145415000Y-82550000D01*
X145415000Y-82550000D02*
X146050000Y-82550000D01*
X146050000Y-82550000D02*
X149860000Y-82550000D01*
D26*
X121920000Y-38100000D02*
X120015000Y-38100000D01*
X133750000Y-99600000D02*
X137160000Y-96190000D01*
X137160000Y-96190000D02*
X137160000Y-93980000D01*
D25*
X132715000Y-39370000D02*
X132715000Y-41910000D01*
X132715000Y-38735000D02*
X130810000Y-36830000D01*
X109935000Y-84455000D02*
X115610000Y-90130000D01*
X106045000Y-84455000D02*
X109935000Y-84455000D01*
X104775000Y-83185000D02*
X106045000Y-84455000D01*
X104775000Y-38735000D02*
X104775000Y-83185000D01*
X106680000Y-36830000D02*
X104775000Y-38735000D01*
X130810000Y-36830000D02*
X106680000Y-36830000D01*
X115610000Y-90130000D02*
X115570000Y-90170000D01*
X126480000Y-99100000D02*
X129615000Y-102235000D01*
X135385000Y-102235000D02*
X138520000Y-99100000D01*
X129615000Y-102235000D02*
X135385000Y-102235000D01*
D26*
X143510000Y-100330000D02*
X141605000Y-100330000D01*
X124460000Y-82550000D02*
X120650000Y-82550000D01*
X127000000Y-80010000D02*
X124460000Y-82550000D01*
X118745000Y-82550000D02*
X120650000Y-82550000D01*
X118745000Y-85090000D02*
X120650000Y-85090000D01*
X120650000Y-85090000D02*
X123190000Y-85090000D01*
X123190000Y-85090000D02*
X127000000Y-81280000D01*
X138430000Y-46990000D02*
X138430000Y-46355000D01*
X138430000Y-46355000D02*
X137795000Y-45720000D01*
X138430000Y-59055000D02*
X138430000Y-46990000D01*
X142240000Y-62865000D02*
X138430000Y-59055000D01*
X142240000Y-71120000D02*
X142240000Y-62865000D01*
X137160000Y-43815000D02*
X136525000Y-44450000D01*
X136525000Y-44450000D02*
X136525000Y-46355000D01*
X136525000Y-46355000D02*
X137795000Y-47625000D01*
X141605000Y-74295000D02*
X141605000Y-72390000D01*
X141605000Y-72390000D02*
X141605000Y-72390000D01*
X141605000Y-72390000D02*
X141605000Y-63500000D01*
X141605000Y-63500000D02*
X137795000Y-59690000D01*
X137795000Y-59690000D02*
X137795000Y-48895000D01*
X137795000Y-48895000D02*
X137795000Y-47625000D01*
D25*
X105410000Y-90805000D02*
X102870000Y-90805000D01*
D26*
X97790000Y-88265000D02*
X100330000Y-88265000D01*
X105410000Y-88265000D02*
X102870000Y-88265000D01*
X97790000Y-85725000D02*
X100330000Y-85725000D01*
X102870000Y-85725000D02*
X102870000Y-83185000D01*
D25*
X97155000Y-34925000D02*
X100330000Y-34925000D01*
X97155000Y-40005000D02*
X100330000Y-40005000D01*
X97155000Y-45085000D02*
X100330000Y-45085000D01*
X97155000Y-50165000D02*
X100330000Y-50165000D01*
X97155000Y-55245000D02*
X100330000Y-55245000D01*
X97155000Y-60325000D02*
X100330000Y-60325000D01*
X97155000Y-65405000D02*
X100330000Y-65405000D01*
X97155000Y-70485000D02*
X100330000Y-70485000D01*
X97155000Y-75565000D02*
X100330000Y-75565000D01*
D26*
X133750000Y-96400000D02*
X133750000Y-89770000D01*
X133750000Y-89770000D02*
X133985000Y-89535000D01*
X151130000Y-64850000D02*
X151130000Y-83820000D01*
X151130000Y-83820000D02*
X152400000Y-85090000D01*
X154940000Y-85090000D02*
X152400000Y-85090000D01*
X147320000Y-85090000D02*
X149860000Y-85090000D01*
X147320000Y-87630000D02*
X149860000Y-87630000D01*
X154940000Y-95250000D02*
X152400000Y-95250000D01*
X147320000Y-95250000D02*
X149860000Y-95250000D01*
X154940000Y-97790000D02*
X152400000Y-97790000D01*
X147320000Y-97790000D02*
X149860000Y-97790000D01*
X154940000Y-100330000D02*
X152400000Y-100330000D01*
X153035000Y-38100000D02*
X153035000Y-40640000D01*
X150495000Y-38100000D02*
X150495000Y-40640000D01*
D25*
X127635000Y-48895000D02*
X135255000Y-48895000D01*
X135255000Y-48895000D02*
X135890000Y-49530000D01*
X120015000Y-30480000D02*
X120015000Y-33655000D01*
X127635000Y-39370000D02*
X127635000Y-48895000D01*
X127635000Y-48895000D02*
X127635000Y-50800000D01*
D26*
X127635000Y-67310000D02*
X130175000Y-67310000D01*
X130810000Y-69215000D02*
X130810000Y-67945000D01*
X136525000Y-74930000D02*
X130810000Y-69215000D01*
X130810000Y-67945000D02*
X130175000Y-67310000D01*
X131445000Y-66040000D02*
X133350000Y-66040000D01*
X134620000Y-64770000D02*
X138430000Y-64770000D01*
X133350000Y-66040000D02*
X134620000Y-64770000D01*
X130175000Y-62230000D02*
X131445000Y-63500000D01*
X127635000Y-62230000D02*
X130175000Y-62230000D01*
X131445000Y-68580000D02*
X131445000Y-66040000D01*
X137160000Y-74295000D02*
X131445000Y-68580000D01*
X131445000Y-66040000D02*
X131445000Y-63500000D01*
X144780000Y-57150000D02*
X145415000Y-56515000D01*
X144780000Y-76200000D02*
X144780000Y-57150000D01*
X139065000Y-81915000D02*
X144780000Y-76200000D01*
X145415000Y-56515000D02*
X146050000Y-56515000D01*
X145415000Y-56515000D02*
X146050000Y-56515000D01*
X144145000Y-75565000D02*
X144145000Y-57150000D01*
X138430000Y-81280000D02*
X144145000Y-75565000D01*
X144145000Y-57150000D02*
X143510000Y-56515000D01*
X143510000Y-56515000D02*
X143510000Y-56515000D01*
X108585000Y-76200000D02*
X108585000Y-74295000D01*
X118745000Y-74295000D02*
X119380000Y-74930000D01*
X107315000Y-74295000D02*
X108585000Y-74295000D01*
X108585000Y-74295000D02*
X118745000Y-74295000D01*
X108585000Y-71120000D02*
X108585000Y-69215000D01*
X118745000Y-69215000D02*
X119380000Y-69850000D01*
X107315000Y-69215000D02*
X108585000Y-69215000D01*
X108585000Y-69215000D02*
X118745000Y-69215000D01*
X108585000Y-66040000D02*
X108585000Y-64135000D01*
X118745000Y-64135000D02*
X119380000Y-64770000D01*
X107315000Y-64135000D02*
X108585000Y-64135000D01*
X108585000Y-64135000D02*
X118745000Y-64135000D01*
X108585000Y-60960000D02*
X108585000Y-59055000D01*
X118745000Y-59055000D02*
X119380000Y-59690000D01*
X107315000Y-59055000D02*
X108585000Y-59055000D01*
X108585000Y-59055000D02*
X118745000Y-59055000D01*
X108585000Y-55880000D02*
X108585000Y-53975000D01*
X118745000Y-53975000D02*
X119380000Y-54610000D01*
X107315000Y-53975000D02*
X108585000Y-53975000D01*
X108585000Y-53975000D02*
X118745000Y-53975000D01*
X108585000Y-50800000D02*
X108585000Y-48895000D01*
X118745000Y-48895000D02*
X119380000Y-49530000D01*
X107315000Y-48895000D02*
X108585000Y-48895000D01*
X108585000Y-48895000D02*
X118745000Y-48895000D01*
X108585000Y-45720000D02*
X108585000Y-43815000D01*
X118745000Y-43815000D02*
X119380000Y-44450000D01*
X107315000Y-43815000D02*
X108585000Y-43815000D01*
X108585000Y-43815000D02*
X118745000Y-43815000D01*
X108585000Y-40640000D02*
X108585000Y-38735000D01*
X107315000Y-38735000D02*
X108585000Y-38735000D01*
X108585000Y-38735000D02*
X118745000Y-38735000D01*
X118745000Y-38735000D02*
X119380000Y-39370000D01*
X105410000Y-31115000D02*
X103505000Y-31115000D01*
X115570000Y-104775000D02*
X113665000Y-104775000D01*
D25*
X104775000Y-102870000D02*
X106045000Y-101600000D01*
D26*
X125730000Y-75565000D02*
X124460000Y-75565000D01*
X124460000Y-74295000D02*
X124460000Y-73025000D01*
X124460000Y-73025000D02*
X123825000Y-72390000D01*
X123825000Y-70485000D02*
X125095000Y-71755000D01*
X123825000Y-70485000D02*
X123190000Y-70485000D01*
X132715000Y-75565000D02*
X131445000Y-74295000D01*
X125095000Y-59690000D02*
X127000000Y-59690000D01*
X128905000Y-71755000D02*
X128905000Y-70485000D01*
X123825000Y-67945000D02*
X123825000Y-52070000D01*
X126365000Y-70485000D02*
X123825000Y-67945000D01*
X129540000Y-70485000D02*
X128905000Y-70485000D01*
X128905000Y-70485000D02*
X126365000Y-70485000D01*
X133985000Y-74930000D02*
X129540000Y-70485000D01*
X127635000Y-64770000D02*
X124460000Y-64770000D01*
X124460000Y-51435000D02*
X123825000Y-50800000D01*
X130175000Y-69850000D02*
X127000000Y-69850000D01*
X127000000Y-69850000D02*
X124460000Y-67310000D01*
X124460000Y-67310000D02*
X124460000Y-64770000D01*
X124460000Y-64770000D02*
X124460000Y-51435000D01*
X135255000Y-74930000D02*
X130175000Y-69850000D01*
X123825000Y-50800000D02*
X123825000Y-46990000D01*
X125730000Y-73025000D02*
X127000000Y-73025000D01*
X123190000Y-68580000D02*
X127000000Y-72390000D01*
X123190000Y-68580000D02*
X123190000Y-42545000D01*
X123190000Y-42545000D02*
X123825000Y-41910000D01*
X127000000Y-72390000D02*
X127000000Y-73025000D01*
X127000000Y-73025000D02*
X127000000Y-76200000D01*
X130175000Y-34925000D02*
X130175000Y-36195000D01*
X111125000Y-34925000D02*
X111125000Y-29845000D01*
X112395000Y-36195000D02*
X111125000Y-34925000D01*
X131445000Y-36195000D02*
X130175000Y-36195000D01*
X130175000Y-36195000D02*
X112395000Y-36195000D01*
X135890000Y-40640000D02*
X131445000Y-36195000D01*
X135890000Y-46990000D02*
X135890000Y-40640000D01*
X137160000Y-48260000D02*
X135890000Y-46990000D01*
X137160000Y-60325000D02*
X137160000Y-48260000D01*
X140970000Y-64135000D02*
X137160000Y-60325000D01*
X140970000Y-74930000D02*
X140970000Y-64135000D01*
X118745000Y-96520000D02*
X118745000Y-94615000D01*
X123190000Y-87630000D02*
X118745000Y-92075000D01*
X130175000Y-79375000D02*
X130175000Y-80645000D01*
X130175000Y-80645000D02*
X123190000Y-87630000D01*
X118745000Y-92075000D02*
X118745000Y-94615000D01*
X118745000Y-87630000D02*
X120650000Y-87630000D01*
X127000000Y-82550000D02*
X121920000Y-87630000D01*
X121920000Y-87630000D02*
X120650000Y-87630000D01*
X111760000Y-85090000D02*
X112395000Y-85725000D01*
X111760000Y-85090000D02*
X111760000Y-84455000D01*
X140970000Y-40005000D02*
X140970000Y-38100000D01*
X142240000Y-74930000D02*
X142875000Y-74295000D01*
X142875000Y-74295000D02*
X142875000Y-62230000D01*
X139065000Y-41910000D02*
X140970000Y-40005000D01*
X139065000Y-58420000D02*
X139065000Y-41910000D01*
X142875000Y-62230000D02*
X139065000Y-58420000D01*
X140970000Y-40005000D02*
X140970000Y-40005000D01*
X143510000Y-40005000D02*
X143510000Y-38100000D01*
X143510000Y-61595000D02*
X143510000Y-74930000D01*
X143510000Y-61595000D02*
X139700000Y-57785000D01*
X139700000Y-57785000D02*
X139700000Y-42545000D01*
X141605000Y-40640000D02*
X139700000Y-42545000D01*
X143510000Y-74930000D02*
X142875000Y-75565000D01*
X142240000Y-40005000D02*
X143510000Y-40005000D01*
X141605000Y-40640000D02*
X142240000Y-40005000D01*
X141605000Y-40640000D02*
X141605000Y-40640000D01*
X142875000Y-75565000D02*
X142875000Y-75565000D01*
X112395000Y-100330000D02*
X114300000Y-100330000D01*
X106680000Y-86360000D02*
X114300000Y-93980000D01*
X114300000Y-100330000D02*
X118745000Y-104775000D01*
X118745000Y-104695000D02*
X118745000Y-104775000D01*
X114300000Y-93980000D02*
X114300000Y-100330000D01*
G36*
X158130275Y-20857065D02*
X159936233Y-22063767D01*
X161142935Y-23869725D01*
X161575000Y-26041860D01*
X161575000Y-101958140D01*
X161142935Y-104130275D01*
X159936233Y-105936233D01*
X158130275Y-107142935D01*
X155958140Y-107575000D01*
X98041860Y-107575000D01*
X95869725Y-107142935D01*
X94063767Y-105936233D01*
X93377177Y-104908677D01*
X112989883Y-104908677D01*
X113092429Y-105156857D01*
X113282144Y-105346903D01*
X113530145Y-105449883D01*
X113798677Y-105450117D01*
X114046857Y-105347571D01*
X114119555Y-105275000D01*
X114559344Y-105275000D01*
X114615715Y-105411429D01*
X114931907Y-105728172D01*
X115345242Y-105899804D01*
X115792795Y-105900195D01*
X116206429Y-105729285D01*
X116523172Y-105413093D01*
X116694804Y-104999758D01*
X116695195Y-104552205D01*
X116524285Y-104138571D01*
X116208093Y-103821828D01*
X115794758Y-103650196D01*
X115347205Y-103649805D01*
X114933571Y-103820715D01*
X114616828Y-104136907D01*
X114559487Y-104275000D01*
X114119634Y-104275000D01*
X114047856Y-104203097D01*
X113799855Y-104100117D01*
X113531323Y-104099883D01*
X113283143Y-104202429D01*
X113093097Y-104392144D01*
X112990117Y-104640145D01*
X112989883Y-104908677D01*
X93377177Y-104908677D01*
X92857065Y-104130275D01*
X92650698Y-103092795D01*
X103649805Y-103092795D01*
X103820715Y-103506429D01*
X104136907Y-103823172D01*
X104550242Y-103994804D01*
X104997795Y-103995195D01*
X105411429Y-103824285D01*
X105728172Y-103508093D01*
X105899804Y-103094758D01*
X105900195Y-102647205D01*
X105894781Y-102634103D01*
X106053876Y-102475008D01*
X106218285Y-102475151D01*
X106540000Y-102342221D01*
X106786356Y-102096295D01*
X106919848Y-101774812D01*
X106920151Y-101426715D01*
X106787221Y-101105000D01*
X106541295Y-100858644D01*
X106219812Y-100725152D01*
X105871715Y-100724849D01*
X105550000Y-100857779D01*
X105303644Y-101103705D01*
X105170152Y-101425188D01*
X105170008Y-101591108D01*
X105011178Y-101749938D01*
X104999758Y-101745196D01*
X104552205Y-101744805D01*
X104138571Y-101915715D01*
X103821828Y-102231907D01*
X103650196Y-102645242D01*
X103649805Y-103092795D01*
X92650698Y-103092795D01*
X92425000Y-101958140D01*
X92425000Y-91023750D01*
X99105000Y-91023750D01*
X99105000Y-91729592D01*
X99162090Y-91867421D01*
X99267580Y-91972910D01*
X99405408Y-92030000D01*
X100111250Y-92030000D01*
X100205000Y-91936250D01*
X100205000Y-90930000D01*
X100455000Y-90930000D01*
X100455000Y-91936250D01*
X100548750Y-92030000D01*
X101254592Y-92030000D01*
X101392420Y-91972910D01*
X101497910Y-91867421D01*
X101555000Y-91729592D01*
X101555000Y-91023750D01*
X101461250Y-90930000D01*
X100455000Y-90930000D01*
X100205000Y-90930000D01*
X99198750Y-90930000D01*
X99105000Y-91023750D01*
X92425000Y-91023750D01*
X92425000Y-90805000D01*
X101621001Y-90805000D01*
X101714249Y-91273787D01*
X101979795Y-91671206D01*
X102377214Y-91936752D01*
X102846001Y-92030000D01*
X102893999Y-92030000D01*
X103362786Y-91936752D01*
X103760205Y-91671206D01*
X103921373Y-91430000D01*
X104450993Y-91430000D01*
X104455715Y-91441429D01*
X104771907Y-91758172D01*
X105185242Y-91929804D01*
X105632795Y-91930195D01*
X106046429Y-91759285D01*
X106363172Y-91443093D01*
X106534804Y-91029758D01*
X106535195Y-90582205D01*
X106364285Y-90168571D01*
X106048093Y-89851828D01*
X105634758Y-89680196D01*
X105187205Y-89679805D01*
X104773571Y-89850715D01*
X104456828Y-90166907D01*
X104451391Y-90180000D01*
X103921373Y-90180000D01*
X103760205Y-89938794D01*
X103362786Y-89673248D01*
X102893999Y-89580000D01*
X102846001Y-89580000D01*
X102377214Y-89673248D01*
X101979795Y-89938794D01*
X101714249Y-90336213D01*
X101621001Y-90805000D01*
X92425000Y-90805000D01*
X92425000Y-89880408D01*
X99105000Y-89880408D01*
X99105000Y-90586250D01*
X99198750Y-90680000D01*
X100205000Y-90680000D01*
X100205000Y-89673750D01*
X100455000Y-89673750D01*
X100455000Y-90680000D01*
X101461250Y-90680000D01*
X101555000Y-90586250D01*
X101555000Y-89880408D01*
X101497910Y-89742579D01*
X101392420Y-89637090D01*
X101254592Y-89580000D01*
X100548750Y-89580000D01*
X100455000Y-89673750D01*
X100205000Y-89673750D01*
X100111250Y-89580000D01*
X99405408Y-89580000D01*
X99267580Y-89637090D01*
X99162090Y-89742579D01*
X99105000Y-89880408D01*
X92425000Y-89880408D01*
X92425000Y-88487795D01*
X96664805Y-88487795D01*
X96835715Y-88901429D01*
X97151907Y-89218172D01*
X97565242Y-89389804D01*
X98012795Y-89390195D01*
X98426429Y-89219285D01*
X98743172Y-88903093D01*
X98800513Y-88765000D01*
X99195105Y-88765000D01*
X99439795Y-89131206D01*
X99837214Y-89396752D01*
X100306001Y-89490000D01*
X100353999Y-89490000D01*
X100822786Y-89396752D01*
X101220205Y-89131206D01*
X101485751Y-88733787D01*
X101578999Y-88265000D01*
X101621001Y-88265000D01*
X101714249Y-88733787D01*
X101979795Y-89131206D01*
X102377214Y-89396752D01*
X102846001Y-89490000D01*
X102893999Y-89490000D01*
X103362786Y-89396752D01*
X103760205Y-89131206D01*
X104004895Y-88765000D01*
X104399344Y-88765000D01*
X104455715Y-88901429D01*
X104771907Y-89218172D01*
X105185242Y-89389804D01*
X105632795Y-89390195D01*
X106046429Y-89219285D01*
X106363172Y-88903093D01*
X106534804Y-88489758D01*
X106535195Y-88042205D01*
X106364285Y-87628571D01*
X106048093Y-87311828D01*
X105634758Y-87140196D01*
X105187205Y-87139805D01*
X104773571Y-87310715D01*
X104456828Y-87626907D01*
X104399487Y-87765000D01*
X104004895Y-87765000D01*
X103760205Y-87398794D01*
X103362786Y-87133248D01*
X102893999Y-87040000D01*
X102846001Y-87040000D01*
X102377214Y-87133248D01*
X101979795Y-87398794D01*
X101714249Y-87796213D01*
X101621001Y-88265000D01*
X101578999Y-88265000D01*
X101485751Y-87796213D01*
X101220205Y-87398794D01*
X100822786Y-87133248D01*
X100353999Y-87040000D01*
X100306001Y-87040000D01*
X99837214Y-87133248D01*
X99439795Y-87398794D01*
X99195105Y-87765000D01*
X98800656Y-87765000D01*
X98744285Y-87628571D01*
X98428093Y-87311828D01*
X98014758Y-87140196D01*
X97567205Y-87139805D01*
X97153571Y-87310715D01*
X96836828Y-87626907D01*
X96665196Y-88040242D01*
X96664805Y-88487795D01*
X92425000Y-88487795D01*
X92425000Y-85947795D01*
X96664805Y-85947795D01*
X96835715Y-86361429D01*
X97151907Y-86678172D01*
X97565242Y-86849804D01*
X98012795Y-86850195D01*
X98426429Y-86679285D01*
X98743172Y-86363093D01*
X98800513Y-86225000D01*
X99195105Y-86225000D01*
X99439795Y-86591206D01*
X99837214Y-86856752D01*
X100306001Y-86950000D01*
X100353999Y-86950000D01*
X100822786Y-86856752D01*
X101220205Y-86591206D01*
X101485751Y-86193787D01*
X101578999Y-85725000D01*
X101621001Y-85725000D01*
X101714249Y-86193787D01*
X101979795Y-86591206D01*
X102377214Y-86856752D01*
X102846001Y-86950000D01*
X102893999Y-86950000D01*
X103362786Y-86856752D01*
X103760205Y-86591206D01*
X103825371Y-86493677D01*
X106004883Y-86493677D01*
X106107429Y-86741857D01*
X106297144Y-86931903D01*
X106545145Y-87034883D01*
X106647866Y-87034973D01*
X113800000Y-94187107D01*
X113800000Y-99830000D01*
X113405656Y-99830000D01*
X113349285Y-99693571D01*
X113033093Y-99376828D01*
X112619758Y-99205196D01*
X112172205Y-99204805D01*
X111758571Y-99375715D01*
X111441828Y-99691907D01*
X111270196Y-100105242D01*
X111269805Y-100552795D01*
X111440715Y-100966429D01*
X111756907Y-101283172D01*
X112170242Y-101454804D01*
X112617795Y-101455195D01*
X113031429Y-101284285D01*
X113348172Y-100968093D01*
X113405513Y-100830000D01*
X114092894Y-100830000D01*
X117423806Y-104160913D01*
X117320248Y-104410307D01*
X117319754Y-104977206D01*
X117536240Y-105501143D01*
X117936749Y-105902351D01*
X118460307Y-106119752D01*
X119027206Y-106120246D01*
X119551143Y-105903760D01*
X119952351Y-105503251D01*
X120169752Y-104979693D01*
X120170246Y-104412794D01*
X119953760Y-103888857D01*
X119553251Y-103487649D01*
X119029693Y-103270248D01*
X118462794Y-103269754D01*
X118097710Y-103420603D01*
X114800000Y-100122894D01*
X114800000Y-99520834D01*
X124354632Y-99520834D01*
X124677462Y-100302143D01*
X125274713Y-100900437D01*
X126055457Y-101224630D01*
X126900834Y-101225368D01*
X127481541Y-100985425D01*
X129173056Y-102676939D01*
X129173058Y-102676942D01*
X129375823Y-102812425D01*
X129615000Y-102860001D01*
X129615005Y-102860000D01*
X135385000Y-102860000D01*
X135624177Y-102812425D01*
X135826942Y-102676942D01*
X137518731Y-100985153D01*
X138095457Y-101224630D01*
X138940834Y-101225368D01*
X139722143Y-100902538D01*
X140161770Y-100463677D01*
X140929883Y-100463677D01*
X141032429Y-100711857D01*
X141222144Y-100901903D01*
X141470145Y-101004883D01*
X141738677Y-101005117D01*
X141986857Y-100902571D01*
X142059555Y-100830000D01*
X142499344Y-100830000D01*
X142555715Y-100966429D01*
X142871907Y-101283172D01*
X143285242Y-101454804D01*
X143732795Y-101455195D01*
X144146429Y-101284285D01*
X144463172Y-100968093D01*
X144597708Y-100644093D01*
X148675951Y-100644093D01*
X148800645Y-100945157D01*
X149116694Y-101303729D01*
X149545905Y-101514059D01*
X149735000Y-101454867D01*
X149735000Y-100455000D01*
X149985000Y-100455000D01*
X149985000Y-101454867D01*
X150174095Y-101514059D01*
X150603306Y-101303729D01*
X150919355Y-100945157D01*
X151044049Y-100644093D01*
X150984323Y-100455000D01*
X149985000Y-100455000D01*
X149735000Y-100455000D01*
X148735677Y-100455000D01*
X148675951Y-100644093D01*
X144597708Y-100644093D01*
X144634804Y-100554758D01*
X144635000Y-100330000D01*
X151151001Y-100330000D01*
X151244249Y-100798787D01*
X151509795Y-101196206D01*
X151907214Y-101461752D01*
X152376001Y-101555000D01*
X152423999Y-101555000D01*
X152892786Y-101461752D01*
X153290205Y-101196206D01*
X153534895Y-100830000D01*
X153929344Y-100830000D01*
X153985715Y-100966429D01*
X154301907Y-101283172D01*
X154715242Y-101454804D01*
X155162795Y-101455195D01*
X155576429Y-101284285D01*
X155893172Y-100968093D01*
X156064804Y-100554758D01*
X156065195Y-100107205D01*
X155894285Y-99693571D01*
X155578093Y-99376828D01*
X155164758Y-99205196D01*
X154717205Y-99204805D01*
X154303571Y-99375715D01*
X153986828Y-99691907D01*
X153929487Y-99830000D01*
X153534895Y-99830000D01*
X153290205Y-99463794D01*
X152892786Y-99198248D01*
X152423999Y-99105000D01*
X152376001Y-99105000D01*
X151907214Y-99198248D01*
X151509795Y-99463794D01*
X151244249Y-99861213D01*
X151151001Y-100330000D01*
X144635000Y-100330000D01*
X144635195Y-100107205D01*
X144597472Y-100015907D01*
X148675951Y-100015907D01*
X148735677Y-100205000D01*
X149735000Y-100205000D01*
X149735000Y-99205133D01*
X149985000Y-99205133D01*
X149985000Y-100205000D01*
X150984323Y-100205000D01*
X151044049Y-100015907D01*
X150919355Y-99714843D01*
X150603306Y-99356271D01*
X150174095Y-99145941D01*
X149985000Y-99205133D01*
X149735000Y-99205133D01*
X149545905Y-99145941D01*
X149116694Y-99356271D01*
X148800645Y-99714843D01*
X148675951Y-100015907D01*
X144597472Y-100015907D01*
X144464285Y-99693571D01*
X144148093Y-99376828D01*
X143734758Y-99205196D01*
X143287205Y-99204805D01*
X142873571Y-99375715D01*
X142556828Y-99691907D01*
X142499487Y-99830000D01*
X142059634Y-99830000D01*
X141987856Y-99758097D01*
X141739855Y-99655117D01*
X141471323Y-99654883D01*
X141223143Y-99757429D01*
X141033097Y-99947144D01*
X140930117Y-100195145D01*
X140929883Y-100463677D01*
X140161770Y-100463677D01*
X140320437Y-100305287D01*
X140644630Y-99524543D01*
X140645368Y-98679166D01*
X140370030Y-98012795D01*
X146194805Y-98012795D01*
X146365715Y-98426429D01*
X146681907Y-98743172D01*
X147095242Y-98914804D01*
X147542795Y-98915195D01*
X147956429Y-98744285D01*
X148273172Y-98428093D01*
X148330513Y-98290000D01*
X148725105Y-98290000D01*
X148969795Y-98656206D01*
X149367214Y-98921752D01*
X149836001Y-99015000D01*
X149883999Y-99015000D01*
X150352786Y-98921752D01*
X150750205Y-98656206D01*
X151015751Y-98258787D01*
X151108999Y-97790000D01*
X151151001Y-97790000D01*
X151244249Y-98258787D01*
X151509795Y-98656206D01*
X151907214Y-98921752D01*
X152376001Y-99015000D01*
X152423999Y-99015000D01*
X152892786Y-98921752D01*
X153290205Y-98656206D01*
X153534895Y-98290000D01*
X153929344Y-98290000D01*
X153985715Y-98426429D01*
X154301907Y-98743172D01*
X154715242Y-98914804D01*
X155162795Y-98915195D01*
X155576429Y-98744285D01*
X155893172Y-98428093D01*
X156064804Y-98014758D01*
X156065195Y-97567205D01*
X155894285Y-97153571D01*
X155578093Y-96836828D01*
X155164758Y-96665196D01*
X154717205Y-96664805D01*
X154303571Y-96835715D01*
X153986828Y-97151907D01*
X153929487Y-97290000D01*
X153534895Y-97290000D01*
X153290205Y-96923794D01*
X152892786Y-96658248D01*
X152423999Y-96565000D01*
X152376001Y-96565000D01*
X151907214Y-96658248D01*
X151509795Y-96923794D01*
X151244249Y-97321213D01*
X151151001Y-97790000D01*
X151108999Y-97790000D01*
X151015751Y-97321213D01*
X150750205Y-96923794D01*
X150352786Y-96658248D01*
X149883999Y-96565000D01*
X149836001Y-96565000D01*
X149367214Y-96658248D01*
X148969795Y-96923794D01*
X148725105Y-97290000D01*
X148330656Y-97290000D01*
X148274285Y-97153571D01*
X147958093Y-96836828D01*
X147544758Y-96665196D01*
X147097205Y-96664805D01*
X146683571Y-96835715D01*
X146366828Y-97151907D01*
X146195196Y-97565242D01*
X146194805Y-98012795D01*
X140370030Y-98012795D01*
X140322538Y-97897857D01*
X139725287Y-97299563D01*
X138944543Y-96975370D01*
X138099166Y-96974632D01*
X137317857Y-97297462D01*
X136719563Y-97894713D01*
X136395370Y-98675457D01*
X136394632Y-99520834D01*
X136634575Y-100101541D01*
X135126116Y-101610000D01*
X129873883Y-101610000D01*
X128365153Y-100101269D01*
X128476673Y-99832697D01*
X130074796Y-99832697D01*
X130253302Y-100264715D01*
X130583547Y-100595536D01*
X131015253Y-100774796D01*
X131482697Y-100775204D01*
X131914715Y-100596698D01*
X132047438Y-100464206D01*
X133062571Y-100464206D01*
X133150792Y-100637402D01*
X133593401Y-100787742D01*
X134059851Y-100757259D01*
X134349208Y-100637402D01*
X134437429Y-100464206D01*
X133750000Y-99776777D01*
X133062571Y-100464206D01*
X132047438Y-100464206D01*
X132245536Y-100266453D01*
X132424796Y-99834747D01*
X132425137Y-99443401D01*
X132562258Y-99443401D01*
X132592741Y-99909851D01*
X132712598Y-100199208D01*
X132885794Y-100287429D01*
X133573223Y-99600000D01*
X133926777Y-99600000D01*
X134614206Y-100287429D01*
X134787402Y-100199208D01*
X134937742Y-99756599D01*
X134907259Y-99290149D01*
X134787402Y-99000792D01*
X134614206Y-98912571D01*
X133926777Y-99600000D01*
X133573223Y-99600000D01*
X132885794Y-98912571D01*
X132712598Y-99000792D01*
X132562258Y-99443401D01*
X132425137Y-99443401D01*
X132425204Y-99367303D01*
X132246698Y-98935285D01*
X132047555Y-98735794D01*
X133062571Y-98735794D01*
X133750000Y-99423223D01*
X134437429Y-98735794D01*
X134349208Y-98562598D01*
X133906599Y-98412258D01*
X133440149Y-98442741D01*
X133150792Y-98562598D01*
X133062571Y-98735794D01*
X132047555Y-98735794D01*
X131916453Y-98604464D01*
X131484747Y-98425204D01*
X131017303Y-98424796D01*
X130585285Y-98603302D01*
X130254464Y-98933547D01*
X130075204Y-99365253D01*
X130074796Y-99832697D01*
X128476673Y-99832697D01*
X128604630Y-99524543D01*
X128605368Y-98679166D01*
X128282538Y-97897857D01*
X127685287Y-97299563D01*
X126904543Y-96975370D01*
X126059166Y-96974632D01*
X125277857Y-97297462D01*
X124679563Y-97894713D01*
X124355370Y-98675457D01*
X124354632Y-99520834D01*
X114800000Y-99520834D01*
X114800000Y-94977206D01*
X114819754Y-94977206D01*
X115036240Y-95501143D01*
X115436749Y-95902351D01*
X115960307Y-96119752D01*
X116527206Y-96120246D01*
X117051143Y-95903760D01*
X117452351Y-95503251D01*
X117669752Y-94979693D01*
X117670246Y-94412794D01*
X117453760Y-93888857D01*
X117053251Y-93487649D01*
X116529693Y-93270248D01*
X115962794Y-93269754D01*
X115438857Y-93486240D01*
X115037649Y-93886749D01*
X114820248Y-94410307D01*
X114819754Y-94977206D01*
X114800000Y-94977206D01*
X114800000Y-93980000D01*
X114761940Y-93788658D01*
X114691828Y-93683729D01*
X114653553Y-93626446D01*
X107355028Y-86327922D01*
X107355117Y-86226323D01*
X107252571Y-85978143D01*
X107062856Y-85788097D01*
X106814855Y-85685117D01*
X106546323Y-85684883D01*
X106298143Y-85787429D01*
X106108097Y-85977144D01*
X106005117Y-86225145D01*
X106004883Y-86493677D01*
X103825371Y-86493677D01*
X104025751Y-86193787D01*
X104118999Y-85725000D01*
X104025751Y-85256213D01*
X103760205Y-84858794D01*
X103370000Y-84598068D01*
X103370000Y-84195656D01*
X103506429Y-84139285D01*
X103823172Y-83823093D01*
X103994804Y-83409758D01*
X103995195Y-82962205D01*
X103824285Y-82548571D01*
X103508093Y-82231828D01*
X103094758Y-82060196D01*
X102647205Y-82059805D01*
X102233571Y-82230715D01*
X101916828Y-82546907D01*
X101745196Y-82960242D01*
X101744805Y-83407795D01*
X101915715Y-83821429D01*
X102231907Y-84138172D01*
X102370000Y-84195513D01*
X102370000Y-84598068D01*
X101979795Y-84858794D01*
X101714249Y-85256213D01*
X101621001Y-85725000D01*
X101578999Y-85725000D01*
X101485751Y-85256213D01*
X101220205Y-84858794D01*
X100822786Y-84593248D01*
X100353999Y-84500000D01*
X100306001Y-84500000D01*
X99837214Y-84593248D01*
X99439795Y-84858794D01*
X99195105Y-85225000D01*
X98800656Y-85225000D01*
X98744285Y-85088571D01*
X98428093Y-84771828D01*
X98014758Y-84600196D01*
X97567205Y-84599805D01*
X97153571Y-84770715D01*
X96836828Y-85086907D01*
X96665196Y-85500242D01*
X96664805Y-85947795D01*
X92425000Y-85947795D01*
X92425000Y-75787795D01*
X96029805Y-75787795D01*
X96200715Y-76201429D01*
X96516907Y-76518172D01*
X96930242Y-76689804D01*
X97377795Y-76690195D01*
X97791429Y-76519285D01*
X98108172Y-76203093D01*
X98113609Y-76190000D01*
X98992292Y-76190000D01*
X99078827Y-76399429D01*
X99493389Y-76814715D01*
X100035317Y-77039743D01*
X100622108Y-77040256D01*
X101164429Y-76816173D01*
X101579715Y-76401611D01*
X101804743Y-75859683D01*
X101805256Y-75272892D01*
X101581173Y-74730571D01*
X101166611Y-74315285D01*
X100624683Y-74090257D01*
X100037892Y-74089744D01*
X99495571Y-74313827D01*
X99080285Y-74728389D01*
X98992417Y-74940000D01*
X98114007Y-74940000D01*
X98109285Y-74928571D01*
X97793093Y-74611828D01*
X97379758Y-74440196D01*
X96932205Y-74439805D01*
X96518571Y-74610715D01*
X96201828Y-74926907D01*
X96030196Y-75340242D01*
X96029805Y-75787795D01*
X92425000Y-75787795D01*
X92425000Y-70707795D01*
X96029805Y-70707795D01*
X96200715Y-71121429D01*
X96516907Y-71438172D01*
X96930242Y-71609804D01*
X97377795Y-71610195D01*
X97791429Y-71439285D01*
X98108172Y-71123093D01*
X98113609Y-71110000D01*
X98992292Y-71110000D01*
X99078827Y-71319429D01*
X99493389Y-71734715D01*
X100035317Y-71959743D01*
X100622108Y-71960256D01*
X101164429Y-71736173D01*
X101579715Y-71321611D01*
X101804743Y-70779683D01*
X101805256Y-70192892D01*
X101581173Y-69650571D01*
X101166611Y-69235285D01*
X100624683Y-69010257D01*
X100037892Y-69009744D01*
X99495571Y-69233827D01*
X99080285Y-69648389D01*
X98992417Y-69860000D01*
X98114007Y-69860000D01*
X98109285Y-69848571D01*
X97793093Y-69531828D01*
X97379758Y-69360196D01*
X96932205Y-69359805D01*
X96518571Y-69530715D01*
X96201828Y-69846907D01*
X96030196Y-70260242D01*
X96029805Y-70707795D01*
X92425000Y-70707795D01*
X92425000Y-65627795D01*
X96029805Y-65627795D01*
X96200715Y-66041429D01*
X96516907Y-66358172D01*
X96930242Y-66529804D01*
X97377795Y-66530195D01*
X97791429Y-66359285D01*
X98108172Y-66043093D01*
X98113609Y-66030000D01*
X98992292Y-66030000D01*
X99078827Y-66239429D01*
X99493389Y-66654715D01*
X100035317Y-66879743D01*
X100622108Y-66880256D01*
X101164429Y-66656173D01*
X101579715Y-66241611D01*
X101804743Y-65699683D01*
X101805256Y-65112892D01*
X101581173Y-64570571D01*
X101166611Y-64155285D01*
X100624683Y-63930257D01*
X100037892Y-63929744D01*
X99495571Y-64153827D01*
X99080285Y-64568389D01*
X98992417Y-64780000D01*
X98114007Y-64780000D01*
X98109285Y-64768571D01*
X97793093Y-64451828D01*
X97379758Y-64280196D01*
X96932205Y-64279805D01*
X96518571Y-64450715D01*
X96201828Y-64766907D01*
X96030196Y-65180242D01*
X96029805Y-65627795D01*
X92425000Y-65627795D01*
X92425000Y-60547795D01*
X96029805Y-60547795D01*
X96200715Y-60961429D01*
X96516907Y-61278172D01*
X96930242Y-61449804D01*
X97377795Y-61450195D01*
X97791429Y-61279285D01*
X98108172Y-60963093D01*
X98113609Y-60950000D01*
X98992292Y-60950000D01*
X99078827Y-61159429D01*
X99493389Y-61574715D01*
X100035317Y-61799743D01*
X100622108Y-61800256D01*
X101164429Y-61576173D01*
X101579715Y-61161611D01*
X101804743Y-60619683D01*
X101805256Y-60032892D01*
X101581173Y-59490571D01*
X101166611Y-59075285D01*
X100624683Y-58850257D01*
X100037892Y-58849744D01*
X99495571Y-59073827D01*
X99080285Y-59488389D01*
X98992417Y-59700000D01*
X98114007Y-59700000D01*
X98109285Y-59688571D01*
X97793093Y-59371828D01*
X97379758Y-59200196D01*
X96932205Y-59199805D01*
X96518571Y-59370715D01*
X96201828Y-59686907D01*
X96030196Y-60100242D01*
X96029805Y-60547795D01*
X92425000Y-60547795D01*
X92425000Y-55467795D01*
X96029805Y-55467795D01*
X96200715Y-55881429D01*
X96516907Y-56198172D01*
X96930242Y-56369804D01*
X97377795Y-56370195D01*
X97791429Y-56199285D01*
X98108172Y-55883093D01*
X98113609Y-55870000D01*
X98992292Y-55870000D01*
X99078827Y-56079429D01*
X99493389Y-56494715D01*
X100035317Y-56719743D01*
X100622108Y-56720256D01*
X101164429Y-56496173D01*
X101579715Y-56081611D01*
X101804743Y-55539683D01*
X101805256Y-54952892D01*
X101581173Y-54410571D01*
X101166611Y-53995285D01*
X100624683Y-53770257D01*
X100037892Y-53769744D01*
X99495571Y-53993827D01*
X99080285Y-54408389D01*
X98992417Y-54620000D01*
X98114007Y-54620000D01*
X98109285Y-54608571D01*
X97793093Y-54291828D01*
X97379758Y-54120196D01*
X96932205Y-54119805D01*
X96518571Y-54290715D01*
X96201828Y-54606907D01*
X96030196Y-55020242D01*
X96029805Y-55467795D01*
X92425000Y-55467795D01*
X92425000Y-50387795D01*
X96029805Y-50387795D01*
X96200715Y-50801429D01*
X96516907Y-51118172D01*
X96930242Y-51289804D01*
X97377795Y-51290195D01*
X97791429Y-51119285D01*
X98108172Y-50803093D01*
X98113609Y-50790000D01*
X98992292Y-50790000D01*
X99078827Y-50999429D01*
X99493389Y-51414715D01*
X100035317Y-51639743D01*
X100622108Y-51640256D01*
X101164429Y-51416173D01*
X101579715Y-51001611D01*
X101804743Y-50459683D01*
X101805256Y-49872892D01*
X101581173Y-49330571D01*
X101166611Y-48915285D01*
X100624683Y-48690257D01*
X100037892Y-48689744D01*
X99495571Y-48913827D01*
X99080285Y-49328389D01*
X98992417Y-49540000D01*
X98114007Y-49540000D01*
X98109285Y-49528571D01*
X97793093Y-49211828D01*
X97379758Y-49040196D01*
X96932205Y-49039805D01*
X96518571Y-49210715D01*
X96201828Y-49526907D01*
X96030196Y-49940242D01*
X96029805Y-50387795D01*
X92425000Y-50387795D01*
X92425000Y-45307795D01*
X96029805Y-45307795D01*
X96200715Y-45721429D01*
X96516907Y-46038172D01*
X96930242Y-46209804D01*
X97377795Y-46210195D01*
X97791429Y-46039285D01*
X98108172Y-45723093D01*
X98113609Y-45710000D01*
X98992292Y-45710000D01*
X99078827Y-45919429D01*
X99493389Y-46334715D01*
X100035317Y-46559743D01*
X100622108Y-46560256D01*
X101164429Y-46336173D01*
X101579715Y-45921611D01*
X101804743Y-45379683D01*
X101805256Y-44792892D01*
X101581173Y-44250571D01*
X101166611Y-43835285D01*
X100624683Y-43610257D01*
X100037892Y-43609744D01*
X99495571Y-43833827D01*
X99080285Y-44248389D01*
X98992417Y-44460000D01*
X98114007Y-44460000D01*
X98109285Y-44448571D01*
X97793093Y-44131828D01*
X97379758Y-43960196D01*
X96932205Y-43959805D01*
X96518571Y-44130715D01*
X96201828Y-44446907D01*
X96030196Y-44860242D01*
X96029805Y-45307795D01*
X92425000Y-45307795D01*
X92425000Y-40227795D01*
X96029805Y-40227795D01*
X96200715Y-40641429D01*
X96516907Y-40958172D01*
X96930242Y-41129804D01*
X97377795Y-41130195D01*
X97791429Y-40959285D01*
X98108172Y-40643093D01*
X98113609Y-40630000D01*
X98992292Y-40630000D01*
X99078827Y-40839429D01*
X99493389Y-41254715D01*
X100035317Y-41479743D01*
X100622108Y-41480256D01*
X101164429Y-41256173D01*
X101579715Y-40841611D01*
X101804743Y-40299683D01*
X101805256Y-39712892D01*
X101581173Y-39170571D01*
X101166611Y-38755285D01*
X101117760Y-38735000D01*
X104150000Y-38735000D01*
X104150000Y-83185000D01*
X104197575Y-83424177D01*
X104333058Y-83626942D01*
X105603058Y-84896942D01*
X105805822Y-85032425D01*
X106045000Y-85080000D01*
X109676116Y-85080000D01*
X114734992Y-90138876D01*
X114734849Y-90303285D01*
X114867779Y-90625000D01*
X115113705Y-90871356D01*
X115435188Y-91004848D01*
X115783285Y-91005151D01*
X116105000Y-90872221D01*
X116351356Y-90626295D01*
X116484848Y-90304812D01*
X116485151Y-89956715D01*
X116352221Y-89635000D01*
X116106295Y-89388644D01*
X115784812Y-89255152D01*
X115618892Y-89255008D01*
X112695196Y-86331312D01*
X112776857Y-86297571D01*
X112966903Y-86107856D01*
X113069883Y-85859855D01*
X113070117Y-85591323D01*
X112967571Y-85343143D01*
X112777856Y-85153097D01*
X112689723Y-85116501D01*
X112713172Y-85093093D01*
X112884804Y-84679758D01*
X112885195Y-84232205D01*
X112714285Y-83818571D01*
X112398093Y-83501828D01*
X111984758Y-83330196D01*
X111537205Y-83329805D01*
X111123571Y-83500715D01*
X110806828Y-83816907D01*
X110635196Y-84230242D01*
X110635160Y-84271276D01*
X110376942Y-84013058D01*
X110174177Y-83877575D01*
X109935000Y-83830000D01*
X106303884Y-83830000D01*
X105400000Y-82926116D01*
X105400000Y-82723285D01*
X105804849Y-82723285D01*
X105937779Y-83045000D01*
X106183705Y-83291356D01*
X106505188Y-83424848D01*
X106853285Y-83425151D01*
X107175000Y-83292221D01*
X107421356Y-83046295D01*
X107554848Y-82724812D01*
X107554992Y-82558892D01*
X111383884Y-78730000D01*
X124459995Y-78730000D01*
X124460000Y-78730001D01*
X124460005Y-78730000D01*
X129968434Y-78730000D01*
X129793143Y-78802429D01*
X129603097Y-78992144D01*
X129500117Y-79240145D01*
X129499883Y-79508677D01*
X129602429Y-79756857D01*
X129675000Y-79829555D01*
X129675000Y-80437893D01*
X127675098Y-82437795D01*
X127675117Y-82416323D01*
X127572571Y-82168143D01*
X127382856Y-81978097D01*
X127230835Y-81914972D01*
X127381857Y-81852571D01*
X127571903Y-81662856D01*
X127674883Y-81414855D01*
X127675117Y-81146323D01*
X127572571Y-80898143D01*
X127382856Y-80708097D01*
X127230835Y-80644972D01*
X127381857Y-80582571D01*
X127571903Y-80392856D01*
X127674883Y-80144855D01*
X127675117Y-79876323D01*
X127572571Y-79628143D01*
X127382856Y-79438097D01*
X127134855Y-79335117D01*
X126866323Y-79334883D01*
X126618143Y-79437429D01*
X126428097Y-79627144D01*
X126325117Y-79875145D01*
X126325027Y-79977866D01*
X124252894Y-82050000D01*
X121104634Y-82050000D01*
X121032856Y-81978097D01*
X120784855Y-81875117D01*
X120516323Y-81874883D01*
X120268143Y-81977429D01*
X120195445Y-82050000D01*
X119755656Y-82050000D01*
X119699285Y-81913571D01*
X119383093Y-81596828D01*
X118969758Y-81425196D01*
X118522205Y-81424805D01*
X118108571Y-81595715D01*
X117791828Y-81911907D01*
X117620196Y-82325242D01*
X117619805Y-82772795D01*
X117790715Y-83186429D01*
X118106907Y-83503172D01*
X118520242Y-83674804D01*
X118967795Y-83675195D01*
X119381429Y-83504285D01*
X119698172Y-83188093D01*
X119755513Y-83050000D01*
X120195366Y-83050000D01*
X120267144Y-83121903D01*
X120515145Y-83224883D01*
X120783677Y-83225117D01*
X121031857Y-83122571D01*
X121104555Y-83050000D01*
X124460000Y-83050000D01*
X124538510Y-83034383D01*
X122982894Y-84590000D01*
X121104634Y-84590000D01*
X121032856Y-84518097D01*
X120784855Y-84415117D01*
X120516323Y-84414883D01*
X120268143Y-84517429D01*
X120195445Y-84590000D01*
X119755656Y-84590000D01*
X119699285Y-84453571D01*
X119383093Y-84136828D01*
X118969758Y-83965196D01*
X118522205Y-83964805D01*
X118108571Y-84135715D01*
X117791828Y-84451907D01*
X117620196Y-84865242D01*
X117619805Y-85312795D01*
X117790715Y-85726429D01*
X118106907Y-86043172D01*
X118520242Y-86214804D01*
X118967795Y-86215195D01*
X119381429Y-86044285D01*
X119698172Y-85728093D01*
X119755513Y-85590000D01*
X120195366Y-85590000D01*
X120267144Y-85661903D01*
X120515145Y-85764883D01*
X120783677Y-85765117D01*
X121031857Y-85662571D01*
X121104555Y-85590000D01*
X123190000Y-85590000D01*
X123268511Y-85574383D01*
X121712894Y-87130000D01*
X121104634Y-87130000D01*
X121032856Y-87058097D01*
X120784855Y-86955117D01*
X120516323Y-86954883D01*
X120268143Y-87057429D01*
X120195445Y-87130000D01*
X119755656Y-87130000D01*
X119699285Y-86993571D01*
X119383093Y-86676828D01*
X118969758Y-86505196D01*
X118522205Y-86504805D01*
X118108571Y-86675715D01*
X117791828Y-86991907D01*
X117620196Y-87405242D01*
X117619805Y-87852795D01*
X117790715Y-88266429D01*
X118106907Y-88583172D01*
X118520242Y-88754804D01*
X118967795Y-88755195D01*
X119381429Y-88584285D01*
X119698172Y-88268093D01*
X119755513Y-88130000D01*
X120195366Y-88130000D01*
X120267144Y-88201903D01*
X120515145Y-88304883D01*
X120783677Y-88305117D01*
X121031857Y-88202571D01*
X121104555Y-88130000D01*
X121920000Y-88130000D01*
X121998510Y-88114384D01*
X118391447Y-91721447D01*
X118283060Y-91883658D01*
X118245000Y-92075000D01*
X118245000Y-94160366D01*
X118173097Y-94232144D01*
X118070117Y-94480145D01*
X118069883Y-94748677D01*
X118172429Y-94996857D01*
X118245000Y-95069555D01*
X118245000Y-95509344D01*
X118108571Y-95565715D01*
X117791828Y-95881907D01*
X117620196Y-96295242D01*
X117619805Y-96742795D01*
X117790715Y-97156429D01*
X118106907Y-97473172D01*
X118520242Y-97644804D01*
X118967795Y-97645195D01*
X119381429Y-97474285D01*
X119698172Y-97158093D01*
X119869804Y-96744758D01*
X119869901Y-96632697D01*
X130074796Y-96632697D01*
X130253302Y-97064715D01*
X130583547Y-97395536D01*
X131015253Y-97574796D01*
X131482697Y-97575204D01*
X131914715Y-97396698D01*
X132245536Y-97066453D01*
X132424796Y-96634747D01*
X132424797Y-96632697D01*
X132574796Y-96632697D01*
X132753302Y-97064715D01*
X133083547Y-97395536D01*
X133515253Y-97574796D01*
X133982697Y-97575204D01*
X134414715Y-97396698D01*
X134745536Y-97066453D01*
X134924796Y-96634747D01*
X134925204Y-96167303D01*
X134746698Y-95735285D01*
X134484666Y-95472795D01*
X146194805Y-95472795D01*
X146365715Y-95886429D01*
X146681907Y-96203172D01*
X147095242Y-96374804D01*
X147542795Y-96375195D01*
X147956429Y-96204285D01*
X148273172Y-95888093D01*
X148330513Y-95750000D01*
X148725105Y-95750000D01*
X148969795Y-96116206D01*
X149367214Y-96381752D01*
X149836001Y-96475000D01*
X149883999Y-96475000D01*
X150352786Y-96381752D01*
X150750205Y-96116206D01*
X151015751Y-95718787D01*
X151108999Y-95250000D01*
X151151001Y-95250000D01*
X151244249Y-95718787D01*
X151509795Y-96116206D01*
X151907214Y-96381752D01*
X152376001Y-96475000D01*
X152423999Y-96475000D01*
X152892786Y-96381752D01*
X153290205Y-96116206D01*
X153534895Y-95750000D01*
X153929344Y-95750000D01*
X153985715Y-95886429D01*
X154301907Y-96203172D01*
X154715242Y-96374804D01*
X155162795Y-96375195D01*
X155576429Y-96204285D01*
X155893172Y-95888093D01*
X156064804Y-95474758D01*
X156065195Y-95027205D01*
X155894285Y-94613571D01*
X155578093Y-94296828D01*
X155164758Y-94125196D01*
X154717205Y-94124805D01*
X154303571Y-94295715D01*
X153986828Y-94611907D01*
X153929487Y-94750000D01*
X153534895Y-94750000D01*
X153290205Y-94383794D01*
X152892786Y-94118248D01*
X152423999Y-94025000D01*
X152376001Y-94025000D01*
X151907214Y-94118248D01*
X151509795Y-94383794D01*
X151244249Y-94781213D01*
X151151001Y-95250000D01*
X151108999Y-95250000D01*
X151015751Y-94781213D01*
X150750205Y-94383794D01*
X150352786Y-94118248D01*
X149883999Y-94025000D01*
X149836001Y-94025000D01*
X149367214Y-94118248D01*
X148969795Y-94383794D01*
X148725105Y-94750000D01*
X148330656Y-94750000D01*
X148274285Y-94613571D01*
X147958093Y-94296828D01*
X147544758Y-94125196D01*
X147097205Y-94124805D01*
X146683571Y-94295715D01*
X146366828Y-94611907D01*
X146195196Y-95025242D01*
X146194805Y-95472795D01*
X134484666Y-95472795D01*
X134416453Y-95404464D01*
X134250000Y-95335347D01*
X134250000Y-93024093D01*
X148675951Y-93024093D01*
X148800645Y-93325157D01*
X149116694Y-93683729D01*
X149545905Y-93894059D01*
X149735000Y-93834867D01*
X149735000Y-92835000D01*
X149985000Y-92835000D01*
X149985000Y-93834867D01*
X150174095Y-93894059D01*
X150603306Y-93683729D01*
X150919355Y-93325157D01*
X151044049Y-93024093D01*
X151215951Y-93024093D01*
X151340645Y-93325157D01*
X151656694Y-93683729D01*
X152085905Y-93894059D01*
X152275000Y-93834867D01*
X152275000Y-92835000D01*
X152525000Y-92835000D01*
X152525000Y-93834867D01*
X152714095Y-93894059D01*
X153143306Y-93683729D01*
X153459355Y-93325157D01*
X153584049Y-93024093D01*
X153524323Y-92835000D01*
X152525000Y-92835000D01*
X152275000Y-92835000D01*
X151275677Y-92835000D01*
X151215951Y-93024093D01*
X151044049Y-93024093D01*
X150984323Y-92835000D01*
X149985000Y-92835000D01*
X149735000Y-92835000D01*
X148735677Y-92835000D01*
X148675951Y-93024093D01*
X134250000Y-93024093D01*
X134250000Y-90978285D01*
X136284849Y-90978285D01*
X136417779Y-91300000D01*
X136663705Y-91546356D01*
X136985188Y-91679848D01*
X137333285Y-91680151D01*
X137655000Y-91547221D01*
X137901356Y-91301295D01*
X138034848Y-90979812D01*
X138034992Y-90813892D01*
X144155000Y-84693883D01*
X144155000Y-90805000D01*
X144202575Y-91044177D01*
X144338058Y-91246942D01*
X145174992Y-92083876D01*
X145174849Y-92248285D01*
X145307779Y-92570000D01*
X145553705Y-92816356D01*
X145875188Y-92949848D01*
X146223285Y-92950151D01*
X146545000Y-92817221D01*
X146791356Y-92571295D01*
X146864183Y-92395907D01*
X148675951Y-92395907D01*
X148735677Y-92585000D01*
X149735000Y-92585000D01*
X149735000Y-91585133D01*
X149985000Y-91585133D01*
X149985000Y-92585000D01*
X150984323Y-92585000D01*
X151044049Y-92395907D01*
X151215951Y-92395907D01*
X151275677Y-92585000D01*
X152275000Y-92585000D01*
X152275000Y-91585133D01*
X152525000Y-91585133D01*
X152525000Y-92585000D01*
X153524323Y-92585000D01*
X153584049Y-92395907D01*
X153459355Y-92094843D01*
X153143306Y-91736271D01*
X152714095Y-91525941D01*
X152525000Y-91585133D01*
X152275000Y-91585133D01*
X152085905Y-91525941D01*
X151656694Y-91736271D01*
X151340645Y-92094843D01*
X151215951Y-92395907D01*
X151044049Y-92395907D01*
X150919355Y-92094843D01*
X150603306Y-91736271D01*
X150174095Y-91525941D01*
X149985000Y-91585133D01*
X149735000Y-91585133D01*
X149545905Y-91525941D01*
X149116694Y-91736271D01*
X148800645Y-92094843D01*
X148675951Y-92395907D01*
X146864183Y-92395907D01*
X146924848Y-92249812D01*
X146925151Y-91901715D01*
X146792221Y-91580000D01*
X146546295Y-91333644D01*
X146224812Y-91200152D01*
X146058892Y-91200008D01*
X145405000Y-90546116D01*
X145405000Y-90484093D01*
X148675951Y-90484093D01*
X148800645Y-90785157D01*
X149116694Y-91143729D01*
X149545905Y-91354059D01*
X149735000Y-91294867D01*
X149735000Y-90295000D01*
X149985000Y-90295000D01*
X149985000Y-91294867D01*
X150174095Y-91354059D01*
X150603306Y-91143729D01*
X150919355Y-90785157D01*
X151044049Y-90484093D01*
X151215951Y-90484093D01*
X151340645Y-90785157D01*
X151656694Y-91143729D01*
X152085905Y-91354059D01*
X152275000Y-91294867D01*
X152275000Y-90295000D01*
X152525000Y-90295000D01*
X152525000Y-91294867D01*
X152714095Y-91354059D01*
X153143306Y-91143729D01*
X153459355Y-90785157D01*
X153584049Y-90484093D01*
X153524323Y-90295000D01*
X152525000Y-90295000D01*
X152275000Y-90295000D01*
X151275677Y-90295000D01*
X151215951Y-90484093D01*
X151044049Y-90484093D01*
X150984323Y-90295000D01*
X149985000Y-90295000D01*
X149735000Y-90295000D01*
X148735677Y-90295000D01*
X148675951Y-90484093D01*
X145405000Y-90484093D01*
X145405000Y-89855907D01*
X148675951Y-89855907D01*
X148735677Y-90045000D01*
X149735000Y-90045000D01*
X149735000Y-89045133D01*
X149985000Y-89045133D01*
X149985000Y-90045000D01*
X150984323Y-90045000D01*
X151044049Y-89855907D01*
X151215951Y-89855907D01*
X151275677Y-90045000D01*
X152275000Y-90045000D01*
X152275000Y-89045133D01*
X152525000Y-89045133D01*
X152525000Y-90045000D01*
X153524323Y-90045000D01*
X153584049Y-89855907D01*
X153459355Y-89554843D01*
X153143306Y-89196271D01*
X152714095Y-88985941D01*
X152525000Y-89045133D01*
X152275000Y-89045133D01*
X152085905Y-88985941D01*
X151656694Y-89196271D01*
X151340645Y-89554843D01*
X151215951Y-89855907D01*
X151044049Y-89855907D01*
X150919355Y-89554843D01*
X150603306Y-89196271D01*
X150174095Y-88985941D01*
X149985000Y-89045133D01*
X149735000Y-89045133D01*
X149545905Y-88985941D01*
X149116694Y-89196271D01*
X148800645Y-89554843D01*
X148675951Y-89855907D01*
X145405000Y-89855907D01*
X145405000Y-87852795D01*
X146194805Y-87852795D01*
X146365715Y-88266429D01*
X146681907Y-88583172D01*
X147095242Y-88754804D01*
X147542795Y-88755195D01*
X147956429Y-88584285D01*
X148273172Y-88268093D01*
X148330513Y-88130000D01*
X148725105Y-88130000D01*
X148969795Y-88496206D01*
X149367214Y-88761752D01*
X149836001Y-88855000D01*
X149883999Y-88855000D01*
X150352786Y-88761752D01*
X150750205Y-88496206D01*
X151015751Y-88098787D01*
X151046521Y-87944093D01*
X151215951Y-87944093D01*
X151340645Y-88245157D01*
X151656694Y-88603729D01*
X152085905Y-88814059D01*
X152275000Y-88754867D01*
X152275000Y-87755000D01*
X152525000Y-87755000D01*
X152525000Y-88754867D01*
X152714095Y-88814059D01*
X153143306Y-88603729D01*
X153459355Y-88245157D01*
X153584049Y-87944093D01*
X153524323Y-87755000D01*
X152525000Y-87755000D01*
X152275000Y-87755000D01*
X151275677Y-87755000D01*
X151215951Y-87944093D01*
X151046521Y-87944093D01*
X151108999Y-87630000D01*
X151046522Y-87315907D01*
X151215951Y-87315907D01*
X151275677Y-87505000D01*
X152275000Y-87505000D01*
X152275000Y-86505133D01*
X152525000Y-86505133D01*
X152525000Y-87505000D01*
X153524323Y-87505000D01*
X153584049Y-87315907D01*
X153459355Y-87014843D01*
X153143306Y-86656271D01*
X152714095Y-86445941D01*
X152525000Y-86505133D01*
X152275000Y-86505133D01*
X152085905Y-86445941D01*
X151656694Y-86656271D01*
X151340645Y-87014843D01*
X151215951Y-87315907D01*
X151046522Y-87315907D01*
X151015751Y-87161213D01*
X150750205Y-86763794D01*
X150352786Y-86498248D01*
X149883999Y-86405000D01*
X149836001Y-86405000D01*
X149367214Y-86498248D01*
X148969795Y-86763794D01*
X148725105Y-87130000D01*
X148330656Y-87130000D01*
X148274285Y-86993571D01*
X147958093Y-86676828D01*
X147544758Y-86505196D01*
X147097205Y-86504805D01*
X146683571Y-86675715D01*
X146366828Y-86991907D01*
X146195196Y-87405242D01*
X146194805Y-87852795D01*
X145405000Y-87852795D01*
X145405000Y-85312795D01*
X146194805Y-85312795D01*
X146365715Y-85726429D01*
X146681907Y-86043172D01*
X147095242Y-86214804D01*
X147542795Y-86215195D01*
X147956429Y-86044285D01*
X148273172Y-85728093D01*
X148330513Y-85590000D01*
X148725105Y-85590000D01*
X148969795Y-85956206D01*
X149367214Y-86221752D01*
X149836001Y-86315000D01*
X149883999Y-86315000D01*
X150352786Y-86221752D01*
X150750205Y-85956206D01*
X151015751Y-85558787D01*
X151108999Y-85090000D01*
X151015751Y-84621213D01*
X150750205Y-84223794D01*
X150352786Y-83958248D01*
X149883999Y-83865000D01*
X149836001Y-83865000D01*
X149367214Y-83958248D01*
X148969795Y-84223794D01*
X148725105Y-84590000D01*
X148330656Y-84590000D01*
X148274285Y-84453571D01*
X147958093Y-84136828D01*
X147544758Y-83965196D01*
X147097205Y-83964805D01*
X146683571Y-84135715D01*
X146366828Y-84451907D01*
X146195196Y-84865242D01*
X146194805Y-85312795D01*
X145405000Y-85312795D01*
X145405000Y-83443884D01*
X145673883Y-83175000D01*
X148808627Y-83175000D01*
X148969795Y-83416206D01*
X149367214Y-83681752D01*
X149836001Y-83775000D01*
X149883999Y-83775000D01*
X150352786Y-83681752D01*
X150630000Y-83496524D01*
X150630000Y-83820000D01*
X150658881Y-83965196D01*
X150668060Y-84011342D01*
X150776447Y-84173553D01*
X151240907Y-84638014D01*
X151151001Y-85090000D01*
X151244249Y-85558787D01*
X151509795Y-85956206D01*
X151907214Y-86221752D01*
X152376001Y-86315000D01*
X152423999Y-86315000D01*
X152892786Y-86221752D01*
X153290205Y-85956206D01*
X153534895Y-85590000D01*
X153929344Y-85590000D01*
X153985715Y-85726429D01*
X154301907Y-86043172D01*
X154715242Y-86214804D01*
X155162795Y-86215195D01*
X155576429Y-86044285D01*
X155893172Y-85728093D01*
X156064804Y-85314758D01*
X156065195Y-84867205D01*
X155894285Y-84453571D01*
X155578093Y-84136828D01*
X155164758Y-83965196D01*
X154717205Y-83964805D01*
X154303571Y-84135715D01*
X153986828Y-84451907D01*
X153929487Y-84590000D01*
X153534895Y-84590000D01*
X153290205Y-84223794D01*
X152892786Y-83958248D01*
X152423999Y-83865000D01*
X152376001Y-83865000D01*
X151964049Y-83946943D01*
X151792106Y-83775000D01*
X152181250Y-83775000D01*
X152275000Y-83681250D01*
X152275000Y-82675000D01*
X152525000Y-82675000D01*
X152525000Y-83681250D01*
X152618750Y-83775000D01*
X153324592Y-83775000D01*
X153462420Y-83717910D01*
X153567910Y-83612421D01*
X153625000Y-83474592D01*
X153625000Y-82768750D01*
X153531250Y-82675000D01*
X152525000Y-82675000D01*
X152275000Y-82675000D01*
X152255000Y-82675000D01*
X152255000Y-82425000D01*
X152275000Y-82425000D01*
X152275000Y-81418750D01*
X152525000Y-81418750D01*
X152525000Y-82425000D01*
X153531250Y-82425000D01*
X153625000Y-82331250D01*
X153625000Y-81625408D01*
X153567910Y-81487579D01*
X153462420Y-81382090D01*
X153324592Y-81325000D01*
X152618750Y-81325000D01*
X152525000Y-81418750D01*
X152275000Y-81418750D01*
X152181250Y-81325000D01*
X151630000Y-81325000D01*
X151630000Y-75132206D01*
X152204754Y-75132206D01*
X152421240Y-75656143D01*
X152821749Y-76057351D01*
X153345307Y-76274752D01*
X153912206Y-76275246D01*
X154436143Y-76058760D01*
X154837351Y-75658251D01*
X155054752Y-75134693D01*
X155055246Y-74567794D01*
X154838760Y-74043857D01*
X154438251Y-73642649D01*
X153914693Y-73425248D01*
X153347794Y-73424754D01*
X152823857Y-73641240D01*
X152422649Y-74041749D01*
X152205248Y-74565307D01*
X152204754Y-75132206D01*
X151630000Y-75132206D01*
X151630000Y-66185256D01*
X151936143Y-66058760D01*
X152337351Y-65658251D01*
X152554752Y-65134693D01*
X152555246Y-64567794D01*
X152338760Y-64043857D01*
X151938251Y-63642649D01*
X151414693Y-63425248D01*
X150847794Y-63424754D01*
X150323857Y-63641240D01*
X149922649Y-64041749D01*
X149705248Y-64565307D01*
X149704754Y-65132206D01*
X149921240Y-65656143D01*
X150321749Y-66057351D01*
X150630000Y-66185348D01*
X150630000Y-81603476D01*
X150352786Y-81418248D01*
X149883999Y-81325000D01*
X149836001Y-81325000D01*
X149367214Y-81418248D01*
X148969795Y-81683794D01*
X148808627Y-81925000D01*
X145415005Y-81925000D01*
X145415000Y-81924999D01*
X145175823Y-81972575D01*
X144973058Y-82108058D01*
X144973056Y-82108061D01*
X144338058Y-82743058D01*
X144338056Y-82743061D01*
X137151124Y-89929992D01*
X136986715Y-89929849D01*
X136665000Y-90062779D01*
X136418644Y-90308705D01*
X136285152Y-90630188D01*
X136284849Y-90978285D01*
X134250000Y-90978285D01*
X134250000Y-90642756D01*
X134621429Y-90489285D01*
X134938172Y-90173093D01*
X135109804Y-89759758D01*
X135110195Y-89312205D01*
X134939285Y-88898571D01*
X134623093Y-88581828D01*
X134209758Y-88410196D01*
X133762205Y-88409805D01*
X133348571Y-88580715D01*
X133031828Y-88896907D01*
X132860196Y-89310242D01*
X132859805Y-89757795D01*
X133030715Y-90171429D01*
X133250000Y-90391096D01*
X133250000Y-95335243D01*
X133085285Y-95403302D01*
X132754464Y-95733547D01*
X132575204Y-96165253D01*
X132574796Y-96632697D01*
X132424797Y-96632697D01*
X132425204Y-96167303D01*
X132246698Y-95735285D01*
X131916453Y-95404464D01*
X131484747Y-95225204D01*
X131017303Y-95224796D01*
X130585285Y-95403302D01*
X130254464Y-95733547D01*
X130075204Y-96165253D01*
X130074796Y-96632697D01*
X119869901Y-96632697D01*
X119870195Y-96297205D01*
X119699285Y-95883571D01*
X119383093Y-95566828D01*
X119245000Y-95509487D01*
X119245000Y-95069634D01*
X119316903Y-94997856D01*
X119325477Y-94977206D01*
X119819754Y-94977206D01*
X120036240Y-95501143D01*
X120436749Y-95902351D01*
X120960307Y-96119752D01*
X121527206Y-96120246D01*
X122051143Y-95903760D01*
X122452351Y-95503251D01*
X122669752Y-94979693D01*
X122670246Y-94412794D01*
X122453760Y-93888857D01*
X122053251Y-93487649D01*
X121529693Y-93270248D01*
X120962794Y-93269754D01*
X120438857Y-93486240D01*
X120037649Y-93886749D01*
X119820248Y-94410307D01*
X119819754Y-94977206D01*
X119325477Y-94977206D01*
X119419883Y-94749855D01*
X119420117Y-94481323D01*
X119317571Y-94233143D01*
X119245000Y-94160445D01*
X119245000Y-92282106D01*
X123543553Y-87983554D01*
X123543555Y-87983551D01*
X124960412Y-86566694D01*
X124855152Y-86820188D01*
X124854849Y-87168285D01*
X124987779Y-87490000D01*
X125233705Y-87736356D01*
X125555188Y-87869848D01*
X125903285Y-87870151D01*
X126225000Y-87737221D01*
X126471356Y-87491295D01*
X126604848Y-87169812D01*
X126605151Y-86821715D01*
X126472707Y-86501177D01*
X131886939Y-81086944D01*
X131886942Y-81086942D01*
X132022425Y-80884177D01*
X132031940Y-80836341D01*
X132070001Y-80645000D01*
X132070000Y-80644995D01*
X132070000Y-78730000D01*
X135890000Y-78730000D01*
X136129177Y-78682425D01*
X136331942Y-78546942D01*
X138871939Y-76006944D01*
X138871942Y-76006942D01*
X139007425Y-75804177D01*
X139055000Y-75565000D01*
X139055000Y-74295005D01*
X139055001Y-74295000D01*
X139007425Y-74055823D01*
X138955540Y-73978172D01*
X138871942Y-73853058D01*
X138871939Y-73853056D01*
X133359359Y-68340475D01*
X133605205Y-68176206D01*
X133870751Y-67778787D01*
X133963999Y-67310000D01*
X133870751Y-66841213D01*
X133612353Y-66454492D01*
X133703553Y-66393553D01*
X134827107Y-65270000D01*
X137975366Y-65270000D01*
X138047144Y-65341903D01*
X138295145Y-65444883D01*
X138563677Y-65445117D01*
X138811857Y-65342571D01*
X139001903Y-65152856D01*
X139104883Y-64904855D01*
X139105117Y-64636323D01*
X139002571Y-64388143D01*
X138812856Y-64198097D01*
X138564855Y-64095117D01*
X138296323Y-64094883D01*
X138048143Y-64197429D01*
X137975445Y-64270000D01*
X134620000Y-64270000D01*
X134428658Y-64308060D01*
X134266446Y-64416447D01*
X133955520Y-64727373D01*
X133870751Y-64301213D01*
X133605205Y-63903794D01*
X133207786Y-63638248D01*
X132738999Y-63545000D01*
X132691001Y-63545000D01*
X132222214Y-63638248D01*
X131945000Y-63823476D01*
X131945000Y-63500000D01*
X131906940Y-63308658D01*
X131823836Y-63184285D01*
X131798553Y-63146446D01*
X131334093Y-62681986D01*
X131361521Y-62544093D01*
X131530951Y-62544093D01*
X131655645Y-62845157D01*
X131971694Y-63203729D01*
X132400905Y-63414059D01*
X132590000Y-63354867D01*
X132590000Y-62355000D01*
X132840000Y-62355000D01*
X132840000Y-63354867D01*
X133029095Y-63414059D01*
X133458306Y-63203729D01*
X133774355Y-62845157D01*
X133899049Y-62544093D01*
X133839323Y-62355000D01*
X132840000Y-62355000D01*
X132590000Y-62355000D01*
X131590677Y-62355000D01*
X131530951Y-62544093D01*
X131361521Y-62544093D01*
X131423999Y-62230000D01*
X131361522Y-61915907D01*
X131530951Y-61915907D01*
X131590677Y-62105000D01*
X132590000Y-62105000D01*
X132590000Y-61105133D01*
X132840000Y-61105133D01*
X132840000Y-62105000D01*
X133839323Y-62105000D01*
X133899049Y-61915907D01*
X133774355Y-61614843D01*
X133458306Y-61256271D01*
X133029095Y-61045941D01*
X132840000Y-61105133D01*
X132590000Y-61105133D01*
X132400905Y-61045941D01*
X131971694Y-61256271D01*
X131655645Y-61614843D01*
X131530951Y-61915907D01*
X131361522Y-61915907D01*
X131330751Y-61761213D01*
X131065205Y-61363794D01*
X130667786Y-61098248D01*
X130198999Y-61005000D01*
X130151001Y-61005000D01*
X129682214Y-61098248D01*
X129284795Y-61363794D01*
X129040105Y-61730000D01*
X128645656Y-61730000D01*
X128589285Y-61593571D01*
X128273093Y-61276828D01*
X127859758Y-61105196D01*
X127412205Y-61104805D01*
X126998571Y-61275715D01*
X126681828Y-61591907D01*
X126510196Y-62005242D01*
X126509805Y-62452795D01*
X126680715Y-62866429D01*
X126996907Y-63183172D01*
X127410242Y-63354804D01*
X127857795Y-63355195D01*
X128271429Y-63184285D01*
X128588172Y-62868093D01*
X128645513Y-62730000D01*
X129040105Y-62730000D01*
X129284795Y-63096206D01*
X129682214Y-63361752D01*
X130151001Y-63455000D01*
X130198999Y-63455000D01*
X130610951Y-63373057D01*
X130945000Y-63707107D01*
X130945000Y-63823476D01*
X130667786Y-63638248D01*
X130198999Y-63545000D01*
X130151001Y-63545000D01*
X129682214Y-63638248D01*
X129284795Y-63903794D01*
X129019249Y-64301213D01*
X128926001Y-64770000D01*
X129019249Y-65238787D01*
X129284795Y-65636206D01*
X129682214Y-65901752D01*
X130151001Y-65995000D01*
X130198999Y-65995000D01*
X130667786Y-65901752D01*
X130945000Y-65716524D01*
X130945000Y-66077654D01*
X129325000Y-66077654D01*
X129186034Y-66103802D01*
X129058401Y-66185931D01*
X128972777Y-66311246D01*
X128942654Y-66460000D01*
X128942654Y-66810000D01*
X128645656Y-66810000D01*
X128589285Y-66673571D01*
X128273093Y-66356828D01*
X127859758Y-66185196D01*
X127412205Y-66184805D01*
X126998571Y-66355715D01*
X126681828Y-66671907D01*
X126510196Y-67085242D01*
X126509805Y-67532795D01*
X126680715Y-67946429D01*
X126996907Y-68263172D01*
X127410242Y-68434804D01*
X127857795Y-68435195D01*
X128271429Y-68264285D01*
X128588172Y-67948093D01*
X128645513Y-67810000D01*
X128942654Y-67810000D01*
X128942654Y-68160000D01*
X128968802Y-68298966D01*
X129050931Y-68426599D01*
X129176246Y-68512223D01*
X129325000Y-68542346D01*
X130310000Y-68542346D01*
X130310000Y-69215000D01*
X130338881Y-69360196D01*
X130343521Y-69383521D01*
X130175000Y-69350000D01*
X127207107Y-69350000D01*
X124960000Y-67102894D01*
X124960000Y-65270000D01*
X126624344Y-65270000D01*
X126680715Y-65406429D01*
X126996907Y-65723172D01*
X127410242Y-65894804D01*
X127857795Y-65895195D01*
X128271429Y-65724285D01*
X128588172Y-65408093D01*
X128759804Y-64994758D01*
X128760195Y-64547205D01*
X128589285Y-64133571D01*
X128273093Y-63816828D01*
X127859758Y-63645196D01*
X127412205Y-63644805D01*
X126998571Y-63815715D01*
X126681828Y-64131907D01*
X126624487Y-64270000D01*
X124960000Y-64270000D01*
X124960000Y-60364823D01*
X124960145Y-60364883D01*
X125228677Y-60365117D01*
X125476857Y-60262571D01*
X125549555Y-60190000D01*
X125989344Y-60190000D01*
X126045715Y-60326429D01*
X126361907Y-60643172D01*
X126775242Y-60814804D01*
X127222795Y-60815195D01*
X127636429Y-60644285D01*
X127953172Y-60328093D01*
X128124804Y-59914758D01*
X128125195Y-59467205D01*
X127954285Y-59053571D01*
X127638093Y-58736828D01*
X127224758Y-58565196D01*
X126777205Y-58564805D01*
X126363571Y-58735715D01*
X126046828Y-59051907D01*
X125989487Y-59190000D01*
X125549634Y-59190000D01*
X125477856Y-59118097D01*
X125229855Y-59015117D01*
X124961323Y-59014883D01*
X124960000Y-59015430D01*
X124960000Y-51435000D01*
X124921940Y-51243658D01*
X124861733Y-51153553D01*
X124813554Y-51081447D01*
X124325000Y-50592894D01*
X124325000Y-47444634D01*
X124396903Y-47372856D01*
X124499883Y-47124855D01*
X124500117Y-46856323D01*
X124397571Y-46608143D01*
X124207856Y-46418097D01*
X123959855Y-46315117D01*
X123691323Y-46314883D01*
X123690000Y-46315430D01*
X123690000Y-42752106D01*
X123857078Y-42585028D01*
X123958677Y-42585117D01*
X124206857Y-42482571D01*
X124396903Y-42292856D01*
X124499883Y-42044855D01*
X124500117Y-41776323D01*
X124397571Y-41528143D01*
X124207856Y-41338097D01*
X123959855Y-41235117D01*
X123691323Y-41234883D01*
X123443143Y-41337429D01*
X123253097Y-41527144D01*
X123150117Y-41775145D01*
X123150027Y-41877866D01*
X122836447Y-42191447D01*
X122728060Y-42353658D01*
X122690000Y-42545000D01*
X122690000Y-68580000D01*
X122702418Y-68642429D01*
X122728060Y-68771342D01*
X122836447Y-68933553D01*
X123262957Y-69360063D01*
X122967205Y-69359805D01*
X122553571Y-69530715D01*
X122236828Y-69846907D01*
X122065196Y-70260242D01*
X122064805Y-70707795D01*
X122235715Y-71121429D01*
X122551907Y-71438172D01*
X122965242Y-71609804D01*
X123014136Y-71609847D01*
X122871828Y-71751907D01*
X122700196Y-72165242D01*
X122699805Y-72612795D01*
X122870715Y-73026429D01*
X123186907Y-73343172D01*
X123600242Y-73514804D01*
X123960000Y-73515118D01*
X123960000Y-73840366D01*
X123888097Y-73912144D01*
X123785117Y-74160145D01*
X123784883Y-74428677D01*
X123887429Y-74676857D01*
X124077144Y-74866903D01*
X124229165Y-74930028D01*
X124078143Y-74992429D01*
X123888097Y-75182144D01*
X123785117Y-75430145D01*
X123784883Y-75698677D01*
X123887429Y-75946857D01*
X124077144Y-76136903D01*
X124325145Y-76239883D01*
X124593677Y-76240117D01*
X124762823Y-76170227D01*
X124775715Y-76201429D01*
X125091907Y-76518172D01*
X125505242Y-76689804D01*
X125952795Y-76690195D01*
X126366429Y-76519285D01*
X126391311Y-76494446D01*
X126427429Y-76581857D01*
X126617144Y-76771903D01*
X126865145Y-76874883D01*
X127133677Y-76875117D01*
X127381857Y-76772571D01*
X127571903Y-76582856D01*
X127674883Y-76334855D01*
X127675117Y-76066323D01*
X127572571Y-75818143D01*
X127500000Y-75745445D01*
X127500000Y-72390000D01*
X127461940Y-72198658D01*
X127378836Y-72074285D01*
X127353554Y-72036447D01*
X126286490Y-70969384D01*
X126365000Y-70985000D01*
X128083965Y-70985000D01*
X127951828Y-71116907D01*
X127780196Y-71530242D01*
X127779805Y-71977795D01*
X127950715Y-72391429D01*
X128266907Y-72708172D01*
X128680242Y-72879804D01*
X129127795Y-72880195D01*
X129541429Y-72709285D01*
X129858172Y-72393093D01*
X130029804Y-71979758D01*
X130030064Y-71682170D01*
X132787957Y-74440063D01*
X132492205Y-74439805D01*
X132354012Y-74496905D01*
X132120028Y-74262922D01*
X132120117Y-74161323D01*
X132017571Y-73913143D01*
X131827856Y-73723097D01*
X131579855Y-73620117D01*
X131311323Y-73619883D01*
X131063143Y-73722429D01*
X130873097Y-73912144D01*
X130770117Y-74160145D01*
X130769883Y-74428677D01*
X130872429Y-74676857D01*
X131062144Y-74866903D01*
X131310145Y-74969883D01*
X131412866Y-74969973D01*
X131646805Y-75203912D01*
X131590196Y-75340242D01*
X131589805Y-75787795D01*
X131760715Y-76201429D01*
X132076907Y-76518172D01*
X132490242Y-76689804D01*
X132937795Y-76690195D01*
X133351429Y-76519285D01*
X133668172Y-76203093D01*
X133839804Y-75789758D01*
X133839969Y-75600658D01*
X133850145Y-75604883D01*
X134118677Y-75605117D01*
X134366857Y-75502571D01*
X134556903Y-75312856D01*
X134620028Y-75160835D01*
X134682429Y-75311857D01*
X134872144Y-75501903D01*
X135120145Y-75604883D01*
X135388677Y-75605117D01*
X135636857Y-75502571D01*
X135826903Y-75312856D01*
X135890028Y-75160835D01*
X135952429Y-75311857D01*
X136142144Y-75501903D01*
X136390145Y-75604883D01*
X136658677Y-75605117D01*
X136906857Y-75502571D01*
X137096903Y-75312856D01*
X137199883Y-75064855D01*
X137199966Y-74970035D01*
X137293677Y-74970117D01*
X137541857Y-74867571D01*
X137731903Y-74677856D01*
X137789725Y-74538608D01*
X137805000Y-74553883D01*
X137805000Y-75306117D01*
X135631116Y-77480000D01*
X124718883Y-77480000D01*
X124700008Y-77461125D01*
X124700151Y-77296715D01*
X124567221Y-76975000D01*
X124321295Y-76728644D01*
X123999812Y-76595152D01*
X123651715Y-76594849D01*
X123330000Y-76727779D01*
X123083644Y-76973705D01*
X122950152Y-77295188D01*
X122950008Y-77461109D01*
X122931116Y-77480000D01*
X111125000Y-77480000D01*
X110885822Y-77527575D01*
X110683058Y-77663058D01*
X106671124Y-81674992D01*
X106506715Y-81674849D01*
X106185000Y-81807779D01*
X105938644Y-82053705D01*
X105805152Y-82375188D01*
X105804849Y-82723285D01*
X105400000Y-82723285D01*
X105400000Y-74428677D01*
X106639883Y-74428677D01*
X106742429Y-74676857D01*
X106932144Y-74866903D01*
X107180145Y-74969883D01*
X107448677Y-74970117D01*
X107696857Y-74867571D01*
X107769555Y-74795000D01*
X108085000Y-74795000D01*
X108085000Y-75189344D01*
X107948571Y-75245715D01*
X107631828Y-75561907D01*
X107460196Y-75975242D01*
X107459805Y-76422795D01*
X107630715Y-76836429D01*
X107946907Y-77153172D01*
X108360242Y-77324804D01*
X108807795Y-77325195D01*
X109221429Y-77154285D01*
X109538172Y-76838093D01*
X109709804Y-76424758D01*
X109710195Y-75977205D01*
X109539285Y-75563571D01*
X109223093Y-75246828D01*
X109085000Y-75189487D01*
X109085000Y-74795000D01*
X118537894Y-74795000D01*
X118704972Y-74962078D01*
X118704883Y-75063677D01*
X118807429Y-75311857D01*
X118997144Y-75501903D01*
X119245145Y-75604883D01*
X119513677Y-75605117D01*
X119761857Y-75502571D01*
X119951903Y-75312856D01*
X120054883Y-75064855D01*
X120055117Y-74796323D01*
X119952571Y-74548143D01*
X119762856Y-74358097D01*
X119514855Y-74255117D01*
X119412134Y-74255027D01*
X119098553Y-73941447D01*
X118936342Y-73833060D01*
X118745000Y-73795000D01*
X107769634Y-73795000D01*
X107697856Y-73723097D01*
X107449855Y-73620117D01*
X107181323Y-73619883D01*
X106933143Y-73722429D01*
X106743097Y-73912144D01*
X106640117Y-74160145D01*
X106639883Y-74428677D01*
X105400000Y-74428677D01*
X105400000Y-69348677D01*
X106639883Y-69348677D01*
X106742429Y-69596857D01*
X106932144Y-69786903D01*
X107180145Y-69889883D01*
X107448677Y-69890117D01*
X107696857Y-69787571D01*
X107769555Y-69715000D01*
X108085000Y-69715000D01*
X108085000Y-70109344D01*
X107948571Y-70165715D01*
X107631828Y-70481907D01*
X107460196Y-70895242D01*
X107459805Y-71342795D01*
X107630715Y-71756429D01*
X107946907Y-72073172D01*
X108360242Y-72244804D01*
X108807795Y-72245195D01*
X109221429Y-72074285D01*
X109538172Y-71758093D01*
X109709804Y-71344758D01*
X109710195Y-70897205D01*
X109539285Y-70483571D01*
X109223093Y-70166828D01*
X109085000Y-70109487D01*
X109085000Y-69715000D01*
X118537894Y-69715000D01*
X118704972Y-69882078D01*
X118704883Y-69983677D01*
X118807429Y-70231857D01*
X118997144Y-70421903D01*
X119245145Y-70524883D01*
X119513677Y-70525117D01*
X119761857Y-70422571D01*
X119951903Y-70232856D01*
X120054883Y-69984855D01*
X120055117Y-69716323D01*
X119952571Y-69468143D01*
X119762856Y-69278097D01*
X119514855Y-69175117D01*
X119412134Y-69175027D01*
X119098553Y-68861447D01*
X118936342Y-68753060D01*
X118745000Y-68715000D01*
X107769634Y-68715000D01*
X107697856Y-68643097D01*
X107449855Y-68540117D01*
X107181323Y-68539883D01*
X106933143Y-68642429D01*
X106743097Y-68832144D01*
X106640117Y-69080145D01*
X106639883Y-69348677D01*
X105400000Y-69348677D01*
X105400000Y-64268677D01*
X106639883Y-64268677D01*
X106742429Y-64516857D01*
X106932144Y-64706903D01*
X107180145Y-64809883D01*
X107448677Y-64810117D01*
X107696857Y-64707571D01*
X107769555Y-64635000D01*
X108085000Y-64635000D01*
X108085000Y-65029344D01*
X107948571Y-65085715D01*
X107631828Y-65401907D01*
X107460196Y-65815242D01*
X107459805Y-66262795D01*
X107630715Y-66676429D01*
X107946907Y-66993172D01*
X108360242Y-67164804D01*
X108807795Y-67165195D01*
X109221429Y-66994285D01*
X109538172Y-66678093D01*
X109709804Y-66264758D01*
X109710195Y-65817205D01*
X109539285Y-65403571D01*
X109223093Y-65086828D01*
X109085000Y-65029487D01*
X109085000Y-64635000D01*
X118537894Y-64635000D01*
X118704972Y-64802078D01*
X118704883Y-64903677D01*
X118807429Y-65151857D01*
X118997144Y-65341903D01*
X119245145Y-65444883D01*
X119513677Y-65445117D01*
X119761857Y-65342571D01*
X119951903Y-65152856D01*
X120054883Y-64904855D01*
X120055117Y-64636323D01*
X119952571Y-64388143D01*
X119762856Y-64198097D01*
X119514855Y-64095117D01*
X119412134Y-64095027D01*
X119098553Y-63781447D01*
X118936342Y-63673060D01*
X118745000Y-63635000D01*
X107769634Y-63635000D01*
X107697856Y-63563097D01*
X107449855Y-63460117D01*
X107181323Y-63459883D01*
X106933143Y-63562429D01*
X106743097Y-63752144D01*
X106640117Y-64000145D01*
X106639883Y-64268677D01*
X105400000Y-64268677D01*
X105400000Y-59188677D01*
X106639883Y-59188677D01*
X106742429Y-59436857D01*
X106932144Y-59626903D01*
X107180145Y-59729883D01*
X107448677Y-59730117D01*
X107696857Y-59627571D01*
X107769555Y-59555000D01*
X108085000Y-59555000D01*
X108085000Y-59949344D01*
X107948571Y-60005715D01*
X107631828Y-60321907D01*
X107460196Y-60735242D01*
X107459805Y-61182795D01*
X107630715Y-61596429D01*
X107946907Y-61913172D01*
X108360242Y-62084804D01*
X108807795Y-62085195D01*
X109221429Y-61914285D01*
X109538172Y-61598093D01*
X109709804Y-61184758D01*
X109710195Y-60737205D01*
X109539285Y-60323571D01*
X109223093Y-60006828D01*
X109085000Y-59949487D01*
X109085000Y-59555000D01*
X118537894Y-59555000D01*
X118704972Y-59722078D01*
X118704883Y-59823677D01*
X118807429Y-60071857D01*
X118997144Y-60261903D01*
X119245145Y-60364883D01*
X119513677Y-60365117D01*
X119761857Y-60262571D01*
X119951903Y-60072856D01*
X120054883Y-59824855D01*
X120055117Y-59556323D01*
X119952571Y-59308143D01*
X119762856Y-59118097D01*
X119514855Y-59015117D01*
X119412134Y-59015027D01*
X119098553Y-58701447D01*
X118936342Y-58593060D01*
X118745000Y-58555000D01*
X107769634Y-58555000D01*
X107697856Y-58483097D01*
X107449855Y-58380117D01*
X107181323Y-58379883D01*
X106933143Y-58482429D01*
X106743097Y-58672144D01*
X106640117Y-58920145D01*
X106639883Y-59188677D01*
X105400000Y-59188677D01*
X105400000Y-54108677D01*
X106639883Y-54108677D01*
X106742429Y-54356857D01*
X106932144Y-54546903D01*
X107180145Y-54649883D01*
X107448677Y-54650117D01*
X107696857Y-54547571D01*
X107769555Y-54475000D01*
X108085000Y-54475000D01*
X108085000Y-54869344D01*
X107948571Y-54925715D01*
X107631828Y-55241907D01*
X107460196Y-55655242D01*
X107459805Y-56102795D01*
X107630715Y-56516429D01*
X107946907Y-56833172D01*
X108360242Y-57004804D01*
X108807795Y-57005195D01*
X109221429Y-56834285D01*
X109538172Y-56518093D01*
X109709804Y-56104758D01*
X109710195Y-55657205D01*
X109539285Y-55243571D01*
X109223093Y-54926828D01*
X109085000Y-54869487D01*
X109085000Y-54475000D01*
X118537894Y-54475000D01*
X118704972Y-54642078D01*
X118704883Y-54743677D01*
X118807429Y-54991857D01*
X118997144Y-55181903D01*
X119245145Y-55284883D01*
X119513677Y-55285117D01*
X119761857Y-55182571D01*
X119951903Y-54992856D01*
X120054883Y-54744855D01*
X120055117Y-54476323D01*
X119952571Y-54228143D01*
X119762856Y-54038097D01*
X119514855Y-53935117D01*
X119412134Y-53935027D01*
X119098553Y-53621447D01*
X118936342Y-53513060D01*
X118745000Y-53475000D01*
X107769634Y-53475000D01*
X107697856Y-53403097D01*
X107449855Y-53300117D01*
X107181323Y-53299883D01*
X106933143Y-53402429D01*
X106743097Y-53592144D01*
X106640117Y-53840145D01*
X106639883Y-54108677D01*
X105400000Y-54108677D01*
X105400000Y-49028677D01*
X106639883Y-49028677D01*
X106742429Y-49276857D01*
X106932144Y-49466903D01*
X107180145Y-49569883D01*
X107448677Y-49570117D01*
X107696857Y-49467571D01*
X107769555Y-49395000D01*
X108085000Y-49395000D01*
X108085000Y-49789344D01*
X107948571Y-49845715D01*
X107631828Y-50161907D01*
X107460196Y-50575242D01*
X107459805Y-51022795D01*
X107630715Y-51436429D01*
X107946907Y-51753172D01*
X108360242Y-51924804D01*
X108807795Y-51925195D01*
X109221429Y-51754285D01*
X109538172Y-51438093D01*
X109709804Y-51024758D01*
X109710195Y-50577205D01*
X109539285Y-50163571D01*
X109223093Y-49846828D01*
X109085000Y-49789487D01*
X109085000Y-49395000D01*
X118537894Y-49395000D01*
X118704972Y-49562078D01*
X118704883Y-49663677D01*
X118807429Y-49911857D01*
X118997144Y-50101903D01*
X119245145Y-50204883D01*
X119513677Y-50205117D01*
X119761857Y-50102571D01*
X119951903Y-49912856D01*
X120054883Y-49664855D01*
X120055117Y-49396323D01*
X119952571Y-49148143D01*
X119762856Y-48958097D01*
X119514855Y-48855117D01*
X119412134Y-48855027D01*
X119098553Y-48541447D01*
X118936342Y-48433060D01*
X118745000Y-48395000D01*
X107769634Y-48395000D01*
X107697856Y-48323097D01*
X107449855Y-48220117D01*
X107181323Y-48219883D01*
X106933143Y-48322429D01*
X106743097Y-48512144D01*
X106640117Y-48760145D01*
X106639883Y-49028677D01*
X105400000Y-49028677D01*
X105400000Y-43948677D01*
X106639883Y-43948677D01*
X106742429Y-44196857D01*
X106932144Y-44386903D01*
X107180145Y-44489883D01*
X107448677Y-44490117D01*
X107696857Y-44387571D01*
X107769555Y-44315000D01*
X108085000Y-44315000D01*
X108085000Y-44709344D01*
X107948571Y-44765715D01*
X107631828Y-45081907D01*
X107460196Y-45495242D01*
X107459805Y-45942795D01*
X107630715Y-46356429D01*
X107946907Y-46673172D01*
X108360242Y-46844804D01*
X108807795Y-46845195D01*
X109221429Y-46674285D01*
X109538172Y-46358093D01*
X109709804Y-45944758D01*
X109710195Y-45497205D01*
X109539285Y-45083571D01*
X109223093Y-44766828D01*
X109085000Y-44709487D01*
X109085000Y-44315000D01*
X118537894Y-44315000D01*
X118704972Y-44482078D01*
X118704883Y-44583677D01*
X118807429Y-44831857D01*
X118997144Y-45021903D01*
X119245145Y-45124883D01*
X119513677Y-45125117D01*
X119761857Y-45022571D01*
X119951903Y-44832856D01*
X120054883Y-44584855D01*
X120055117Y-44316323D01*
X119952571Y-44068143D01*
X119762856Y-43878097D01*
X119514855Y-43775117D01*
X119412134Y-43775027D01*
X119098553Y-43461447D01*
X118936342Y-43353060D01*
X118745000Y-43315000D01*
X107769634Y-43315000D01*
X107697856Y-43243097D01*
X107449855Y-43140117D01*
X107181323Y-43139883D01*
X106933143Y-43242429D01*
X106743097Y-43432144D01*
X106640117Y-43680145D01*
X106639883Y-43948677D01*
X105400000Y-43948677D01*
X105400000Y-38993884D01*
X105525207Y-38868677D01*
X106639883Y-38868677D01*
X106742429Y-39116857D01*
X106932144Y-39306903D01*
X107180145Y-39409883D01*
X107448677Y-39410117D01*
X107696857Y-39307571D01*
X107769555Y-39235000D01*
X108085000Y-39235000D01*
X108085000Y-39629344D01*
X107948571Y-39685715D01*
X107631828Y-40001907D01*
X107460196Y-40415242D01*
X107459805Y-40862795D01*
X107630715Y-41276429D01*
X107946907Y-41593172D01*
X108360242Y-41764804D01*
X108807795Y-41765195D01*
X109221429Y-41594285D01*
X109538172Y-41278093D01*
X109709804Y-40864758D01*
X109710195Y-40417205D01*
X109539285Y-40003571D01*
X109223093Y-39686828D01*
X109085000Y-39629487D01*
X109085000Y-39235000D01*
X118537894Y-39235000D01*
X118704972Y-39402078D01*
X118704883Y-39503677D01*
X118807429Y-39751857D01*
X118997144Y-39941903D01*
X119245145Y-40044883D01*
X119513677Y-40045117D01*
X119761857Y-39942571D01*
X119951903Y-39752856D01*
X120054883Y-39504855D01*
X120055117Y-39236323D01*
X119952571Y-38988143D01*
X119762856Y-38798097D01*
X119514855Y-38695117D01*
X119412134Y-38695027D01*
X119098553Y-38381447D01*
X118936342Y-38273060D01*
X118745000Y-38235000D01*
X107769634Y-38235000D01*
X107697856Y-38163097D01*
X107449855Y-38060117D01*
X107181323Y-38059883D01*
X106933143Y-38162429D01*
X106743097Y-38352144D01*
X106640117Y-38600145D01*
X106639883Y-38868677D01*
X105525207Y-38868677D01*
X106938884Y-37455000D01*
X130551116Y-37455000D01*
X131698776Y-38602660D01*
X131512075Y-38882079D01*
X131439886Y-39244998D01*
X131349619Y-39244998D01*
X131408682Y-39048046D01*
X131275009Y-38725305D01*
X130944562Y-38353424D01*
X130496956Y-38136307D01*
X130300000Y-38194881D01*
X130300000Y-39245000D01*
X130320000Y-39245000D01*
X130320000Y-39495000D01*
X130300000Y-39495000D01*
X130300000Y-40545119D01*
X130496956Y-40603693D01*
X130944562Y-40386576D01*
X131275009Y-40014695D01*
X131408682Y-39691954D01*
X131349619Y-39495002D01*
X131439886Y-39495002D01*
X131512075Y-39857921D01*
X131788460Y-40271561D01*
X132090000Y-40473043D01*
X132090000Y-40950993D01*
X132078571Y-40955715D01*
X131761828Y-41271907D01*
X131590196Y-41685242D01*
X131589805Y-42132795D01*
X131760715Y-42546429D01*
X132076907Y-42863172D01*
X132490242Y-43034804D01*
X132937795Y-43035195D01*
X133351429Y-42864285D01*
X133668172Y-42548093D01*
X133839804Y-42134758D01*
X133840195Y-41687205D01*
X133669285Y-41273571D01*
X133353093Y-40956828D01*
X133340000Y-40951391D01*
X133340000Y-40473043D01*
X133641540Y-40271561D01*
X133917925Y-39857921D01*
X133998042Y-39455148D01*
X135390000Y-40847107D01*
X135390000Y-46990000D01*
X135414223Y-47111777D01*
X135428060Y-47181342D01*
X135536447Y-47343553D01*
X136660000Y-48467107D01*
X136660000Y-49102230D01*
X136632221Y-49035000D01*
X136386295Y-48788644D01*
X136064812Y-48655152D01*
X135898891Y-48655008D01*
X135696942Y-48453058D01*
X135494177Y-48317575D01*
X135255000Y-48270000D01*
X128260000Y-48270000D01*
X128260000Y-40652346D01*
X128535000Y-40652346D01*
X128673966Y-40626198D01*
X128801599Y-40544069D01*
X128887223Y-40418754D01*
X128917346Y-40270000D01*
X128917346Y-39495002D01*
X129000381Y-39495002D01*
X128941318Y-39691954D01*
X129074991Y-40014695D01*
X129405438Y-40386576D01*
X129853044Y-40603693D01*
X130050000Y-40545119D01*
X130050000Y-39495000D01*
X130030000Y-39495000D01*
X130030000Y-39245000D01*
X130050000Y-39245000D01*
X130050000Y-38194881D01*
X129853044Y-38136307D01*
X129405438Y-38353424D01*
X129074991Y-38725305D01*
X128941318Y-39048046D01*
X129000381Y-39244998D01*
X128917346Y-39244998D01*
X128917346Y-38470000D01*
X128891198Y-38331034D01*
X128809069Y-38203401D01*
X128683754Y-38117777D01*
X128535000Y-38087654D01*
X126735000Y-38087654D01*
X126596034Y-38113802D01*
X126468401Y-38195931D01*
X126382777Y-38321246D01*
X126352654Y-38470000D01*
X126352654Y-40270000D01*
X126378802Y-40408966D01*
X126460931Y-40536599D01*
X126586246Y-40622223D01*
X126735000Y-40652346D01*
X127010000Y-40652346D01*
X127010000Y-49517654D01*
X126735000Y-49517654D01*
X126596034Y-49543802D01*
X126468401Y-49625931D01*
X126382777Y-49751246D01*
X126352654Y-49900000D01*
X126352654Y-51700000D01*
X126378802Y-51838966D01*
X126460931Y-51966599D01*
X126586246Y-52052223D01*
X126735000Y-52082346D01*
X128535000Y-52082346D01*
X128673966Y-52056198D01*
X128801599Y-51974069D01*
X128887223Y-51848754D01*
X128917346Y-51700000D01*
X128917346Y-50925002D01*
X129000381Y-50925002D01*
X128941318Y-51121954D01*
X129074991Y-51444695D01*
X129405438Y-51816576D01*
X129853044Y-52033693D01*
X130050000Y-51975119D01*
X130050000Y-50925000D01*
X130030000Y-50925000D01*
X130030000Y-50675000D01*
X130050000Y-50675000D01*
X130050000Y-49624881D01*
X130300000Y-49624881D01*
X130300000Y-50675000D01*
X130320000Y-50675000D01*
X130320000Y-50925000D01*
X130300000Y-50925000D01*
X130300000Y-51975119D01*
X130496956Y-52033693D01*
X130944562Y-51816576D01*
X131275009Y-51444695D01*
X131408682Y-51121954D01*
X131349619Y-50925002D01*
X131439886Y-50925002D01*
X131512075Y-51287921D01*
X131788460Y-51701561D01*
X132090000Y-51903043D01*
X132090000Y-52380993D01*
X132078571Y-52385715D01*
X131761828Y-52701907D01*
X131590196Y-53115242D01*
X131589805Y-53562795D01*
X131760715Y-53976429D01*
X132076907Y-54293172D01*
X132490242Y-54464804D01*
X132937795Y-54465195D01*
X133351429Y-54294285D01*
X133668172Y-53978093D01*
X133839804Y-53564758D01*
X133840195Y-53117205D01*
X133669285Y-52703571D01*
X133353093Y-52386828D01*
X133340000Y-52381391D01*
X133340000Y-51903043D01*
X133641540Y-51701561D01*
X133917925Y-51287921D01*
X134014979Y-50800000D01*
X133917925Y-50312079D01*
X133641540Y-49898439D01*
X133227900Y-49622054D01*
X132739979Y-49525000D01*
X132690021Y-49525000D01*
X132202100Y-49622054D01*
X131788460Y-49898439D01*
X131512075Y-50312079D01*
X131439886Y-50674998D01*
X131349619Y-50674998D01*
X131408682Y-50478046D01*
X131275009Y-50155305D01*
X130944562Y-49783424D01*
X130496956Y-49566307D01*
X130300000Y-49624881D01*
X130050000Y-49624881D01*
X129853044Y-49566307D01*
X129405438Y-49783424D01*
X129074991Y-50155305D01*
X128941318Y-50478046D01*
X129000381Y-50674998D01*
X128917346Y-50674998D01*
X128917346Y-49900000D01*
X128891198Y-49761034D01*
X128809069Y-49633401D01*
X128683754Y-49547777D01*
X128546585Y-49520000D01*
X134996116Y-49520000D01*
X135014992Y-49538876D01*
X135014849Y-49703285D01*
X135147779Y-50025000D01*
X135393705Y-50271356D01*
X135715188Y-50404848D01*
X136063285Y-50405151D01*
X136385000Y-50272221D01*
X136631356Y-50026295D01*
X136660000Y-49957313D01*
X136660000Y-60325000D01*
X136667980Y-60365117D01*
X136698060Y-60516342D01*
X136806447Y-60678553D01*
X140470000Y-64342107D01*
X140470000Y-74475366D01*
X140398097Y-74547144D01*
X140295117Y-74795145D01*
X140294883Y-75063677D01*
X140397429Y-75311857D01*
X140587144Y-75501903D01*
X140835145Y-75604883D01*
X141103677Y-75605117D01*
X141351857Y-75502571D01*
X141541903Y-75312856D01*
X141605028Y-75160835D01*
X141667429Y-75311857D01*
X141857144Y-75501903D01*
X142105145Y-75604883D01*
X142199965Y-75604966D01*
X142199883Y-75698677D01*
X142302429Y-75946857D01*
X142492144Y-76136903D01*
X142740145Y-76239883D01*
X142762990Y-76239903D01*
X138397922Y-80604972D01*
X138296323Y-80604883D01*
X138048143Y-80707429D01*
X137858097Y-80897144D01*
X137755117Y-81145145D01*
X137754883Y-81413677D01*
X137857429Y-81661857D01*
X138047144Y-81851903D01*
X138295145Y-81954883D01*
X138389965Y-81954966D01*
X138389883Y-82048677D01*
X138492429Y-82296857D01*
X138682144Y-82486903D01*
X138930145Y-82589883D01*
X139198677Y-82590117D01*
X139446857Y-82487571D01*
X139636903Y-82297856D01*
X139739883Y-82049855D01*
X139739973Y-81947134D01*
X145133554Y-76553553D01*
X145219612Y-76424758D01*
X145241940Y-76391342D01*
X145280000Y-76200000D01*
X145280000Y-75895392D01*
X147761385Y-75895392D01*
X147880291Y-76094550D01*
X148413627Y-76286716D01*
X148979905Y-76260155D01*
X149379709Y-76094550D01*
X149498615Y-75895392D01*
X148630000Y-75026777D01*
X147761385Y-75895392D01*
X145280000Y-75895392D01*
X145280000Y-74633627D01*
X147193284Y-74633627D01*
X147219845Y-75199905D01*
X147385450Y-75599709D01*
X147584608Y-75718615D01*
X148453223Y-74850000D01*
X148806777Y-74850000D01*
X149675392Y-75718615D01*
X149874550Y-75599709D01*
X150066716Y-75066373D01*
X150040155Y-74500095D01*
X149874550Y-74100291D01*
X149675392Y-73981385D01*
X148806777Y-74850000D01*
X148453223Y-74850000D01*
X147584608Y-73981385D01*
X147385450Y-74100291D01*
X147193284Y-74633627D01*
X145280000Y-74633627D01*
X145280000Y-73804608D01*
X147761385Y-73804608D01*
X148630000Y-74673223D01*
X149498615Y-73804608D01*
X149379709Y-73605450D01*
X148846373Y-73413284D01*
X148280095Y-73439845D01*
X147880291Y-73605450D01*
X147761385Y-73804608D01*
X145280000Y-73804608D01*
X145280000Y-57469488D01*
X145581213Y-57670751D01*
X146050000Y-57763999D01*
X146518787Y-57670751D01*
X146916206Y-57405205D01*
X147181752Y-57007786D01*
X147275000Y-56538999D01*
X147275000Y-56491001D01*
X147181752Y-56022214D01*
X146943071Y-55665000D01*
X147357654Y-55665000D01*
X147357654Y-57365000D01*
X147383802Y-57503966D01*
X147465931Y-57631599D01*
X147591246Y-57717223D01*
X147740000Y-57747346D01*
X149440000Y-57747346D01*
X149578966Y-57721198D01*
X149706599Y-57639069D01*
X149792223Y-57513754D01*
X149822346Y-57365000D01*
X149822346Y-55665000D01*
X149796198Y-55526034D01*
X149714069Y-55398401D01*
X149588754Y-55312777D01*
X149440000Y-55282654D01*
X147740000Y-55282654D01*
X147601034Y-55308802D01*
X147473401Y-55390931D01*
X147387777Y-55516246D01*
X147357654Y-55665000D01*
X146943071Y-55665000D01*
X146916206Y-55624795D01*
X146518787Y-55359249D01*
X146050000Y-55266001D01*
X145581213Y-55359249D01*
X145183794Y-55624795D01*
X144918248Y-56022214D01*
X144848119Y-56374774D01*
X144734484Y-56488409D01*
X144641752Y-56022214D01*
X144376206Y-55624795D01*
X143978787Y-55359249D01*
X143510000Y-55266001D01*
X143041213Y-55359249D01*
X142643794Y-55624795D01*
X142378248Y-56022214D01*
X142285000Y-56491001D01*
X142285000Y-56538999D01*
X142378248Y-57007786D01*
X142643794Y-57405205D01*
X143041213Y-57670751D01*
X143510000Y-57763999D01*
X143645000Y-57737146D01*
X143645000Y-61022893D01*
X140200000Y-57577894D01*
X140200000Y-57437875D01*
X140354843Y-57574355D01*
X140655907Y-57699049D01*
X140845000Y-57639323D01*
X140845000Y-56640000D01*
X141095000Y-56640000D01*
X141095000Y-57639323D01*
X141284093Y-57699049D01*
X141585157Y-57574355D01*
X141943729Y-57258306D01*
X142154059Y-56829095D01*
X142094867Y-56640000D01*
X141095000Y-56640000D01*
X140845000Y-56640000D01*
X140825000Y-56640000D01*
X140825000Y-56390000D01*
X140845000Y-56390000D01*
X140845000Y-55390677D01*
X141095000Y-55390677D01*
X141095000Y-56390000D01*
X142094867Y-56390000D01*
X142154059Y-56200905D01*
X141943729Y-55771694D01*
X141585157Y-55455645D01*
X141284093Y-55330951D01*
X141095000Y-55390677D01*
X140845000Y-55390677D01*
X140655907Y-55330951D01*
X140354843Y-55455645D01*
X140200000Y-55592125D01*
X140200000Y-52967206D01*
X149754754Y-52967206D01*
X149971240Y-53491143D01*
X150371749Y-53892351D01*
X150895307Y-54109752D01*
X151462206Y-54110246D01*
X151986143Y-53893760D01*
X152387351Y-53493251D01*
X152604752Y-52969693D01*
X152605246Y-52402794D01*
X152388760Y-51878857D01*
X152192796Y-51682550D01*
X152419783Y-51682550D01*
X152609684Y-52142143D01*
X152961007Y-52494081D01*
X153420269Y-52684783D01*
X153917550Y-52685217D01*
X154377143Y-52495316D01*
X154729081Y-52143993D01*
X154919783Y-51684731D01*
X154920217Y-51187450D01*
X154730316Y-50727857D01*
X154378993Y-50375919D01*
X153919731Y-50185217D01*
X153422450Y-50184783D01*
X152962857Y-50374684D01*
X152610919Y-50726007D01*
X152420217Y-51185269D01*
X152419783Y-51682550D01*
X152192796Y-51682550D01*
X151988251Y-51477649D01*
X151464693Y-51260248D01*
X150897794Y-51259754D01*
X150373857Y-51476240D01*
X149972649Y-51876749D01*
X149755248Y-52400307D01*
X149754754Y-52967206D01*
X140200000Y-52967206D01*
X140200000Y-47853605D01*
X152928171Y-47853605D01*
X153025614Y-48034585D01*
X153495458Y-48197480D01*
X153991874Y-48168174D01*
X154314386Y-48034585D01*
X154411829Y-47853605D01*
X153670000Y-47111777D01*
X152928171Y-47853605D01*
X140200000Y-47853605D01*
X140200000Y-45957206D01*
X149754754Y-45957206D01*
X149971240Y-46481143D01*
X150371749Y-46882351D01*
X150895307Y-47099752D01*
X151462206Y-47100246D01*
X151986143Y-46883760D01*
X152109660Y-46760458D01*
X152407520Y-46760458D01*
X152436826Y-47256874D01*
X152570415Y-47579386D01*
X152751395Y-47676829D01*
X153493223Y-46935000D01*
X153846777Y-46935000D01*
X154588605Y-47676829D01*
X154769585Y-47579386D01*
X154932480Y-47109542D01*
X154903174Y-46613126D01*
X154769585Y-46290614D01*
X154588605Y-46193171D01*
X153846777Y-46935000D01*
X153493223Y-46935000D01*
X152751395Y-46193171D01*
X152570415Y-46290614D01*
X152407520Y-46760458D01*
X152109660Y-46760458D01*
X152387351Y-46483251D01*
X152581207Y-46016395D01*
X152928171Y-46016395D01*
X153670000Y-46758223D01*
X154411829Y-46016395D01*
X154314386Y-45835415D01*
X153844542Y-45672520D01*
X153348126Y-45701826D01*
X153025614Y-45835415D01*
X152928171Y-46016395D01*
X152581207Y-46016395D01*
X152604752Y-45959693D01*
X152605246Y-45392794D01*
X152388760Y-44868857D01*
X151988251Y-44467649D01*
X151464693Y-44250248D01*
X150897794Y-44249754D01*
X150373857Y-44466240D01*
X149972649Y-44866749D01*
X149755248Y-45390307D01*
X149754754Y-45957206D01*
X140200000Y-45957206D01*
X140200000Y-42752106D01*
X141958554Y-40993553D01*
X141958556Y-40993550D01*
X142447107Y-40505000D01*
X143055366Y-40505000D01*
X143127144Y-40576903D01*
X143375145Y-40679883D01*
X143643677Y-40680117D01*
X143891857Y-40577571D01*
X144081903Y-40387856D01*
X144184883Y-40139855D01*
X144185117Y-39871323D01*
X144082571Y-39623143D01*
X144010000Y-39550445D01*
X144010000Y-39110656D01*
X144146429Y-39054285D01*
X144463172Y-38738093D01*
X144634804Y-38324758D01*
X144635000Y-38100000D01*
X149246001Y-38100000D01*
X149339249Y-38568787D01*
X149604795Y-38966206D01*
X149995000Y-39226932D01*
X149995000Y-39629344D01*
X149858571Y-39685715D01*
X149541828Y-40001907D01*
X149370196Y-40415242D01*
X149369805Y-40862795D01*
X149540715Y-41276429D01*
X149856907Y-41593172D01*
X150270242Y-41764804D01*
X150717795Y-41765195D01*
X151131429Y-41594285D01*
X151448172Y-41278093D01*
X151619804Y-40864758D01*
X151620195Y-40417205D01*
X151449285Y-40003571D01*
X151133093Y-39686828D01*
X150995000Y-39629487D01*
X150995000Y-39226932D01*
X151385205Y-38966206D01*
X151650751Y-38568787D01*
X151743999Y-38100000D01*
X151786001Y-38100000D01*
X151879249Y-38568787D01*
X152144795Y-38966206D01*
X152535000Y-39226932D01*
X152535000Y-39629344D01*
X152398571Y-39685715D01*
X152081828Y-40001907D01*
X151910196Y-40415242D01*
X151909805Y-40862795D01*
X152080715Y-41276429D01*
X152396907Y-41593172D01*
X152810242Y-41764804D01*
X153257795Y-41765195D01*
X153671429Y-41594285D01*
X153988172Y-41278093D01*
X154159804Y-40864758D01*
X154160195Y-40417205D01*
X153989285Y-40003571D01*
X153673093Y-39686828D01*
X153535000Y-39629487D01*
X153535000Y-39226932D01*
X153925205Y-38966206D01*
X154190751Y-38568787D01*
X154283999Y-38100000D01*
X154190751Y-37631213D01*
X153925205Y-37233794D01*
X153527786Y-36968248D01*
X153058999Y-36875000D01*
X153011001Y-36875000D01*
X152542214Y-36968248D01*
X152144795Y-37233794D01*
X151879249Y-37631213D01*
X151786001Y-38100000D01*
X151743999Y-38100000D01*
X151650751Y-37631213D01*
X151385205Y-37233794D01*
X150987786Y-36968248D01*
X150518999Y-36875000D01*
X150471001Y-36875000D01*
X150002214Y-36968248D01*
X149604795Y-37233794D01*
X149339249Y-37631213D01*
X149246001Y-38100000D01*
X144635000Y-38100000D01*
X144635195Y-37877205D01*
X144464285Y-37463571D01*
X144148093Y-37146828D01*
X143734758Y-36975196D01*
X143287205Y-36974805D01*
X142873571Y-37145715D01*
X142556828Y-37461907D01*
X142385196Y-37875242D01*
X142384805Y-38322795D01*
X142555715Y-38736429D01*
X142871907Y-39053172D01*
X143010000Y-39110513D01*
X143010000Y-39505000D01*
X142240000Y-39505000D01*
X142048658Y-39543060D01*
X141983686Y-39586474D01*
X141886447Y-39651446D01*
X141645098Y-39892795D01*
X141645117Y-39871323D01*
X141542571Y-39623143D01*
X141470000Y-39550445D01*
X141470000Y-39110656D01*
X141606429Y-39054285D01*
X141923172Y-38738093D01*
X142094804Y-38324758D01*
X142095195Y-37877205D01*
X141924285Y-37463571D01*
X141608093Y-37146828D01*
X141194758Y-36975196D01*
X140747205Y-36974805D01*
X140333571Y-37145715D01*
X140016828Y-37461907D01*
X139845196Y-37875242D01*
X139844805Y-38322795D01*
X140015715Y-38736429D01*
X140331907Y-39053172D01*
X140470000Y-39110513D01*
X140470000Y-39550366D01*
X140398097Y-39622144D01*
X140295117Y-39870145D01*
X140295027Y-39972866D01*
X138711448Y-41556446D01*
X138711447Y-41556447D01*
X138603060Y-41718658D01*
X138565000Y-41910000D01*
X138565000Y-44898965D01*
X138433093Y-44766828D01*
X138019758Y-44595196D01*
X137970864Y-44595153D01*
X138113172Y-44453093D01*
X138284804Y-44039758D01*
X138285195Y-43592205D01*
X138114285Y-43178571D01*
X137798093Y-42861828D01*
X137384758Y-42690196D01*
X136937205Y-42689805D01*
X136523571Y-42860715D01*
X136390000Y-42994054D01*
X136390000Y-40640000D01*
X136351940Y-40448658D01*
X136329612Y-40415242D01*
X136243553Y-40286446D01*
X131798553Y-35841447D01*
X131636342Y-35733060D01*
X131445000Y-35695000D01*
X130996035Y-35695000D01*
X131128172Y-35563093D01*
X131129456Y-35560000D01*
X149246001Y-35560000D01*
X149339249Y-36028787D01*
X149604795Y-36426206D01*
X150002214Y-36691752D01*
X150471001Y-36785000D01*
X150518999Y-36785000D01*
X150987786Y-36691752D01*
X151385205Y-36426206D01*
X151650751Y-36028787D01*
X151743999Y-35560000D01*
X151786001Y-35560000D01*
X151879249Y-36028787D01*
X152144795Y-36426206D01*
X152542214Y-36691752D01*
X153011001Y-36785000D01*
X153058999Y-36785000D01*
X153527786Y-36691752D01*
X153925205Y-36426206D01*
X154190751Y-36028787D01*
X154283999Y-35560000D01*
X154190751Y-35091213D01*
X153925205Y-34693794D01*
X153527786Y-34428248D01*
X153058999Y-34335000D01*
X153011001Y-34335000D01*
X152542214Y-34428248D01*
X152144795Y-34693794D01*
X151879249Y-35091213D01*
X151786001Y-35560000D01*
X151743999Y-35560000D01*
X151650751Y-35091213D01*
X151385205Y-34693794D01*
X150987786Y-34428248D01*
X150518999Y-34335000D01*
X150471001Y-34335000D01*
X150002214Y-34428248D01*
X149604795Y-34693794D01*
X149339249Y-35091213D01*
X149246001Y-35560000D01*
X131129456Y-35560000D01*
X131299804Y-35149758D01*
X131300195Y-34702205D01*
X131129285Y-34288571D01*
X130813093Y-33971828D01*
X130399758Y-33800196D01*
X129952205Y-33799805D01*
X129538571Y-33970715D01*
X129221828Y-34286907D01*
X129050196Y-34700242D01*
X129049805Y-35147795D01*
X129220715Y-35561429D01*
X129354054Y-35695000D01*
X112602107Y-35695000D01*
X111752224Y-34845117D01*
X113921659Y-34845117D01*
X114065039Y-35065061D01*
X114670868Y-35290646D01*
X115316908Y-35267219D01*
X115804961Y-35065061D01*
X115948341Y-34845117D01*
X114935000Y-33831777D01*
X113921659Y-34845117D01*
X111752224Y-34845117D01*
X111625000Y-34717894D01*
X111625000Y-33390868D01*
X113299354Y-33390868D01*
X113322781Y-34036908D01*
X113524939Y-34524961D01*
X113744883Y-34668341D01*
X114758223Y-33655000D01*
X115111777Y-33655000D01*
X116125117Y-34668341D01*
X116345061Y-34524961D01*
X116549167Y-33976814D01*
X118389718Y-33976814D01*
X118636588Y-34574286D01*
X119093309Y-35031805D01*
X119690349Y-35279718D01*
X120336814Y-35280282D01*
X120934286Y-35033412D01*
X121391805Y-34576691D01*
X121639718Y-33979651D01*
X121640282Y-33333186D01*
X121510877Y-33020000D01*
X149246001Y-33020000D01*
X149339249Y-33488787D01*
X149604795Y-33886206D01*
X150002214Y-34151752D01*
X150471001Y-34245000D01*
X150518999Y-34245000D01*
X150987786Y-34151752D01*
X151385205Y-33886206D01*
X151650751Y-33488787D01*
X151700486Y-33238750D01*
X151810000Y-33238750D01*
X151810000Y-33944592D01*
X151867090Y-34082421D01*
X151972580Y-34187910D01*
X152110408Y-34245000D01*
X152816250Y-34245000D01*
X152910000Y-34151250D01*
X152910000Y-33145000D01*
X153160000Y-33145000D01*
X153160000Y-34151250D01*
X153253750Y-34245000D01*
X153959592Y-34245000D01*
X154097420Y-34187910D01*
X154202910Y-34082421D01*
X154260000Y-33944592D01*
X154260000Y-33238750D01*
X154166250Y-33145000D01*
X153160000Y-33145000D01*
X152910000Y-33145000D01*
X151903750Y-33145000D01*
X151810000Y-33238750D01*
X151700486Y-33238750D01*
X151743999Y-33020000D01*
X151650751Y-32551213D01*
X151385205Y-32153794D01*
X151297824Y-32095408D01*
X151810000Y-32095408D01*
X151810000Y-32801250D01*
X151903750Y-32895000D01*
X152910000Y-32895000D01*
X152910000Y-31888750D01*
X153160000Y-31888750D01*
X153160000Y-32895000D01*
X154166250Y-32895000D01*
X154260000Y-32801250D01*
X154260000Y-32095408D01*
X154202910Y-31957579D01*
X154097420Y-31852090D01*
X153959592Y-31795000D01*
X153253750Y-31795000D01*
X153160000Y-31888750D01*
X152910000Y-31888750D01*
X152816250Y-31795000D01*
X152110408Y-31795000D01*
X151972580Y-31852090D01*
X151867090Y-31957579D01*
X151810000Y-32095408D01*
X151297824Y-32095408D01*
X150987786Y-31888248D01*
X150518999Y-31795000D01*
X150471001Y-31795000D01*
X150002214Y-31888248D01*
X149604795Y-32153794D01*
X149339249Y-32551213D01*
X149246001Y-33020000D01*
X121510877Y-33020000D01*
X121393412Y-32735714D01*
X120936691Y-32278195D01*
X120640000Y-32154998D01*
X120640000Y-31439007D01*
X120651429Y-31434285D01*
X120968172Y-31118093D01*
X121139804Y-30704758D01*
X121140195Y-30257205D01*
X120969285Y-29843571D01*
X120653093Y-29526828D01*
X120239758Y-29355196D01*
X119792205Y-29354805D01*
X119378571Y-29525715D01*
X119061828Y-29841907D01*
X118890196Y-30255242D01*
X118889805Y-30702795D01*
X119060715Y-31116429D01*
X119376907Y-31433172D01*
X119390000Y-31438609D01*
X119390000Y-32154992D01*
X119095714Y-32276588D01*
X118638195Y-32733309D01*
X118390282Y-33330349D01*
X118389718Y-33976814D01*
X116549167Y-33976814D01*
X116570646Y-33919132D01*
X116547219Y-33273092D01*
X116345061Y-32785039D01*
X116125117Y-32641659D01*
X115111777Y-33655000D01*
X114758223Y-33655000D01*
X113744883Y-32641659D01*
X113524939Y-32785039D01*
X113299354Y-33390868D01*
X111625000Y-33390868D01*
X111625000Y-32464883D01*
X113921659Y-32464883D01*
X114935000Y-33478223D01*
X115948341Y-32464883D01*
X115804961Y-32244939D01*
X115199132Y-32019354D01*
X114553092Y-32042781D01*
X114065039Y-32244939D01*
X113921659Y-32464883D01*
X111625000Y-32464883D01*
X111625000Y-31307913D01*
X114283864Y-31307913D01*
X114365929Y-31475922D01*
X114790370Y-31617886D01*
X115236829Y-31586617D01*
X115504071Y-31475922D01*
X115586136Y-31307913D01*
X114935000Y-30656777D01*
X114283864Y-31307913D01*
X111625000Y-31307913D01*
X111625000Y-30335370D01*
X113797114Y-30335370D01*
X113828383Y-30781829D01*
X113939078Y-31049071D01*
X114107087Y-31131136D01*
X114758223Y-30480000D01*
X115111777Y-30480000D01*
X115762913Y-31131136D01*
X115930922Y-31049071D01*
X116072886Y-30624630D01*
X116041617Y-30178171D01*
X115930922Y-29910929D01*
X115762913Y-29828864D01*
X115111777Y-30480000D01*
X114758223Y-30480000D01*
X114107087Y-29828864D01*
X113939078Y-29910929D01*
X113797114Y-30335370D01*
X111625000Y-30335370D01*
X111625000Y-30299634D01*
X111696903Y-30227856D01*
X111799883Y-29979855D01*
X111800117Y-29711323D01*
X111775642Y-29652087D01*
X114283864Y-29652087D01*
X114935000Y-30303223D01*
X115586136Y-29652087D01*
X115504071Y-29484078D01*
X115079630Y-29342114D01*
X114633171Y-29373383D01*
X114365929Y-29484078D01*
X114283864Y-29652087D01*
X111775642Y-29652087D01*
X111697571Y-29463143D01*
X111507856Y-29273097D01*
X111259855Y-29170117D01*
X110991323Y-29169883D01*
X110743143Y-29272429D01*
X110553097Y-29462144D01*
X110450117Y-29710145D01*
X110449883Y-29978677D01*
X110552429Y-30226857D01*
X110625000Y-30299555D01*
X110625000Y-34925000D01*
X110652860Y-35065061D01*
X110663060Y-35116342D01*
X110771447Y-35278553D01*
X111697893Y-36205000D01*
X106680000Y-36205000D01*
X106440823Y-36252575D01*
X106238058Y-36388058D01*
X104333058Y-38293058D01*
X104197575Y-38495823D01*
X104150000Y-38735000D01*
X101117760Y-38735000D01*
X100624683Y-38530257D01*
X100037892Y-38529744D01*
X99495571Y-38753827D01*
X99080285Y-39168389D01*
X98992417Y-39380000D01*
X98114007Y-39380000D01*
X98109285Y-39368571D01*
X97793093Y-39051828D01*
X97379758Y-38880196D01*
X96932205Y-38879805D01*
X96518571Y-39050715D01*
X96201828Y-39366907D01*
X96030196Y-39780242D01*
X96029805Y-40227795D01*
X92425000Y-40227795D01*
X92425000Y-35147795D01*
X96029805Y-35147795D01*
X96200715Y-35561429D01*
X96516907Y-35878172D01*
X96930242Y-36049804D01*
X97377795Y-36050195D01*
X97791429Y-35879285D01*
X98108172Y-35563093D01*
X98113609Y-35550000D01*
X98992292Y-35550000D01*
X99078827Y-35759429D01*
X99493389Y-36174715D01*
X100035317Y-36399743D01*
X100622108Y-36400256D01*
X101164429Y-36176173D01*
X101579715Y-35761611D01*
X101804743Y-35219683D01*
X101805256Y-34632892D01*
X101581173Y-34090571D01*
X101166611Y-33675285D01*
X100624683Y-33450257D01*
X100037892Y-33449744D01*
X99495571Y-33673827D01*
X99080285Y-34088389D01*
X98992417Y-34300000D01*
X98114007Y-34300000D01*
X98109285Y-34288571D01*
X97793093Y-33971828D01*
X97379758Y-33800196D01*
X96932205Y-33799805D01*
X96518571Y-33970715D01*
X96201828Y-34286907D01*
X96030196Y-34700242D01*
X96029805Y-35147795D01*
X92425000Y-35147795D01*
X92425000Y-31337795D01*
X102379805Y-31337795D01*
X102550715Y-31751429D01*
X102866907Y-32068172D01*
X103280242Y-32239804D01*
X103727795Y-32240195D01*
X104141429Y-32069285D01*
X104458172Y-31753093D01*
X104515513Y-31615000D01*
X104955366Y-31615000D01*
X105027144Y-31686903D01*
X105275145Y-31789883D01*
X105543677Y-31790117D01*
X105791857Y-31687571D01*
X105981903Y-31497856D01*
X106084883Y-31249855D01*
X106085117Y-30981323D01*
X105982571Y-30733143D01*
X105792856Y-30543097D01*
X105544855Y-30440117D01*
X105276323Y-30439883D01*
X105028143Y-30542429D01*
X104955445Y-30615000D01*
X104515656Y-30615000D01*
X104459285Y-30478571D01*
X104143093Y-30161828D01*
X103729758Y-29990196D01*
X103282205Y-29989805D01*
X102868571Y-30160715D01*
X102551828Y-30476907D01*
X102380196Y-30890242D01*
X102379805Y-31337795D01*
X92425000Y-31337795D01*
X92425000Y-26041860D01*
X92857065Y-23869725D01*
X94063767Y-22063767D01*
X95869725Y-20857065D01*
X98041860Y-20425000D01*
X155958140Y-20425000D01*
X158130275Y-20857065D01*
X158130275Y-20857065D01*
G37*
X158130275Y-20857065D02*
X159936233Y-22063767D01*
X161142935Y-23869725D01*
X161575000Y-26041860D01*
X161575000Y-101958140D01*
X161142935Y-104130275D01*
X159936233Y-105936233D01*
X158130275Y-107142935D01*
X155958140Y-107575000D01*
X98041860Y-107575000D01*
X95869725Y-107142935D01*
X94063767Y-105936233D01*
X93377177Y-104908677D01*
X112989883Y-104908677D01*
X113092429Y-105156857D01*
X113282144Y-105346903D01*
X113530145Y-105449883D01*
X113798677Y-105450117D01*
X114046857Y-105347571D01*
X114119555Y-105275000D01*
X114559344Y-105275000D01*
X114615715Y-105411429D01*
X114931907Y-105728172D01*
X115345242Y-105899804D01*
X115792795Y-105900195D01*
X116206429Y-105729285D01*
X116523172Y-105413093D01*
X116694804Y-104999758D01*
X116695195Y-104552205D01*
X116524285Y-104138571D01*
X116208093Y-103821828D01*
X115794758Y-103650196D01*
X115347205Y-103649805D01*
X114933571Y-103820715D01*
X114616828Y-104136907D01*
X114559487Y-104275000D01*
X114119634Y-104275000D01*
X114047856Y-104203097D01*
X113799855Y-104100117D01*
X113531323Y-104099883D01*
X113283143Y-104202429D01*
X113093097Y-104392144D01*
X112990117Y-104640145D01*
X112989883Y-104908677D01*
X93377177Y-104908677D01*
X92857065Y-104130275D01*
X92650698Y-103092795D01*
X103649805Y-103092795D01*
X103820715Y-103506429D01*
X104136907Y-103823172D01*
X104550242Y-103994804D01*
X104997795Y-103995195D01*
X105411429Y-103824285D01*
X105728172Y-103508093D01*
X105899804Y-103094758D01*
X105900195Y-102647205D01*
X105894781Y-102634103D01*
X106053876Y-102475008D01*
X106218285Y-102475151D01*
X106540000Y-102342221D01*
X106786356Y-102096295D01*
X106919848Y-101774812D01*
X106920151Y-101426715D01*
X106787221Y-101105000D01*
X106541295Y-100858644D01*
X106219812Y-100725152D01*
X105871715Y-100724849D01*
X105550000Y-100857779D01*
X105303644Y-101103705D01*
X105170152Y-101425188D01*
X105170008Y-101591108D01*
X105011178Y-101749938D01*
X104999758Y-101745196D01*
X104552205Y-101744805D01*
X104138571Y-101915715D01*
X103821828Y-102231907D01*
X103650196Y-102645242D01*
X103649805Y-103092795D01*
X92650698Y-103092795D01*
X92425000Y-101958140D01*
X92425000Y-91023750D01*
X99105000Y-91023750D01*
X99105000Y-91729592D01*
X99162090Y-91867421D01*
X99267580Y-91972910D01*
X99405408Y-92030000D01*
X100111250Y-92030000D01*
X100205000Y-91936250D01*
X100205000Y-90930000D01*
X100455000Y-90930000D01*
X100455000Y-91936250D01*
X100548750Y-92030000D01*
X101254592Y-92030000D01*
X101392420Y-91972910D01*
X101497910Y-91867421D01*
X101555000Y-91729592D01*
X101555000Y-91023750D01*
X101461250Y-90930000D01*
X100455000Y-90930000D01*
X100205000Y-90930000D01*
X99198750Y-90930000D01*
X99105000Y-91023750D01*
X92425000Y-91023750D01*
X92425000Y-90805000D01*
X101621001Y-90805000D01*
X101714249Y-91273787D01*
X101979795Y-91671206D01*
X102377214Y-91936752D01*
X102846001Y-92030000D01*
X102893999Y-92030000D01*
X103362786Y-91936752D01*
X103760205Y-91671206D01*
X103921373Y-91430000D01*
X104450993Y-91430000D01*
X104455715Y-91441429D01*
X104771907Y-91758172D01*
X105185242Y-91929804D01*
X105632795Y-91930195D01*
X106046429Y-91759285D01*
X106363172Y-91443093D01*
X106534804Y-91029758D01*
X106535195Y-90582205D01*
X106364285Y-90168571D01*
X106048093Y-89851828D01*
X105634758Y-89680196D01*
X105187205Y-89679805D01*
X104773571Y-89850715D01*
X104456828Y-90166907D01*
X104451391Y-90180000D01*
X103921373Y-90180000D01*
X103760205Y-89938794D01*
X103362786Y-89673248D01*
X102893999Y-89580000D01*
X102846001Y-89580000D01*
X102377214Y-89673248D01*
X101979795Y-89938794D01*
X101714249Y-90336213D01*
X101621001Y-90805000D01*
X92425000Y-90805000D01*
X92425000Y-89880408D01*
X99105000Y-89880408D01*
X99105000Y-90586250D01*
X99198750Y-90680000D01*
X100205000Y-90680000D01*
X100205000Y-89673750D01*
X100455000Y-89673750D01*
X100455000Y-90680000D01*
X101461250Y-90680000D01*
X101555000Y-90586250D01*
X101555000Y-89880408D01*
X101497910Y-89742579D01*
X101392420Y-89637090D01*
X101254592Y-89580000D01*
X100548750Y-89580000D01*
X100455000Y-89673750D01*
X100205000Y-89673750D01*
X100111250Y-89580000D01*
X99405408Y-89580000D01*
X99267580Y-89637090D01*
X99162090Y-89742579D01*
X99105000Y-89880408D01*
X92425000Y-89880408D01*
X92425000Y-88487795D01*
X96664805Y-88487795D01*
X96835715Y-88901429D01*
X97151907Y-89218172D01*
X97565242Y-89389804D01*
X98012795Y-89390195D01*
X98426429Y-89219285D01*
X98743172Y-88903093D01*
X98800513Y-88765000D01*
X99195105Y-88765000D01*
X99439795Y-89131206D01*
X99837214Y-89396752D01*
X100306001Y-89490000D01*
X100353999Y-89490000D01*
X100822786Y-89396752D01*
X101220205Y-89131206D01*
X101485751Y-88733787D01*
X101578999Y-88265000D01*
X101621001Y-88265000D01*
X101714249Y-88733787D01*
X101979795Y-89131206D01*
X102377214Y-89396752D01*
X102846001Y-89490000D01*
X102893999Y-89490000D01*
X103362786Y-89396752D01*
X103760205Y-89131206D01*
X104004895Y-88765000D01*
X104399344Y-88765000D01*
X104455715Y-88901429D01*
X104771907Y-89218172D01*
X105185242Y-89389804D01*
X105632795Y-89390195D01*
X106046429Y-89219285D01*
X106363172Y-88903093D01*
X106534804Y-88489758D01*
X106535195Y-88042205D01*
X106364285Y-87628571D01*
X106048093Y-87311828D01*
X105634758Y-87140196D01*
X105187205Y-87139805D01*
X104773571Y-87310715D01*
X104456828Y-87626907D01*
X104399487Y-87765000D01*
X104004895Y-87765000D01*
X103760205Y-87398794D01*
X103362786Y-87133248D01*
X102893999Y-87040000D01*
X102846001Y-87040000D01*
X102377214Y-87133248D01*
X101979795Y-87398794D01*
X101714249Y-87796213D01*
X101621001Y-88265000D01*
X101578999Y-88265000D01*
X101485751Y-87796213D01*
X101220205Y-87398794D01*
X100822786Y-87133248D01*
X100353999Y-87040000D01*
X100306001Y-87040000D01*
X99837214Y-87133248D01*
X99439795Y-87398794D01*
X99195105Y-87765000D01*
X98800656Y-87765000D01*
X98744285Y-87628571D01*
X98428093Y-87311828D01*
X98014758Y-87140196D01*
X97567205Y-87139805D01*
X97153571Y-87310715D01*
X96836828Y-87626907D01*
X96665196Y-88040242D01*
X96664805Y-88487795D01*
X92425000Y-88487795D01*
X92425000Y-85947795D01*
X96664805Y-85947795D01*
X96835715Y-86361429D01*
X97151907Y-86678172D01*
X97565242Y-86849804D01*
X98012795Y-86850195D01*
X98426429Y-86679285D01*
X98743172Y-86363093D01*
X98800513Y-86225000D01*
X99195105Y-86225000D01*
X99439795Y-86591206D01*
X99837214Y-86856752D01*
X100306001Y-86950000D01*
X100353999Y-86950000D01*
X100822786Y-86856752D01*
X101220205Y-86591206D01*
X101485751Y-86193787D01*
X101578999Y-85725000D01*
X101621001Y-85725000D01*
X101714249Y-86193787D01*
X101979795Y-86591206D01*
X102377214Y-86856752D01*
X102846001Y-86950000D01*
X102893999Y-86950000D01*
X103362786Y-86856752D01*
X103760205Y-86591206D01*
X103825371Y-86493677D01*
X106004883Y-86493677D01*
X106107429Y-86741857D01*
X106297144Y-86931903D01*
X106545145Y-87034883D01*
X106647866Y-87034973D01*
X113800000Y-94187107D01*
X113800000Y-99830000D01*
X113405656Y-99830000D01*
X113349285Y-99693571D01*
X113033093Y-99376828D01*
X112619758Y-99205196D01*
X112172205Y-99204805D01*
X111758571Y-99375715D01*
X111441828Y-99691907D01*
X111270196Y-100105242D01*
X111269805Y-100552795D01*
X111440715Y-100966429D01*
X111756907Y-101283172D01*
X112170242Y-101454804D01*
X112617795Y-101455195D01*
X113031429Y-101284285D01*
X113348172Y-100968093D01*
X113405513Y-100830000D01*
X114092894Y-100830000D01*
X117423806Y-104160913D01*
X117320248Y-104410307D01*
X117319754Y-104977206D01*
X117536240Y-105501143D01*
X117936749Y-105902351D01*
X118460307Y-106119752D01*
X119027206Y-106120246D01*
X119551143Y-105903760D01*
X119952351Y-105503251D01*
X120169752Y-104979693D01*
X120170246Y-104412794D01*
X119953760Y-103888857D01*
X119553251Y-103487649D01*
X119029693Y-103270248D01*
X118462794Y-103269754D01*
X118097710Y-103420603D01*
X114800000Y-100122894D01*
X114800000Y-99520834D01*
X124354632Y-99520834D01*
X124677462Y-100302143D01*
X125274713Y-100900437D01*
X126055457Y-101224630D01*
X126900834Y-101225368D01*
X127481541Y-100985425D01*
X129173056Y-102676939D01*
X129173058Y-102676942D01*
X129375823Y-102812425D01*
X129615000Y-102860001D01*
X129615005Y-102860000D01*
X135385000Y-102860000D01*
X135624177Y-102812425D01*
X135826942Y-102676942D01*
X137518731Y-100985153D01*
X138095457Y-101224630D01*
X138940834Y-101225368D01*
X139722143Y-100902538D01*
X140161770Y-100463677D01*
X140929883Y-100463677D01*
X141032429Y-100711857D01*
X141222144Y-100901903D01*
X141470145Y-101004883D01*
X141738677Y-101005117D01*
X141986857Y-100902571D01*
X142059555Y-100830000D01*
X142499344Y-100830000D01*
X142555715Y-100966429D01*
X142871907Y-101283172D01*
X143285242Y-101454804D01*
X143732795Y-101455195D01*
X144146429Y-101284285D01*
X144463172Y-100968093D01*
X144597708Y-100644093D01*
X148675951Y-100644093D01*
X148800645Y-100945157D01*
X149116694Y-101303729D01*
X149545905Y-101514059D01*
X149735000Y-101454867D01*
X149735000Y-100455000D01*
X149985000Y-100455000D01*
X149985000Y-101454867D01*
X150174095Y-101514059D01*
X150603306Y-101303729D01*
X150919355Y-100945157D01*
X151044049Y-100644093D01*
X150984323Y-100455000D01*
X149985000Y-100455000D01*
X149735000Y-100455000D01*
X148735677Y-100455000D01*
X148675951Y-100644093D01*
X144597708Y-100644093D01*
X144634804Y-100554758D01*
X144635000Y-100330000D01*
X151151001Y-100330000D01*
X151244249Y-100798787D01*
X151509795Y-101196206D01*
X151907214Y-101461752D01*
X152376001Y-101555000D01*
X152423999Y-101555000D01*
X152892786Y-101461752D01*
X153290205Y-101196206D01*
X153534895Y-100830000D01*
X153929344Y-100830000D01*
X153985715Y-100966429D01*
X154301907Y-101283172D01*
X154715242Y-101454804D01*
X155162795Y-101455195D01*
X155576429Y-101284285D01*
X155893172Y-100968093D01*
X156064804Y-100554758D01*
X156065195Y-100107205D01*
X155894285Y-99693571D01*
X155578093Y-99376828D01*
X155164758Y-99205196D01*
X154717205Y-99204805D01*
X154303571Y-99375715D01*
X153986828Y-99691907D01*
X153929487Y-99830000D01*
X153534895Y-99830000D01*
X153290205Y-99463794D01*
X152892786Y-99198248D01*
X152423999Y-99105000D01*
X152376001Y-99105000D01*
X151907214Y-99198248D01*
X151509795Y-99463794D01*
X151244249Y-99861213D01*
X151151001Y-100330000D01*
X144635000Y-100330000D01*
X144635195Y-100107205D01*
X144597472Y-100015907D01*
X148675951Y-100015907D01*
X148735677Y-100205000D01*
X149735000Y-100205000D01*
X149735000Y-99205133D01*
X149985000Y-99205133D01*
X149985000Y-100205000D01*
X150984323Y-100205000D01*
X151044049Y-100015907D01*
X150919355Y-99714843D01*
X150603306Y-99356271D01*
X150174095Y-99145941D01*
X149985000Y-99205133D01*
X149735000Y-99205133D01*
X149545905Y-99145941D01*
X149116694Y-99356271D01*
X148800645Y-99714843D01*
X148675951Y-100015907D01*
X144597472Y-100015907D01*
X144464285Y-99693571D01*
X144148093Y-99376828D01*
X143734758Y-99205196D01*
X143287205Y-99204805D01*
X142873571Y-99375715D01*
X142556828Y-99691907D01*
X142499487Y-99830000D01*
X142059634Y-99830000D01*
X141987856Y-99758097D01*
X141739855Y-99655117D01*
X141471323Y-99654883D01*
X141223143Y-99757429D01*
X141033097Y-99947144D01*
X140930117Y-100195145D01*
X140929883Y-100463677D01*
X140161770Y-100463677D01*
X140320437Y-100305287D01*
X140644630Y-99524543D01*
X140645368Y-98679166D01*
X140370030Y-98012795D01*
X146194805Y-98012795D01*
X146365715Y-98426429D01*
X146681907Y-98743172D01*
X147095242Y-98914804D01*
X147542795Y-98915195D01*
X147956429Y-98744285D01*
X148273172Y-98428093D01*
X148330513Y-98290000D01*
X148725105Y-98290000D01*
X148969795Y-98656206D01*
X149367214Y-98921752D01*
X149836001Y-99015000D01*
X149883999Y-99015000D01*
X150352786Y-98921752D01*
X150750205Y-98656206D01*
X151015751Y-98258787D01*
X151108999Y-97790000D01*
X151151001Y-97790000D01*
X151244249Y-98258787D01*
X151509795Y-98656206D01*
X151907214Y-98921752D01*
X152376001Y-99015000D01*
X152423999Y-99015000D01*
X152892786Y-98921752D01*
X153290205Y-98656206D01*
X153534895Y-98290000D01*
X153929344Y-98290000D01*
X153985715Y-98426429D01*
X154301907Y-98743172D01*
X154715242Y-98914804D01*
X155162795Y-98915195D01*
X155576429Y-98744285D01*
X155893172Y-98428093D01*
X156064804Y-98014758D01*
X156065195Y-97567205D01*
X155894285Y-97153571D01*
X155578093Y-96836828D01*
X155164758Y-96665196D01*
X154717205Y-96664805D01*
X154303571Y-96835715D01*
X153986828Y-97151907D01*
X153929487Y-97290000D01*
X153534895Y-97290000D01*
X153290205Y-96923794D01*
X152892786Y-96658248D01*
X152423999Y-96565000D01*
X152376001Y-96565000D01*
X151907214Y-96658248D01*
X151509795Y-96923794D01*
X151244249Y-97321213D01*
X151151001Y-97790000D01*
X151108999Y-97790000D01*
X151015751Y-97321213D01*
X150750205Y-96923794D01*
X150352786Y-96658248D01*
X149883999Y-96565000D01*
X149836001Y-96565000D01*
X149367214Y-96658248D01*
X148969795Y-96923794D01*
X148725105Y-97290000D01*
X148330656Y-97290000D01*
X148274285Y-97153571D01*
X147958093Y-96836828D01*
X147544758Y-96665196D01*
X147097205Y-96664805D01*
X146683571Y-96835715D01*
X146366828Y-97151907D01*
X146195196Y-97565242D01*
X146194805Y-98012795D01*
X140370030Y-98012795D01*
X140322538Y-97897857D01*
X139725287Y-97299563D01*
X138944543Y-96975370D01*
X138099166Y-96974632D01*
X137317857Y-97297462D01*
X136719563Y-97894713D01*
X136395370Y-98675457D01*
X136394632Y-99520834D01*
X136634575Y-100101541D01*
X135126116Y-101610000D01*
X129873883Y-101610000D01*
X128365153Y-100101269D01*
X128476673Y-99832697D01*
X130074796Y-99832697D01*
X130253302Y-100264715D01*
X130583547Y-100595536D01*
X131015253Y-100774796D01*
X131482697Y-100775204D01*
X131914715Y-100596698D01*
X132047438Y-100464206D01*
X133062571Y-100464206D01*
X133150792Y-100637402D01*
X133593401Y-100787742D01*
X134059851Y-100757259D01*
X134349208Y-100637402D01*
X134437429Y-100464206D01*
X133750000Y-99776777D01*
X133062571Y-100464206D01*
X132047438Y-100464206D01*
X132245536Y-100266453D01*
X132424796Y-99834747D01*
X132425137Y-99443401D01*
X132562258Y-99443401D01*
X132592741Y-99909851D01*
X132712598Y-100199208D01*
X132885794Y-100287429D01*
X133573223Y-99600000D01*
X133926777Y-99600000D01*
X134614206Y-100287429D01*
X134787402Y-100199208D01*
X134937742Y-99756599D01*
X134907259Y-99290149D01*
X134787402Y-99000792D01*
X134614206Y-98912571D01*
X133926777Y-99600000D01*
X133573223Y-99600000D01*
X132885794Y-98912571D01*
X132712598Y-99000792D01*
X132562258Y-99443401D01*
X132425137Y-99443401D01*
X132425204Y-99367303D01*
X132246698Y-98935285D01*
X132047555Y-98735794D01*
X133062571Y-98735794D01*
X133750000Y-99423223D01*
X134437429Y-98735794D01*
X134349208Y-98562598D01*
X133906599Y-98412258D01*
X133440149Y-98442741D01*
X133150792Y-98562598D01*
X133062571Y-98735794D01*
X132047555Y-98735794D01*
X131916453Y-98604464D01*
X131484747Y-98425204D01*
X131017303Y-98424796D01*
X130585285Y-98603302D01*
X130254464Y-98933547D01*
X130075204Y-99365253D01*
X130074796Y-99832697D01*
X128476673Y-99832697D01*
X128604630Y-99524543D01*
X128605368Y-98679166D01*
X128282538Y-97897857D01*
X127685287Y-97299563D01*
X126904543Y-96975370D01*
X126059166Y-96974632D01*
X125277857Y-97297462D01*
X124679563Y-97894713D01*
X124355370Y-98675457D01*
X124354632Y-99520834D01*
X114800000Y-99520834D01*
X114800000Y-94977206D01*
X114819754Y-94977206D01*
X115036240Y-95501143D01*
X115436749Y-95902351D01*
X115960307Y-96119752D01*
X116527206Y-96120246D01*
X117051143Y-95903760D01*
X117452351Y-95503251D01*
X117669752Y-94979693D01*
X117670246Y-94412794D01*
X117453760Y-93888857D01*
X117053251Y-93487649D01*
X116529693Y-93270248D01*
X115962794Y-93269754D01*
X115438857Y-93486240D01*
X115037649Y-93886749D01*
X114820248Y-94410307D01*
X114819754Y-94977206D01*
X114800000Y-94977206D01*
X114800000Y-93980000D01*
X114761940Y-93788658D01*
X114691828Y-93683729D01*
X114653553Y-93626446D01*
X107355028Y-86327922D01*
X107355117Y-86226323D01*
X107252571Y-85978143D01*
X107062856Y-85788097D01*
X106814855Y-85685117D01*
X106546323Y-85684883D01*
X106298143Y-85787429D01*
X106108097Y-85977144D01*
X106005117Y-86225145D01*
X106004883Y-86493677D01*
X103825371Y-86493677D01*
X104025751Y-86193787D01*
X104118999Y-85725000D01*
X104025751Y-85256213D01*
X103760205Y-84858794D01*
X103370000Y-84598068D01*
X103370000Y-84195656D01*
X103506429Y-84139285D01*
X103823172Y-83823093D01*
X103994804Y-83409758D01*
X103995195Y-82962205D01*
X103824285Y-82548571D01*
X103508093Y-82231828D01*
X103094758Y-82060196D01*
X102647205Y-82059805D01*
X102233571Y-82230715D01*
X101916828Y-82546907D01*
X101745196Y-82960242D01*
X101744805Y-83407795D01*
X101915715Y-83821429D01*
X102231907Y-84138172D01*
X102370000Y-84195513D01*
X102370000Y-84598068D01*
X101979795Y-84858794D01*
X101714249Y-85256213D01*
X101621001Y-85725000D01*
X101578999Y-85725000D01*
X101485751Y-85256213D01*
X101220205Y-84858794D01*
X100822786Y-84593248D01*
X100353999Y-84500000D01*
X100306001Y-84500000D01*
X99837214Y-84593248D01*
X99439795Y-84858794D01*
X99195105Y-85225000D01*
X98800656Y-85225000D01*
X98744285Y-85088571D01*
X98428093Y-84771828D01*
X98014758Y-84600196D01*
X97567205Y-84599805D01*
X97153571Y-84770715D01*
X96836828Y-85086907D01*
X96665196Y-85500242D01*
X96664805Y-85947795D01*
X92425000Y-85947795D01*
X92425000Y-75787795D01*
X96029805Y-75787795D01*
X96200715Y-76201429D01*
X96516907Y-76518172D01*
X96930242Y-76689804D01*
X97377795Y-76690195D01*
X97791429Y-76519285D01*
X98108172Y-76203093D01*
X98113609Y-76190000D01*
X98992292Y-76190000D01*
X99078827Y-76399429D01*
X99493389Y-76814715D01*
X100035317Y-77039743D01*
X100622108Y-77040256D01*
X101164429Y-76816173D01*
X101579715Y-76401611D01*
X101804743Y-75859683D01*
X101805256Y-75272892D01*
X101581173Y-74730571D01*
X101166611Y-74315285D01*
X100624683Y-74090257D01*
X100037892Y-74089744D01*
X99495571Y-74313827D01*
X99080285Y-74728389D01*
X98992417Y-74940000D01*
X98114007Y-74940000D01*
X98109285Y-74928571D01*
X97793093Y-74611828D01*
X97379758Y-74440196D01*
X96932205Y-74439805D01*
X96518571Y-74610715D01*
X96201828Y-74926907D01*
X96030196Y-75340242D01*
X96029805Y-75787795D01*
X92425000Y-75787795D01*
X92425000Y-70707795D01*
X96029805Y-70707795D01*
X96200715Y-71121429D01*
X96516907Y-71438172D01*
X96930242Y-71609804D01*
X97377795Y-71610195D01*
X97791429Y-71439285D01*
X98108172Y-71123093D01*
X98113609Y-71110000D01*
X98992292Y-71110000D01*
X99078827Y-71319429D01*
X99493389Y-71734715D01*
X100035317Y-71959743D01*
X100622108Y-71960256D01*
X101164429Y-71736173D01*
X101579715Y-71321611D01*
X101804743Y-70779683D01*
X101805256Y-70192892D01*
X101581173Y-69650571D01*
X101166611Y-69235285D01*
X100624683Y-69010257D01*
X100037892Y-69009744D01*
X99495571Y-69233827D01*
X99080285Y-69648389D01*
X98992417Y-69860000D01*
X98114007Y-69860000D01*
X98109285Y-69848571D01*
X97793093Y-69531828D01*
X97379758Y-69360196D01*
X96932205Y-69359805D01*
X96518571Y-69530715D01*
X96201828Y-69846907D01*
X96030196Y-70260242D01*
X96029805Y-70707795D01*
X92425000Y-70707795D01*
X92425000Y-65627795D01*
X96029805Y-65627795D01*
X96200715Y-66041429D01*
X96516907Y-66358172D01*
X96930242Y-66529804D01*
X97377795Y-66530195D01*
X97791429Y-66359285D01*
X98108172Y-66043093D01*
X98113609Y-66030000D01*
X98992292Y-66030000D01*
X99078827Y-66239429D01*
X99493389Y-66654715D01*
X100035317Y-66879743D01*
X100622108Y-66880256D01*
X101164429Y-66656173D01*
X101579715Y-66241611D01*
X101804743Y-65699683D01*
X101805256Y-65112892D01*
X101581173Y-64570571D01*
X101166611Y-64155285D01*
X100624683Y-63930257D01*
X100037892Y-63929744D01*
X99495571Y-64153827D01*
X99080285Y-64568389D01*
X98992417Y-64780000D01*
X98114007Y-64780000D01*
X98109285Y-64768571D01*
X97793093Y-64451828D01*
X97379758Y-64280196D01*
X96932205Y-64279805D01*
X96518571Y-64450715D01*
X96201828Y-64766907D01*
X96030196Y-65180242D01*
X96029805Y-65627795D01*
X92425000Y-65627795D01*
X92425000Y-60547795D01*
X96029805Y-60547795D01*
X96200715Y-60961429D01*
X96516907Y-61278172D01*
X96930242Y-61449804D01*
X97377795Y-61450195D01*
X97791429Y-61279285D01*
X98108172Y-60963093D01*
X98113609Y-60950000D01*
X98992292Y-60950000D01*
X99078827Y-61159429D01*
X99493389Y-61574715D01*
X100035317Y-61799743D01*
X100622108Y-61800256D01*
X101164429Y-61576173D01*
X101579715Y-61161611D01*
X101804743Y-60619683D01*
X101805256Y-60032892D01*
X101581173Y-59490571D01*
X101166611Y-59075285D01*
X100624683Y-58850257D01*
X100037892Y-58849744D01*
X99495571Y-59073827D01*
X99080285Y-59488389D01*
X98992417Y-59700000D01*
X98114007Y-59700000D01*
X98109285Y-59688571D01*
X97793093Y-59371828D01*
X97379758Y-59200196D01*
X96932205Y-59199805D01*
X96518571Y-59370715D01*
X96201828Y-59686907D01*
X96030196Y-60100242D01*
X96029805Y-60547795D01*
X92425000Y-60547795D01*
X92425000Y-55467795D01*
X96029805Y-55467795D01*
X96200715Y-55881429D01*
X96516907Y-56198172D01*
X96930242Y-56369804D01*
X97377795Y-56370195D01*
X97791429Y-56199285D01*
X98108172Y-55883093D01*
X98113609Y-55870000D01*
X98992292Y-55870000D01*
X99078827Y-56079429D01*
X99493389Y-56494715D01*
X100035317Y-56719743D01*
X100622108Y-56720256D01*
X101164429Y-56496173D01*
X101579715Y-56081611D01*
X101804743Y-55539683D01*
X101805256Y-54952892D01*
X101581173Y-54410571D01*
X101166611Y-53995285D01*
X100624683Y-53770257D01*
X100037892Y-53769744D01*
X99495571Y-53993827D01*
X99080285Y-54408389D01*
X98992417Y-54620000D01*
X98114007Y-54620000D01*
X98109285Y-54608571D01*
X97793093Y-54291828D01*
X97379758Y-54120196D01*
X96932205Y-54119805D01*
X96518571Y-54290715D01*
X96201828Y-54606907D01*
X96030196Y-55020242D01*
X96029805Y-55467795D01*
X92425000Y-55467795D01*
X92425000Y-50387795D01*
X96029805Y-50387795D01*
X96200715Y-50801429D01*
X96516907Y-51118172D01*
X96930242Y-51289804D01*
X97377795Y-51290195D01*
X97791429Y-51119285D01*
X98108172Y-50803093D01*
X98113609Y-50790000D01*
X98992292Y-50790000D01*
X99078827Y-50999429D01*
X99493389Y-51414715D01*
X100035317Y-51639743D01*
X100622108Y-51640256D01*
X101164429Y-51416173D01*
X101579715Y-51001611D01*
X101804743Y-50459683D01*
X101805256Y-49872892D01*
X101581173Y-49330571D01*
X101166611Y-48915285D01*
X100624683Y-48690257D01*
X100037892Y-48689744D01*
X99495571Y-48913827D01*
X99080285Y-49328389D01*
X98992417Y-49540000D01*
X98114007Y-49540000D01*
X98109285Y-49528571D01*
X97793093Y-49211828D01*
X97379758Y-49040196D01*
X96932205Y-49039805D01*
X96518571Y-49210715D01*
X96201828Y-49526907D01*
X96030196Y-49940242D01*
X96029805Y-50387795D01*
X92425000Y-50387795D01*
X92425000Y-45307795D01*
X96029805Y-45307795D01*
X96200715Y-45721429D01*
X96516907Y-46038172D01*
X96930242Y-46209804D01*
X97377795Y-46210195D01*
X97791429Y-46039285D01*
X98108172Y-45723093D01*
X98113609Y-45710000D01*
X98992292Y-45710000D01*
X99078827Y-45919429D01*
X99493389Y-46334715D01*
X100035317Y-46559743D01*
X100622108Y-46560256D01*
X101164429Y-46336173D01*
X101579715Y-45921611D01*
X101804743Y-45379683D01*
X101805256Y-44792892D01*
X101581173Y-44250571D01*
X101166611Y-43835285D01*
X100624683Y-43610257D01*
X100037892Y-43609744D01*
X99495571Y-43833827D01*
X99080285Y-44248389D01*
X98992417Y-44460000D01*
X98114007Y-44460000D01*
X98109285Y-44448571D01*
X97793093Y-44131828D01*
X97379758Y-43960196D01*
X96932205Y-43959805D01*
X96518571Y-44130715D01*
X96201828Y-44446907D01*
X96030196Y-44860242D01*
X96029805Y-45307795D01*
X92425000Y-45307795D01*
X92425000Y-40227795D01*
X96029805Y-40227795D01*
X96200715Y-40641429D01*
X96516907Y-40958172D01*
X96930242Y-41129804D01*
X97377795Y-41130195D01*
X97791429Y-40959285D01*
X98108172Y-40643093D01*
X98113609Y-40630000D01*
X98992292Y-40630000D01*
X99078827Y-40839429D01*
X99493389Y-41254715D01*
X100035317Y-41479743D01*
X100622108Y-41480256D01*
X101164429Y-41256173D01*
X101579715Y-40841611D01*
X101804743Y-40299683D01*
X101805256Y-39712892D01*
X101581173Y-39170571D01*
X101166611Y-38755285D01*
X101117760Y-38735000D01*
X104150000Y-38735000D01*
X104150000Y-83185000D01*
X104197575Y-83424177D01*
X104333058Y-83626942D01*
X105603058Y-84896942D01*
X105805822Y-85032425D01*
X106045000Y-85080000D01*
X109676116Y-85080000D01*
X114734992Y-90138876D01*
X114734849Y-90303285D01*
X114867779Y-90625000D01*
X115113705Y-90871356D01*
X115435188Y-91004848D01*
X115783285Y-91005151D01*
X116105000Y-90872221D01*
X116351356Y-90626295D01*
X116484848Y-90304812D01*
X116485151Y-89956715D01*
X116352221Y-89635000D01*
X116106295Y-89388644D01*
X115784812Y-89255152D01*
X115618892Y-89255008D01*
X112695196Y-86331312D01*
X112776857Y-86297571D01*
X112966903Y-86107856D01*
X113069883Y-85859855D01*
X113070117Y-85591323D01*
X112967571Y-85343143D01*
X112777856Y-85153097D01*
X112689723Y-85116501D01*
X112713172Y-85093093D01*
X112884804Y-84679758D01*
X112885195Y-84232205D01*
X112714285Y-83818571D01*
X112398093Y-83501828D01*
X111984758Y-83330196D01*
X111537205Y-83329805D01*
X111123571Y-83500715D01*
X110806828Y-83816907D01*
X110635196Y-84230242D01*
X110635160Y-84271276D01*
X110376942Y-84013058D01*
X110174177Y-83877575D01*
X109935000Y-83830000D01*
X106303884Y-83830000D01*
X105400000Y-82926116D01*
X105400000Y-82723285D01*
X105804849Y-82723285D01*
X105937779Y-83045000D01*
X106183705Y-83291356D01*
X106505188Y-83424848D01*
X106853285Y-83425151D01*
X107175000Y-83292221D01*
X107421356Y-83046295D01*
X107554848Y-82724812D01*
X107554992Y-82558892D01*
X111383884Y-78730000D01*
X124459995Y-78730000D01*
X124460000Y-78730001D01*
X124460005Y-78730000D01*
X129968434Y-78730000D01*
X129793143Y-78802429D01*
X129603097Y-78992144D01*
X129500117Y-79240145D01*
X129499883Y-79508677D01*
X129602429Y-79756857D01*
X129675000Y-79829555D01*
X129675000Y-80437893D01*
X127675098Y-82437795D01*
X127675117Y-82416323D01*
X127572571Y-82168143D01*
X127382856Y-81978097D01*
X127230835Y-81914972D01*
X127381857Y-81852571D01*
X127571903Y-81662856D01*
X127674883Y-81414855D01*
X127675117Y-81146323D01*
X127572571Y-80898143D01*
X127382856Y-80708097D01*
X127230835Y-80644972D01*
X127381857Y-80582571D01*
X127571903Y-80392856D01*
X127674883Y-80144855D01*
X127675117Y-79876323D01*
X127572571Y-79628143D01*
X127382856Y-79438097D01*
X127134855Y-79335117D01*
X126866323Y-79334883D01*
X126618143Y-79437429D01*
X126428097Y-79627144D01*
X126325117Y-79875145D01*
X126325027Y-79977866D01*
X124252894Y-82050000D01*
X121104634Y-82050000D01*
X121032856Y-81978097D01*
X120784855Y-81875117D01*
X120516323Y-81874883D01*
X120268143Y-81977429D01*
X120195445Y-82050000D01*
X119755656Y-82050000D01*
X119699285Y-81913571D01*
X119383093Y-81596828D01*
X118969758Y-81425196D01*
X118522205Y-81424805D01*
X118108571Y-81595715D01*
X117791828Y-81911907D01*
X117620196Y-82325242D01*
X117619805Y-82772795D01*
X117790715Y-83186429D01*
X118106907Y-83503172D01*
X118520242Y-83674804D01*
X118967795Y-83675195D01*
X119381429Y-83504285D01*
X119698172Y-83188093D01*
X119755513Y-83050000D01*
X120195366Y-83050000D01*
X120267144Y-83121903D01*
X120515145Y-83224883D01*
X120783677Y-83225117D01*
X121031857Y-83122571D01*
X121104555Y-83050000D01*
X124460000Y-83050000D01*
X124538510Y-83034383D01*
X122982894Y-84590000D01*
X121104634Y-84590000D01*
X121032856Y-84518097D01*
X120784855Y-84415117D01*
X120516323Y-84414883D01*
X120268143Y-84517429D01*
X120195445Y-84590000D01*
X119755656Y-84590000D01*
X119699285Y-84453571D01*
X119383093Y-84136828D01*
X118969758Y-83965196D01*
X118522205Y-83964805D01*
X118108571Y-84135715D01*
X117791828Y-84451907D01*
X117620196Y-84865242D01*
X117619805Y-85312795D01*
X117790715Y-85726429D01*
X118106907Y-86043172D01*
X118520242Y-86214804D01*
X118967795Y-86215195D01*
X119381429Y-86044285D01*
X119698172Y-85728093D01*
X119755513Y-85590000D01*
X120195366Y-85590000D01*
X120267144Y-85661903D01*
X120515145Y-85764883D01*
X120783677Y-85765117D01*
X121031857Y-85662571D01*
X121104555Y-85590000D01*
X123190000Y-85590000D01*
X123268511Y-85574383D01*
X121712894Y-87130000D01*
X121104634Y-87130000D01*
X121032856Y-87058097D01*
X120784855Y-86955117D01*
X120516323Y-86954883D01*
X120268143Y-87057429D01*
X120195445Y-87130000D01*
X119755656Y-87130000D01*
X119699285Y-86993571D01*
X119383093Y-86676828D01*
X118969758Y-86505196D01*
X118522205Y-86504805D01*
X118108571Y-86675715D01*
X117791828Y-86991907D01*
X117620196Y-87405242D01*
X117619805Y-87852795D01*
X117790715Y-88266429D01*
X118106907Y-88583172D01*
X118520242Y-88754804D01*
X118967795Y-88755195D01*
X119381429Y-88584285D01*
X119698172Y-88268093D01*
X119755513Y-88130000D01*
X120195366Y-88130000D01*
X120267144Y-88201903D01*
X120515145Y-88304883D01*
X120783677Y-88305117D01*
X121031857Y-88202571D01*
X121104555Y-88130000D01*
X121920000Y-88130000D01*
X121998510Y-88114384D01*
X118391447Y-91721447D01*
X118283060Y-91883658D01*
X118245000Y-92075000D01*
X118245000Y-94160366D01*
X118173097Y-94232144D01*
X118070117Y-94480145D01*
X118069883Y-94748677D01*
X118172429Y-94996857D01*
X118245000Y-95069555D01*
X118245000Y-95509344D01*
X118108571Y-95565715D01*
X117791828Y-95881907D01*
X117620196Y-96295242D01*
X117619805Y-96742795D01*
X117790715Y-97156429D01*
X118106907Y-97473172D01*
X118520242Y-97644804D01*
X118967795Y-97645195D01*
X119381429Y-97474285D01*
X119698172Y-97158093D01*
X119869804Y-96744758D01*
X119869901Y-96632697D01*
X130074796Y-96632697D01*
X130253302Y-97064715D01*
X130583547Y-97395536D01*
X131015253Y-97574796D01*
X131482697Y-97575204D01*
X131914715Y-97396698D01*
X132245536Y-97066453D01*
X132424796Y-96634747D01*
X132424797Y-96632697D01*
X132574796Y-96632697D01*
X132753302Y-97064715D01*
X133083547Y-97395536D01*
X133515253Y-97574796D01*
X133982697Y-97575204D01*
X134414715Y-97396698D01*
X134745536Y-97066453D01*
X134924796Y-96634747D01*
X134925204Y-96167303D01*
X134746698Y-95735285D01*
X134484666Y-95472795D01*
X146194805Y-95472795D01*
X146365715Y-95886429D01*
X146681907Y-96203172D01*
X147095242Y-96374804D01*
X147542795Y-96375195D01*
X147956429Y-96204285D01*
X148273172Y-95888093D01*
X148330513Y-95750000D01*
X148725105Y-95750000D01*
X148969795Y-96116206D01*
X149367214Y-96381752D01*
X149836001Y-96475000D01*
X149883999Y-96475000D01*
X150352786Y-96381752D01*
X150750205Y-96116206D01*
X151015751Y-95718787D01*
X151108999Y-95250000D01*
X151151001Y-95250000D01*
X151244249Y-95718787D01*
X151509795Y-96116206D01*
X151907214Y-96381752D01*
X152376001Y-96475000D01*
X152423999Y-96475000D01*
X152892786Y-96381752D01*
X153290205Y-96116206D01*
X153534895Y-95750000D01*
X153929344Y-95750000D01*
X153985715Y-95886429D01*
X154301907Y-96203172D01*
X154715242Y-96374804D01*
X155162795Y-96375195D01*
X155576429Y-96204285D01*
X155893172Y-95888093D01*
X156064804Y-95474758D01*
X156065195Y-95027205D01*
X155894285Y-94613571D01*
X155578093Y-94296828D01*
X155164758Y-94125196D01*
X154717205Y-94124805D01*
X154303571Y-94295715D01*
X153986828Y-94611907D01*
X153929487Y-94750000D01*
X153534895Y-94750000D01*
X153290205Y-94383794D01*
X152892786Y-94118248D01*
X152423999Y-94025000D01*
X152376001Y-94025000D01*
X151907214Y-94118248D01*
X151509795Y-94383794D01*
X151244249Y-94781213D01*
X151151001Y-95250000D01*
X151108999Y-95250000D01*
X151015751Y-94781213D01*
X150750205Y-94383794D01*
X150352786Y-94118248D01*
X149883999Y-94025000D01*
X149836001Y-94025000D01*
X149367214Y-94118248D01*
X148969795Y-94383794D01*
X148725105Y-94750000D01*
X148330656Y-94750000D01*
X148274285Y-94613571D01*
X147958093Y-94296828D01*
X147544758Y-94125196D01*
X147097205Y-94124805D01*
X146683571Y-94295715D01*
X146366828Y-94611907D01*
X146195196Y-95025242D01*
X146194805Y-95472795D01*
X134484666Y-95472795D01*
X134416453Y-95404464D01*
X134250000Y-95335347D01*
X134250000Y-93024093D01*
X148675951Y-93024093D01*
X148800645Y-93325157D01*
X149116694Y-93683729D01*
X149545905Y-93894059D01*
X149735000Y-93834867D01*
X149735000Y-92835000D01*
X149985000Y-92835000D01*
X149985000Y-93834867D01*
X150174095Y-93894059D01*
X150603306Y-93683729D01*
X150919355Y-93325157D01*
X151044049Y-93024093D01*
X151215951Y-93024093D01*
X151340645Y-93325157D01*
X151656694Y-93683729D01*
X152085905Y-93894059D01*
X152275000Y-93834867D01*
X152275000Y-92835000D01*
X152525000Y-92835000D01*
X152525000Y-93834867D01*
X152714095Y-93894059D01*
X153143306Y-93683729D01*
X153459355Y-93325157D01*
X153584049Y-93024093D01*
X153524323Y-92835000D01*
X152525000Y-92835000D01*
X152275000Y-92835000D01*
X151275677Y-92835000D01*
X151215951Y-93024093D01*
X151044049Y-93024093D01*
X150984323Y-92835000D01*
X149985000Y-92835000D01*
X149735000Y-92835000D01*
X148735677Y-92835000D01*
X148675951Y-93024093D01*
X134250000Y-93024093D01*
X134250000Y-90978285D01*
X136284849Y-90978285D01*
X136417779Y-91300000D01*
X136663705Y-91546356D01*
X136985188Y-91679848D01*
X137333285Y-91680151D01*
X137655000Y-91547221D01*
X137901356Y-91301295D01*
X138034848Y-90979812D01*
X138034992Y-90813892D01*
X144155000Y-84693883D01*
X144155000Y-90805000D01*
X144202575Y-91044177D01*
X144338058Y-91246942D01*
X145174992Y-92083876D01*
X145174849Y-92248285D01*
X145307779Y-92570000D01*
X145553705Y-92816356D01*
X145875188Y-92949848D01*
X146223285Y-92950151D01*
X146545000Y-92817221D01*
X146791356Y-92571295D01*
X146864183Y-92395907D01*
X148675951Y-92395907D01*
X148735677Y-92585000D01*
X149735000Y-92585000D01*
X149735000Y-91585133D01*
X149985000Y-91585133D01*
X149985000Y-92585000D01*
X150984323Y-92585000D01*
X151044049Y-92395907D01*
X151215951Y-92395907D01*
X151275677Y-92585000D01*
X152275000Y-92585000D01*
X152275000Y-91585133D01*
X152525000Y-91585133D01*
X152525000Y-92585000D01*
X153524323Y-92585000D01*
X153584049Y-92395907D01*
X153459355Y-92094843D01*
X153143306Y-91736271D01*
X152714095Y-91525941D01*
X152525000Y-91585133D01*
X152275000Y-91585133D01*
X152085905Y-91525941D01*
X151656694Y-91736271D01*
X151340645Y-92094843D01*
X151215951Y-92395907D01*
X151044049Y-92395907D01*
X150919355Y-92094843D01*
X150603306Y-91736271D01*
X150174095Y-91525941D01*
X149985000Y-91585133D01*
X149735000Y-91585133D01*
X149545905Y-91525941D01*
X149116694Y-91736271D01*
X148800645Y-92094843D01*
X148675951Y-92395907D01*
X146864183Y-92395907D01*
X146924848Y-92249812D01*
X146925151Y-91901715D01*
X146792221Y-91580000D01*
X146546295Y-91333644D01*
X146224812Y-91200152D01*
X146058892Y-91200008D01*
X145405000Y-90546116D01*
X145405000Y-90484093D01*
X148675951Y-90484093D01*
X148800645Y-90785157D01*
X149116694Y-91143729D01*
X149545905Y-91354059D01*
X149735000Y-91294867D01*
X149735000Y-90295000D01*
X149985000Y-90295000D01*
X149985000Y-91294867D01*
X150174095Y-91354059D01*
X150603306Y-91143729D01*
X150919355Y-90785157D01*
X151044049Y-90484093D01*
X151215951Y-90484093D01*
X151340645Y-90785157D01*
X151656694Y-91143729D01*
X152085905Y-91354059D01*
X152275000Y-91294867D01*
X152275000Y-90295000D01*
X152525000Y-90295000D01*
X152525000Y-91294867D01*
X152714095Y-91354059D01*
X153143306Y-91143729D01*
X153459355Y-90785157D01*
X153584049Y-90484093D01*
X153524323Y-90295000D01*
X152525000Y-90295000D01*
X152275000Y-90295000D01*
X151275677Y-90295000D01*
X151215951Y-90484093D01*
X151044049Y-90484093D01*
X150984323Y-90295000D01*
X149985000Y-90295000D01*
X149735000Y-90295000D01*
X148735677Y-90295000D01*
X148675951Y-90484093D01*
X145405000Y-90484093D01*
X145405000Y-89855907D01*
X148675951Y-89855907D01*
X148735677Y-90045000D01*
X149735000Y-90045000D01*
X149735000Y-89045133D01*
X149985000Y-89045133D01*
X149985000Y-90045000D01*
X150984323Y-90045000D01*
X151044049Y-89855907D01*
X151215951Y-89855907D01*
X151275677Y-90045000D01*
X152275000Y-90045000D01*
X152275000Y-89045133D01*
X152525000Y-89045133D01*
X152525000Y-90045000D01*
X153524323Y-90045000D01*
X153584049Y-89855907D01*
X153459355Y-89554843D01*
X153143306Y-89196271D01*
X152714095Y-88985941D01*
X152525000Y-89045133D01*
X152275000Y-89045133D01*
X152085905Y-88985941D01*
X151656694Y-89196271D01*
X151340645Y-89554843D01*
X151215951Y-89855907D01*
X151044049Y-89855907D01*
X150919355Y-89554843D01*
X150603306Y-89196271D01*
X150174095Y-88985941D01*
X149985000Y-89045133D01*
X149735000Y-89045133D01*
X149545905Y-88985941D01*
X149116694Y-89196271D01*
X148800645Y-89554843D01*
X148675951Y-89855907D01*
X145405000Y-89855907D01*
X145405000Y-87852795D01*
X146194805Y-87852795D01*
X146365715Y-88266429D01*
X146681907Y-88583172D01*
X147095242Y-88754804D01*
X147542795Y-88755195D01*
X147956429Y-88584285D01*
X148273172Y-88268093D01*
X148330513Y-88130000D01*
X148725105Y-88130000D01*
X148969795Y-88496206D01*
X149367214Y-88761752D01*
X149836001Y-88855000D01*
X149883999Y-88855000D01*
X150352786Y-88761752D01*
X150750205Y-88496206D01*
X151015751Y-88098787D01*
X151046521Y-87944093D01*
X151215951Y-87944093D01*
X151340645Y-88245157D01*
X151656694Y-88603729D01*
X152085905Y-88814059D01*
X152275000Y-88754867D01*
X152275000Y-87755000D01*
X152525000Y-87755000D01*
X152525000Y-88754867D01*
X152714095Y-88814059D01*
X153143306Y-88603729D01*
X153459355Y-88245157D01*
X153584049Y-87944093D01*
X153524323Y-87755000D01*
X152525000Y-87755000D01*
X152275000Y-87755000D01*
X151275677Y-87755000D01*
X151215951Y-87944093D01*
X151046521Y-87944093D01*
X151108999Y-87630000D01*
X151046522Y-87315907D01*
X151215951Y-87315907D01*
X151275677Y-87505000D01*
X152275000Y-87505000D01*
X152275000Y-86505133D01*
X152525000Y-86505133D01*
X152525000Y-87505000D01*
X153524323Y-87505000D01*
X153584049Y-87315907D01*
X153459355Y-87014843D01*
X153143306Y-86656271D01*
X152714095Y-86445941D01*
X152525000Y-86505133D01*
X152275000Y-86505133D01*
X152085905Y-86445941D01*
X151656694Y-86656271D01*
X151340645Y-87014843D01*
X151215951Y-87315907D01*
X151046522Y-87315907D01*
X151015751Y-87161213D01*
X150750205Y-86763794D01*
X150352786Y-86498248D01*
X149883999Y-86405000D01*
X149836001Y-86405000D01*
X149367214Y-86498248D01*
X148969795Y-86763794D01*
X148725105Y-87130000D01*
X148330656Y-87130000D01*
X148274285Y-86993571D01*
X147958093Y-86676828D01*
X147544758Y-86505196D01*
X147097205Y-86504805D01*
X146683571Y-86675715D01*
X146366828Y-86991907D01*
X146195196Y-87405242D01*
X146194805Y-87852795D01*
X145405000Y-87852795D01*
X145405000Y-85312795D01*
X146194805Y-85312795D01*
X146365715Y-85726429D01*
X146681907Y-86043172D01*
X147095242Y-86214804D01*
X147542795Y-86215195D01*
X147956429Y-86044285D01*
X148273172Y-85728093D01*
X148330513Y-85590000D01*
X148725105Y-85590000D01*
X148969795Y-85956206D01*
X149367214Y-86221752D01*
X149836001Y-86315000D01*
X149883999Y-86315000D01*
X150352786Y-86221752D01*
X150750205Y-85956206D01*
X151015751Y-85558787D01*
X151108999Y-85090000D01*
X151015751Y-84621213D01*
X150750205Y-84223794D01*
X150352786Y-83958248D01*
X149883999Y-83865000D01*
X149836001Y-83865000D01*
X149367214Y-83958248D01*
X148969795Y-84223794D01*
X148725105Y-84590000D01*
X148330656Y-84590000D01*
X148274285Y-84453571D01*
X147958093Y-84136828D01*
X147544758Y-83965196D01*
X147097205Y-83964805D01*
X146683571Y-84135715D01*
X146366828Y-84451907D01*
X146195196Y-84865242D01*
X146194805Y-85312795D01*
X145405000Y-85312795D01*
X145405000Y-83443884D01*
X145673883Y-83175000D01*
X148808627Y-83175000D01*
X148969795Y-83416206D01*
X149367214Y-83681752D01*
X149836001Y-83775000D01*
X149883999Y-83775000D01*
X150352786Y-83681752D01*
X150630000Y-83496524D01*
X150630000Y-83820000D01*
X150658881Y-83965196D01*
X150668060Y-84011342D01*
X150776447Y-84173553D01*
X151240907Y-84638014D01*
X151151001Y-85090000D01*
X151244249Y-85558787D01*
X151509795Y-85956206D01*
X151907214Y-86221752D01*
X152376001Y-86315000D01*
X152423999Y-86315000D01*
X152892786Y-86221752D01*
X153290205Y-85956206D01*
X153534895Y-85590000D01*
X153929344Y-85590000D01*
X153985715Y-85726429D01*
X154301907Y-86043172D01*
X154715242Y-86214804D01*
X155162795Y-86215195D01*
X155576429Y-86044285D01*
X155893172Y-85728093D01*
X156064804Y-85314758D01*
X156065195Y-84867205D01*
X155894285Y-84453571D01*
X155578093Y-84136828D01*
X155164758Y-83965196D01*
X154717205Y-83964805D01*
X154303571Y-84135715D01*
X153986828Y-84451907D01*
X153929487Y-84590000D01*
X153534895Y-84590000D01*
X153290205Y-84223794D01*
X152892786Y-83958248D01*
X152423999Y-83865000D01*
X152376001Y-83865000D01*
X151964049Y-83946943D01*
X151792106Y-83775000D01*
X152181250Y-83775000D01*
X152275000Y-83681250D01*
X152275000Y-82675000D01*
X152525000Y-82675000D01*
X152525000Y-83681250D01*
X152618750Y-83775000D01*
X153324592Y-83775000D01*
X153462420Y-83717910D01*
X153567910Y-83612421D01*
X153625000Y-83474592D01*
X153625000Y-82768750D01*
X153531250Y-82675000D01*
X152525000Y-82675000D01*
X152275000Y-82675000D01*
X152255000Y-82675000D01*
X152255000Y-82425000D01*
X152275000Y-82425000D01*
X152275000Y-81418750D01*
X152525000Y-81418750D01*
X152525000Y-82425000D01*
X153531250Y-82425000D01*
X153625000Y-82331250D01*
X153625000Y-81625408D01*
X153567910Y-81487579D01*
X153462420Y-81382090D01*
X153324592Y-81325000D01*
X152618750Y-81325000D01*
X152525000Y-81418750D01*
X152275000Y-81418750D01*
X152181250Y-81325000D01*
X151630000Y-81325000D01*
X151630000Y-75132206D01*
X152204754Y-75132206D01*
X152421240Y-75656143D01*
X152821749Y-76057351D01*
X153345307Y-76274752D01*
X153912206Y-76275246D01*
X154436143Y-76058760D01*
X154837351Y-75658251D01*
X155054752Y-75134693D01*
X155055246Y-74567794D01*
X154838760Y-74043857D01*
X154438251Y-73642649D01*
X153914693Y-73425248D01*
X153347794Y-73424754D01*
X152823857Y-73641240D01*
X152422649Y-74041749D01*
X152205248Y-74565307D01*
X152204754Y-75132206D01*
X151630000Y-75132206D01*
X151630000Y-66185256D01*
X151936143Y-66058760D01*
X152337351Y-65658251D01*
X152554752Y-65134693D01*
X152555246Y-64567794D01*
X152338760Y-64043857D01*
X151938251Y-63642649D01*
X151414693Y-63425248D01*
X150847794Y-63424754D01*
X150323857Y-63641240D01*
X149922649Y-64041749D01*
X149705248Y-64565307D01*
X149704754Y-65132206D01*
X149921240Y-65656143D01*
X150321749Y-66057351D01*
X150630000Y-66185348D01*
X150630000Y-81603476D01*
X150352786Y-81418248D01*
X149883999Y-81325000D01*
X149836001Y-81325000D01*
X149367214Y-81418248D01*
X148969795Y-81683794D01*
X148808627Y-81925000D01*
X145415005Y-81925000D01*
X145415000Y-81924999D01*
X145175823Y-81972575D01*
X144973058Y-82108058D01*
X144973056Y-82108061D01*
X144338058Y-82743058D01*
X144338056Y-82743061D01*
X137151124Y-89929992D01*
X136986715Y-89929849D01*
X136665000Y-90062779D01*
X136418644Y-90308705D01*
X136285152Y-90630188D01*
X136284849Y-90978285D01*
X134250000Y-90978285D01*
X134250000Y-90642756D01*
X134621429Y-90489285D01*
X134938172Y-90173093D01*
X135109804Y-89759758D01*
X135110195Y-89312205D01*
X134939285Y-88898571D01*
X134623093Y-88581828D01*
X134209758Y-88410196D01*
X133762205Y-88409805D01*
X133348571Y-88580715D01*
X133031828Y-88896907D01*
X132860196Y-89310242D01*
X132859805Y-89757795D01*
X133030715Y-90171429D01*
X133250000Y-90391096D01*
X133250000Y-95335243D01*
X133085285Y-95403302D01*
X132754464Y-95733547D01*
X132575204Y-96165253D01*
X132574796Y-96632697D01*
X132424797Y-96632697D01*
X132425204Y-96167303D01*
X132246698Y-95735285D01*
X131916453Y-95404464D01*
X131484747Y-95225204D01*
X131017303Y-95224796D01*
X130585285Y-95403302D01*
X130254464Y-95733547D01*
X130075204Y-96165253D01*
X130074796Y-96632697D01*
X119869901Y-96632697D01*
X119870195Y-96297205D01*
X119699285Y-95883571D01*
X119383093Y-95566828D01*
X119245000Y-95509487D01*
X119245000Y-95069634D01*
X119316903Y-94997856D01*
X119325477Y-94977206D01*
X119819754Y-94977206D01*
X120036240Y-95501143D01*
X120436749Y-95902351D01*
X120960307Y-96119752D01*
X121527206Y-96120246D01*
X122051143Y-95903760D01*
X122452351Y-95503251D01*
X122669752Y-94979693D01*
X122670246Y-94412794D01*
X122453760Y-93888857D01*
X122053251Y-93487649D01*
X121529693Y-93270248D01*
X120962794Y-93269754D01*
X120438857Y-93486240D01*
X120037649Y-93886749D01*
X119820248Y-94410307D01*
X119819754Y-94977206D01*
X119325477Y-94977206D01*
X119419883Y-94749855D01*
X119420117Y-94481323D01*
X119317571Y-94233143D01*
X119245000Y-94160445D01*
X119245000Y-92282106D01*
X123543553Y-87983554D01*
X123543555Y-87983551D01*
X124960412Y-86566694D01*
X124855152Y-86820188D01*
X124854849Y-87168285D01*
X124987779Y-87490000D01*
X125233705Y-87736356D01*
X125555188Y-87869848D01*
X125903285Y-87870151D01*
X126225000Y-87737221D01*
X126471356Y-87491295D01*
X126604848Y-87169812D01*
X126605151Y-86821715D01*
X126472707Y-86501177D01*
X131886939Y-81086944D01*
X131886942Y-81086942D01*
X132022425Y-80884177D01*
X132031940Y-80836341D01*
X132070001Y-80645000D01*
X132070000Y-80644995D01*
X132070000Y-78730000D01*
X135890000Y-78730000D01*
X136129177Y-78682425D01*
X136331942Y-78546942D01*
X138871939Y-76006944D01*
X138871942Y-76006942D01*
X139007425Y-75804177D01*
X139055000Y-75565000D01*
X139055000Y-74295005D01*
X139055001Y-74295000D01*
X139007425Y-74055823D01*
X138955540Y-73978172D01*
X138871942Y-73853058D01*
X138871939Y-73853056D01*
X133359359Y-68340475D01*
X133605205Y-68176206D01*
X133870751Y-67778787D01*
X133963999Y-67310000D01*
X133870751Y-66841213D01*
X133612353Y-66454492D01*
X133703553Y-66393553D01*
X134827107Y-65270000D01*
X137975366Y-65270000D01*
X138047144Y-65341903D01*
X138295145Y-65444883D01*
X138563677Y-65445117D01*
X138811857Y-65342571D01*
X139001903Y-65152856D01*
X139104883Y-64904855D01*
X139105117Y-64636323D01*
X139002571Y-64388143D01*
X138812856Y-64198097D01*
X138564855Y-64095117D01*
X138296323Y-64094883D01*
X138048143Y-64197429D01*
X137975445Y-64270000D01*
X134620000Y-64270000D01*
X134428658Y-64308060D01*
X134266446Y-64416447D01*
X133955520Y-64727373D01*
X133870751Y-64301213D01*
X133605205Y-63903794D01*
X133207786Y-63638248D01*
X132738999Y-63545000D01*
X132691001Y-63545000D01*
X132222214Y-63638248D01*
X131945000Y-63823476D01*
X131945000Y-63500000D01*
X131906940Y-63308658D01*
X131823836Y-63184285D01*
X131798553Y-63146446D01*
X131334093Y-62681986D01*
X131361521Y-62544093D01*
X131530951Y-62544093D01*
X131655645Y-62845157D01*
X131971694Y-63203729D01*
X132400905Y-63414059D01*
X132590000Y-63354867D01*
X132590000Y-62355000D01*
X132840000Y-62355000D01*
X132840000Y-63354867D01*
X133029095Y-63414059D01*
X133458306Y-63203729D01*
X133774355Y-62845157D01*
X133899049Y-62544093D01*
X133839323Y-62355000D01*
X132840000Y-62355000D01*
X132590000Y-62355000D01*
X131590677Y-62355000D01*
X131530951Y-62544093D01*
X131361521Y-62544093D01*
X131423999Y-62230000D01*
X131361522Y-61915907D01*
X131530951Y-61915907D01*
X131590677Y-62105000D01*
X132590000Y-62105000D01*
X132590000Y-61105133D01*
X132840000Y-61105133D01*
X132840000Y-62105000D01*
X133839323Y-62105000D01*
X133899049Y-61915907D01*
X133774355Y-61614843D01*
X133458306Y-61256271D01*
X133029095Y-61045941D01*
X132840000Y-61105133D01*
X132590000Y-61105133D01*
X132400905Y-61045941D01*
X131971694Y-61256271D01*
X131655645Y-61614843D01*
X131530951Y-61915907D01*
X131361522Y-61915907D01*
X131330751Y-61761213D01*
X131065205Y-61363794D01*
X130667786Y-61098248D01*
X130198999Y-61005000D01*
X130151001Y-61005000D01*
X129682214Y-61098248D01*
X129284795Y-61363794D01*
X129040105Y-61730000D01*
X128645656Y-61730000D01*
X128589285Y-61593571D01*
X128273093Y-61276828D01*
X127859758Y-61105196D01*
X127412205Y-61104805D01*
X126998571Y-61275715D01*
X126681828Y-61591907D01*
X126510196Y-62005242D01*
X126509805Y-62452795D01*
X126680715Y-62866429D01*
X126996907Y-63183172D01*
X127410242Y-63354804D01*
X127857795Y-63355195D01*
X128271429Y-63184285D01*
X128588172Y-62868093D01*
X128645513Y-62730000D01*
X129040105Y-62730000D01*
X129284795Y-63096206D01*
X129682214Y-63361752D01*
X130151001Y-63455000D01*
X130198999Y-63455000D01*
X130610951Y-63373057D01*
X130945000Y-63707107D01*
X130945000Y-63823476D01*
X130667786Y-63638248D01*
X130198999Y-63545000D01*
X130151001Y-63545000D01*
X129682214Y-63638248D01*
X129284795Y-63903794D01*
X129019249Y-64301213D01*
X128926001Y-64770000D01*
X129019249Y-65238787D01*
X129284795Y-65636206D01*
X129682214Y-65901752D01*
X130151001Y-65995000D01*
X130198999Y-65995000D01*
X130667786Y-65901752D01*
X130945000Y-65716524D01*
X130945000Y-66077654D01*
X129325000Y-66077654D01*
X129186034Y-66103802D01*
X129058401Y-66185931D01*
X128972777Y-66311246D01*
X128942654Y-66460000D01*
X128942654Y-66810000D01*
X128645656Y-66810000D01*
X128589285Y-66673571D01*
X128273093Y-66356828D01*
X127859758Y-66185196D01*
X127412205Y-66184805D01*
X126998571Y-66355715D01*
X126681828Y-66671907D01*
X126510196Y-67085242D01*
X126509805Y-67532795D01*
X126680715Y-67946429D01*
X126996907Y-68263172D01*
X127410242Y-68434804D01*
X127857795Y-68435195D01*
X128271429Y-68264285D01*
X128588172Y-67948093D01*
X128645513Y-67810000D01*
X128942654Y-67810000D01*
X128942654Y-68160000D01*
X128968802Y-68298966D01*
X129050931Y-68426599D01*
X129176246Y-68512223D01*
X129325000Y-68542346D01*
X130310000Y-68542346D01*
X130310000Y-69215000D01*
X130338881Y-69360196D01*
X130343521Y-69383521D01*
X130175000Y-69350000D01*
X127207107Y-69350000D01*
X124960000Y-67102894D01*
X124960000Y-65270000D01*
X126624344Y-65270000D01*
X126680715Y-65406429D01*
X126996907Y-65723172D01*
X127410242Y-65894804D01*
X127857795Y-65895195D01*
X128271429Y-65724285D01*
X128588172Y-65408093D01*
X128759804Y-64994758D01*
X128760195Y-64547205D01*
X128589285Y-64133571D01*
X128273093Y-63816828D01*
X127859758Y-63645196D01*
X127412205Y-63644805D01*
X126998571Y-63815715D01*
X126681828Y-64131907D01*
X126624487Y-64270000D01*
X124960000Y-64270000D01*
X124960000Y-60364823D01*
X124960145Y-60364883D01*
X125228677Y-60365117D01*
X125476857Y-60262571D01*
X125549555Y-60190000D01*
X125989344Y-60190000D01*
X126045715Y-60326429D01*
X126361907Y-60643172D01*
X126775242Y-60814804D01*
X127222795Y-60815195D01*
X127636429Y-60644285D01*
X127953172Y-60328093D01*
X128124804Y-59914758D01*
X128125195Y-59467205D01*
X127954285Y-59053571D01*
X127638093Y-58736828D01*
X127224758Y-58565196D01*
X126777205Y-58564805D01*
X126363571Y-58735715D01*
X126046828Y-59051907D01*
X125989487Y-59190000D01*
X125549634Y-59190000D01*
X125477856Y-59118097D01*
X125229855Y-59015117D01*
X124961323Y-59014883D01*
X124960000Y-59015430D01*
X124960000Y-51435000D01*
X124921940Y-51243658D01*
X124861733Y-51153553D01*
X124813554Y-51081447D01*
X124325000Y-50592894D01*
X124325000Y-47444634D01*
X124396903Y-47372856D01*
X124499883Y-47124855D01*
X124500117Y-46856323D01*
X124397571Y-46608143D01*
X124207856Y-46418097D01*
X123959855Y-46315117D01*
X123691323Y-46314883D01*
X123690000Y-46315430D01*
X123690000Y-42752106D01*
X123857078Y-42585028D01*
X123958677Y-42585117D01*
X124206857Y-42482571D01*
X124396903Y-42292856D01*
X124499883Y-42044855D01*
X124500117Y-41776323D01*
X124397571Y-41528143D01*
X124207856Y-41338097D01*
X123959855Y-41235117D01*
X123691323Y-41234883D01*
X123443143Y-41337429D01*
X123253097Y-41527144D01*
X123150117Y-41775145D01*
X123150027Y-41877866D01*
X122836447Y-42191447D01*
X122728060Y-42353658D01*
X122690000Y-42545000D01*
X122690000Y-68580000D01*
X122702418Y-68642429D01*
X122728060Y-68771342D01*
X122836447Y-68933553D01*
X123262957Y-69360063D01*
X122967205Y-69359805D01*
X122553571Y-69530715D01*
X122236828Y-69846907D01*
X122065196Y-70260242D01*
X122064805Y-70707795D01*
X122235715Y-71121429D01*
X122551907Y-71438172D01*
X122965242Y-71609804D01*
X123014136Y-71609847D01*
X122871828Y-71751907D01*
X122700196Y-72165242D01*
X122699805Y-72612795D01*
X122870715Y-73026429D01*
X123186907Y-73343172D01*
X123600242Y-73514804D01*
X123960000Y-73515118D01*
X123960000Y-73840366D01*
X123888097Y-73912144D01*
X123785117Y-74160145D01*
X123784883Y-74428677D01*
X123887429Y-74676857D01*
X124077144Y-74866903D01*
X124229165Y-74930028D01*
X124078143Y-74992429D01*
X123888097Y-75182144D01*
X123785117Y-75430145D01*
X123784883Y-75698677D01*
X123887429Y-75946857D01*
X124077144Y-76136903D01*
X124325145Y-76239883D01*
X124593677Y-76240117D01*
X124762823Y-76170227D01*
X124775715Y-76201429D01*
X125091907Y-76518172D01*
X125505242Y-76689804D01*
X125952795Y-76690195D01*
X126366429Y-76519285D01*
X126391311Y-76494446D01*
X126427429Y-76581857D01*
X126617144Y-76771903D01*
X126865145Y-76874883D01*
X127133677Y-76875117D01*
X127381857Y-76772571D01*
X127571903Y-76582856D01*
X127674883Y-76334855D01*
X127675117Y-76066323D01*
X127572571Y-75818143D01*
X127500000Y-75745445D01*
X127500000Y-72390000D01*
X127461940Y-72198658D01*
X127378836Y-72074285D01*
X127353554Y-72036447D01*
X126286490Y-70969384D01*
X126365000Y-70985000D01*
X128083965Y-70985000D01*
X127951828Y-71116907D01*
X127780196Y-71530242D01*
X127779805Y-71977795D01*
X127950715Y-72391429D01*
X128266907Y-72708172D01*
X128680242Y-72879804D01*
X129127795Y-72880195D01*
X129541429Y-72709285D01*
X129858172Y-72393093D01*
X130029804Y-71979758D01*
X130030064Y-71682170D01*
X132787957Y-74440063D01*
X132492205Y-74439805D01*
X132354012Y-74496905D01*
X132120028Y-74262922D01*
X132120117Y-74161323D01*
X132017571Y-73913143D01*
X131827856Y-73723097D01*
X131579855Y-73620117D01*
X131311323Y-73619883D01*
X131063143Y-73722429D01*
X130873097Y-73912144D01*
X130770117Y-74160145D01*
X130769883Y-74428677D01*
X130872429Y-74676857D01*
X131062144Y-74866903D01*
X131310145Y-74969883D01*
X131412866Y-74969973D01*
X131646805Y-75203912D01*
X131590196Y-75340242D01*
X131589805Y-75787795D01*
X131760715Y-76201429D01*
X132076907Y-76518172D01*
X132490242Y-76689804D01*
X132937795Y-76690195D01*
X133351429Y-76519285D01*
X133668172Y-76203093D01*
X133839804Y-75789758D01*
X133839969Y-75600658D01*
X133850145Y-75604883D01*
X134118677Y-75605117D01*
X134366857Y-75502571D01*
X134556903Y-75312856D01*
X134620028Y-75160835D01*
X134682429Y-75311857D01*
X134872144Y-75501903D01*
X135120145Y-75604883D01*
X135388677Y-75605117D01*
X135636857Y-75502571D01*
X135826903Y-75312856D01*
X135890028Y-75160835D01*
X135952429Y-75311857D01*
X136142144Y-75501903D01*
X136390145Y-75604883D01*
X136658677Y-75605117D01*
X136906857Y-75502571D01*
X137096903Y-75312856D01*
X137199883Y-75064855D01*
X137199966Y-74970035D01*
X137293677Y-74970117D01*
X137541857Y-74867571D01*
X137731903Y-74677856D01*
X137789725Y-74538608D01*
X137805000Y-74553883D01*
X137805000Y-75306117D01*
X135631116Y-77480000D01*
X124718883Y-77480000D01*
X124700008Y-77461125D01*
X124700151Y-77296715D01*
X124567221Y-76975000D01*
X124321295Y-76728644D01*
X123999812Y-76595152D01*
X123651715Y-76594849D01*
X123330000Y-76727779D01*
X123083644Y-76973705D01*
X122950152Y-77295188D01*
X122950008Y-77461109D01*
X122931116Y-77480000D01*
X111125000Y-77480000D01*
X110885822Y-77527575D01*
X110683058Y-77663058D01*
X106671124Y-81674992D01*
X106506715Y-81674849D01*
X106185000Y-81807779D01*
X105938644Y-82053705D01*
X105805152Y-82375188D01*
X105804849Y-82723285D01*
X105400000Y-82723285D01*
X105400000Y-74428677D01*
X106639883Y-74428677D01*
X106742429Y-74676857D01*
X106932144Y-74866903D01*
X107180145Y-74969883D01*
X107448677Y-74970117D01*
X107696857Y-74867571D01*
X107769555Y-74795000D01*
X108085000Y-74795000D01*
X108085000Y-75189344D01*
X107948571Y-75245715D01*
X107631828Y-75561907D01*
X107460196Y-75975242D01*
X107459805Y-76422795D01*
X107630715Y-76836429D01*
X107946907Y-77153172D01*
X108360242Y-77324804D01*
X108807795Y-77325195D01*
X109221429Y-77154285D01*
X109538172Y-76838093D01*
X109709804Y-76424758D01*
X109710195Y-75977205D01*
X109539285Y-75563571D01*
X109223093Y-75246828D01*
X109085000Y-75189487D01*
X109085000Y-74795000D01*
X118537894Y-74795000D01*
X118704972Y-74962078D01*
X118704883Y-75063677D01*
X118807429Y-75311857D01*
X118997144Y-75501903D01*
X119245145Y-75604883D01*
X119513677Y-75605117D01*
X119761857Y-75502571D01*
X119951903Y-75312856D01*
X120054883Y-75064855D01*
X120055117Y-74796323D01*
X119952571Y-74548143D01*
X119762856Y-74358097D01*
X119514855Y-74255117D01*
X119412134Y-74255027D01*
X119098553Y-73941447D01*
X118936342Y-73833060D01*
X118745000Y-73795000D01*
X107769634Y-73795000D01*
X107697856Y-73723097D01*
X107449855Y-73620117D01*
X107181323Y-73619883D01*
X106933143Y-73722429D01*
X106743097Y-73912144D01*
X106640117Y-74160145D01*
X106639883Y-74428677D01*
X105400000Y-74428677D01*
X105400000Y-69348677D01*
X106639883Y-69348677D01*
X106742429Y-69596857D01*
X106932144Y-69786903D01*
X107180145Y-69889883D01*
X107448677Y-69890117D01*
X107696857Y-69787571D01*
X107769555Y-69715000D01*
X108085000Y-69715000D01*
X108085000Y-70109344D01*
X107948571Y-70165715D01*
X107631828Y-70481907D01*
X107460196Y-70895242D01*
X107459805Y-71342795D01*
X107630715Y-71756429D01*
X107946907Y-72073172D01*
X108360242Y-72244804D01*
X108807795Y-72245195D01*
X109221429Y-72074285D01*
X109538172Y-71758093D01*
X109709804Y-71344758D01*
X109710195Y-70897205D01*
X109539285Y-70483571D01*
X109223093Y-70166828D01*
X109085000Y-70109487D01*
X109085000Y-69715000D01*
X118537894Y-69715000D01*
X118704972Y-69882078D01*
X118704883Y-69983677D01*
X118807429Y-70231857D01*
X118997144Y-70421903D01*
X119245145Y-70524883D01*
X119513677Y-70525117D01*
X119761857Y-70422571D01*
X119951903Y-70232856D01*
X120054883Y-69984855D01*
X120055117Y-69716323D01*
X119952571Y-69468143D01*
X119762856Y-69278097D01*
X119514855Y-69175117D01*
X119412134Y-69175027D01*
X119098553Y-68861447D01*
X118936342Y-68753060D01*
X118745000Y-68715000D01*
X107769634Y-68715000D01*
X107697856Y-68643097D01*
X107449855Y-68540117D01*
X107181323Y-68539883D01*
X106933143Y-68642429D01*
X106743097Y-68832144D01*
X106640117Y-69080145D01*
X106639883Y-69348677D01*
X105400000Y-69348677D01*
X105400000Y-64268677D01*
X106639883Y-64268677D01*
X106742429Y-64516857D01*
X106932144Y-64706903D01*
X107180145Y-64809883D01*
X107448677Y-64810117D01*
X107696857Y-64707571D01*
X107769555Y-64635000D01*
X108085000Y-64635000D01*
X108085000Y-65029344D01*
X107948571Y-65085715D01*
X107631828Y-65401907D01*
X107460196Y-65815242D01*
X107459805Y-66262795D01*
X107630715Y-66676429D01*
X107946907Y-66993172D01*
X108360242Y-67164804D01*
X108807795Y-67165195D01*
X109221429Y-66994285D01*
X109538172Y-66678093D01*
X109709804Y-66264758D01*
X109710195Y-65817205D01*
X109539285Y-65403571D01*
X109223093Y-65086828D01*
X109085000Y-65029487D01*
X109085000Y-64635000D01*
X118537894Y-64635000D01*
X118704972Y-64802078D01*
X118704883Y-64903677D01*
X118807429Y-65151857D01*
X118997144Y-65341903D01*
X119245145Y-65444883D01*
X119513677Y-65445117D01*
X119761857Y-65342571D01*
X119951903Y-65152856D01*
X120054883Y-64904855D01*
X120055117Y-64636323D01*
X119952571Y-64388143D01*
X119762856Y-64198097D01*
X119514855Y-64095117D01*
X119412134Y-64095027D01*
X119098553Y-63781447D01*
X118936342Y-63673060D01*
X118745000Y-63635000D01*
X107769634Y-63635000D01*
X107697856Y-63563097D01*
X107449855Y-63460117D01*
X107181323Y-63459883D01*
X106933143Y-63562429D01*
X106743097Y-63752144D01*
X106640117Y-64000145D01*
X106639883Y-64268677D01*
X105400000Y-64268677D01*
X105400000Y-59188677D01*
X106639883Y-59188677D01*
X106742429Y-59436857D01*
X106932144Y-59626903D01*
X107180145Y-59729883D01*
X107448677Y-59730117D01*
X107696857Y-59627571D01*
X107769555Y-59555000D01*
X108085000Y-59555000D01*
X108085000Y-59949344D01*
X107948571Y-60005715D01*
X107631828Y-60321907D01*
X107460196Y-60735242D01*
X107459805Y-61182795D01*
X107630715Y-61596429D01*
X107946907Y-61913172D01*
X108360242Y-62084804D01*
X108807795Y-62085195D01*
X109221429Y-61914285D01*
X109538172Y-61598093D01*
X109709804Y-61184758D01*
X109710195Y-60737205D01*
X109539285Y-60323571D01*
X109223093Y-60006828D01*
X109085000Y-59949487D01*
X109085000Y-59555000D01*
X118537894Y-59555000D01*
X118704972Y-59722078D01*
X118704883Y-59823677D01*
X118807429Y-60071857D01*
X118997144Y-60261903D01*
X119245145Y-60364883D01*
X119513677Y-60365117D01*
X119761857Y-60262571D01*
X119951903Y-60072856D01*
X120054883Y-59824855D01*
X120055117Y-59556323D01*
X119952571Y-59308143D01*
X119762856Y-59118097D01*
X119514855Y-59015117D01*
X119412134Y-59015027D01*
X119098553Y-58701447D01*
X118936342Y-58593060D01*
X118745000Y-58555000D01*
X107769634Y-58555000D01*
X107697856Y-58483097D01*
X107449855Y-58380117D01*
X107181323Y-58379883D01*
X106933143Y-58482429D01*
X106743097Y-58672144D01*
X106640117Y-58920145D01*
X106639883Y-59188677D01*
X105400000Y-59188677D01*
X105400000Y-54108677D01*
X106639883Y-54108677D01*
X106742429Y-54356857D01*
X106932144Y-54546903D01*
X107180145Y-54649883D01*
X107448677Y-54650117D01*
X107696857Y-54547571D01*
X107769555Y-54475000D01*
X108085000Y-54475000D01*
X108085000Y-54869344D01*
X107948571Y-54925715D01*
X107631828Y-55241907D01*
X107460196Y-55655242D01*
X107459805Y-56102795D01*
X107630715Y-56516429D01*
X107946907Y-56833172D01*
X108360242Y-57004804D01*
X108807795Y-57005195D01*
X109221429Y-56834285D01*
X109538172Y-56518093D01*
X109709804Y-56104758D01*
X109710195Y-55657205D01*
X109539285Y-55243571D01*
X109223093Y-54926828D01*
X109085000Y-54869487D01*
X109085000Y-54475000D01*
X118537894Y-54475000D01*
X118704972Y-54642078D01*
X118704883Y-54743677D01*
X118807429Y-54991857D01*
X118997144Y-55181903D01*
X119245145Y-55284883D01*
X119513677Y-55285117D01*
X119761857Y-55182571D01*
X119951903Y-54992856D01*
X120054883Y-54744855D01*
X120055117Y-54476323D01*
X119952571Y-54228143D01*
X119762856Y-54038097D01*
X119514855Y-53935117D01*
X119412134Y-53935027D01*
X119098553Y-53621447D01*
X118936342Y-53513060D01*
X118745000Y-53475000D01*
X107769634Y-53475000D01*
X107697856Y-53403097D01*
X107449855Y-53300117D01*
X107181323Y-53299883D01*
X106933143Y-53402429D01*
X106743097Y-53592144D01*
X106640117Y-53840145D01*
X106639883Y-54108677D01*
X105400000Y-54108677D01*
X105400000Y-49028677D01*
X106639883Y-49028677D01*
X106742429Y-49276857D01*
X106932144Y-49466903D01*
X107180145Y-49569883D01*
X107448677Y-49570117D01*
X107696857Y-49467571D01*
X107769555Y-49395000D01*
X108085000Y-49395000D01*
X108085000Y-49789344D01*
X107948571Y-49845715D01*
X107631828Y-50161907D01*
X107460196Y-50575242D01*
X107459805Y-51022795D01*
X107630715Y-51436429D01*
X107946907Y-51753172D01*
X108360242Y-51924804D01*
X108807795Y-51925195D01*
X109221429Y-51754285D01*
X109538172Y-51438093D01*
X109709804Y-51024758D01*
X109710195Y-50577205D01*
X109539285Y-50163571D01*
X109223093Y-49846828D01*
X109085000Y-49789487D01*
X109085000Y-49395000D01*
X118537894Y-49395000D01*
X118704972Y-49562078D01*
X118704883Y-49663677D01*
X118807429Y-49911857D01*
X118997144Y-50101903D01*
X119245145Y-50204883D01*
X119513677Y-50205117D01*
X119761857Y-50102571D01*
X119951903Y-49912856D01*
X120054883Y-49664855D01*
X120055117Y-49396323D01*
X119952571Y-49148143D01*
X119762856Y-48958097D01*
X119514855Y-48855117D01*
X119412134Y-48855027D01*
X119098553Y-48541447D01*
X118936342Y-48433060D01*
X118745000Y-48395000D01*
X107769634Y-48395000D01*
X107697856Y-48323097D01*
X107449855Y-48220117D01*
X107181323Y-48219883D01*
X106933143Y-48322429D01*
X106743097Y-48512144D01*
X106640117Y-48760145D01*
X106639883Y-49028677D01*
X105400000Y-49028677D01*
X105400000Y-43948677D01*
X106639883Y-43948677D01*
X106742429Y-44196857D01*
X106932144Y-44386903D01*
X107180145Y-44489883D01*
X107448677Y-44490117D01*
X107696857Y-44387571D01*
X107769555Y-44315000D01*
X108085000Y-44315000D01*
X108085000Y-44709344D01*
X107948571Y-44765715D01*
X107631828Y-45081907D01*
X107460196Y-45495242D01*
X107459805Y-45942795D01*
X107630715Y-46356429D01*
X107946907Y-46673172D01*
X108360242Y-46844804D01*
X108807795Y-46845195D01*
X109221429Y-46674285D01*
X109538172Y-46358093D01*
X109709804Y-45944758D01*
X109710195Y-45497205D01*
X109539285Y-45083571D01*
X109223093Y-44766828D01*
X109085000Y-44709487D01*
X109085000Y-44315000D01*
X118537894Y-44315000D01*
X118704972Y-44482078D01*
X118704883Y-44583677D01*
X118807429Y-44831857D01*
X118997144Y-45021903D01*
X119245145Y-45124883D01*
X119513677Y-45125117D01*
X119761857Y-45022571D01*
X119951903Y-44832856D01*
X120054883Y-44584855D01*
X120055117Y-44316323D01*
X119952571Y-44068143D01*
X119762856Y-43878097D01*
X119514855Y-43775117D01*
X119412134Y-43775027D01*
X119098553Y-43461447D01*
X118936342Y-43353060D01*
X118745000Y-43315000D01*
X107769634Y-43315000D01*
X107697856Y-43243097D01*
X107449855Y-43140117D01*
X107181323Y-43139883D01*
X106933143Y-43242429D01*
X106743097Y-43432144D01*
X106640117Y-43680145D01*
X106639883Y-43948677D01*
X105400000Y-43948677D01*
X105400000Y-38993884D01*
X105525207Y-38868677D01*
X106639883Y-38868677D01*
X106742429Y-39116857D01*
X106932144Y-39306903D01*
X107180145Y-39409883D01*
X107448677Y-39410117D01*
X107696857Y-39307571D01*
X107769555Y-39235000D01*
X108085000Y-39235000D01*
X108085000Y-39629344D01*
X107948571Y-39685715D01*
X107631828Y-40001907D01*
X107460196Y-40415242D01*
X107459805Y-40862795D01*
X107630715Y-41276429D01*
X107946907Y-41593172D01*
X108360242Y-41764804D01*
X108807795Y-41765195D01*
X109221429Y-41594285D01*
X109538172Y-41278093D01*
X109709804Y-40864758D01*
X109710195Y-40417205D01*
X109539285Y-40003571D01*
X109223093Y-39686828D01*
X109085000Y-39629487D01*
X109085000Y-39235000D01*
X118537894Y-39235000D01*
X118704972Y-39402078D01*
X118704883Y-39503677D01*
X118807429Y-39751857D01*
X118997144Y-39941903D01*
X119245145Y-40044883D01*
X119513677Y-40045117D01*
X119761857Y-39942571D01*
X119951903Y-39752856D01*
X120054883Y-39504855D01*
X120055117Y-39236323D01*
X119952571Y-38988143D01*
X119762856Y-38798097D01*
X119514855Y-38695117D01*
X119412134Y-38695027D01*
X119098553Y-38381447D01*
X118936342Y-38273060D01*
X118745000Y-38235000D01*
X107769634Y-38235000D01*
X107697856Y-38163097D01*
X107449855Y-38060117D01*
X107181323Y-38059883D01*
X106933143Y-38162429D01*
X106743097Y-38352144D01*
X106640117Y-38600145D01*
X106639883Y-38868677D01*
X105525207Y-38868677D01*
X106938884Y-37455000D01*
X130551116Y-37455000D01*
X131698776Y-38602660D01*
X131512075Y-38882079D01*
X131439886Y-39244998D01*
X131349619Y-39244998D01*
X131408682Y-39048046D01*
X131275009Y-38725305D01*
X130944562Y-38353424D01*
X130496956Y-38136307D01*
X130300000Y-38194881D01*
X130300000Y-39245000D01*
X130320000Y-39245000D01*
X130320000Y-39495000D01*
X130300000Y-39495000D01*
X130300000Y-40545119D01*
X130496956Y-40603693D01*
X130944562Y-40386576D01*
X131275009Y-40014695D01*
X131408682Y-39691954D01*
X131349619Y-39495002D01*
X131439886Y-39495002D01*
X131512075Y-39857921D01*
X131788460Y-40271561D01*
X132090000Y-40473043D01*
X132090000Y-40950993D01*
X132078571Y-40955715D01*
X131761828Y-41271907D01*
X131590196Y-41685242D01*
X131589805Y-42132795D01*
X131760715Y-42546429D01*
X132076907Y-42863172D01*
X132490242Y-43034804D01*
X132937795Y-43035195D01*
X133351429Y-42864285D01*
X133668172Y-42548093D01*
X133839804Y-42134758D01*
X133840195Y-41687205D01*
X133669285Y-41273571D01*
X133353093Y-40956828D01*
X133340000Y-40951391D01*
X133340000Y-40473043D01*
X133641540Y-40271561D01*
X133917925Y-39857921D01*
X133998042Y-39455148D01*
X135390000Y-40847107D01*
X135390000Y-46990000D01*
X135414223Y-47111777D01*
X135428060Y-47181342D01*
X135536447Y-47343553D01*
X136660000Y-48467107D01*
X136660000Y-49102230D01*
X136632221Y-49035000D01*
X136386295Y-48788644D01*
X136064812Y-48655152D01*
X135898891Y-48655008D01*
X135696942Y-48453058D01*
X135494177Y-48317575D01*
X135255000Y-48270000D01*
X128260000Y-48270000D01*
X128260000Y-40652346D01*
X128535000Y-40652346D01*
X128673966Y-40626198D01*
X128801599Y-40544069D01*
X128887223Y-40418754D01*
X128917346Y-40270000D01*
X128917346Y-39495002D01*
X129000381Y-39495002D01*
X128941318Y-39691954D01*
X129074991Y-40014695D01*
X129405438Y-40386576D01*
X129853044Y-40603693D01*
X130050000Y-40545119D01*
X130050000Y-39495000D01*
X130030000Y-39495000D01*
X130030000Y-39245000D01*
X130050000Y-39245000D01*
X130050000Y-38194881D01*
X129853044Y-38136307D01*
X129405438Y-38353424D01*
X129074991Y-38725305D01*
X128941318Y-39048046D01*
X129000381Y-39244998D01*
X128917346Y-39244998D01*
X128917346Y-38470000D01*
X128891198Y-38331034D01*
X128809069Y-38203401D01*
X128683754Y-38117777D01*
X128535000Y-38087654D01*
X126735000Y-38087654D01*
X126596034Y-38113802D01*
X126468401Y-38195931D01*
X126382777Y-38321246D01*
X126352654Y-38470000D01*
X126352654Y-40270000D01*
X126378802Y-40408966D01*
X126460931Y-40536599D01*
X126586246Y-40622223D01*
X126735000Y-40652346D01*
X127010000Y-40652346D01*
X127010000Y-49517654D01*
X126735000Y-49517654D01*
X126596034Y-49543802D01*
X126468401Y-49625931D01*
X126382777Y-49751246D01*
X126352654Y-49900000D01*
X126352654Y-51700000D01*
X126378802Y-51838966D01*
X126460931Y-51966599D01*
X126586246Y-52052223D01*
X126735000Y-52082346D01*
X128535000Y-52082346D01*
X128673966Y-52056198D01*
X128801599Y-51974069D01*
X128887223Y-51848754D01*
X128917346Y-51700000D01*
X128917346Y-50925002D01*
X129000381Y-50925002D01*
X128941318Y-51121954D01*
X129074991Y-51444695D01*
X129405438Y-51816576D01*
X129853044Y-52033693D01*
X130050000Y-51975119D01*
X130050000Y-50925000D01*
X130030000Y-50925000D01*
X130030000Y-50675000D01*
X130050000Y-50675000D01*
X130050000Y-49624881D01*
X130300000Y-49624881D01*
X130300000Y-50675000D01*
X130320000Y-50675000D01*
X130320000Y-50925000D01*
X130300000Y-50925000D01*
X130300000Y-51975119D01*
X130496956Y-52033693D01*
X130944562Y-51816576D01*
X131275009Y-51444695D01*
X131408682Y-51121954D01*
X131349619Y-50925002D01*
X131439886Y-50925002D01*
X131512075Y-51287921D01*
X131788460Y-51701561D01*
X132090000Y-51903043D01*
X132090000Y-52380993D01*
X132078571Y-52385715D01*
X131761828Y-52701907D01*
X131590196Y-53115242D01*
X131589805Y-53562795D01*
X131760715Y-53976429D01*
X132076907Y-54293172D01*
X132490242Y-54464804D01*
X132937795Y-54465195D01*
X133351429Y-54294285D01*
X133668172Y-53978093D01*
X133839804Y-53564758D01*
X133840195Y-53117205D01*
X133669285Y-52703571D01*
X133353093Y-52386828D01*
X133340000Y-52381391D01*
X133340000Y-51903043D01*
X133641540Y-51701561D01*
X133917925Y-51287921D01*
X134014979Y-50800000D01*
X133917925Y-50312079D01*
X133641540Y-49898439D01*
X133227900Y-49622054D01*
X132739979Y-49525000D01*
X132690021Y-49525000D01*
X132202100Y-49622054D01*
X131788460Y-49898439D01*
X131512075Y-50312079D01*
X131439886Y-50674998D01*
X131349619Y-50674998D01*
X131408682Y-50478046D01*
X131275009Y-50155305D01*
X130944562Y-49783424D01*
X130496956Y-49566307D01*
X130300000Y-49624881D01*
X130050000Y-49624881D01*
X129853044Y-49566307D01*
X129405438Y-49783424D01*
X129074991Y-50155305D01*
X128941318Y-50478046D01*
X129000381Y-50674998D01*
X128917346Y-50674998D01*
X128917346Y-49900000D01*
X128891198Y-49761034D01*
X128809069Y-49633401D01*
X128683754Y-49547777D01*
X128546585Y-49520000D01*
X134996116Y-49520000D01*
X135014992Y-49538876D01*
X135014849Y-49703285D01*
X135147779Y-50025000D01*
X135393705Y-50271356D01*
X135715188Y-50404848D01*
X136063285Y-50405151D01*
X136385000Y-50272221D01*
X136631356Y-50026295D01*
X136660000Y-49957313D01*
X136660000Y-60325000D01*
X136667980Y-60365117D01*
X136698060Y-60516342D01*
X136806447Y-60678553D01*
X140470000Y-64342107D01*
X140470000Y-74475366D01*
X140398097Y-74547144D01*
X140295117Y-74795145D01*
X140294883Y-75063677D01*
X140397429Y-75311857D01*
X140587144Y-75501903D01*
X140835145Y-75604883D01*
X141103677Y-75605117D01*
X141351857Y-75502571D01*
X141541903Y-75312856D01*
X141605028Y-75160835D01*
X141667429Y-75311857D01*
X141857144Y-75501903D01*
X142105145Y-75604883D01*
X142199965Y-75604966D01*
X142199883Y-75698677D01*
X142302429Y-75946857D01*
X142492144Y-76136903D01*
X142740145Y-76239883D01*
X142762990Y-76239903D01*
X138397922Y-80604972D01*
X138296323Y-80604883D01*
X138048143Y-80707429D01*
X137858097Y-80897144D01*
X137755117Y-81145145D01*
X137754883Y-81413677D01*
X137857429Y-81661857D01*
X138047144Y-81851903D01*
X138295145Y-81954883D01*
X138389965Y-81954966D01*
X138389883Y-82048677D01*
X138492429Y-82296857D01*
X138682144Y-82486903D01*
X138930145Y-82589883D01*
X139198677Y-82590117D01*
X139446857Y-82487571D01*
X139636903Y-82297856D01*
X139739883Y-82049855D01*
X139739973Y-81947134D01*
X145133554Y-76553553D01*
X145219612Y-76424758D01*
X145241940Y-76391342D01*
X145280000Y-76200000D01*
X145280000Y-75895392D01*
X147761385Y-75895392D01*
X147880291Y-76094550D01*
X148413627Y-76286716D01*
X148979905Y-76260155D01*
X149379709Y-76094550D01*
X149498615Y-75895392D01*
X148630000Y-75026777D01*
X147761385Y-75895392D01*
X145280000Y-75895392D01*
X145280000Y-74633627D01*
X147193284Y-74633627D01*
X147219845Y-75199905D01*
X147385450Y-75599709D01*
X147584608Y-75718615D01*
X148453223Y-74850000D01*
X148806777Y-74850000D01*
X149675392Y-75718615D01*
X149874550Y-75599709D01*
X150066716Y-75066373D01*
X150040155Y-74500095D01*
X149874550Y-74100291D01*
X149675392Y-73981385D01*
X148806777Y-74850000D01*
X148453223Y-74850000D01*
X147584608Y-73981385D01*
X147385450Y-74100291D01*
X147193284Y-74633627D01*
X145280000Y-74633627D01*
X145280000Y-73804608D01*
X147761385Y-73804608D01*
X148630000Y-74673223D01*
X149498615Y-73804608D01*
X149379709Y-73605450D01*
X148846373Y-73413284D01*
X148280095Y-73439845D01*
X147880291Y-73605450D01*
X147761385Y-73804608D01*
X145280000Y-73804608D01*
X145280000Y-57469488D01*
X145581213Y-57670751D01*
X146050000Y-57763999D01*
X146518787Y-57670751D01*
X146916206Y-57405205D01*
X147181752Y-57007786D01*
X147275000Y-56538999D01*
X147275000Y-56491001D01*
X147181752Y-56022214D01*
X146943071Y-55665000D01*
X147357654Y-55665000D01*
X147357654Y-57365000D01*
X147383802Y-57503966D01*
X147465931Y-57631599D01*
X147591246Y-57717223D01*
X147740000Y-57747346D01*
X149440000Y-57747346D01*
X149578966Y-57721198D01*
X149706599Y-57639069D01*
X149792223Y-57513754D01*
X149822346Y-57365000D01*
X149822346Y-55665000D01*
X149796198Y-55526034D01*
X149714069Y-55398401D01*
X149588754Y-55312777D01*
X149440000Y-55282654D01*
X147740000Y-55282654D01*
X147601034Y-55308802D01*
X147473401Y-55390931D01*
X147387777Y-55516246D01*
X147357654Y-55665000D01*
X146943071Y-55665000D01*
X146916206Y-55624795D01*
X146518787Y-55359249D01*
X146050000Y-55266001D01*
X145581213Y-55359249D01*
X145183794Y-55624795D01*
X144918248Y-56022214D01*
X144848119Y-56374774D01*
X144734484Y-56488409D01*
X144641752Y-56022214D01*
X144376206Y-55624795D01*
X143978787Y-55359249D01*
X143510000Y-55266001D01*
X143041213Y-55359249D01*
X142643794Y-55624795D01*
X142378248Y-56022214D01*
X142285000Y-56491001D01*
X142285000Y-56538999D01*
X142378248Y-57007786D01*
X142643794Y-57405205D01*
X143041213Y-57670751D01*
X143510000Y-57763999D01*
X143645000Y-57737146D01*
X143645000Y-61022893D01*
X140200000Y-57577894D01*
X140200000Y-57437875D01*
X140354843Y-57574355D01*
X140655907Y-57699049D01*
X140845000Y-57639323D01*
X140845000Y-56640000D01*
X141095000Y-56640000D01*
X141095000Y-57639323D01*
X141284093Y-57699049D01*
X141585157Y-57574355D01*
X141943729Y-57258306D01*
X142154059Y-56829095D01*
X142094867Y-56640000D01*
X141095000Y-56640000D01*
X140845000Y-56640000D01*
X140825000Y-56640000D01*
X140825000Y-56390000D01*
X140845000Y-56390000D01*
X140845000Y-55390677D01*
X141095000Y-55390677D01*
X141095000Y-56390000D01*
X142094867Y-56390000D01*
X142154059Y-56200905D01*
X141943729Y-55771694D01*
X141585157Y-55455645D01*
X141284093Y-55330951D01*
X141095000Y-55390677D01*
X140845000Y-55390677D01*
X140655907Y-55330951D01*
X140354843Y-55455645D01*
X140200000Y-55592125D01*
X140200000Y-52967206D01*
X149754754Y-52967206D01*
X149971240Y-53491143D01*
X150371749Y-53892351D01*
X150895307Y-54109752D01*
X151462206Y-54110246D01*
X151986143Y-53893760D01*
X152387351Y-53493251D01*
X152604752Y-52969693D01*
X152605246Y-52402794D01*
X152388760Y-51878857D01*
X152192796Y-51682550D01*
X152419783Y-51682550D01*
X152609684Y-52142143D01*
X152961007Y-52494081D01*
X153420269Y-52684783D01*
X153917550Y-52685217D01*
X154377143Y-52495316D01*
X154729081Y-52143993D01*
X154919783Y-51684731D01*
X154920217Y-51187450D01*
X154730316Y-50727857D01*
X154378993Y-50375919D01*
X153919731Y-50185217D01*
X153422450Y-50184783D01*
X152962857Y-50374684D01*
X152610919Y-50726007D01*
X152420217Y-51185269D01*
X152419783Y-51682550D01*
X152192796Y-51682550D01*
X151988251Y-51477649D01*
X151464693Y-51260248D01*
X150897794Y-51259754D01*
X150373857Y-51476240D01*
X149972649Y-51876749D01*
X149755248Y-52400307D01*
X149754754Y-52967206D01*
X140200000Y-52967206D01*
X140200000Y-47853605D01*
X152928171Y-47853605D01*
X153025614Y-48034585D01*
X153495458Y-48197480D01*
X153991874Y-48168174D01*
X154314386Y-48034585D01*
X154411829Y-47853605D01*
X153670000Y-47111777D01*
X152928171Y-47853605D01*
X140200000Y-47853605D01*
X140200000Y-45957206D01*
X149754754Y-45957206D01*
X149971240Y-46481143D01*
X150371749Y-46882351D01*
X150895307Y-47099752D01*
X151462206Y-47100246D01*
X151986143Y-46883760D01*
X152109660Y-46760458D01*
X152407520Y-46760458D01*
X152436826Y-47256874D01*
X152570415Y-47579386D01*
X152751395Y-47676829D01*
X153493223Y-46935000D01*
X153846777Y-46935000D01*
X154588605Y-47676829D01*
X154769585Y-47579386D01*
X154932480Y-47109542D01*
X154903174Y-46613126D01*
X154769585Y-46290614D01*
X154588605Y-46193171D01*
X153846777Y-46935000D01*
X153493223Y-46935000D01*
X152751395Y-46193171D01*
X152570415Y-46290614D01*
X152407520Y-46760458D01*
X152109660Y-46760458D01*
X152387351Y-46483251D01*
X152581207Y-46016395D01*
X152928171Y-46016395D01*
X153670000Y-46758223D01*
X154411829Y-46016395D01*
X154314386Y-45835415D01*
X153844542Y-45672520D01*
X153348126Y-45701826D01*
X153025614Y-45835415D01*
X152928171Y-46016395D01*
X152581207Y-46016395D01*
X152604752Y-45959693D01*
X152605246Y-45392794D01*
X152388760Y-44868857D01*
X151988251Y-44467649D01*
X151464693Y-44250248D01*
X150897794Y-44249754D01*
X150373857Y-44466240D01*
X149972649Y-44866749D01*
X149755248Y-45390307D01*
X149754754Y-45957206D01*
X140200000Y-45957206D01*
X140200000Y-42752106D01*
X141958554Y-40993553D01*
X141958556Y-40993550D01*
X142447107Y-40505000D01*
X143055366Y-40505000D01*
X143127144Y-40576903D01*
X143375145Y-40679883D01*
X143643677Y-40680117D01*
X143891857Y-40577571D01*
X144081903Y-40387856D01*
X144184883Y-40139855D01*
X144185117Y-39871323D01*
X144082571Y-39623143D01*
X144010000Y-39550445D01*
X144010000Y-39110656D01*
X144146429Y-39054285D01*
X144463172Y-38738093D01*
X144634804Y-38324758D01*
X144635000Y-38100000D01*
X149246001Y-38100000D01*
X149339249Y-38568787D01*
X149604795Y-38966206D01*
X149995000Y-39226932D01*
X149995000Y-39629344D01*
X149858571Y-39685715D01*
X149541828Y-40001907D01*
X149370196Y-40415242D01*
X149369805Y-40862795D01*
X149540715Y-41276429D01*
X149856907Y-41593172D01*
X150270242Y-41764804D01*
X150717795Y-41765195D01*
X151131429Y-41594285D01*
X151448172Y-41278093D01*
X151619804Y-40864758D01*
X151620195Y-40417205D01*
X151449285Y-40003571D01*
X151133093Y-39686828D01*
X150995000Y-39629487D01*
X150995000Y-39226932D01*
X151385205Y-38966206D01*
X151650751Y-38568787D01*
X151743999Y-38100000D01*
X151786001Y-38100000D01*
X151879249Y-38568787D01*
X152144795Y-38966206D01*
X152535000Y-39226932D01*
X152535000Y-39629344D01*
X152398571Y-39685715D01*
X152081828Y-40001907D01*
X151910196Y-40415242D01*
X151909805Y-40862795D01*
X152080715Y-41276429D01*
X152396907Y-41593172D01*
X152810242Y-41764804D01*
X153257795Y-41765195D01*
X153671429Y-41594285D01*
X153988172Y-41278093D01*
X154159804Y-40864758D01*
X154160195Y-40417205D01*
X153989285Y-40003571D01*
X153673093Y-39686828D01*
X153535000Y-39629487D01*
X153535000Y-39226932D01*
X153925205Y-38966206D01*
X154190751Y-38568787D01*
X154283999Y-38100000D01*
X154190751Y-37631213D01*
X153925205Y-37233794D01*
X153527786Y-36968248D01*
X153058999Y-36875000D01*
X153011001Y-36875000D01*
X152542214Y-36968248D01*
X152144795Y-37233794D01*
X151879249Y-37631213D01*
X151786001Y-38100000D01*
X151743999Y-38100000D01*
X151650751Y-37631213D01*
X151385205Y-37233794D01*
X150987786Y-36968248D01*
X150518999Y-36875000D01*
X150471001Y-36875000D01*
X150002214Y-36968248D01*
X149604795Y-37233794D01*
X149339249Y-37631213D01*
X149246001Y-38100000D01*
X144635000Y-38100000D01*
X144635195Y-37877205D01*
X144464285Y-37463571D01*
X144148093Y-37146828D01*
X143734758Y-36975196D01*
X143287205Y-36974805D01*
X142873571Y-37145715D01*
X142556828Y-37461907D01*
X142385196Y-37875242D01*
X142384805Y-38322795D01*
X142555715Y-38736429D01*
X142871907Y-39053172D01*
X143010000Y-39110513D01*
X143010000Y-39505000D01*
X142240000Y-39505000D01*
X142048658Y-39543060D01*
X141983686Y-39586474D01*
X141886447Y-39651446D01*
X141645098Y-39892795D01*
X141645117Y-39871323D01*
X141542571Y-39623143D01*
X141470000Y-39550445D01*
X141470000Y-39110656D01*
X141606429Y-39054285D01*
X141923172Y-38738093D01*
X142094804Y-38324758D01*
X142095195Y-37877205D01*
X141924285Y-37463571D01*
X141608093Y-37146828D01*
X141194758Y-36975196D01*
X140747205Y-36974805D01*
X140333571Y-37145715D01*
X140016828Y-37461907D01*
X139845196Y-37875242D01*
X139844805Y-38322795D01*
X140015715Y-38736429D01*
X140331907Y-39053172D01*
X140470000Y-39110513D01*
X140470000Y-39550366D01*
X140398097Y-39622144D01*
X140295117Y-39870145D01*
X140295027Y-39972866D01*
X138711448Y-41556446D01*
X138711447Y-41556447D01*
X138603060Y-41718658D01*
X138565000Y-41910000D01*
X138565000Y-44898965D01*
X138433093Y-44766828D01*
X138019758Y-44595196D01*
X137970864Y-44595153D01*
X138113172Y-44453093D01*
X138284804Y-44039758D01*
X138285195Y-43592205D01*
X138114285Y-43178571D01*
X137798093Y-42861828D01*
X137384758Y-42690196D01*
X136937205Y-42689805D01*
X136523571Y-42860715D01*
X136390000Y-42994054D01*
X136390000Y-40640000D01*
X136351940Y-40448658D01*
X136329612Y-40415242D01*
X136243553Y-40286446D01*
X131798553Y-35841447D01*
X131636342Y-35733060D01*
X131445000Y-35695000D01*
X130996035Y-35695000D01*
X131128172Y-35563093D01*
X131129456Y-35560000D01*
X149246001Y-35560000D01*
X149339249Y-36028787D01*
X149604795Y-36426206D01*
X150002214Y-36691752D01*
X150471001Y-36785000D01*
X150518999Y-36785000D01*
X150987786Y-36691752D01*
X151385205Y-36426206D01*
X151650751Y-36028787D01*
X151743999Y-35560000D01*
X151786001Y-35560000D01*
X151879249Y-36028787D01*
X152144795Y-36426206D01*
X152542214Y-36691752D01*
X153011001Y-36785000D01*
X153058999Y-36785000D01*
X153527786Y-36691752D01*
X153925205Y-36426206D01*
X154190751Y-36028787D01*
X154283999Y-35560000D01*
X154190751Y-35091213D01*
X153925205Y-34693794D01*
X153527786Y-34428248D01*
X153058999Y-34335000D01*
X153011001Y-34335000D01*
X152542214Y-34428248D01*
X152144795Y-34693794D01*
X151879249Y-35091213D01*
X151786001Y-35560000D01*
X151743999Y-35560000D01*
X151650751Y-35091213D01*
X151385205Y-34693794D01*
X150987786Y-34428248D01*
X150518999Y-34335000D01*
X150471001Y-34335000D01*
X150002214Y-34428248D01*
X149604795Y-34693794D01*
X149339249Y-35091213D01*
X149246001Y-35560000D01*
X131129456Y-35560000D01*
X131299804Y-35149758D01*
X131300195Y-34702205D01*
X131129285Y-34288571D01*
X130813093Y-33971828D01*
X130399758Y-33800196D01*
X129952205Y-33799805D01*
X129538571Y-33970715D01*
X129221828Y-34286907D01*
X129050196Y-34700242D01*
X129049805Y-35147795D01*
X129220715Y-35561429D01*
X129354054Y-35695000D01*
X112602107Y-35695000D01*
X111752224Y-34845117D01*
X113921659Y-34845117D01*
X114065039Y-35065061D01*
X114670868Y-35290646D01*
X115316908Y-35267219D01*
X115804961Y-35065061D01*
X115948341Y-34845117D01*
X114935000Y-33831777D01*
X113921659Y-34845117D01*
X111752224Y-34845117D01*
X111625000Y-34717894D01*
X111625000Y-33390868D01*
X113299354Y-33390868D01*
X113322781Y-34036908D01*
X113524939Y-34524961D01*
X113744883Y-34668341D01*
X114758223Y-33655000D01*
X115111777Y-33655000D01*
X116125117Y-34668341D01*
X116345061Y-34524961D01*
X116549167Y-33976814D01*
X118389718Y-33976814D01*
X118636588Y-34574286D01*
X119093309Y-35031805D01*
X119690349Y-35279718D01*
X120336814Y-35280282D01*
X120934286Y-35033412D01*
X121391805Y-34576691D01*
X121639718Y-33979651D01*
X121640282Y-33333186D01*
X121510877Y-33020000D01*
X149246001Y-33020000D01*
X149339249Y-33488787D01*
X149604795Y-33886206D01*
X150002214Y-34151752D01*
X150471001Y-34245000D01*
X150518999Y-34245000D01*
X150987786Y-34151752D01*
X151385205Y-33886206D01*
X151650751Y-33488787D01*
X151700486Y-33238750D01*
X151810000Y-33238750D01*
X151810000Y-33944592D01*
X151867090Y-34082421D01*
X151972580Y-34187910D01*
X152110408Y-34245000D01*
X152816250Y-34245000D01*
X152910000Y-34151250D01*
X152910000Y-33145000D01*
X153160000Y-33145000D01*
X153160000Y-34151250D01*
X153253750Y-34245000D01*
X153959592Y-34245000D01*
X154097420Y-34187910D01*
X154202910Y-34082421D01*
X154260000Y-33944592D01*
X154260000Y-33238750D01*
X154166250Y-33145000D01*
X153160000Y-33145000D01*
X152910000Y-33145000D01*
X151903750Y-33145000D01*
X151810000Y-33238750D01*
X151700486Y-33238750D01*
X151743999Y-33020000D01*
X151650751Y-32551213D01*
X151385205Y-32153794D01*
X151297824Y-32095408D01*
X151810000Y-32095408D01*
X151810000Y-32801250D01*
X151903750Y-32895000D01*
X152910000Y-32895000D01*
X152910000Y-31888750D01*
X153160000Y-31888750D01*
X153160000Y-32895000D01*
X154166250Y-32895000D01*
X154260000Y-32801250D01*
X154260000Y-32095408D01*
X154202910Y-31957579D01*
X154097420Y-31852090D01*
X153959592Y-31795000D01*
X153253750Y-31795000D01*
X153160000Y-31888750D01*
X152910000Y-31888750D01*
X152816250Y-31795000D01*
X152110408Y-31795000D01*
X151972580Y-31852090D01*
X151867090Y-31957579D01*
X151810000Y-32095408D01*
X151297824Y-32095408D01*
X150987786Y-31888248D01*
X150518999Y-31795000D01*
X150471001Y-31795000D01*
X150002214Y-31888248D01*
X149604795Y-32153794D01*
X149339249Y-32551213D01*
X149246001Y-33020000D01*
X121510877Y-33020000D01*
X121393412Y-32735714D01*
X120936691Y-32278195D01*
X120640000Y-32154998D01*
X120640000Y-31439007D01*
X120651429Y-31434285D01*
X120968172Y-31118093D01*
X121139804Y-30704758D01*
X121140195Y-30257205D01*
X120969285Y-29843571D01*
X120653093Y-29526828D01*
X120239758Y-29355196D01*
X119792205Y-29354805D01*
X119378571Y-29525715D01*
X119061828Y-29841907D01*
X118890196Y-30255242D01*
X118889805Y-30702795D01*
X119060715Y-31116429D01*
X119376907Y-31433172D01*
X119390000Y-31438609D01*
X119390000Y-32154992D01*
X119095714Y-32276588D01*
X118638195Y-32733309D01*
X118390282Y-33330349D01*
X118389718Y-33976814D01*
X116549167Y-33976814D01*
X116570646Y-33919132D01*
X116547219Y-33273092D01*
X116345061Y-32785039D01*
X116125117Y-32641659D01*
X115111777Y-33655000D01*
X114758223Y-33655000D01*
X113744883Y-32641659D01*
X113524939Y-32785039D01*
X113299354Y-33390868D01*
X111625000Y-33390868D01*
X111625000Y-32464883D01*
X113921659Y-32464883D01*
X114935000Y-33478223D01*
X115948341Y-32464883D01*
X115804961Y-32244939D01*
X115199132Y-32019354D01*
X114553092Y-32042781D01*
X114065039Y-32244939D01*
X113921659Y-32464883D01*
X111625000Y-32464883D01*
X111625000Y-31307913D01*
X114283864Y-31307913D01*
X114365929Y-31475922D01*
X114790370Y-31617886D01*
X115236829Y-31586617D01*
X115504071Y-31475922D01*
X115586136Y-31307913D01*
X114935000Y-30656777D01*
X114283864Y-31307913D01*
X111625000Y-31307913D01*
X111625000Y-30335370D01*
X113797114Y-30335370D01*
X113828383Y-30781829D01*
X113939078Y-31049071D01*
X114107087Y-31131136D01*
X114758223Y-30480000D01*
X115111777Y-30480000D01*
X115762913Y-31131136D01*
X115930922Y-31049071D01*
X116072886Y-30624630D01*
X116041617Y-30178171D01*
X115930922Y-29910929D01*
X115762913Y-29828864D01*
X115111777Y-30480000D01*
X114758223Y-30480000D01*
X114107087Y-29828864D01*
X113939078Y-29910929D01*
X113797114Y-30335370D01*
X111625000Y-30335370D01*
X111625000Y-30299634D01*
X111696903Y-30227856D01*
X111799883Y-29979855D01*
X111800117Y-29711323D01*
X111775642Y-29652087D01*
X114283864Y-29652087D01*
X114935000Y-30303223D01*
X115586136Y-29652087D01*
X115504071Y-29484078D01*
X115079630Y-29342114D01*
X114633171Y-29373383D01*
X114365929Y-29484078D01*
X114283864Y-29652087D01*
X111775642Y-29652087D01*
X111697571Y-29463143D01*
X111507856Y-29273097D01*
X111259855Y-29170117D01*
X110991323Y-29169883D01*
X110743143Y-29272429D01*
X110553097Y-29462144D01*
X110450117Y-29710145D01*
X110449883Y-29978677D01*
X110552429Y-30226857D01*
X110625000Y-30299555D01*
X110625000Y-34925000D01*
X110652860Y-35065061D01*
X110663060Y-35116342D01*
X110771447Y-35278553D01*
X111697893Y-36205000D01*
X106680000Y-36205000D01*
X106440823Y-36252575D01*
X106238058Y-36388058D01*
X104333058Y-38293058D01*
X104197575Y-38495823D01*
X104150000Y-38735000D01*
X101117760Y-38735000D01*
X100624683Y-38530257D01*
X100037892Y-38529744D01*
X99495571Y-38753827D01*
X99080285Y-39168389D01*
X98992417Y-39380000D01*
X98114007Y-39380000D01*
X98109285Y-39368571D01*
X97793093Y-39051828D01*
X97379758Y-38880196D01*
X96932205Y-38879805D01*
X96518571Y-39050715D01*
X96201828Y-39366907D01*
X96030196Y-39780242D01*
X96029805Y-40227795D01*
X92425000Y-40227795D01*
X92425000Y-35147795D01*
X96029805Y-35147795D01*
X96200715Y-35561429D01*
X96516907Y-35878172D01*
X96930242Y-36049804D01*
X97377795Y-36050195D01*
X97791429Y-35879285D01*
X98108172Y-35563093D01*
X98113609Y-35550000D01*
X98992292Y-35550000D01*
X99078827Y-35759429D01*
X99493389Y-36174715D01*
X100035317Y-36399743D01*
X100622108Y-36400256D01*
X101164429Y-36176173D01*
X101579715Y-35761611D01*
X101804743Y-35219683D01*
X101805256Y-34632892D01*
X101581173Y-34090571D01*
X101166611Y-33675285D01*
X100624683Y-33450257D01*
X100037892Y-33449744D01*
X99495571Y-33673827D01*
X99080285Y-34088389D01*
X98992417Y-34300000D01*
X98114007Y-34300000D01*
X98109285Y-34288571D01*
X97793093Y-33971828D01*
X97379758Y-33800196D01*
X96932205Y-33799805D01*
X96518571Y-33970715D01*
X96201828Y-34286907D01*
X96030196Y-34700242D01*
X96029805Y-35147795D01*
X92425000Y-35147795D01*
X92425000Y-31337795D01*
X102379805Y-31337795D01*
X102550715Y-31751429D01*
X102866907Y-32068172D01*
X103280242Y-32239804D01*
X103727795Y-32240195D01*
X104141429Y-32069285D01*
X104458172Y-31753093D01*
X104515513Y-31615000D01*
X104955366Y-31615000D01*
X105027144Y-31686903D01*
X105275145Y-31789883D01*
X105543677Y-31790117D01*
X105791857Y-31687571D01*
X105981903Y-31497856D01*
X106084883Y-31249855D01*
X106085117Y-30981323D01*
X105982571Y-30733143D01*
X105792856Y-30543097D01*
X105544855Y-30440117D01*
X105276323Y-30439883D01*
X105028143Y-30542429D01*
X104955445Y-30615000D01*
X104515656Y-30615000D01*
X104459285Y-30478571D01*
X104143093Y-30161828D01*
X103729758Y-29990196D01*
X103282205Y-29989805D01*
X102868571Y-30160715D01*
X102551828Y-30476907D01*
X102380196Y-30890242D01*
X102379805Y-31337795D01*
X92425000Y-31337795D01*
X92425000Y-26041860D01*
X92857065Y-23869725D01*
X94063767Y-22063767D01*
X95869725Y-20857065D01*
X98041860Y-20425000D01*
X155958140Y-20425000D01*
X158130275Y-20857065D01*
M02*
