M48
;DRILL file {KiCad 4.0.7} date Tue Jan 30 12:06:57 2018
;FORMAT={-:-/ absolute / metric / decimal}
FMAT,2
METRIC,TZ
T1C0.400
T2C0.700
T3C0.990
T4C1.000
T5C1.300
T6C1.500
T7C2.300
T8C4.300
%
G90
G05
M71
T1
X105.41Y-31.115
X106.68Y-86.36
X107.315Y-38.735
X107.315Y-43.815
X107.315Y-48.895
X107.315Y-53.975
X107.315Y-59.055
X107.315Y-64.135
X107.315Y-69.215
X107.315Y-74.295
X111.125Y-29.845
X112.395Y-85.725
X113.665Y-104.775
X118.745Y-94.615
X119.38Y-39.37
X119.38Y-44.45
X119.38Y-49.53
X119.38Y-54.61
X119.38Y-59.69
X119.38Y-64.77
X119.38Y-69.85
X119.38Y-74.93
X120.015Y-38.1
X120.65Y-82.55
X120.65Y-85.09
X120.65Y-87.63
X121.92Y-38.1
X123.825Y-41.91
X123.825Y-46.99
X123.825Y-52.07
X124.46Y-74.295
X124.46Y-75.565
X125.095Y-59.69
X125.095Y-71.755
X127.Y-76.2
X127.Y-80.01
X127.Y-81.28
X127.Y-82.55
X130.175Y-79.375
X131.445Y-74.295
X133.985Y-74.93
X135.255Y-74.93
X136.525Y-74.93
X137.16Y-74.295
X137.16Y-93.98
X137.795Y-47.625
X138.43Y-46.99
X138.43Y-64.77
X138.43Y-81.28
X139.065Y-81.915
X140.97Y-40.005
X140.97Y-74.93
X141.605Y-74.295
X141.605Y-100.33
X142.24Y-71.12
X142.24Y-74.93
X142.875Y-75.565
X143.51Y-40.005
T2
X106.045Y-101.6
X106.68Y-82.55
X115.61Y-90.13
X123.825Y-77.47
X125.73Y-86.995
X135.89Y-49.53
X137.16Y-90.805
X146.05Y-92.075
T3
X153.67Y-46.935
X153.67Y-51.435
T4
X100.33Y-85.725
X100.33Y-88.265
X100.33Y-90.805
X102.87Y-85.725
X102.87Y-88.265
X102.87Y-90.805
X127.635Y-39.37
X127.635Y-50.8
X130.175Y-39.37
X130.175Y-50.8
X130.175Y-62.23
X130.175Y-64.77
X130.175Y-67.31
X131.25Y-96.4
X131.25Y-99.6
X132.715Y-39.37
X132.715Y-50.8
X132.715Y-62.23
X132.715Y-64.77
X132.715Y-67.31
X133.75Y-96.4
X133.75Y-99.6
X140.97Y-56.515
X143.51Y-56.515
X146.05Y-56.515
X148.59Y-56.515
X149.86Y-82.55
X149.86Y-85.09
X149.86Y-87.63
X149.86Y-90.17
X149.86Y-92.71
X149.86Y-95.25
X149.86Y-97.79
X149.86Y-100.33
X150.495Y-33.02
X150.495Y-35.56
X150.495Y-38.1
X152.4Y-82.55
X152.4Y-85.09
X152.4Y-87.63
X152.4Y-90.17
X152.4Y-92.71
X152.4Y-95.25
X152.4Y-97.79
X152.4Y-100.33
X153.035Y-33.02
X153.035Y-35.56
X153.035Y-38.1
T5
X100.33Y-34.925
X100.33Y-40.005
X100.33Y-45.085
X100.33Y-50.165
X100.33Y-55.245
X100.33Y-60.325
X100.33Y-65.405
X100.33Y-70.485
X100.33Y-75.565
X116.245Y-94.695
X118.745Y-104.695
X121.245Y-94.695
X148.63Y-74.85
X151.13Y-64.85
X151.18Y-45.675
X151.18Y-52.685
X153.63Y-74.85
T6
X114.935Y-33.655
X120.015Y-33.655
T7
X126.48Y-99.1
X138.52Y-99.1
T8
X98.Y-26.
X98.Y-102.
X156.Y-59.
T0
M30
