G04 #@! TF.FileFunction,Soldermask,Bot*
%FSLAX46Y46*%
G04 Gerber Fmt 4.6, Leading zero omitted, Abs format (unit mm)*
G04 Created by KiCad (PCBNEW 4.0.7) date Tue Jan 30 12:06:56 2018*
%MOMM*%
%LPD*%
G01*
G04 APERTURE LIST*
%ADD10C,0.100000*%
%ADD11R,1.700000X1.700000*%
%ADD12O,1.700000X1.700000*%
%ADD13R,0.650000X1.560000*%
%ADD14R,1.500000X0.550000*%
%ADD15R,0.550000X1.500000*%
%ADD16R,1.250000X1.500000*%
%ADD17R,1.500000X1.250000*%
%ADD18R,1.600000X2.000000*%
%ADD19R,2.000000X1.600000*%
%ADD20R,1.900000X0.800000*%
%ADD21R,0.800000X1.900000*%
%ADD22R,1.300000X1.500000*%
%ADD23R,1.500000X1.300000*%
%ADD24R,2.500000X2.000000*%
%ADD25C,2.100000*%
%ADD26C,1.750000*%
%ADD27R,1.560000X0.650000*%
%ADD28R,1.800000X1.800000*%
%ADD29O,1.800000X1.800000*%
%ADD30C,8.600000*%
%ADD31C,2.500000*%
%ADD32C,2.200000*%
%ADD33C,3.500000*%
%ADD34C,1.600000*%
G04 APERTURE END LIST*
D10*
D11*
X152400000Y-82550000D03*
D12*
X149860000Y-82550000D03*
X152400000Y-85090000D03*
X149860000Y-85090000D03*
X152400000Y-87630000D03*
X149860000Y-87630000D03*
X152400000Y-90170000D03*
X149860000Y-90170000D03*
X152400000Y-92710000D03*
X149860000Y-92710000D03*
X152400000Y-95250000D03*
X149860000Y-95250000D03*
X152400000Y-97790000D03*
X149860000Y-97790000D03*
X152400000Y-100330000D03*
X149860000Y-100330000D03*
D13*
X129220000Y-94060000D03*
X128270000Y-94060000D03*
X127320000Y-94060000D03*
X127320000Y-91360000D03*
X129220000Y-91360000D03*
X128270000Y-91360000D03*
D14*
X144225000Y-74645000D03*
X144225000Y-75445000D03*
X144225000Y-76245000D03*
X144225000Y-77045000D03*
X144225000Y-77845000D03*
X144225000Y-78645000D03*
X144225000Y-79445000D03*
X144225000Y-80245000D03*
X144225000Y-81045000D03*
X144225000Y-81845000D03*
X144225000Y-82645000D03*
X144225000Y-83445000D03*
X144225000Y-84245000D03*
X144225000Y-85045000D03*
X144225000Y-85845000D03*
X144225000Y-86645000D03*
D15*
X142525000Y-88345000D03*
X141725000Y-88345000D03*
X140925000Y-88345000D03*
X140125000Y-88345000D03*
X139325000Y-88345000D03*
X138525000Y-88345000D03*
X137725000Y-88345000D03*
X136925000Y-88345000D03*
X136125000Y-88345000D03*
X135325000Y-88345000D03*
X134525000Y-88345000D03*
X133725000Y-88345000D03*
X132925000Y-88345000D03*
X132125000Y-88345000D03*
X131325000Y-88345000D03*
X130525000Y-88345000D03*
D14*
X128825000Y-86645000D03*
X128825000Y-85845000D03*
X128825000Y-85045000D03*
X128825000Y-84245000D03*
X128825000Y-83445000D03*
X128825000Y-82645000D03*
X128825000Y-81845000D03*
X128825000Y-81045000D03*
X128825000Y-80245000D03*
X128825000Y-79445000D03*
X128825000Y-78645000D03*
X128825000Y-77845000D03*
X128825000Y-77045000D03*
X128825000Y-76245000D03*
X128825000Y-75445000D03*
X128825000Y-74645000D03*
D15*
X130525000Y-72945000D03*
X131325000Y-72945000D03*
X132125000Y-72945000D03*
X132925000Y-72945000D03*
X133725000Y-72945000D03*
X134525000Y-72945000D03*
X135325000Y-72945000D03*
X136125000Y-72945000D03*
X136925000Y-72945000D03*
X137725000Y-72945000D03*
X138525000Y-72945000D03*
X139325000Y-72945000D03*
X140125000Y-72945000D03*
X140925000Y-72945000D03*
X141725000Y-72945000D03*
X142525000Y-72945000D03*
D16*
X144145000Y-91460000D03*
X144145000Y-93960000D03*
X139065000Y-91460000D03*
X139065000Y-93960000D03*
X125730000Y-85070000D03*
X125730000Y-82570000D03*
X125730000Y-76855000D03*
X125730000Y-79355000D03*
D17*
X134005000Y-70485000D03*
X136505000Y-70485000D03*
X140990000Y-70485000D03*
X143490000Y-70485000D03*
X114320000Y-88900000D03*
X116820000Y-88900000D03*
D16*
X135255000Y-91460000D03*
X135255000Y-93960000D03*
D18*
X144145000Y-104235000D03*
X144145000Y-100235000D03*
D19*
X128175000Y-55245000D03*
X132175000Y-55245000D03*
X128175000Y-43815000D03*
X132175000Y-43815000D03*
D17*
X120035000Y-81280000D03*
X122535000Y-81280000D03*
X120035000Y-83820000D03*
X122535000Y-83820000D03*
D16*
X144780000Y-43200000D03*
X144780000Y-45700000D03*
X142240000Y-43200000D03*
X142240000Y-45700000D03*
D11*
X100330000Y-90805000D03*
D12*
X102870000Y-90805000D03*
X100330000Y-88265000D03*
X102870000Y-88265000D03*
X100330000Y-85725000D03*
X102870000Y-85725000D03*
D11*
X153035000Y-33020000D03*
D12*
X150495000Y-33020000D03*
X153035000Y-35560000D03*
X150495000Y-35560000D03*
X153035000Y-38100000D03*
X150495000Y-38100000D03*
D11*
X130175000Y-67310000D03*
D12*
X132715000Y-67310000D03*
X130175000Y-64770000D03*
X132715000Y-64770000D03*
X130175000Y-62230000D03*
X132715000Y-62230000D03*
D11*
X148590000Y-56515000D03*
D12*
X146050000Y-56515000D03*
X143510000Y-56515000D03*
X140970000Y-56515000D03*
D20*
X110085000Y-74615000D03*
X110085000Y-76515000D03*
X107085000Y-75565000D03*
X110085000Y-69535000D03*
X110085000Y-71435000D03*
X107085000Y-70485000D03*
X110085000Y-64455000D03*
X110085000Y-66355000D03*
X107085000Y-65405000D03*
X110085000Y-59375000D03*
X110085000Y-61275000D03*
X107085000Y-60325000D03*
X110085000Y-54295000D03*
X110085000Y-56195000D03*
X107085000Y-55245000D03*
X110085000Y-49215000D03*
X110085000Y-51115000D03*
X107085000Y-50165000D03*
X110085000Y-44135000D03*
X110085000Y-46035000D03*
X107085000Y-45085000D03*
X110085000Y-39055000D03*
X110085000Y-40955000D03*
X107085000Y-40005000D03*
X110085000Y-33975000D03*
X110085000Y-35875000D03*
X107085000Y-34925000D03*
D21*
X108900000Y-105005000D03*
X107000000Y-105005000D03*
X107950000Y-102005000D03*
D22*
X132080000Y-94060000D03*
X132080000Y-91360000D03*
D23*
X132635000Y-102235000D03*
X135335000Y-102235000D03*
X141050000Y-102235000D03*
X138350000Y-102235000D03*
D22*
X147320000Y-47545000D03*
X147320000Y-50245000D03*
D23*
X114220000Y-91440000D03*
X116920000Y-91440000D03*
X108505000Y-91440000D03*
X111205000Y-91440000D03*
X122635000Y-91440000D03*
X119935000Y-91440000D03*
X122635000Y-78740000D03*
X119935000Y-78740000D03*
X122635000Y-73660000D03*
X119935000Y-73660000D03*
X122635000Y-68580000D03*
X119935000Y-68580000D03*
X122635000Y-63500000D03*
X119935000Y-63500000D03*
X122635000Y-58420000D03*
X119935000Y-58420000D03*
X122635000Y-53340000D03*
X119935000Y-53340000D03*
X122635000Y-48260000D03*
X119935000Y-48260000D03*
X122635000Y-43180000D03*
X119935000Y-43180000D03*
X109935000Y-28575000D03*
X107235000Y-28575000D03*
D22*
X111760000Y-97870000D03*
X111760000Y-95170000D03*
D23*
X119935000Y-76200000D03*
X122635000Y-76200000D03*
X119935000Y-71120000D03*
X122635000Y-71120000D03*
X119935000Y-66040000D03*
X122635000Y-66040000D03*
X119935000Y-60960000D03*
X122635000Y-60960000D03*
X119935000Y-55880000D03*
X122635000Y-55880000D03*
X119935000Y-50800000D03*
X122635000Y-50800000D03*
X119935000Y-45720000D03*
X122635000Y-45720000D03*
X119935000Y-40640000D03*
X122635000Y-40640000D03*
X107235000Y-31115000D03*
X109935000Y-31115000D03*
D22*
X111760000Y-102155000D03*
X111760000Y-104855000D03*
D23*
X116920000Y-86360000D03*
X114220000Y-86360000D03*
X119935000Y-86360000D03*
X122635000Y-86360000D03*
D24*
X108585000Y-98520000D03*
X108585000Y-94520000D03*
D23*
X108505000Y-81280000D03*
X111205000Y-81280000D03*
X108505000Y-83820000D03*
X111205000Y-83820000D03*
X116920000Y-81280000D03*
X114220000Y-81280000D03*
X116920000Y-83820000D03*
X114220000Y-83820000D03*
X144225000Y-34290000D03*
X141525000Y-34290000D03*
D22*
X142240000Y-40085000D03*
X142240000Y-37385000D03*
X144780000Y-40085000D03*
X144780000Y-37385000D03*
X139700000Y-40085000D03*
X139700000Y-37385000D03*
X137160000Y-40085000D03*
X137160000Y-37385000D03*
X139700000Y-45800000D03*
X139700000Y-43100000D03*
X137160000Y-45800000D03*
X137160000Y-43100000D03*
D23*
X141525000Y-48895000D03*
X144225000Y-48895000D03*
D25*
X151180000Y-45675000D03*
D26*
X153670000Y-46935000D03*
X153670000Y-51435000D03*
D25*
X151180000Y-52685000D03*
D27*
X108505000Y-88580000D03*
X108505000Y-87630000D03*
X108505000Y-86680000D03*
X111205000Y-86680000D03*
X111205000Y-88580000D03*
D28*
X127635000Y-50800000D03*
D29*
X130175000Y-50800000D03*
X132715000Y-50800000D03*
D28*
X127635000Y-39370000D03*
D29*
X130175000Y-39370000D03*
X132715000Y-39370000D03*
D30*
X98000000Y-26000000D03*
X156000000Y-59000000D03*
X98000000Y-102000000D03*
D31*
X120015000Y-33655000D03*
X114935000Y-33655000D03*
D32*
X100330000Y-34925000D03*
X100330000Y-40005000D03*
X100330000Y-45085000D03*
X100330000Y-50165000D03*
X100330000Y-55245000D03*
X100330000Y-60325000D03*
X100330000Y-65405000D03*
X100330000Y-70485000D03*
X100330000Y-75565000D03*
D25*
X153630000Y-74850000D03*
X151130000Y-64850000D03*
X148630000Y-74850000D03*
X116245000Y-94695000D03*
X118745000Y-104695000D03*
X121245000Y-94695000D03*
D33*
X138520000Y-99100000D03*
D34*
X133750000Y-99600000D03*
X131250000Y-99600000D03*
X131250000Y-96400000D03*
X133750000Y-96400000D03*
D33*
X126480000Y-99100000D03*
M02*
